<?xml version="1.0" encoding="UTF-8" standalone="no"?>
<!-- Created with Inkscape (http://www.inkscape.org/) -->

<svg
   xmlns:dc="http://purl.org/dc/elements/1.1/"
   xmlns:cc="http://creativecommons.org/ns#"
   xmlns:rdf="http://www.w3.org/1999/02/22-rdf-syntax-ns#"
   xmlns:svg="http://www.w3.org/2000/svg"
   xmlns="http://www.w3.org/2000/svg"
   xmlns:sodipodi="http://sodipodi.sourceforge.net/DTD/sodipodi-0.dtd"
   xmlns:inkscape="http://www.inkscape.org/namespaces/inkscape"
   width="210mm"
   height="297mm"
   viewBox="0 0 744.09448819 1052.3622047"
   id="svg2"
   version="1.1"
   inkscape:version="0.91 r13725"
   sodipodi:docname="beast.svg">
  <defs
     id="defs4">
    <clipPath
       id="clipPath4171"
       clipPathUnits="userSpaceOnUse">
      <path
         inkscape:connector-curvature="0"
         id="path4173"
         d="m 0,0 2.3461,0 0,1 L 0,1 0,0 Z" />
    </clipPath>
  </defs>
  <sodipodi:namedview
     id="base"
     pagecolor="#ffffff"
     bordercolor="#666666"
     borderopacity="1.0"
     inkscape:pageopacity="0.0"
     inkscape:pageshadow="2"
     inkscape:zoom="0.7"
     inkscape:cx="247.23268"
     inkscape:cy="467.93082"
     inkscape:document-units="px"
     inkscape:current-layer="layer1"
     showgrid="false"
     inkscape:window-width="2048"
     inkscape:window-height="1100"
     inkscape:window-x="0"
     inkscape:window-y="24"
     inkscape:window-maximized="1" />
  <metadata
     id="metadata7">
    <rdf:RDF>
      <cc:Work
         rdf:about="">
        <dc:format>image/svg+xml</dc:format>
        <dc:type
           rdf:resource="http://purl.org/dc/dcmitype/StillImage" />
        <dc:title></dc:title>
      </cc:Work>
    </rdf:RDF>
  </metadata>
  <g
     inkscape:label="beast"
     inkscape:groupmode="layer"
     id="layer1">
    <g
       id="g4468"
       transform="matrix(0,-0.14166849,0.14166849,0,404.46971,56.392526)"
       style="stroke-width:35.29366302;stroke-miterlimit:4;stroke-dasharray:none">
      <path
         inkscape:connector-curvature="0"
         id="path4179"
         style="fill:#ffffff;fill-opacity:1;fill-rule:nonzero;stroke:#000000;stroke-width:35.29366302;stroke-linecap:round;stroke-linejoin:round;stroke-miterlimit:4;stroke-dasharray:none;stroke-opacity:1"
         d="m -6872.4559,-2781.9563 14.9995,0 15.0002,0 16.2495,0 15.0002,1.2506 14.9996,0 14.9995,0 15.0002,1.25 16.2495,0 15.0002,0 14.9996,1.2499 15.0002,0 14.9995,1.25 14.9996,1.25 15.0001,0 16.2496,1.2499 15.0001,1.25 14.9996,1.2499 14.9995,1.25 15.0002,1.25 14.9996,2.4999 15.0002,1.25 14.9995,1.2499 14.9996,2.4999 15.0002,2.5 21.2493,2.4999 21.25,3.7499 21.25,3.7499 19.9994,3.7499 21.25,5.0004 21.2494,4.9999 20,4.9998 21.2494,4.9999 20,4.9998 21.25,6.2499 19.9994,6.2498 20.0001,6.2504 21.2493,6.2498 20.0001,6.2498 19.9994,7.4998 20,6.2498 19.9994,7.5004 21.25,7.4998 20,7.4998 18.7495,7.4998 20,8.7497 19.9994,7.5004 20.0001,8.7498 19.9994,8.7497 48.7498,22.5 49.9991,23.7493 48.7492,23.7499 47.4999,24.9999 48.7491,26.2492 46.2493,26.2498 47.4992,27.4998 46.2499,27.4999 46.2493,28.7491 46.2492,28.7498 46.2499,29.9997 44.9993,29.9998 46.2492,29.9997 44.9993,29.9991 44.9993,31.2497 43.75,31.2497 44.9993,31.2497 44.9993,31.2497 43.7493,31.2497 44.9999,31.2497 43.7493,32.4997 44.9993,31.249 43.7494,31.2497 44.9992,31.2497 62.4994,43.7494 63.7494,43.7493 63.7494,42.5 63.7487,42.4994 63.7494,42.4994 63.7493,42.4993 64.9994,41.2494 63.7487,42.4994 64.9993,41.25 63.7494,41.2494 64.9993,41.2494 64.9987,41.2494 64.9993,41.2494 64.9994,41.2494 64.9993,41.2494 66.2493,41.2494 64.9987,42.5 66.2493,41.2494 64.9993,42.4994 66.2493,41.2494 66.2493,42.4994 66.2486,43.74929 66.2493,42.4994 66.2493,43.7499 21.25,13.7496 21.2494,13.7496 20,13.7502 21.2494,13.7496 21.25,12.5003 21.2493,13.7496 21.25,12.4996 21.25,13.7502 21.2494,12.4996 21.25,12.4997 21.2494,11.2503 21.25,11.2496 21.2493,11.2497 22.5,11.2503 21.25,9.9997 22.4993,9.9997 22.5,8.7497 22.4999,8.7504 22.4994,7.4998 22.4999,7.4998 22.4993,6.2498 23.75,4.9998 22.4999,4.9999 23.7493,3.7505 10.0004,1.25 8.7497,1.2499 8.7497,1.25 9.9997,0 10.0004,1.2499 8.7497,1.25 9.9997,0 8.7498,0 10.0003,0 8.7497,1.25 9.9997,0 9.9997,0 8.7504,0 9.9997,-1.25 8.7497,0 9.9997,0 10.0004,-1.25 8.7497,0 9.9997,-1.2499 9.9997,0 8.7504,-1.25 9.9997,0 9.9997,-1.2499 8.7497,-1.25 12.5003,-1.2506 12.4996,-1.25 13.7502,-2.4999 12.4997,-1.25 12.4996,-2.4999 12.5003,-1.2499 12.4996,-2.5 12.4996,-2.4999 12.5003,-2.4999 12.4996,-2.4999 12.4996,-2.5 11.2503,-2.4999 12.4997,-2.4999 12.4996,-3.7499 12.5002,-2.4999 12.4997,-3.7506 12.4996,-3.7498 11.2503,-2.5 12.4996,-3.7499 12.4996,-3.7498 11.2503,-3.7499 12.4997,-4.9999 11.2496,-3.7499 12.5003,-4.9998 14.9995,-5.0005 16.2496,-6.2498 15.0001,-7.4998 14.9996,-6.2498 16.2502,-7.4998 14.9995,-7.4998 14.9995,-7.5004 13.7503,-7.4997 14.9995,-8.7498 15.0002,-7.4998 13.7496,-10.0003 13.7496,-8.7497 13.7502,-9.9997 13.7496,-8.7498 13.7502,-10.0003 13.7496,-11.2497 12.4996,-11.2496 12.5003,-11.2503 12.4996,-11.2497 12.4997,-11.2497 12.5002,-12.4996 11.2497,-12.5003 11.2496,-13.7495 11.2503,-12.5003 3.7499,-4.9999 2.5,-3.7498 3.7498,-4.9999 3.7499,-4.9998 2.5,-3.7499 3.7498,-4.9999 2.5,-3.7499 2.4999,-5.0005 3.7499,-4.9998 2.4999,-4.9999 2.4999,-3.74979 2.5006,-4.9999 2.4999,-4.9998 2.4999,-4.9999 2.5,-4.9998 2.4999,-5.0005 1.25,-3.7499 2.4999,-4.9999 1.2499,-4.9998 1.25,-4.9999 1.25,-4.9998 1.2499,-4.9999 1.25,-5.0005 0,-4.9998 1.25,-6.2498 0,-6.2498 0,-6.2498 0,-6.2499 -1.25,-6.2504 0,-6.2498 -1.25,-7.4998 -1.2499,-6.2498 -1.25,-6.2498 -1.25,-6.2498 -2.4999,-6.2505 -2.4999,-6.2498 -1.25,-6.2498 -2.4999,-6.2498 -2.4999,-6.2498 -2.4999,-6.2498 -3.7506,-6.2505 -2.4999,-4.9998 -3.7499,-6.2499 -2.4999,-6.2498 -3.7499,-6.2498 -3.7499,-4.9998 -2.4999,-6.2505 -3.7499,-6.2498 -3.7499,-6.2498 -4.9998,-6.2498 -3.7499,-6.2498 -5.0005,-6.2499 -3.7499,-6.2504 -4.9998,-6.2498 -4.9999,-4.9999 -3.7499,-6.2498 -4.9998,-6.2498 -4.9999,-4.9998 -4.9998,-6.2505 -3.7506,-4.9998 -4.9998,-6.2499 -4.9999,-4.9998 -4.9998,-4.9999 -4.9999,-6.2498 -4.9998,-4.9998 -4.9999,-5.0005 -5.0004,-6.2498 -4.9999,-4.9999 -4.9998,-4.9998 -4.9999,-4.9999 -9.9997,-11.2496 0,1.2499" />
      <path
         inkscape:connector-curvature="0"
         id="path4181"
         style="fill:#ffffff;fill-opacity:1;fill-rule:nonzero;stroke:#000000;stroke-width:35.29366302;stroke-linecap:round;stroke-linejoin:round;stroke-miterlimit:4;stroke-dasharray:none;stroke-opacity:1"
         d="m -2082.5159,-1350.7236 93.7485,31.249 94.999,31.2497 93.7485,31.2497 94.9991,31.2497 93.7491,31.2497 94.9984,31.2497 93.7491,31.2497 94.9984,31.2491 93.7491,31.2497 94.9991,31.2497 93.7485,31.2497 93.74914,31.24969 94.9984,31.2497 93.7491,31.2497 94.9984,31.2491 93.7491,31.2497 94.9991,31.2497 93.7485,31.2497 94.999,31.2497 93.7485,31.2497 94.9991,31.249 93.7484018,31.2497 188.7481982,62.4994 0,1.25" />
      <path
         inkscape:connector-curvature="0"
         id="path4183"
         style="fill:#ffffff;fill-opacity:1;fill-rule:nonzero;stroke:#000000;stroke-width:35.29366302;stroke-linecap:round;stroke-linejoin:round;stroke-miterlimit:4;stroke-dasharray:none;stroke-opacity:1"
         d="m 181.20584,-600.73341 -33.7496,-4.9998 -32.4997,-4.9999 -33.749598,-4.9998 -32.4997,-6.2505 -33.7496,-4.9998 -33.7496,-4.9999 -32.4997,-4.9998 -33.7496,-4.9999 -32.499702,-4.9998 -33.749,-3.7499 -33.7496,-4.9998 -32.4997,-3.7506 -33.7496,-4.9998 -32.4996,-3.7499 -33.7497,-3.7499 -32.4996,-2.4999 -33.7497,-3.7499 -32.4996,-2.4999 -33.7497,-2.5 -32.4996,-2.4999 -33.749,-2.4999 -32.4997,-1.25 -33.7496,-1.2499 -32.4997,0 -22.4999,-1.25 -23.7493,0 -22.5,0 -23.7499,1.25 -22.4993,0 -23.75,1.2499 -22.4999,1.25 -23.7493,1.25 -22.5,1.2499 -23.7493,1.25 -22.4999,2.4999 -23.7499,2.4999 -22.4994,2.5 -23.7499,3.7498 -22.5,3.7499 -23.7493,3.7499 -23.74994,3.7499 -22.4999,3.7499 -23.7493,5.0005 -23.75,4.9998 -22.4993,6.2498 -23.7499,6.2499 -23.7499,6.2498 -23.7493,6.2498 -13.7502,5.0005 -14.9996,3.7499 -13.7502,4.9998 -14.9996,4.9999 -13.7496,4.9998 -15.0002,4.9999 -13.7495,6.2498 -13.7496,5.0005 -13.7503,6.2498 -13.7495,6.2498 -12.5003,6.2498 -13.7496,6.2498 -12.4996,7.4998 -12.5003,7.5004 -12.4996,7.4998 -11.2497,7.4998 -11.2503,8.7497 -11.2496,8.7504 -11.2497,8.7497 -9.9997,8.7497 -10.0003,9.9997 -8.7498,10.0004 -8.7497,9.9997 -8.7497,11.2496 -3.7506,6.2499 -4.9998,6.2498 -3.7499,7.5004 -4.9999,6.2498 -3.7498,7.4998 -3.7499,7.4997 -3.7499,7.4998 -3.7499,7.5004 -2.4999,7.4998 -3.7506,7.4998 -2.4999,8.7497 -2.4999,7.4998 -2.4999,8.7504 -2.5,7.4997 -2.4999,8.7498 -2.4999,8.7497 -2.4999,8.7504 -1.25,8.7497 -2.4999,8.7498 -1.25,8.7497 -2.4999,8.7504 -1.25,8.7497 -1.2499,9.9997 -1.25,8.7498 -1.25,8.7503 -1.2499,7.4998 -1.25,7.4998 0,8.7497 -1.2499,7.4998 0,7.5004 -1.25,8.7498 0,7.4997 0,7.4998 0,7.5004 0,8.7498 1.25,7.4997 0,6.2498 1.2499,7.4998 1.25,7.5004 1.2499,7.4998 2.5,6.2498 1.2499,6.2498 2.5,6.2498 2.4999,6.2499 3.7499,6.2504 3.7499,4.999896 3.7498,6.2498 3.7499,4.9998 3.7499,3.7499 3.7505,3.7499 3.7499,3.7499 4.9999,2.4999 4.9998,3.7505 4.9999,2.5 4.9998,3.7498 4.9999,2.5 4.9998,2.4999 5.0005,2.4999 6.2498,2.4999 4.9999,2.5 6.2498,2.4999 4.9998,2.4999 6.2499,2.4999 4.9998,2.5 6.2505,2.4999 4.9998,2.4999 6.2498,2.5006 6.2498,2.4999 4.9999,2.4999 4.9998,3.7499 6.2505,2.4999 4.9998,2.5 1.25,1.2499 1.25,1.25 2.4999,0 1.2499,1.25 1.25,1.2499 1.25,0 1.2499,1.25 1.25,1.2499 2.4999,1.25 1.25,0 1.2499,1.25 1.25,1.2499002 1.25,1.25 1.2499,1.25 1.25,0 2.4999,1.2499 1.25,1.25 1.2499,1.2499 1.25,0 1.2506,1.25 1.25,1.24999996 1.2499,1.2499 2.5,1.25060004 0,1.25" />
      <path
         inkscape:connector-curvature="0"
         id="path4185"
         style="fill:#ffffff;fill-opacity:1;fill-rule:nonzero;stroke:#000000;stroke-width:35.29366302;stroke-linecap:round;stroke-linejoin:round;stroke-miterlimit:4;stroke-dasharray:none;stroke-opacity:1"
         d="m -1355.0249,1.7593862 0,591.2425038 0,1.25" />
      <path
         inkscape:connector-curvature="0"
         id="path4187"
         style="fill:#ffffff;fill-opacity:1;fill-rule:nonzero;stroke:#000000;stroke-width:35.29366302;stroke-linecap:round;stroke-linejoin:round;stroke-miterlimit:4;stroke-dasharray:none;stroke-opacity:1"
         d="m -1355.0249,593.00189 -624.9922,0 0,1.25" />
      <path
         inkscape:connector-curvature="0"
         id="path4189"
         style="fill:#ffffff;fill-opacity:1;fill-rule:nonzero;stroke:#000000;stroke-width:35.29366302;stroke-linecap:round;stroke-linejoin:round;stroke-miterlimit:4;stroke-dasharray:none;stroke-opacity:1"
         d="m -1980.0171,593.00189 -7.5004,4.9999 -8.7497,4.9998 -7.4998,4.9999 -7.4998,4.9998 -7.4997,6.2498 -8.7504,5.0005 -7.4998,4.9999 -7.4998,4.9998 -7.4997,4.9999 -7.5004,6.2498 -7.4998,4.9998 -7.4998,4.9999 -7.4998,6.2504 -6.2498,4.9999 -7.5004,6.2498 -6.2498,6.2498 -7.4998,4.9999 -6.2498,6.2498 -6.2498,6.2498 -7.4998,6.2504 -6.2504,6.2498 -4.9999,7.4998 -6.2498,6.2498 -6.2498,6.2498 -6.2498,8.7504 -6.2498,8.7498 -6.2505,8.7497 -6.2498,9.9997 -6.2498,8.7504 -4.9999,9.9997 -4.9998,9.9997 -4.9999,9.9997 -5.0005,10.0003 -3.7498,9.9997 -3.7499,9.9997 -4.9999,11.2503 -2.4999,9.9997 -3.7499,11.2497 -3.7499,11.2496 -2.4999,10.0004 -2.4999,11.2496 -2.4999,11.2497 -2.5,11.2503 -1.2499,11.2497 -2.5,12.4996 -1.2506,11.2503 -1.2499,11.2497 -1.25,11.2496 0,16.2502 -1.25,16.24951 0,16.2501 0,16.2496 1.25,16.2495 1.25,16.2501 1.2499,16.2495 2.5006,16.2502 2.4999,14.9995 2.5,16.2502 3.7498,14.9995 3.7499,16.2495 4.9999,15.0002 4.9998,14.9996 4.9999,13.7502 6.2498,14.9996 6.2504,13.7495 6.2499,13.7503 7.4997,13.7496 7.4998,12.5002 8.7497,12.4996 8.7504,12.4997 9.9997,11.2503 8.7498,11.2496 9.9997,9.9997 10.0003,8.7498 9.9997,10.0003 9.9997,7.4998 10.0003,8.7497 11.2497,7.4998 11.2497,7.4998 12.5002,7.5004 11.2497,7.4998 12.4996,6.2498 12.5003,6.2498 12.4996,6.2498 12.4996,5.0005 13.7502,6.2498 12.4997,4.9999 13.7496,4.9998 13.7502,4.9999 13.7496,3.7498 13.7496,4.9999 13.7502,3.7499 13.7496,5.0005 13.7502,3.7499 13.7496,3.7498 13.7496,3.7499 23.7499,4.9999 23.7499,6.2498 22.4994,4.9998 23.7499,4.9999 23.7499,3.7505 22.4993,3.7499 23.75,4.9999 23.7492,2.4999 22.5,3.7499 23.7499,2.4999 22.4994,2.4999 23.7499,2.4999 22.5,2.5 23.7492,1.2499 22.5,2.5 23.7493,1.2499 22.5,0 23.7499,1.25 22.4993,1.2499 23.7499,0 22.5,0 23.7493,0 22.4999,-1.2499 23.75,0 23.7493,-1.25 23.7499,0 23.7493,-1.2499 23.7499,-1.25 23.7499,-2.4999 22.4994,-1.25 23.7499,-2.4999 23.7499,-1.25 23.7493,-2.4999 23.7499,-2.4999 23.7499,-2.5 23.7493,-2.4999 23.75004,-2.4999 23.7499,-2.4999 23.7493,-2.5 23.7499,-3.7498 23.7499,-2.5006 23.7493,-2.4999 23.7499,-3.7499 23.7493,-2.4999 23.75,-3.7499 23.7499,-2.5 47.4992,-6.2498 0,1.25" />
      <path
         inkscape:connector-curvature="0"
         id="path4191"
         style="fill:#ffffff;fill-opacity:1;fill-rule:nonzero;stroke:#000000;stroke-width:35.29366302;stroke-linecap:round;stroke-linejoin:round;stroke-miterlimit:4;stroke-dasharray:none;stroke-opacity:1"
         d="m -717.53316,1480.4906 -76.249,22.4994 -74.999,23.7499 -76.249,23.7499 -76.24904,23.7493 -74.999,23.7499 -76.249,23.7499 -76.249,23.7493 -74.9997,23.75 -76.249,23.7499 -76.249,23.7493 -74.999,23.7499 -76.249,23.7499 -76.249,23.7493 -74.999,23.7499 -76.249,23.75 -76.249,23.7493 -74.999,23.7499 -76.249,22.4993 -76.249,23.7499 -74.999,23.75 -76.249,23.7492 -76.2496,23.75 -151.2481,47.4992 0,1.25" />
      <path
         inkscape:connector-curvature="0"
         id="path4193"
         style="fill:#ffffff;fill-opacity:1;fill-rule:nonzero;stroke:#000000;stroke-width:35.29366302;stroke-linecap:round;stroke-linejoin:round;stroke-miterlimit:4;stroke-dasharray:none;stroke-opacity:1"
         d="m -2537.5106,2047.9832 4.9999,-6.2498 3.7505,-6.2498 4.9999,-7.4998 4.9998,-6.2498 4.9999,-6.2505 3.7499,-7.4998 4.9998,-6.2498 4.9999,-6.2498 3.7499,-7.4998 5.0004,-6.2498 3.7499,-7.5004 3.7499,-6.2498 4.9999,-7.4998 3.7499,-6.2498 3.7498,-7.4998 2.5,-7.5004 3.7499,-7.4997 3.7498,-7.4998 2.5006,-7.4998 2.4999,-7.4998 2.5,-7.5004 2.4999,-7.4998 2.4999,-8.7497 2.4999,-7.4998 0,-3.7499 1.25,-2.4999 0,-2.4999 0,-3.7505 1.25,-2.5 0,-2.4999 0,-3.7499 1.2499,-2.4999 0,-2.4999 0,-3.7499 0,-2.4999 0,-2.5 0,-3.7498 0,-2.5 0,-2.4999 0,-2.5006 0,-3.7498 0,-2.5 -1.2499,-2.4999 0,-2.4999 -1.25,-2.4999 0,-3.7499 -1.25,-2.5 0,-2.4999 -1.2499,-3.7499 -2.5,-2.4999 -1.2499,-3.7499 -2.4999,-3.7505 -1.25,-2.4999 -2.4999,-3.7499 -2.5006,-3.7499 -2.4999,-2.4999 -2.4999,-2.5 -2.5,-3.7498 -3.7499,-2.5 -2.4999,-2.4999 -3.7499,-2.4999 -2.4999,-3.7499 -3.7499,-2.4999 -2.4999,-2.5 -3.7499,-2.5005 -3.7499,-2.4999 -3.7505,-2.5 -2.4999,-2.4999 -3.7499,-2.4999 -3.7499,-2.4999 -3.7499,-1.25 -3.7499,-2.4999 -14.9995,-9.9997 -13.7503,-8.7498 -14.9995,-7.5004 -13.7502,-8.7497 -14.9996,-7.4998 -14.9995,-7.4998 -13.7503,-7.5004 -14.9995,-7.4998 -15.0002,-6.2498 -13.7496,-6.2498 -14.9995,-7.4998 -15.0002,-6.2498 -13.7496,-5.0005 -15.0002,-6.2498 -14.9996,-6.2498 -14.9995,-6.2498 -13.7502,-4.9999 -14.9996,-6.2498 -15.0002,-5.0005 -14.9995,-6.2498 -14.9996,-4.9998 -15.0002,-6.2498 -14.9995,-4.9999 -15.0002,-6.2498 -12.4996,-3.7499 -11.2497,-5.0005 -12.5003,-4.9998 -12.4996,-3.7499 -11.2496,-4.9999 -12.5003,-3.7498 -12.4996,-4.9999 -12.4997,-3.7499 -11.2503,-4.9998 -12.4996,-3.7506 -12.4996,-3.7498 -12.5003,-3.7499 -12.4996,-3.7499 -12.4996,-3.7499 -12.5003,-3.7499 -12.4996,-2.4999 -12.4996,-2.4999 -12.5003,-2.5 -12.4996,-2.4999 -12.4996,-2.4999 -12.5003,-1.25 -12.4996,-1.2499 -12.4997,-1.2506 -12.5002,0 -11.2497,0 -12.4996,0 -12.5003,0 -11.2496,1.2506 -12.4997,0 -12.5002,2.4999 -11.2497,1.2499 -12.4996,1.25 -12.5003,2.4999 -11.2496,2.5 -12.4997,2.4999 -11.2503,3.7499 -12.4996,2.4999 -11.2497,3.7499 -12.5002,3.7499 -11.2497,3.7499 -12.4996,3.7498 -11.2503,5.0005 -11.2497,3.7499 -12.4996,4.9999 -11.2503,3.7499 -11.2497,4.9998 -11.2496,4.9999 -11.2503,4.9998 -21.2494,10.0003 -20,9.9997 -19.9994,9.9997 -20.0001,9.9997 -19.9994,11.2503 -20,11.2497 -18.7494,11.2497 -20.0001,11.2503 -18.7494,11.2496 -18.7501,12.4997 -18.7494,11.2503 -18.7501,12.4996 -18.7494,12.4996 -18.7501,12.5003 -17.4995,12.4996 -18.7501,12.4996 -18.7494,12.5003 -18.7501,12.4996 -17.4995,13.7496 -18.75,12.5003 -17.4995,12.4996 -18.7501,12.4996 -18.7494,12.5003 -17.5001,13.7496 -32.4997,21.25 -32.4997,21.2493 -31.2497,21.25 -32.499,21.2494 -32.4997,21.25 -33.7496,20 -32.4996,21.2494 -32.4997,20 -32.4997,19.9994 -33.7496,20.0001 -33.7496,19.9994 -32.4997,18.7501 -33.7496,19.9994 -33.749,20 -32.4997,18.7494 -33.7496,20.0001 -33.7496,18.75 -33.7497,18.7495 -33.7496,20 -33.7496,18.7495 -33.7496,18.75 -33.7497,18.7495 -68.7492,37.4995 0,1.25" />
      <path
         inkscape:connector-curvature="0"
         id="path4195"
         style="fill:#ffffff;fill-opacity:1;fill-rule:nonzero;stroke:#000000;stroke-width:35.29366302;stroke-linecap:round;stroke-linejoin:round;stroke-miterlimit:4;stroke-dasharray:none;stroke-opacity:1"
         d="m -4699.9834,2331.7298 -34.9996,-7.4998 -36.2495,-7.4998 -34.9996,-7.4997 -36.2496,-7.5005 -34.9995,-7.4997 -36.2496,-7.4998 -34.9989,-7.4998 -36.2496,-8.7504 -34.9996,-7.4997 -36.2495,-7.4998 -34.9996,-8.7497 -36.2496,-7.4998 -34.9996,-8.7504 -34.9996,-8.7497 -36.2495,-8.7498 -34.9996,-8.7497 -36.2495,-8.7504 -34.9996,-8.7497 -36.2496,-9.9997 -34.9996,-8.7498 -34.9996,-10.0003 -36.2495,-9.9997 -34.9996,-9.9997 -34.9996,-9.9997 -32.4997,-10.0003 -31.2497,-9.9997 -32.4996,-9.9997 -31.2491,-10.0004 -32.4996,-9.9997 -31.2497,-11.2496 -31.2498,-11.2497 -32.4996,-11.2503 -31.2497,-11.2497 -31.2497,-12.4996 -29.9991,-12.5003 -31.2497,-12.4996 -29.9998,-12.4996 -31.2497,-13.7502 -29.9997,-13.7496 -29.9998,-15.0002 -29.9991,-13.7496 -28.7497,-16.2495 -28.7498,-15.0002 -28.7498,-16.2495 -28.7498,-16.2502 -28.7491,-17.4994 -27.4998,-17.5001 -27.4998,-18.7495 -19.9994,-13.7502 -20.0001,-13.7496 -18.7494,-14.9995 -20,-13.7503 -18.7501,-14.9995 -19.9994,-14.9996 -18.7501,-16.2501 -18.7494,-14.9996 -18.7501,-16.2501 -18.7495,-16.2495 -18.75,-16.2502 -17.4995,-16.2495 -18.7501,-16.2502 -17.4995,-16.2495 -18.75,-17.4994 -17.4995,-16.2502 -17.5001,-17.4995 -18.7495,-16.2501 -17.5001,-17.4995 -17.4994,-17.5001 -17.5002,-16.2495 -17.4994,-17.5001 -36.2496,-34.9996 0,1.2499" />
      <path
         inkscape:connector-curvature="0"
         id="path4197"
         style="fill:#ffffff;fill-opacity:1;fill-rule:nonzero;stroke:#000000;stroke-width:35.29366302;stroke-linecap:round;stroke-linejoin:round;stroke-miterlimit:4;stroke-dasharray:none;stroke-opacity:1"
         d="m -6724.9578,1422.9911 12.4996,3.7499 11.2503,3.7505 12.4997,4.9998 11.2496,3.7499 11.2503,3.7499 12.4997,3.7499 11.2496,3.7499 12.5003,3.7499 11.2496,3.7499 11.2497,3.7499 12.5003,2.4999 11.2496,3.7505 12.4997,2.4999 11.2496,3.7499 12.5003,2.4999 11.2496,2.5 12.4997,2.4999 11.2503,1.25 12.4996,2.4999 11.2497,1.2499 12.5002,1.25 12.4996,1.25 11.2497,1.2499 12.5003,1.25 12.4996,0 13.7496,0 12.5002,0 13.7496,-1.25 12.5003,-1.2499 12.4996,-1.25 13.7496,-1.25 12.5003,-1.2499 13.7496,-2.4999 12.4996,-2.5 12.5003,-2.4999 13.7495,-2.4999 12.4997,-3.7499 12.5002,-3.7499 13.7496,-3.7505 12.4996,-3.7499 12.5003,-3.7499 12.4996,-3.7499 12.4997,-4.9998 12.5002,-4.9999 12.4996,-4.9998 12.4997,-4.9999 12.5002,-5.0005 12.4997,-4.9998 26.2498,-12.4996 26.2499,-12.4997 24.9992,-13.7502 24.9999,-14.9995 24.9999,-15.0002 23.7493,-16.2496 24.9999,-16.2495 23.7499,-16.2501 22.4993,-17.4995 22.5,-17.5001 23.7499,-17.4995 22.4994,-18.7501 21.25,-18.7494 22.4993,-20 21.25,-18.7495 21.2493,-20 21.2501,-20 21.25,-21.2494 21.2493,-20 21.25,-21.2494 21.2494,-20 20,-21.2494 42.4994,-42.49941 0,1.25" />
      <path
         inkscape:connector-curvature="0"
         id="path4199"
         style="fill:#ffffff;fill-opacity:1;fill-rule:nonzero;stroke:#000000;stroke-width:35.29366302;stroke-linecap:round;stroke-linejoin:round;stroke-miterlimit:4;stroke-dasharray:none;stroke-opacity:1"
         d="m -5586.2221,990.49699 2.4999,3.7499 3.7499,3.7499 2.4999,2.49991 3.7499,3.7499 2.5006,3.7499 3.7499,2.4999 2.4999,3.7499 3.7499,3.7499 2.4999,2.4999 3.7499,3.7499 2.4999,3.7505 2.4999,3.7499 3.7499,3.7499 2.4999,3.7499 2.5,3.7499 2.4999,3.7499 2.4999,3.7499 3.7505,4.9998 2.5,3.7499 2.4999,5.0005 2.4999,3.7499 2.4999,4.9998 1.25,3.7499 2.4999,4.9999 1.25,3.7499 1.25,2.4999 1.2499,2.4999 1.25,2.4999 1.2499,3.7499 1.25,2.4999 1.25,2.5006 1.2499,3.7499 1.25,2.4999 1.25,2.4999 1.2499,2.5 1.25,3.7499 1.2499,2.4999 1.25,2.4999 1.25,2.4999 1.2499,1.25 1.2506,2.4999 2.5,2.4999 1.2499,1.25 1.25,2.4999 2.4999,1.25 1.25,1.25 2.4999,1.2506 1.25,1.2499 2.4999,0 1.2499,1.25 2.5,0 2.4999,0 1.25,0 2.4999,0 2.4999,0 2.4999,0 2.5,0 2.4999,0 1.2506,-1.25 2.4999,0 2.4999,-1.2499 2.5,0 2.4999,-1.2506 2.4999,-1.25 2.4999,0 3.7499,-1.25 2.4999,-1.2499 2.5,-1.25 2.4999,-1.25 2.4999,-1.2499 2.4999,0 2.5,-1.25 10.0003,-4.9998 9.9997,-4.9999 9.9997,-4.9998 10.0004,-4.9999 9.9997,-4.9998 8.7497,-5.0005 8.7497,-4.9999 8.7504,-4.9998 8.7497,-4.9999 8.7498,-4.9998 7.4998,-6.2498 8.7497,-4.9999 7.5004,-6.2504 7.4998,-4.9999 7.4998,-6.2498 7.4997,-6.2498 7.4998,-6.2498 7.5004,-6.2498 6.2498,-6.2505 6.2498,-6.2498 7.4998,-6.2498 6.2498,-7.4998 6.2505,-6.24981 6.2498,-7.4998 16.2495,-20 15.0002,-20.0001 13.7496,-22.4993 13.7496,-22.4999 12.5002,-23.7493 11.2497,-24.9999 9.9997,-24.9999 8.7497,-24.9999 8.7504,-27.4992 7.4998,-26.2498 7.4998,-27.4998 6.2498,-27.4992 4.9998,-28.7498 5.0005,-28.7498 3.7499,-28.7497 3.7499,-29.9998 2.4999,-29.9991 2.4999,-28.7498 2.5,-29.9997 1.2499,-29.9997 1.25,-29.9998 0,-29.9997 0,-29.9991 0,-29.9998 0,-28.7497 -1.25,-28.7498 -1.2499,-29.9997 -1.25,-28.7492 -1.25,-27.4998 -2.4999,-28.7498 -2.4999,-28.7497 -2.4999,-27.4992 -3.7499,-27.499804 -2.4999,-27.4999 -5.0005,-27.4998 -3.7499,-27.4990998 -4.9999,-27.4999002 -4.9998,-26.2498 -4.9999,-26.2499 -6.2498,-26.249196 -6.2498,-26.2498 -7.5004,-26.2499 -7.4998,-26.2492 -7.4998,-24.9999 -8.7497,-24.9999 -8.7504,-24.9999 -8.7497,-24.9992 -9.9997,-23.7499 -1.25,-4.9999 -2.4999,-3.7499 -1.25,-3.7499 -2.4999,-4.9998 -1.25,-3.7499 -2.4999,-5.0005 -1.2499,-3.7499 -2.5,-4.9998 -2.5005,-3.7499 -1.25,-3.7499 -2.4999,-4.9998 -2.4999,-3.7499 -2.5,-4.9999 -2.4999,-3.7505 -2.4999,-3.7499 -2.4999,-4.9998 -2.5,-3.7499 -2.4999,-4.9999 -2.4999,-3.7499 -2.4999,-3.7499 -3.7499,-4.9998 -2.5,-3.7499 -3.7505,-5.0005 -2.4999,-3.7499 -4.9999,-4.9998 -3.7498,-6.2498 -4.9999,-4.9999 -4.9998,-4.9998 -4.9999,-4.9999 -4.9998,-5.0005 -5.0005,-4.9998 -4.9999,-4.9999 -4.9998,-4.9998 -6.2498,-3.7499 -4.9999,-4.9999 -6.2498,-3.7498 -4.9999,-3.7499 -5.0004,-3.7499 -6.2499,-2.5006 -4.9998,-2.4999 -6.2498,-2.4999 -4.9999,-2.5 -4.9998,-1.2499 -6.2498,-1.25 -5.0005,-1.2499 -4.9999,0 -4.9998,0 -6.2498,0 -3.7499,1.2499 -4.9999,2.4999 -4.9998,1.25 -5.0005,2.4999 -3.7499,2.5 -4.9998,3.7505 -3.7499,3.7499 -4.9999,3.7499 -3.7499,3.7498 -4.9998,4.9999 -3.7499,3.7499 -3.7499,4.9998 -3.7505,4.9999 -4.9999,4.9998 -3.7499,6.2505 -3.7499,4.9998 -3.7498,4.9999 -4.9999,6.2498 -3.7499,4.9998 -3.7499,4.9999 -3.7499,6.2504 -5.0004,4.9999 -3.7499,4.9998 -3.7499,4.9999 -4.9999,4.9998 -3.7499,3.7499 -3.7498,4.9999 -3.7499,3.7499 -3.7499,3.7505 -3.7499,3.7499 -3.7505,3.7499 -3.7499,3.7499 -3.7499,3.7498 -4.9999,3.7499 -3.7498,3.7499 -3.7499,3.7499 -3.7499,3.7499 -3.7499,3.7499 -3.7499,3.7505 -3.7505,2.4999 -3.7499,3.7499 -3.7499,3.7499 -3.7499,3.7499 -3.7499,3.7499 -3.7499,3.7499 -3.7498,3.7499 -3.7499,3.7498 -2.5,3.7499 -3.7498,3.7506 -3.7499,4.9998 -3.7506,4.9999 -3.7498,3.7498 -3.7499,4.9999 -2.5,4.9998 -3.7498,4.9999 -2.5,4.9998 -3.7499,5.0005 -2.4999,4.9999 -3.7499,4.9998 -2.4999,4.9999 -2.4999,6.2498 -3.7505,4.9999 -2.5,4.9998 -2.4999,6.2505 -2.4999,4.9998 -2.4999,4.9999 -2.5,6.2498 -2.4999,4.9998 -3.7499,6.2498 -2.4999,5.0005 -1.25,6.2498 -2.4999,6.2498 0,1.25" />
      <path
         inkscape:connector-curvature="0"
         id="path4201"
         style="fill:#ffffff;fill-opacity:1;fill-rule:nonzero;stroke:#000000;stroke-width:35.29366302;stroke-linecap:round;stroke-linejoin:round;stroke-miterlimit:4;stroke-dasharray:none;stroke-opacity:1"
         d="m -5634.9713,-168.23871 -1.25,-38.7494 -1.2499,-38.7495 -1.25,-37.4995 -1.2499,-38.7495 -2.5,-37.4995 -1.2499,-38.7495 -1.2506,-37.4995 -2.5,-38.7501 -2.4999,-37.4995 -2.4999,-38.7495 -2.4999,-37.4995 -3.7499,-38.7495 -2.4999,-37.4995 -3.7499,-37.4995 -4.9999,-37.4995 -3.7499,-38.7495 -4.9998,-37.4995 -5.0005,-37.4995 -4.9999,-37.4996 -6.2498,-37.4995 -6.2498,-37.4995 -7.4998,-37.49949 -6.2498,-37.4995 -8.7503,-37.4995 -7.4998,-36.2496 -8.7498,-36.2495 -8.7497,-34.9996 -10.0003,-36.2496 -9.9997,-36.2495 -11.2497,-36.2496 -11.2503,-34.9996 -11.2497,-36.2495 -12.4996,-34.9996 -12.4996,-34.9996 -12.5003,-34.9996 -13.7496,-34.9996 -13.7502,-34.9996 -14.9996,-34.9996 -14.9995,-33.7496 -15.0002,-33.749 -16.2495,-33.7496 -16.2502,-33.7496 -16.2495,-33.7496 -17.5001,-32.4997 -18.7494,-33.7497 -17.5001,-32.4996 -18.7495,-32.4997 -20,-31.2497 -17.4995,-28.7491 -18.7501,-28.7498 -18.7494,-28.7498 -18.7501,-28.7498 -19.9994,-27.4998 -20,-27.4992 -19.9994,-27.4998 -20.0001,-27.4998 -21.2493,-27.4998 -21.25,-26.2492 -21.25,-26.2499 -21.2494,-26.2498 -22.5,-26.2492 -22.4993,-24.9999 -22.4999,-26.2499 -23.75,-24.9992 -22.4993,-24.9999 -23.7499,-24.9999 -23.75,-23.7493 -23.7492,-23.7499 -24.9999,-23.7499 -24.9999,-23.7493 -23.7493,-23.75 -24.9999,-22.4999 -12.4996,-11.2497 -12.5003,-11.2496 -11.2496,-10.0004 -12.4997,-11.2496 -12.5002,-9.9997 -11.2497,-11.2497 -12.4996,-10.0004 -12.5003,-11.2496 -12.4996,-9.9997 -12.4996,-11.2503 -11.2503,-9.9997 -12.4997,-9.9997 -12.4996,-9.9997 -12.5003,-11.2503 -12.4996,-9.9997 -12.4996,-9.9997 -12.5003,-10.0004 -12.4996,-11.2496 -12.4996,-9.9997 -12.5003,-9.9997 -12.4996,-10.0004 -12.4996,-9.9997 -12.5003,-9.9997 -12.4996,-10.0003 0,1.2506" />
    </g>
  </g>
</svg>
