<?xml version="1.0" encoding="UTF-8" standalone="no"?>
<!-- Created with Inkscape (http://www.inkscape.org/) -->

<svg
   xmlns:dc="http://purl.org/dc/elements/1.1/"
   xmlns:cc="http://creativecommons.org/ns#"
   xmlns:rdf="http://www.w3.org/1999/02/22-rdf-syntax-ns#"
   xmlns:svg="http://www.w3.org/2000/svg"
   xmlns="http://www.w3.org/2000/svg"
   xmlns:sodipodi="http://sodipodi.sourceforge.net/DTD/sodipodi-0.dtd"
   xmlns:inkscape="http://www.inkscape.org/namespaces/inkscape"
   width="210mm"
   height="297mm"
   viewBox="0 0 744.09448819 1052.3622047"
   id="svg2"
   version="1.1"
   inkscape:version="0.91 r13725"
   sodipodi:docname="cadillac.svg">
  <defs
     id="defs4" />
  <sodipodi:namedview
     id="base"
     pagecolor="#ffffff"
     bordercolor="#666666"
     borderopacity="1.0"
     inkscape:pageopacity="0.0"
     inkscape:pageshadow="2"
     inkscape:zoom="0.7"
     inkscape:cx="-77.429632"
     inkscape:cy="503.69436"
     inkscape:document-units="px"
     inkscape:current-layer="layer1"
     showgrid="false"
     inkscape:window-width="2048"
     inkscape:window-height="1100"
     inkscape:window-x="0"
     inkscape:window-y="24"
     inkscape:window-maximized="1" />
  <metadata
     id="metadata7">
    <rdf:RDF>
      <cc:Work
         rdf:about="">
        <dc:format>image/svg+xml</dc:format>
        <dc:type
           rdf:resource="http://purl.org/dc/dcmitype/StillImage" />
        <dc:title></dc:title>
      </cc:Work>
    </rdf:RDF>
  </metadata>
  <g
     inkscape:label="cadillac"
     inkscape:groupmode="layer"
     id="layer1">
    <g
       id="g6061"
       transform="matrix(0.60144326,0,0,0.60144326,985.35152,231.61848)"
       style="stroke-width:8.31333637;stroke-miterlimit:10;stroke-dasharray:none">
      <path
         inkscape:connector-curvature="0"
         id="path4483"
         style="fill:none;stroke:#000000;stroke-width:8.31333637;stroke-linecap:round;stroke-linejoin:round;stroke-miterlimit:10;stroke-dasharray:none;stroke-opacity:1"
         d="m -920.6081,-87.629915 -172.8,0 -6,0 -18.15,0" />
      <path
         inkscape:connector-curvature="0"
         id="path4681"
         style="fill:none;stroke:#000000;stroke-width:8.31333637;stroke-linecap:round;stroke-linejoin:round;stroke-miterlimit:10;stroke-dasharray:none;stroke-opacity:1"
         d="m -1431.3581,463.17011 -0.45,0.6 -0.15,0.15 -0.15,0.15 -0.45,0.45 -1.05,1.2 -0.3,0.45 -0.15,0.15 -0.6,0.75 -1.05,1.05 -1.05,1.2 -0.9,1.05 -0.3,0.3 -0.15,0.15 -0.15,0.15 -0.75,1.2 -0.6,0.6 -0.3,0.3 -0.15,0.15 -0.3,0.3 -0.9,1.2 -0.45,0.45 -0.3,0.3 -0.15,0.15 -0.3,0.45 -1.05,1.2 -0.45,0.45 -0.15,0 -0.15,0.3 -0.45,0.6 -1.05,1.05 -0.3,0.3 -0.15,0.15 -0.3,0.45 -0.45,0.6 -1.05,1.05 -0.3,0.45 -1.05,1.05 -0.45,0.6 -0.3,0.3 -0.15,0.15 -0.3,0.3 -1.05,1.2 -0.45,0.6 -0.15,0.15 -0.15,0.15 -0.45,0.45 -1.05,1.2 -0.3,0.45 -0.15,0.15 -0.3,0.3 -0.45,0.6 -1.05,1.2 -0.45,0.3 -0.9,1.2 -0.45,0.6 -0.45,0.45 0,0.15 -0.3,0.3 -1.05,1.2 -0.45,0.45 -0.3,0.3 -0.15,0.15 -0.3,0.45 -1.05,1.35 -0.45,0.45 -0.15,0.15 -0.15,0.3 -0.45,0.6 -1.05,1.2 -0.3,0.3 -0.15,0.15 -0.3,0.3 -0.45,0.6 -1.05,1.2 -0.3,0.45 -0.9,1.05 -0.45,0.6 -0.3,0.3 -0.15,0.15 -0.3,0.3 -0.9,1.2 -0.45,0.45 -0.15,0.15 -0.15,0.3 -0.45,0.45 -0.75,1.2 -0.3,0.3 -0.15,0.15 -0.3,0.3 -0.45,0.45 -0.75,1.05 -0.3,0.3 -0.75,1.05 -0.75,0.9 -0.15,0.15 -0.15,0.15 -0.9,1.05 -0.3,0.6 -0.3,0.15 0,0.15 -0.3,0.45 -0.9,1.05 -0.3,0.3 0,0.15 -0.3,0.3 -0.3,0.45 -0.9,1.05 -0.15,0.3 -0.15,0 -0.6,0.9 -0.75,0.9 -0.3,0.45 -0.75,1.05 -4.65,6 -0.9,1.05 -0.15,0.3 -0.75,1.05 -0.75,0.9 0,0.15 -0.3,0.15 -0.75,1.2 -0.45,0.45 -0.15,0.15 -0.15,0.15 -0.3,0.45 -0.75,1.05 -0.3,0.45 -0.15,0 -0.15,0.3 -0.3,0.45 -0.75,1.05 -0.3,0.3 -0.6,0.9 -0.75,0.9 -0.3,0.3 -0.6,0.9 -0.3,0.3 -0.15,0.3 -0.15,0.15 -0.15,0.3 -0.75,0.9 -0.3,0.3 -0.15,0.15 0,0.15 -0.3,0.3 -0.75,0.9 -0.15,0.3 0,0.15 -0.45,0.6 -0.6,0.75 -0.3,0.3 -0.45,0.75 -0.6,0.75 -0.15,0.3 -0.6,0.75 -0.3,0.45 -0.15,0.15 -0.15,0.15 -0.15,0.3 -0.6,0.75 -0.3,0.3 0,0.15 -0.15,0.15 -0.3,0.45 -0.6,0.9 -0.3,0.3 -1.05,1.5 -0.3,0.3 -0.6,0.9 -0.3,0.45 -0.15,0.3 -0.3,0.3 -0.6,0.9 -0.15,0.45 -0.15,0.15 -0.15,0.15 -0.3,0.45 -0.6,0.9 -0.15,0.3 -0.15,0.15 -0.15,0.3 -0.3,0.45 -0.6,0.9 -0.15,0.15 -0.15,0 -0.15,0.45 -0.75,1.05 -1.05,1.5 -0.9,1.35 -0.75,1.05 -0.3,0.45 -0.6,1.05 -0.3,0.3 -0.15,0.3 0,0.15 -0.3,0.3 -0.6,0.9 -0.3,0.45 -0.15,0.3 -0.3,0.45 -0.6,0.9 -0.15,0.3 -0.6,0.9 -0.45,0.75 -0.3,0.3 -0.45,0.9 -0.6,0.75 -0.15,0.3 -0.6,0.9 -0.3,0.3 0,0.15 -0.15,0.15 -0.15,0.45 -0.6,0.9 -0.15,0.3 0,0.15 -0.45,0.6 -0.6,0.75 -0.15,0.3 -0.45,0.75 -0.45,0.75 -0.3,0.3 -5.7,9.3 0,0.15 -0.3,0.45 -0.45,0.75 -0.15,0.3 -0.45,0.6 -0.45,0.75 -0.15,0.3 -0.9,1.5 -0.15,0.3 -0.6,0.9 -0.15,0.3 -0.15,0.15 -0.15,0.15 -0.15,0.3 -0.45,0.9 -0.15,0.3 -0.15,0 0,0.3 -0.3,0.45 -0.45,0.75 -0.15,0.3 -0.6,0.75 -0.45,0.75 -0.15,0.3 -0.45,0.9 -0.45,0.6 0,0.15 -0.15,0.3" />
      <path
         inkscape:connector-curvature="0"
         id="path4683"
         style="fill:none;stroke:#000000;stroke-width:8.31333637;stroke-linecap:round;stroke-linejoin:round;stroke-miterlimit:10;stroke-dasharray:none;stroke-opacity:1"
         d="m -1540.8581,609.27011 -0.6,0.9 -0.15,0.3 -0.15,0.15 0,0.15 -0.3,0.45 -0.45,0.9 -0.15,0.3 -0.15,0 -0.3,0.75 -0.6,0.75 -0.15,0.3 -0.45,0.9 -2.85,4.95 -0.6,0.9 -0.15,0.3 -0.9,1.65 -0.15,0.3 -0.45,0.9 -0.45,0.75 -0.3,0.3 -5.85,10.65 -0.15,0.3 -0.15,0.3 -0.45,1.05 -0.15,0.3 -0.45,0.75 -0.45,0.9 -0.15,0.3 -0.6,0.9 -0.3,0.75 -0.15,0.3 -0.6,1.05 -0.15,0.3 -0.15,0.15 0,0.15 -0.3,0.45 -0.45,0.9 -0.15,0.3 0,0.15 -0.45,0.75 -0.45,0.75 -0.15,0.3 -0.3,0.9 -0.45,0.75 -0.15,0.45 -0.45,0.9 -0.3,0.45 -0.15,0.15 0,0.15 -0.15,0.3 -0.45,1.05 -0.15,0.3 -0.15,0 -0.3,0.75 -0.3,0.9 -0.15,0.3 -0.9,1.65 -0.15,0.3 -0.3,0.9 -2.4,5.1 -0.3,0.75 -0.15,0.3 -0.75,1.65 -0.15,0.3 -0.3,0.9 -0.3,0.45 0,0.3 -0.15,0.3 -4.05,9.9 -1.8,4.95 0,0.15 -0.15,0.3 -0.3,0.75 0,0.3 -0.15,0 -0.15,0.6 -0.3,0.9 0,0.3 -0.6,1.35 -0.15,0.3 -0.15,0.9 -0.3,0.6 0,0.3 -0.45,0.9 0,0.3 -0.15,0.15 0,0.15 -0.15,0.45 -0.3,0.75 0,0.45 -0.3,0.6 -0.3,0.9 0,0.3 -0.6,1.65 -0.15,0.3 -0.3,1.05 -0.15,0.45 -0.15,0.15 0,0.15 -0.15,0.45 -0.3,1.05 -0.15,0.3 0,0.15 -0.15,0.3 -0.15,0.45 -0.3,1.05 -0.15,0.45 -0.3,0.9 -0.3,1.05 -0.15,0.3 -0.3,1.2 -0.15,0.6 -0.15,0.3 -0.15,0.45 -0.45,1.2 -0.15,0.6 0,0.15 -0.15,0.3 -0.15,0.45 -0.3,1.35 -0.15,0.45 -0.15,0.45 -0.15,0.6 -0.45,1.35 -0.15,0.45 -0.3,1.35 -0.15,0.6 -0.15,0.45 0,0.15 -0.15,0.45 -0.3,1.5 -0.15,0.6 -0.15,0.3 0,0.3 -0.15,0.6 -0.45,1.5 0,0.45 -0.15,0.15 0,0.45 -0.15,0.6 -0.45,1.5 0,0.6 -0.15,0.6 -0.15,0.75 -0.3,0.75 0,0.6 -0.15,0.15 0,0.45 -0.3,1.5 -0.15,0.6 -0.15,0.45 0,0.15 -0.15,0.6 -0.3,1.5 -0.15,0.6 -0.15,0.3 0,0.3 -0.15,0.6 -0.3,1.5 -0.15,0.45 0,0.15 -0.15,0.6 -0.15,0.6 -0.3,1.5 0,0.3 -0.15,0.45 -0.15,1.05 -0.45,1.5 -0.3,1.5 -0.15,0.9 -3,16.35 0,0.6 -0.15,0.15 0,0.3 -0.15,0.75 -0.15,1.5 -0.15,0.45 0,0.6 -0.15,0.6 -0.15,1.5 -0.15,0.45 -0.15,1.35 -0.15,0.75 -0.15,0.45 0,0.6 -0.3,1.5 0,0.6 -0.15,0.3 0,0.75 -0.3,1.35 0,1.05 -0.15,0.6 -0.15,1.5 -0.15,0.3 0,0.15 -0.3,2.25 0,0.6 -0.15,1.2 0,0.6 -0.15,0.45 0,1.05 -0.45,2.55 0,1.05 -0.15,0.3 0,0.75 -0.15,1.2 0,0.6 -0.15,0.75 0,1.35 -0.15,1.35 -0.15,1.05 0,0.6 -0.15,1.35 0,0.6 -0.15,0.45 0,0.6 -0.15,1.35 0,1.2 -0.15,0.6 0,1.5 -0.15,0.45 0,1.35 -0.15,1.5 0,1.05 -0.15,0.9 0,1.95 -0.15,1.5 0,0.75 -0.15,0.45" />
      <path
         inkscape:connector-curvature="0"
         id="path4685"
         style="fill:none;stroke:#000000;stroke-width:8.31333637;stroke-linecap:round;stroke-linejoin:round;stroke-miterlimit:10;stroke-dasharray:none;stroke-opacity:1"
         d="m -1603.4081,815.52011 0,2.25 -0.15,0.6 0,2.85 -0.15,0.45 0,1.2 -0.15,1.35 0,4.35 -0.15,0.45 0,3.15 -0.15,0.9 0,13.95 0.15,1.05 0,6.75 0.15,0.6 0,4.8 0.15,1.35 0,4.2 0.15,0.6 0,2.4 0.15,0.75 0,3.15 0.15,0.6 0,1.05 0.15,1.35 0,1.65 0.15,1.2 0,1.5 0.15,1.2 0,3 0.15,1.05 0,0.75 0.15,0.45 0,1.8 0.15,0.45 0,2.1 0.15,0.9 0,1.2 0.15,0.9 0,0.3 0.15,1.05 0,0.75 0.15,0.45 0,1.5 0.15,0.3 0,0.45 0.15,1.2 0,0.3 0.15,1.05 0,1.2 0.15,0.45 0.15,1.2 0,1.05 0.15,0.45 0.15,1.35 0,0.75 0.15,0.3 0,0.6 0.15,1.35 0.15,0.45 0,0.45 0.15,0.75 0.15,1.2 0,0.45 0.15,1.35 0,0.6 0.15,0.45 0,0.45 0.3,1.35 0,0.75 0.15,0.3 0,0.45 0.15,1.2 0,0.45 0.15,0.3 0,0.6 0.3,1.05 0,0.45 0.3,1.8 0,0.3 0.15,1.05 0.15,0.6 0,0.45 0.15,1.05 0.15,0.3 0,0.3 0.15,0.45 0.15,0.9 0,0.45 0.15,0.75 0.15,0.9 0.15,0.3 0.15,1.05 0.15,0.75 0,0.15 0.15,0.3 0.15,1.05 0.15,0.45 0,0.45 0.15,0.45 0.15,1.2 0.15,0.3 0,0.45 0.15,0.6 0.3,1.2 0.15,0.45 0.15,1.05 0.3,1.2 0,0.45 0.3,1.2 0.15,0.6 0,0.3 0.15,0.15 0,0.45 0.3,1.35 0.15,0.45 0,0.45 0.15,0.6 0.3,1.2 0,0.45 0.3,1.05 0.3,1.2 0,0.3 0.3,1.05 0.15,1.05 0.15,0.3 0.15,1.05 0.15,0.6 0,0.15 0.15,0.15 0,0.3 0.3,1.05 0,0.45 0.3,0.75 0.15,0.9 0.15,0.3 0.3,1.5 0,0.3 0.3,0.9 0.15,0.75 0.15,0.45 0.15,0.9 0.15,0.3 0,0.3 0.15,0.45 0.3,0.9 0,0.45 0.3,0.75 0.3,0.9 0,0.45 0.3,1.05" />
      <path
         inkscape:connector-curvature="0"
         id="path4687"
         style="fill:none;stroke:#000000;stroke-width:8.31333637;stroke-linecap:round;stroke-linejoin:round;stroke-miterlimit:10;stroke-dasharray:none;stroke-opacity:1"
         d="m -1588.1081,972.27011 0.3,0.9 0.15,0.45 0.3,1.05 0.15,0.45 0,0.3 0.15,0.15 0.15,0.6 0.3,1.2 0.15,0.45 0,0.15 0.15,0.3 0.15,0.6 0.45,1.2 0.15,0.45 0.3,1.35 0.3,0.75 0.15,0.45 0,0.15 0.15,0.3 0.45,1.5 0.15,0.6 0.15,0.45 0,0.15 0.15,0.45 0.45,1.65 0.15,0.6 0.15,0.15 0.15,0.3 0.15,0.75 0.6,1.5 0.15,0.45 0,0.15 0.15,0.6 0.3,0.75 0.45,1.65 0.3,0.45 0.45,1.65 0.3,0.9 0.3,0.45 0,0.15 0.15,0.6 0.75,1.79999 0.3,0.9 0,0.3 0.15,0.3 0.3,0.75 0.75,1.95 0.15,0.75 0.15,0.15 0.15,0.6 0.45,0.9 0.75,1.95 0.15,0.45 0.15,0.3 0.3,0.9 0.45,1.05 0.3,1.2 0.3,0.75 0.15,0.3 0.3,0.6 0.9,2.25 0.45,1.05 0.15,0.6 0.15,0.3 0.45,0.9 1.05,2.55 0.45,0.9 0,0.3 0.15,0.3 0.15,0.3 0.45,1.2 1.2,2.7 0.3,0.75 0.15,0.3 0.45,1.05 0.6,1.35 0.6,1.5 0.45,1.2 0.15,0.3 0,0.15 0.15,0.15 0.15,0.45 0.6,1.2 0.6,1.5 0.6,1.5 0.45,0.9 0.15,0.15 0.45,1.05 1.2,3 0.6,1.2 0.15,0.45 0.15,0.15 0,0.15 0.15,0.3 0.6,1.2 1.35,3 0.45,1.05 0.15,0.15 0.15,0.45 0.3,0.45 0.6,1.35 0.75,1.65 0.6,1.2 0.15,0.45 0.15,0.3 0.15,0.3 0.45,1.05 0.75,1.5 0.75,1.35 0.45,1.05 0.15,0.3 0.3,0.75 0.6,1.2 0.75,1.35 0.6,1.35 0.3,0.6 0.15,0.3 0.45,0.9 1.2,2.55 0.45,0.9 0.15,0.3 0.3,0.6 0.6,1.05 1.05,2.25 0.45,0.6 0,0.3 0.45,0.75 0.6,1.05 0.6,1.05 0.45,0.9 0.15,0.3 0.15,0.45 0.45,0.9 0.6,1.05 0.6,0.9 0.3,0.6 0.15,0.15 0.3,0.75 1.05,1.95 0.6,0.75 0.15,0.3 0.15,0.3 0.45,0.75 1.05,1.8 0.3,0.6 0.15,0.15 0.3,0.6 0.45,0.75 1.05,1.65 0.15,0.45 0.15,0.15 0.45,0.75 0.6,0.9 0.45,0.75 0.45,0.6 0.15,0.3 0.15,0.3 0.3,0.45 1.05,1.5 1.05,1.8 1.05,1.5 0.3,0.45 0.15,0.3 0.15,0.15 0.3,0.6 1.05,1.65 0.45,0.6 0.15,0.15 0.3,0.45 0.45,0.6 1.05,1.65 0.3,0.45 0.15,0.15 0.3,0.45 0.6,0.75 0.45,0.9 0.45,0.6 0.45,0.45 0.9,1.5 0.6,0.75 0.3,0.45 0.15,0.15 0.3,0.45 1.05,1.5 0.6,0.6 0.15,0.3 0.15,0.15 0.45,0.6 1.05,1.5 0.3,0.6 0.15,0.15 0.3,0.3 0.6,0.75 1.05,1.35 0.15,0.3 0.15,0.3 0.45,0.45 0.6,0.75 0.45,0.75 0.45,0.6 0,0.15 0.3,0.3 1.2,1.5 0.45,0.6 0.3,0.3 0.15,0.15 0.3,0.6 1.2,1.35 0.45,0.45 0,0.15 0.3,0.3 0.45,0.75 1.05,1.35 0.3,0.3 0.15,0.15 0.3,0.45 0.6,0.75 0.6,0.6 0.45,0.6 0.3,0.45 1.05,1.2 0.45,0.6 0.45,0.45 0,0.15 0.3,0.45 1.2,1.2 0.45,0.6 0.15,0.15 0.15,0.3 0.45,0.45 1.05,1.35 0.3,0.3 0.15,0.15 0.3,0.45 0.6,0.6 0.9,1.2 0.45,0.3 0.9,1.2 0.45,0.6 0.45,0.45 0.3,0.45 1.05,1.05 0.6,0.6 0.15,0.3 0.15,0.15 0.45,0.45 1.05,1.2 0.3,0.3 0.15,0.15 0.3,0.3 0.45,0.6 1.05,1.2" />
      <path
         inkscape:connector-curvature="0"
         id="path4689"
         style="fill:none;stroke:#000000;stroke-width:8.31333637;stroke-linecap:round;stroke-linejoin:round;stroke-miterlimit:10;stroke-dasharray:none;stroke-opacity:1"
         d="m -1485.6581,1161.8701 0.3,0.3 0.45,0.45 0.45,0.6 1.05,1.05 0.3,0.45 1.05,1.05 0.6,0.6 0.3,0.45 0.15,0 0.3,0.45 1.05,1.05 0.6,0.6 0.15,0.15 0.15,0.15 0.45,0.45 1.2,1.2 0.3,0.45 0.15,0.15 0.3,0.3 0.45,0.6 1.2,1.05 0.3,0.45 0.45,0.45 0.6,0.6 0.6,0.6 0.45,0.45 0,0.15 0.45,0.3 1.05,1.2 0.6,0.45 0.3,0.3 0.15,0.15 0.45,0.45 1.2,1.2 0.3,0.45 0.15,0.15 0.3,0.3 0.6,0.45 1.2,1.2 0.3,0.3 0.15,0.15 0.45,0.45 0.6,0.6 1.05,1.05 0.45,0.3 1.2,1.2 0.6,0.6 0.45,0.3 0,0.15 0.45,0.3 1.35,1.35 0.45,0.45 0.3,0.15 0.15,0.3 0.6,0.45 1.35,1.2 0.45,0.45 0.15,0.15 0.3,0.3 0.75,0.6 1.35,1.2 0.6,0.45 0.6,0.6 0.75,0.6 0.9,0.75 0.45,0.45 0.3,0.15 0.3,0.45 1.8,1.35 0.75,0.6 0.3,0.3 0.3,0.15 0.6,0.6 1.95,1.5 0.75,0.6 0.15,0.15 0.45,0.3 0.9,0.75 2.1,1.65 0.6,0.45 0.15,0.15 0.75,0.6 1.2,0.9 1.05,0.9 0.9,0.6 0.3,0.3 0.15,0.15 0.45,0.15 1.05,0.9 1.2,0.9 1.2,0.9 0.75,0.45 0.15,0.3 0.9,0.6 2.55,1.8 0.9,0.9 0.45,0.15 0,0.15 0.15,0 0.3,0.3 1.05,0.75 2.7,1.95 0.75,0.6 0.3,0.15 0.75,0.6 1.2,0.9 1.5,0.9 1.05,0.9 0.45,0.3 0.15,0 0,0.15 0.3,0.15 1.05,0.75 1.35,0.9 1.2,1.05 0.9,0.6 0.3,0.15 0.75,0.45 1.05,0.9 1.35,0.9 1.2,0.75 0.3,0.3 0.3,0.15 0.3,0.15 0.75,0.75 2.55,1.65 0.9,0.6 0.15,0.15 0.6,0.3 1.05,0.75 2.25,1.5 0.6,0.45 0.15,0.15 0.75,0.45 1.05,0.75 1.05,0.6 0.9,0.6 0.3,0.15 0.45,0.3 0.75,0.6 1.05,0.75 1.05,0.6 0.6,0.45 0.15,0 0.6,0.45 2.1,1.2 0.75,0.6 0.3,0.15 0.45,0.3 0.75,0.45 1.95,1.2 0.75,0.3 0.15,0.15 0.6,0.45 0.9,0.45 1.05,0.75 0.9,0.45 0.3,0.3 0.3,0.15 0.9,0.45 1.05,0.6 1.05,0.6 0.75,0.45 0.15,0.15 0.6,0.3 2.25,1.2 0.9,0.6 0.6,0.3 0.15,0.15 0.9,0.45 2.4,1.35 0.9,0.45 0.15,0.15 0.6,0.3 1.2,0.6 2.4,1.35 0.75,0.45 0.15,0.15 0.9,0.45 1.35,0.6 1.35,0.75 1.05,0.6 0.15,0.15 0.3,0 0.3,0.3 1.2,0.6 1.35,0.75 1.35,0.6 0.75,0.45 0.15,0.15 0.9,0.45 2.7,1.35 1.2,0.6 0.3,0.15 0.15,0 0.15,0.15 0.3,0.15 1.05,0.6 2.85,1.35 0.75,0.45 0.3,0.15 0.75,0.45 1.35,0.6 1.35,0.75 1.2,0.6 0.45,0.15 0.15,0 0,0.15 0.3,0.15 1.05,0.45 1.5,0.6 1.35,0.75 0.9,0.45 0.3,0.15 0.6,0.3 2.55,1.2 1.2,0.6 0.6,0.3 0.3,0.15 1.05,0.45 2.55,1.2 0.9,0.45 0.3,0 0.6,0.3 1.2,0.6 2.4,1.05 0.75,0.3 0.15,0.15 0.9,0.3 1.2,0.6 1.35,0.6 0.9,0.3 0.3,0.15 0.6,0.3 1.05,0.45 1.2,0.45 1.2,0.6 0.75,0.3 0.15,0 0.75,0.3 2.55,1.05 0.9,0.45 0.45,0.15 0.45,0.15 0.9,0.3 2.4,1.05 0.75,0.3 0.3,0 0.75,0.3 1.05,0.45 1.35,0.45 1.05,0.45" />
      <path
         inkscape:connector-curvature="0"
         id="path4691"
         style="fill:none;stroke:#000000;stroke-width:8.31333637;stroke-linecap:round;stroke-linejoin:round;stroke-miterlimit:10;stroke-dasharray:none;stroke-opacity:1"
         d="m -1286.6081,1293.5701 0.45,0.15 0.3,0.15 0.9,0.3 1.35,0.45 1.2,0.45 0.75,0.15 0.3,0.15 0.6,0.15 2.4,0.9 1.05,0.3 0.6,0.15 0.3,0.15 0.75,0.3 2.4,0.75 0.9,0.3 0.3,0.15 0.6,0.15 1.05,0.3 2.25,0.75 0.6,0.15 0.3,0.15 0.75,0.15 1.2,0.45 1.2,0.3 0.9,0.3 0.3,0 0.45,0.15 1.05,0.3 1.05,0.45 1.2,0.3 0.6,0.15 0.15,0.15 0.75,0.15 2.25,0.6 0.9,0.3 0.3,0.15 0.45,0.15 0.9,0.15 2.1,0.6 0.75,0.3 0.15,0 0.6,0.15 1.05,0.3 1.95,0.6 0.3,0 0.3,0.15 0.75,0.15 1.05,0.3 1.05,0.3 0.6,0.15 0.3,0 0.45,0.15 1.95,0.6 0.9,0.3 0.45,0 0.15,0.15 0.75,0.15 1.95,0.45 0.75,0.3 0.15,0 0.6,0.15 0.75,0.15 1.95,0.45 0.45,0.15 0.15,0.15 0.75,0.15 0.9,0.15 1.05,0.3 0.75,0.15 0.15,0 0.45,0.15 1.95,0.45 0.9,0.15 0.45,0.15 0.3,0.15 0.6,0 1.95,0.45 0.9,0.15 0.3,0.15 0.3,0 0.9,0.3 2.1,0.3 0.6,0.15 0.15,0 0.75,0.15 0.9,0.15 1.95,0.45 0.45,0 0.3,0.15 0.75,0.15 1.2,0.15 1.05,0.15 0.6,0.15 0.3,0 0.45,0.15 0.75,0.15 1.95,0.3 2.25,0.3 1.95,0.3 0.6,0.15 0.3,0 0.3,0.15 0.75,0 2.25,0.45 0.75,0.15 0.75,0 1.05,0.15 2.1,0.45 0.45,0 0.3,0.15 0.75,0 1.05,0.15 1.05,0.15 0.9,0.15 0.15,0 0.45,0.15 1.95,0.15 1.05,0.15 0.6,0.15 0.15,0 0.75,0.15 2.1,0.3 0.75,0.15 0.75,0 0.75,0.15 2.1,0.3 0.75,0 0.6,0.15 0.9,0.15 1.95,0.3 0.6,0 0.75,0.15 1.05,0 1.05,0.15 0.6,0.15 0.75,0 1.95,0.3 0.75,0.15 0.45,0 0.3,0.15 0.6,0 1.95,0.3 0.9,0 0.3,0.15 0.6,0 1.8,0.3 1.95,0.15 1.65,0.3 1.2,0 0.6,0.15 0.9,0.15 1.05,0.15 0.9,0 0.3,0.15 1.8,0.15 0.9,0 0.45,0.15 0.75,0 1.8,0.3 0.75,0.15 0.75,0 0.75,0.15 1.8,0.15 0.75,0 0.6,0.15 0.75,0.15 1.8,0.15 0.6,0.15 0.75,0 1.05,0.15 0.9,0 0.6,0.15 0.75,0 1.8,0.15 0.9,0.15 0.6,0 0.75,0.15 1.95,0.15 0.75,0.15 0.6,0 0.6,0.15 1.8,0.15 2.1,0.15 1.8,0.15 0.6,0.15 1.35,0 1.05,0.15 1.05,0.15 1.05,0 0.45,0.15 1.95,0.15 1.65,0 0.75,0.15 1.95,0.15 0.75,0.15 1.5,0 2.1,0.15 0.6,0.15 0.75,0 0.9,0.15 1.8,0.15 1.5,0 0.9,0.15 1.8,0 0.6,0.15 1.8,0 0.9,0.15 1.2,0 1.95,0.15 1.2,0 0.9,0.15 2.4,0 0.6,0.15 1.8,0 0.6,0.15 2.25,0 0.75,0.15 3,0" />
      <path
         inkscape:connector-curvature="0"
         id="path4693"
         style="fill:none;stroke:#000000;stroke-width:8.31333637;stroke-linecap:round;stroke-linejoin:round;stroke-miterlimit:10;stroke-dasharray:none;stroke-opacity:1"
         d="m -1071.0581,1329.8701 1.2,0 0.6,0.15 2.85,0 0.75,0.15 5.25,0 1.5,0.15 6.6,0 0.3,0 0.75,0 0.75,0.15 22.2,0 1.35,-0.15 21.15,0 0.75,0.15 13.05,0 0.45,-0.15 11.85,0 0.15,-0.15 5.7,0 0.45,-0.15 4.2,0 0.3,-0.15 5.55,-0.15 1.5,0 0.9,-0.15 2.55,0 0.3,-0.15 2.55,0 0.3,-0.15 2.25,0 0.45,-0.15 1.95,0 0.9,-0.15 1.65,0 0.45,-0.15 2.1,0 1.35,-0.15 0.9,0 0.3,-0.15 0.6,0 1.5,-0.15 5.55,-0.3 22.5,-2.1 5.4,-0.6 0.75,-0.15 1.05,0 1.35,-0.15 0.6,-0.15 1.05,0 0.75,-0.15 0.75,-0.15 0.3,0 2.55,-0.3 0.9,0 0.45,-0.15 1.05,0 0.45,-0.15 0.6,0 2.7,-0.45 1.2,0 0.15,-0.15 0.9,0 0.45,-0.15 0.75,0 1.35,-0.15 0.6,-0.15 0.75,0 0.3,-0.15 0.9,0 0.45,-0.15 0.45,0 0.75,-0.15 0.6,0 1.2,-0.15 0.9,-0.15 0.3,0 0.6,-0.15 2.85,-0.3 5.25,-0.6 5.7,-0.75 5.55,-0.75 2.85,-0.45 0.45,-0.15 0.6,0 0.45,-0.15 0.6,0 1.5,-0.15 0.6,-0.15 0.75,0 0.45,-0.15 1.65,-0.15 3,-0.45 0.6,-0.15 0.15,0 0.45,-0.15 0.75,-0.15 0.9,-0.15 0.6,0 0.45,-0.15 0.75,0 0.3,-0.15 1.65,-0.15 0.75,-0.15 0.3,-0.15 0.9,-0.15 1.65,-0.15 0.6,-0.15 0.45,-0.15 0.75,0 3.3,-0.6 0.6,0 0.15,-0.15 0.45,-0.15 0.6,0 1.5,-0.3 1.65,-0.3 0.3,0 0.15,-0.15 0.45,0 0.45,-0.15 0.6,0" />
      <path
         inkscape:connector-curvature="0"
         id="path4695"
         style="fill:none;stroke:#000000;stroke-width:8.31333637;stroke-linecap:round;stroke-linejoin:round;stroke-miterlimit:10;stroke-dasharray:none;stroke-opacity:1"
         d="m -825.0581,1314.1201 11.4,-2.4 10.95,-2.7 5.4,-1.35 2.85,-0.75 1.35,-0.45 0.9,-0.3 0.45,0 0.6,-0.3 3,-0.75 0.75,-0.15 0.9,-0.3 0.3,-0.15 0.75,-0.15 0.9,-0.3 0.45,-0.15 3,-0.9 0.9,-0.15 0.15,-0.15 0.45,-0.15 0.45,0 0.15,-0.15 1.65,-0.45 6.6,-1.95 6.45,-2.1 13.65,-4.65 6.9,-2.7 1.65,-0.6 0.75,-0.45 0.45,-0.15 0.15,0 0.45,-0.15 0.6,-0.3 0.3,0 0.45,-0.3 0.75,-0.3 1.05,-0.3 0.75,-0.45 3.45,-1.5 3.6,-1.5 3.45,-1.5 3.45,-1.65 1.05,-0.45 0.75,-0.3 0.6,-0.3 0.3,-0.15 0.45,-0.15 0.6,-0.3 0.15,-0.15 0.45,-0.15 1.95,-0.9 0.15,-0.15 0.75,-0.3 0.45,-0.15 0.15,-0.15 0.45,-0.3 0.45,-0.15 0.6,-0.3 3.9,-1.8 3.75,-1.95 3.75,-1.95 4.05,-1.95 7.5,-3.9 7.5,-4.05 3.45,-1.8 1.8,-1.05 0.9,-0.45 0.15,-0.15 0.6,-0.3 0.45,-0.15 0.15,-0.15 0.3,-0.3 1.05,-0.45 0.75,-0.45 0.6,-0.3 0.3,-0.3 0.75,-0.3 1.65,-0.9 0.45,-0.3 0.15,0 0.45,-0.3 0.45,-0.3 0.15,0 0.45,-0.3 0.3,-0.15 0.75,-0.45 0.6,-0.3 0.15,-0.15 0.75,-0.45 1.5,-0.9 2.85,-1.65 5.7,-3.45 5.55,-3.6 2.85,-1.8 3.15,-2.1 6.45,-4.5 3.3,-2.4 1.95,-1.2 1.05,-0.75 0.45,-0.3 0.3,-0.15 0.15,-0.15 0.75,-0.6 0.3,-0.15 7.35,-5.4 7.35,-5.25 0.6,-0.45 0.15,-0.15 0.45,-0.45 0.6,-0.3 0.15,-0.15 0.6,-0.45 0.15,-0.15 0.75,-0.45 0.3,-0.3 0.15,-0.15 0.9,-0.75 3.45,-2.55 3.3,-2.4 0.45,-0.3 0.3,-0.3 0.6,-0.45 0.45,-0.3 0.3,-0.3 1.5,-1.2 3,-2.4 0.6,-0.45 0.75,-0.6 0.15,0 0.3,-0.3 0.45,-0.45 0.15,0 0.75,-0.6 2.4,-2.1 2.25,-1.95 1.2,-0.9 0.3,-0.3 0.15,-0.15 0.3,-0.15 0.3,-0.3 0.15,-0.15 0.3,-0.3 0.45,-0.45 0.3,-0.15 0.6,-0.6 0.6,-0.45 0.15,-0.3 0.15,-0.15 0.45,-0.3 1.95,-1.65 0.3,-0.3 0.6,-0.45 0.45,-0.45 0.9,-0.9 1.8,-1.65 0.9,-0.9 0.15,-0.15 0.75,-0.75 0.6,-0.6 0.15,-0.15 0.45,-0.3 1.65,-1.8 0.3,-0.15 0.45,-0.6 0.45,-0.3 0.3,-0.3 0.15,-0.15 0.3,-0.3 0.45,-0.3 1.65,-1.8 0.15,-0.15 0.6,-0.45 0.15,-0.3 0.45,-0.6 0.9,-0.75 3.3,-3.3 0.45,-0.6 0.15,-0.15 0,-0.15 0.3,-0.15 0.3,-0.3 0,-0.15 0.9,-0.75 1.65,-1.65 0.3,-0.45 0.45,-0.6 0.15,-0.15 0.75,-0.9 1.65,-1.5 3,-3.45 3,-3.3 1.5,-1.65 0.75,-0.9 0.3,-0.45 0.3,-0.15 0.45,-0.6 6,-7.05 6,-7.35 3.15,-3.9 1.5,-1.95 0.75,-1.05 0.6,-0.6 0.15,-0.3 0.3,-0.45 6.15,-8.25 1.65,-2.1 0,-0.15 0.3,-0.3 0.3,-0.3 0,-0.15 0.45,-0.6 0.75,-1.05 0.75,-1.05 0.3,-0.6 0.15,-0.15 0.3,-0.45 0.15,-0.15 0.15,-0.15 1.5,-2.25 6,-9 6,-9.45 1.5,-2.7 1.5,-2.7 1.5,-2.55 1.65,-2.85 0.75,-1.5 0.45,-0.75 0.15,-0.45 0.3,-0.45 0.15,-0.45 1.65,-3.15 0.9,-1.5 0.3,-0.9 0.3,-0.45 0.15,-0.15 0.15,-0.45 0.3,-0.6 0.15,-0.15 0.15,-0.45 0.15,-0.3 0.3,-0.6 0.15,-0.3 0.15,-0.15 0.6,-1.05 0.3,-0.75 1.8,-3.9 0.45,-0.9 0.3,-0.45 0.6,-1.2 0.45,-0.9 0.15,-0.45 0,-0.15 0.3,-0.6 1.95,-3.9" />
      <path
         inkscape:connector-curvature="0"
         id="path4697"
         style="fill:none;stroke:#000000;stroke-width:8.31333637;stroke-linecap:round;stroke-linejoin:round;stroke-miterlimit:10;stroke-dasharray:none;stroke-opacity:1"
         d="m -483.2081,1058.2201 1.95,-4.05 3.9,-8.7 1.8,-4.2 0.9,-1.95 0.15,-0.45 0.15,-0.15 0.3,-0.6 0,-0.15 0.15,-0.3 0.15,-0.3 0.15,-0.45 0.3,-0.75 0.15,-0.3 0.3,-0.6 0.15,-0.45 0.15,-0.3 0.15,-0.15 0.15,-0.6 0.15,-0.15 0.15,-0.3 0,-0.3 0.3,-0.45 0.3,-0.6 0,-0.3 0.3,-0.6 0,-0.15 0.15,-0.15 0.6,-1.35 0.3,-0.75 0.15,-0.3 0.15,-0.15 0.15,-0.6 0.15,-0.45 0.3,-0.6 0.3,-0.6 0.3,-0.9 1.5,-3.75 0.45,-0.9 0.3,-1.05 0.3,-0.45 0.6,-1.65 2.55,-6.45 1.2,-3 1.05,-2.7 0.3,-0.75 0,-0.3 0.15,-0.45 0.15,-0.3 0.3,-0.9 0.15,-0.45 0.15,-0.45 0.15,-0.45 0.15,-0.15 0.15,-0.45 0.3,-0.74999 0.45,-1.35 0.15,-0.75 0.15,-0.45 0.15,-0.15 0.15,-0.3 0.3,-1.2 0.75,-2.4 0.15,-0.3 0.3,-0.6 0.15,-0.6 0,-0.3 0.3,-0.6 0.15,-0.6 0.75,-2.25 0.75,-2.1 0.6,-2.1 1.2,-3.9 0.45,-1.8 0.6,-1.8 0.15,-0.45 0,-0.15 0.15,-0.3 0.15,-1.05 0.15,-0.15 0,-0.15 0.15,-0.9 0.45,-1.5 0.9,-2.85 1.35,-5.25 0.6,-2.55 0.6,-2.85 0.6,-3 0.15,-0.45 0.15,-0.15 0,-0.45 0.15,-0.9 0.45,-1.8 0.75,-3.45 0.15,-0.6 0,-0.3 0.15,-0.3 0.15,-1.05 0.45,-1.8 0.3,-1.8 0.15,-0.3 0,-0.45 0.15,-0.3 0,-0.45 0.15,-0.9 0.75,-3.3 0.6,-3 0.45,-2.85 1.05,-5.4 0.3,-3 0.15,-0.75 0,-0.15 0.15,-0.6 0,-0.3 0.3,-1.8 0.45,-3.6 0.45,-3.9 0.45,-3.75 0.15,-1.05 0.15,-0.45 0,-0.75 0.15,-1.95 0.15,-0.9 0,-0.3 0.15,-0.3 0,-0.45 0.15,-1.95 0.3,-2.25 0,-1.35 0.15,-1.05 0,-0.6 0.15,-0.15 0,-1.65 0.15,-0.15 0,-1.8 0.15,-0.45 0,-1.05 0.15,-1.5 0,-1.95 0.15,-0.15 0,-2.25 0.15,-0.15 0,-2.55 0.15,-0.3 0,-2.55 0.15,-0.15 0,-2.85 0.15,-0.3 0,-2.7 0.15,-0.3 0,-3.3 0.15,-0.3 0,-3.6 0.15,-0.9 0,-4.05 0.15,-0.3 0,-6.45 0.15,-0.3 0,-4.5" />
      <path
         inkscape:connector-curvature="0"
         id="path4699"
         style="fill:none;stroke:#000000;stroke-width:8.31333637;stroke-linecap:round;stroke-linejoin:round;stroke-miterlimit:10;stroke-dasharray:none;stroke-opacity:1"
         d="m -434.0081,847.17011 0,-17.1 -0.15,-0.3 0,-3.45 -0.15,-0.3 0,-1.65 0,-0.45 0,-0.75 -0.15,-0.6 0,-2.4 -0.15,-0.3 0,-2.55 -0.15,-0.3 0,-2.25 -0.15,-0.3 0,-2.25 -0.15,-0.6 0,-0.9 -0.15,-3.45 -0.15,-0.3 0,-1.8 -0.15,-0.3 0,-1.95 -0.15,-0.3 0,-1.35 -0.3,-2.85 0,-1.05 -0.15,-0.3 0,-1.05 -0.3,-2.4 0,-1.2 -0.15,-0.9 -0.45,-4.05 -0.9,-7.5 -0.6,-4.05 -0.45,-4.05 -0.75,-4.2 -0.3,-2.1 -0.15,-1.05 0,-0.3 -0.15,-0.3 0,-0.75 -1.5,-8.25 -1.65,-8.1 -1.65,-8.25 -0.9,-4.2 -0.9,-4.5 -2.1,-8.7 -2.1,-8.1 -0.9,-3.75 -0.3,-0.9 -0.15,-0.6 -0.15,-0.15 -0.15,-0.45 -0.45,-1.8 -2.1,-6.3 -0.9,-2.85 -0.9,-2.7 -1.65,-4.95 -1.65,-4.65 -3.6,-9.75 -1.95,-4.95 -2.1,-4.95 -4.8,-10.35 -2.55,-5.25 -1.35,-2.7 -0.3,-0.6 -0.15,-0.3 -0.45,-0.6 -0.6,-1.5 -3.15,-5.7 -0.3,-0.6 -0.15,-0.45 -0.3,-0.45 -0.75,-1.35 -0.45,-0.6 0,-0.3 -0.3,-0.45 -0.15,-0.15 -0.75,-1.65 -1.5,-2.55 -0.15,-0.3 -0.15,-0.3 -0.15,-0.3 -0.3,-0.6 -0.15,-0.3 -0.75,-1.35 -0.75,-1.2 -0.45,-0.9 -0.45,-0.75 -0.75,-1.2 -0.15,-0.3 -0.45,-0.6 0,-0.3 -0.6,-0.9 -0.45,-0.75 -0.15,-0.45 -0.15,-0.15 -0.15,-0.3 -0.75,-1.35 -0.15,-0.3 -0.15,-0.15 -0.15,-0.3 -0.45,-0.6 -0.3,-0.6 -0.15,-0.3 -0.3,-0.6 -0.15,-0.3 -0.3,-0.3 -0.15,-0.3 -0.3,-0.6 -0.3,-0.45 0,-0.15 -0.15,-0.3 -0.3,-0.3 0,-0.15 -0.45,-0.6 -0.45,-0.9 -0.15,-0.3 -0.3,-0.3 0,-0.15 -0.6,-1.05 -0.15,-0.3 -0.3,-0.3 -0.15,-0.15 -1.05,-1.95 0,-0.15 -0.3,-0.3 -0.15,-0.3 -0.3,-0.6 -0.3,-0.45 -0.15,-0.15 0,-0.15 -0.3,-0.3 -0.3,-0.6 -0.15,-0.3 -0.3,-0.45 -0.15,-0.3 -0.15,-0.3 -0.15,-0.3 -2.85,-4.65 -2.85,-4.5 -0.6,-1.2 -1.2,-1.65 -0.3,-0.6 -0.3,-0.3 0,-0.15 -0.3,-0.45 -0.15,-0.3 -0.15,-0.3 -0.15,-0.15 -0.45,-0.6 -1.35,-2.4 -0.45,-0.6 -0.15,-0.15 0,-0.15 -0.3,-0.45 -0.3,-0.3 -0.15,-0.3 -0.3,-0.6 -0.75,-1.05 -0.3,-0.6 -0.3,-0.3 -0.45,-0.9 -0.15,-0.15 -0.45,-0.6 -0.6,-1.05 -0.3,-0.3 -0.15,-0.15 -0.15,-0.3 -0.15,-0.3 -0.3,-0.45 0,-0.15 -0.15,0 -0.15,-0.3 -0.3,-0.45 -0.15,-0.15 -0.45,-0.75 0,-0.15 -0.15,-0.15 -0.15,-0.3 -0.3,-0.45 -0.15,-0.15 -0.15,-0.15 -0.45,-0.75 -0.15,-0.3 -0.15,-0.3 -0.15,-0.15 -0.3,-0.3 -0.45,-0.75 -0.15,-0.3 -0.15,-0.15 -0.15,-0.3" />
      <path
         inkscape:connector-curvature="0"
         id="path4701"
         style="fill:none;stroke:#000000;stroke-width:8.31333637;stroke-linecap:round;stroke-linejoin:round;stroke-miterlimit:10;stroke-dasharray:none;stroke-opacity:1"
         d="m -523.1081,567.72011 -0.3,-0.3 -0.45,-0.75 -0.15,-0.15 0,-0.15 -0.3,-0.3 -0.3,-0.6 -0.45,-0.6 -0.6,-0.9 -0.45,-0.75 -0.3,-0.3 -0.15,-0.15 0,-0.15 -0.3,-0.3 -1.2,-1.8 -0.3,-0.45 0,-0.15 -0.15,-0.15 -0.3,-0.45 -0.3,-0.3 -0.15,-0.3 -0.3,-0.3 -0.3,-0.45 0,-0.15 -0.15,-0.15 -0.15,-0.15 -0.3,-0.45 -0.15,-0.3 -0.45,-0.6 -4.05,-5.7 -0.6,-0.75 -0.3,-0.45 -0.3,-0.3 -0.45,-0.6 -0.15,-0.3 -0.45,-0.45 -0.15,-0.3 -0.45,-0.6 -0.3,-0.15 0,-0.15 -0.3,-0.45 -0.3,-0.3 0,-0.15 -1.05,-1.2 -0.6,-0.9 -0.3,-0.45 -0.45,-0.45 -0.6,-0.9 -0.45,-0.6 -2.25,-2.85 -4.5,-6 -1.05,-1.2 -0.45,-0.75 -0.45,-0.45 -0.6,-0.75 -0.45,-0.75 -0.75,-0.75 -0.3,-0.45 -0.3,-0.45 -0.15,-0.15 -0.3,-0.3 -0.15,-0.15 -0.3,-0.3 -0.45,-0.6 -0.15,-0.15 -0.3,-0.45 -0.6,-0.75 -0.6,-0.75 -0.45,-0.6 -1.2,-1.35 -1.35,-1.5 -0.15,-0.15 -0.3,-0.45 -0.3,-0.3 -0.45,-0.45 -0.15,-0.15 -0.3,-0.3 -0.45,-0.6 -0.15,-0.15 -0.45,-0.45 -0.3,-0.45 -0.3,-0.3 -0.45,-0.6 -0.45,-0.45 -0.3,-0.3 -0.6,-0.75 -0.3,-0.3 -0.15,-0.15 -0.15,0 -0.15,-0.45 -0.75,-0.75 -0.3,-0.15 0,-0.15 -0.6,-0.6 -0.6,-0.75 -0.3,-0.3 -0.75,-0.9 -0.6,-0.75 -0.15,-0.15 -0.15,-0.15 -0.9,-0.9 -0.3,-0.45 -0.15,-0.3 -0.15,0 -0.3,-0.45 -0.75,-0.9 -0.3,-0.3 -0.15,-0.15 -0.15,-0.3 -0.45,-0.45 -0.75,-0.9 -0.3,-0.3 -1.5,-1.65 -0.3,-0.45 -0.9,-0.9 -0.3,-0.45 -0.3,-0.3 -0.15,-0.15 -0.3,-0.3 -0.9,-1.2 -0.45,-0.45 -0.15,-0.15 -0.15,-0.3 -0.45,-0.45 -1.2,-1.35 -0.3,-0.45 -0.15,-0.15 -0.45,-0.45 -0.6,-0.75 -1.35,-1.5 -0.45,-0.45" />
      <path
         inkscape:connector-curvature="0"
         id="path4703"
         style="fill:none;stroke:#000000;stroke-width:8.31333637;stroke-linecap:round;stroke-linejoin:round;stroke-miterlimit:10;stroke-dasharray:none;stroke-opacity:1"
         d="m -716.7581,-10.229915 -0.45,0.4499997 -0.15,0.15 -0.15,0.15 -0.45,0.45 -1.05,0.75 -0.15,0.15 -0.3,0.15 -1.2,0.9 -0.45,0.45 -0.9,0.75 -1.2,0.9 -1.05,0.9 -0.3,0.15 -0.15,0.15 -0.3,0.15 -0.45,0.45 -1.05,0.75 -0.15,0.15 -0.3,0.3 -1.2,0.75 -0.3,0.30000001 -0.15,0 -1.05,0.75 -0.45,0.3 -0.15,0.15 -0.15,0.15 -0.6,0.3 -0.75,0.59999999 -0.15,0.15 -0.3,0.15 -1.05,0.75 -0.45,0.15 -0.75,0.6 -0.45,0.3 -0.15,0 -0.15,0.15 -0.45,0.3 -0.9,0.6 -0.3,0.15 -0.9,0.45 -0.3,0.3 -0.9,0.45 -0.3,0.15 -0.15,0.15 -0.6,0.3 -0.75,0.45 -0.45,0.3 -0.75,0.45 -0.3,0.15 -0.75,0.45 -0.3,0.15 -0.15,0 -0.75,0.45 -0.3,0.15 -0.3,0.15 -0.15,0.15 -0.3,0.15 -0.75,0.45 -0.3,0.1500003 -0.9,0.45 -0.3,0.15 -0.15,0 -0.75,0.45 -0.3,0.15 -0.15,0.15 -0.15,0 -0.45,0.15 -0.75,0.45 -0.45,0.15 -0.75,0.45 -0.45,0.15 -0.75,0.3 -0.45,0.3 -0.15,0 -0.15,0.15 -0.45,0.15 -0.75,0.3 -0.15,0.15 -0.75,0.3 -1.8,0.75 -0.6,0.3 -0.15,0 -0.9,0.3 -0.45,0.15 -0.15,0.15 -0.3,0 -0.45,0.3 -0.75,0.3 -0.15,0 -0.45,0.15 -1.05,0.3 -0.45,0.15 -1.05,0.3 -0.45,0.15 0,0.15 -0.45,0 -0.45,0.15 -0.6,0.15 -0.3,0.15 -0.15,0 -0.45,0.15 -1.05,0.3 -0.45,0.15 -1.2,0.3 -0.45,0.15 -0.15,0 -1.05,0.15 -0.45,0.15 -0.3,0.15 -0.15,0 -0.6,0.15 -1.2,0.15 -0.45,0.15 -1.2,0.3 -0.45,0 -1.05,0.3 -0.6,0 -0.3,0.15 -0.75,0 -1.05,0.3 -0.45,0 -1.2,0.15 -0.45,0 -1.2,0.15 -0.45,0 -0.3,0.15 -0.75,0 -1.05,0.15 -1.65,0 -0.45,0.15 -1.2,0 -0.45,0.15 -5.55,0 -0.45,0.15 -0.6,0 -0.6,-0.15 -5.7,0 -0.75,-0.15 -1.65,0 -1.2,-0.15 -0.45,0 -1.35,-0.15 -1.65,0 -0.6,-0.15 -1.05,0 -1.05,-0.15 -0.6,0 -1.2,-0.15 -0.6,-0.15 -0.9,0 -1.05,-0.15 -1.05,-0.15 -0.45,0 -0.3,-0.15 -0.45,0 -1.05,-0.15 -0.15,0 -0.6,-0.15 -0.75,0 -1.8,-0.45 -1.65,-0.15 -0.45,-0.15 -0.3,0 -1.2,-0.3 -0.6,0 -1.2,-0.3 -0.6,0 -1.05,-0.3 -0.75,0 -0.3,-0.15 -0.75,-0.15 -0.45,-0.15 -0.3,0 -0.3,-0.15 -0.6,-0.15 -0.6,0 -0.3,-0.15 -0.3,0 -0.6,-0.15 -0.6,-0.15 -0.45,-0.15 -0.3,0 -1.05,-0.3 -1.35,-0.45 -1.05,-0.15 -0.3,-0.15 -0.75,-0.3 -2.55,-0.75 -0.45,-0.15 -0.3,-0.15 -1.35,-0.45 -0.45,0 -0.15,-0.15 -1.2,-0.45 -0.45,-0.15 -0.15,0 -1.2,-0.45 -0.6,-0.3 -0.15,0 -0.45,-0.15 -0.6,-0.3 -0.6,-0.3 -0.3,0 -0.3,-0.15 -0.6,-0.3 -0.6,-0.3 -0.3,-0.15 -0.15,0 -0.15,-0.15 -1.2,-0.45 -1.2,-0.75 -0.9,-0.3000003 -0.3,-0.15 -0.45,-0.3" />
      <path
         inkscape:connector-curvature="0"
         id="path4705"
         style="fill:none;stroke:#000000;stroke-width:8.31333637;stroke-linecap:round;stroke-linejoin:round;stroke-miterlimit:10;stroke-dasharray:none;stroke-opacity:1"
         d="m -858.2412,9.3866896 -1.05393,-0.4537221 -0.15056,0 -0.45168,-0.226861 -1.05392,-0.4537221 -0.45168,-0.226861 -1.2045,-0.453722 -0.30112,-0.226861 -0.15056,0 -1.05392,-0.5671526 -0.30112,-0.226861 -0.15056,0 -1.05393,-0.453722 -0.45168,-0.226861 -0.15056,-0.1134305 -0.30112,-0.1134305 -0.45168,-0.3402916 -0.45168,-0.226861 -0.30113,-0.1134305 -0.15056,-0.1134304 -0.45169,-0.2268611 -0.45168,-0.3402915 -0.45168,-0.1134305 0,-0.1134305 -0.45168,-0.2268611 -0.90337,-0.4537219 0,-0.1134305 -0.45168,-0.1134306 -0.7528,-0.5671525 -0.45168,-0.2268611 -0.90336,-0.5671524 -0.30113,-0.2268611 -0.90337,-0.453722 -0.30112,-0.22686104 -0.7528,-0.56715253 -0.45168,-0.11343052 0,-0.1134305 -0.75281,-0.45372203 -0.30112,-0.22686101 -0.15056,-0.11343052 -0.15056,-0.1134305 -0.30112,-0.22686105 -0.45168,-0.3402915 -0.15056,-0.1134305 -0.15056,-0.1134305 -0.30112,-0.1134305 -0.75281,-0.4537221 0,-0.1134305 -0.60224,-0.3402914 -0.75281,-0.5671526 -0.60224,-0.3402915 -0.30112,-0.3402916 -0.60225,-0.4537219 -0.30112,-0.2268611 -0.60224,-0.453722 -0.30112,-0.2268608 -0.60224,-0.453722 -0.15056,-0.1134305 -0.15056,-0.1134305 -0.60224,-0.4537221 -0.15056,-0.1134305 -0.15057,-0.1134305 -0.30112,-0.3402916 -0.60224,-0.4537219 -0.60225,-0.4537221 -0.30112,-0.226861 -0.15056,-0.1134305 -0.15056,-0.226861 -0.60224,-0.453722 -0.30113,-0.226861 -0.45168,-0.4537221 -0.15056,-0.1134305 -0.15056,-0.1134305 -0.60224,-0.567153 -0.30112,-0.226861 -0.60224,-0.567152 -0.15056,-0.226861 -0.60225,-0.567153 -0.30112,-0.226861 -0.60224,-0.567152 -0.15056,-0.226861 -0.15056,0 -0.45169,-0.453722 -0.30112,-0.340292 -0.15056,0 -0.15056,-0.226861 -0.30112,-0.340292 -0.30113,-0.226861 -0.15056,-0.11343 0,-0.113431 -0.30112,-0.340291 -0.45168,-0.453722 -0.15056,0 -0.15056,-0.226861 -0.45168,-0.567153 -0.30112,-0.226861 -0.60224,-0.567152 -0.15057,-0.226861 -0.45168,-0.567153 -0.30112,-0.226861 -0.45168,-0.567152 -2.7101,-3.062624 -0.45168,-0.453722 0,-0.11343 -0.30112,-0.226861 -0.45168,-0.453722 -0.15056,-0.340292 -0.60225,-0.453722 -0.15056,-0.226861 -0.45168,-0.567152 -0.15056,-0.226861 -2.7101,-3.516346 -0.15056,-0.340292 -0.45168,-0.567152 -0.15056,-0.226862 -0.45168,-0.680583 -0.30112,-0.340291 -0.45168,-0.567153 -0.15056,-0.340291 -0.30113,-0.680583 -0.30112,-0.340292 -0.30112,-0.567152 -0.15056,-0.340292 -0.15056,-0.113431 -0.30112,-0.567151 -0.15056,-0.340292 -0.15056,-0.11343 0,-0.226861 -0.30112,-0.340292 -0.15056,-0.340291 -0.15056,-0.226861 0,-0.113431 -0.15056,-0.340291 -0.30112,-0.680583 0,-0.113431 -0.15056,-0.340292 -0.30114,-0.680583 -0.15056,-0.11343 -0.15056,-0.340292 -0.30112,-0.794013 -0.15056,-0.340292 -0.30112,-0.794013 -0.15056,-0.340292 -0.30112,-0.794014 -0.15056,-0.340291 0,-0.113431 -0.30112,-0.794013 0,-0.453722 -0.15056,-0.113431 0,-0.226861 -0.15056,-0.453722 -0.15056,-0.340291 -0.15056,-0.226861 0,-0.226862 -0.15057,-0.453722 -0.15056,-0.453722 0,-0.340291 -0.15056,-0.453722 -0.30112,-0.794014 0,-0.453722 -0.30112,-0.907444 0,-0.11343 -0.15056,-0.340291 -0.15056,-0.907444 -0.15056,-0.453722 -0.30112,-0.907444 0,-0.340292 -0.30112,-1.020875 0,-0.453722 -0.30112,-0.794013 0,-0.453722 -0.15056,-0.113431 0,-0.794013 -0.15056,-0.340292 0,-0.453722 -0.15056,-0.453722 -0.15056,-0.453722 0,-0.453722 -0.15057,-0.340292 -0.15056,-0.794013 0,-0.113431 -0.15056,-0.340291 -0.15057,-0.907445 0,-0.567152 -0.30112,-1.588027 -0.15056,-0.453722 0,-0.113431 -0.15056,-0.794013 0,-0.340291 -0.15056,-0.680583 0,-0.453722 -0.15056,-0.567153 0,-0.453722 -0.15056,-1.020874 0,-0.113431 -0.15056,-0.226861 0,-0.680583 -0.15056,-0.226861 0,-0.794014 -0.15056,-0.567152 0,-0.226861 -0.15056,-0.567153 0,-0.680583 -0.15056,-0.340292 0,-0.680583 -0.15056,-0.453722 0,-0.680583 -0.15056,-0.567156 0,-1.247736 -0.15056,-0.340291 0,-0.794014 -0.15057,-0.340292 0,-0.794013 -0.15056,-0.340292 0,-0.680582 -0.15056,-0.567152 0,-0.680583 -0.15056,-0.567153 0,-1.020875 -0.15056,-1.020874 -0.15056,-1.928319 0,-1.247736 -0.15056,-0.680583 0,-1.361166" />
      <path
         inkscape:connector-curvature="0"
         id="path4857"
         style="fill:none;stroke:#000000;stroke-width:8.31333637;stroke-linecap:round;stroke-linejoin:round;stroke-miterlimit:10;stroke-dasharray:none;stroke-opacity:1"
         d="m -1117.5581,-87.629915 -3.6,11.7 -4.05,11.4 -4.65,11.25 -2.7,5.55 -2.7,5.4 -3,5.25 -3.3,5.25 -3.45,4.95 -3.75,4.95 -4.05,4.65 -4.2,4.35 -4.5,4.0499997 -4.8,3.75 -5.1,3.3 -5.4,3 -5.4,2.7 -5.55,2.55 -11.4,4.2000003 -11.55,3.9 -46.35,14.7 -46.65,13.95 -23.25,7.05 -11.55,3.75 -5.7,2.1 -5.7,2.4 -5.55,2.7 -5.25,3 -5.1,3.45 -4.65,3.9 -4.2,4.35 -3.9,4.8 -3.3,5.1 -2.85,5.55 -2.25,5.7 -1.65,5.849995 -1.05,6 -0.45,6.15 0.15,6 0.6,6.15 2.1,12" />
      <path
         inkscape:connector-curvature="0"
         id="path4955"
         style="fill:none;stroke:#000000;stroke-width:8.31333637;stroke-linecap:round;stroke-linejoin:round;stroke-miterlimit:10;stroke-dasharray:none;stroke-opacity:1"
         d="m -1387.2581,139.17008 14.25,43.2 14.85,43.20003 3.6,10.8 3.45,10.95 6.6,21.75 3.45,10.95 1.35,5.55 1.2,5.55 0.75,5.55 0.45,5.7 0.6,11.55 0,11.4 -0.3,5.7 -0.6,5.7 -1.05,5.55 -1.35,5.55 -1.8,5.4 -1.95,5.4 -2.4,5.25 -2.7,5.1 -2.85,4.95 -3.15,4.65 -6.9,9.15 -7.5,8.7 -15.15,17.1 -15.3,16.95 -7.95,8.1 -8.1,7.95 -7.95,8.25 -7.65,8.4" />
      <path
         inkscape:connector-curvature="0"
         id="path4959"
         style="fill:none;stroke:#000000;stroke-width:8.31333637;stroke-linecap:round;stroke-linejoin:round;stroke-miterlimit:10;stroke-dasharray:none;stroke-opacity:1"
         d="m -679.1081,342.72011 0.15,-2.4 0.15,-2.1 0,-1.8 0.15,-1.5 0.15,-2.4 0.15,-1.65 0.45,-2.7 0.6,-2.55 0.9,-2.85 1.05,-3.15 2.4,-6.45 5.25,-12.75 5.7,-12.15 5.85,-11.85 6,-11.7 12.45,-23.4 24.9,-46.65 24.6,-46.80003 49.65,-93.299995 49.05,-93.6 24.6,-46.8 3,-5.85 2.85,-6 1.05,-3.150005 0.9,-3.15 0.6,-3.3 0.45,-3.3 0.15,-3.3 -0.15,-3.45 -0.3,-3.3 -0.45,-3.3 -0.75,-3.3 -1.05,-3.3 -1.2,-3.15 -1.35,-3 -1.65,-3 -1.8,-2.85 -1.95,-2.7 -2.25,-2.55 -2.25,-2.55 -2.55,-2.25 -2.7,-2.1 -2.7,-1.8 -3,-1.65 -3,-1.5 -3.15,-1.35 -3.3,-1.05 -3.15,-0.75 -3.45,-0.75 -3.3,-0.3 -3.3,-0.3 -3.3,0.15 -3.3,0.15 -6.6,1.2 -6.45,1.95 -6.15,2.55 -6,3.15 -5.7,3.45 -5.4,3.9 -5.25,4.05 -20.7,16.65 -20.55,16.95 -20.25,16.800005 -19.8,16.8 -20.1,16.8 -20.55,16.65 -21,16.5 -21,16.2" />
      <path
         inkscape:connector-curvature="0"
         id="path4963"
         style="fill:none;stroke:#000000;stroke-width:8.31333637;stroke-linecap:round;stroke-linejoin:round;stroke-miterlimit:10;stroke-dasharray:none;stroke-opacity:1"
         d="m -679.1081,342.72011 0.15,11.4 0.3,5.7 0.75,5.55 1.05,5.55 1.35,5.55 1.8,5.4 2.1,5.25 2.4,5.25 2.7,4.95 2.85,4.95 3.15,4.65 6.9,9 7.35,8.55 15.15,16.95 15.15,16.8 7.95,8.1 8.1,7.95 7.95,8.1 7.5,8.55" />
    </g>
  </g>
</svg>
