<?xml version="1.0" encoding="UTF-8" standalone="no"?>
<!-- Created with Inkscape (http://www.inkscape.org/) -->

<svg
   xmlns:dc="http://purl.org/dc/elements/1.1/"
   xmlns:cc="http://creativecommons.org/ns#"
   xmlns:rdf="http://www.w3.org/1999/02/22-rdf-syntax-ns#"
   xmlns:svg="http://www.w3.org/2000/svg"
   xmlns="http://www.w3.org/2000/svg"
   xmlns:sodipodi="http://sodipodi.sourceforge.net/DTD/sodipodi-0.dtd"
   xmlns:inkscape="http://www.inkscape.org/namespaces/inkscape"
   width="210mm"
   height="297mm"
   viewBox="0 0 744.09448819 1052.3622047"
   id="svg2"
   version="1.1"
   inkscape:version="0.91 r13725"
   sodipodi:docname="explorer.svg">
  <defs
     id="defs4">
    <clipPath
       id="clipPath4171"
       clipPathUnits="userSpaceOnUse">
      <path
         inkscape:connector-curvature="0"
         id="path4173"
         d="m 0,0 1.4225,0 0,1 L 0,1 0,0 Z" />
    </clipPath>
  </defs>
  <sodipodi:namedview
     id="base"
     pagecolor="#ffffff"
     bordercolor="#666666"
     borderopacity="1.0"
     inkscape:pageopacity="0.0"
     inkscape:pageshadow="2"
     inkscape:zoom="0.7"
     inkscape:cx="333.3191"
     inkscape:cy="567.04913"
     inkscape:document-units="px"
     inkscape:current-layer="layer1"
     showgrid="false"
     inkscape:window-width="2048"
     inkscape:window-height="1100"
     inkscape:window-x="0"
     inkscape:window-y="24"
     inkscape:window-maximized="1">
    <inkscape:grid
       type="xygrid"
       id="grid10464" />
  </sodipodi:namedview>
  <metadata
     id="metadata7">
    <rdf:RDF>
      <cc:Work
         rdf:about="">
        <dc:format>image/svg+xml</dc:format>
        <dc:type
           rdf:resource="http://purl.org/dc/dcmitype/StillImage" />
      </cc:Work>
    </rdf:RDF>
  </metadata>
  <g
     inkscape:label="explorer"
     inkscape:groupmode="layer"
     id="layer1">
    <g
       id="g10466"
       style="stroke-width:30.77973747;stroke-miterlimit:4;stroke-dasharray:none;fill:none"
       transform="matrix(0,-0.16176708,0.16176708,0,556.62751,62.444395)">
      <path
         d="m -2858.4751,-1706.4658 -2777.364,-1602.4218 0,1.2497"
         style="fill:none;fill-opacity:1;fill-rule:nonzero;stroke:#000000;stroke-width:30.77973747;stroke-linecap:round;stroke-linejoin:round;stroke-miterlimit:4;stroke-dasharray:none;stroke-opacity:1"
         id="path4179"
         inkscape:connector-curvature="0" />
      <path
         d="m -2577.2395,-1672.7184 984.9514,-151.2416 0,1.2496"
         style="fill:none;fill-opacity:1;fill-rule:nonzero;stroke:#000000;stroke-width:30.77973747;stroke-linecap:round;stroke-linejoin:round;stroke-miterlimit:4;stroke-dasharray:none;stroke-opacity:1"
         id="path4181"
         inkscape:connector-curvature="0" />
      <path
         d="m -4458.3966,812.15959 1557.4232,-561.2217 0,1.2497"
         style="fill:none;fill-opacity:1;fill-rule:nonzero;stroke:#000000;stroke-width:30.77973747;stroke-linecap:round;stroke-linejoin:round;stroke-miterlimit:4;stroke-dasharray:none;stroke-opacity:1"
         id="path4183"
         inkscape:connector-curvature="0" />
      <path
         d="m -2635.9866,263.43669 -4.9996,-1.2497 -4.9998,-2.5003 -4.9998,-1.2497 -6.2494,-2.4994 -4.9996,-1.2506 -4.9997,-1.2497 -6.2494,-1.2497 -5.0008,-1.2497 -4.9999,-1.2507 -6.2494,-1.2496 -4.9997,-1.2497 -4.9996,-1.2507 -6.2494,-1.2497 -4.9998,-1.2497 -6.2495,-1.2496 -4.9997,0 -6.2503,-1.2508 -4.9999,-1.2496 -6.2494,0 -4.9996,0 -6.2494,-1.2497 -4.9997,0 -6.2506,-1.2497 -4.9996,0 -4.9998,0 -6.2494,0 -4.9998,0 -6.2494,0 -4.9996,0 -6.2506,0 -4.9997,0 -6.2494,0 -4.9996,1.2497 -6.2494,0 -4.9999,0 -6.2494,1.2497 -4.9997,0 -6.2504,1.2496 -4.9998,0 -6.2494,1.2508 -4.9996,1.2496 -6.2494,0 -4.9997,1.2497 -4.9999,1.2497 -6.2503,1.2507 -4.9999,1.2497 -6.2494,1.2496 -4.9997,1.2507 0,1.2497"
         style="fill:none;fill-opacity:1;fill-rule:nonzero;stroke:#000000;stroke-width:30.77973747;stroke-linecap:round;stroke-linejoin:round;stroke-miterlimit:4;stroke-dasharray:none;stroke-opacity:1"
         id="path4185"
         inkscape:connector-curvature="0" />
      <path
         d="m -2858.4751,-1706.4658 6.2494,2.4993 4.9998,1.2497 4.9996,2.5004 6.2494,2.4993 4.9997,2.5004 6.2505,2.4993 4.9997,1.2508 6.2494,2.4993 4.9999,1.2497 6.2494,2.5004 6.2494,1.2496 5.0007,1.2497 6.2494,2.5005 4.9998,1.2496 6.2494,1.2496 6.2494,1.2508 4.9996,1.2496 6.2506,1.2498 6.2494,1.2496 4.9997,1.2508 6.2494,1.2496 6.2504,0 6.2494,1.2496 4.9998,1.2498 6.2494,0 6.2494,1.2506 6.2503,0 4.9999,1.2498 6.2494,0 6.2494,0 6.2494,0 5.0008,0 6.2494,1.2496 6.2494,0 6.2494,-1.2496 6.2503,0 4.9997,0 6.2494,0 6.2494,0 6.2494,-1.2498 4.9999,0 6.2503,-1.2506 6.2494,0 6.2494,-1.2498 4.9999,-1.2496 6.2503,0 6.2494,-1.2496 6.2494,-1.2508 0,1.2508"
         style="fill:none;fill-opacity:1;fill-rule:nonzero;stroke:#000000;stroke-width:30.77973747;stroke-linecap:round;stroke-linejoin:round;stroke-miterlimit:4;stroke-dasharray:none;stroke-opacity:1"
         id="path4187"
         inkscape:connector-curvature="0" />
      <path
         d="m -5988.3217,-3121.3971 13.7495,84.9965 14.9992,86.2451 14.9992,86.2461 16.2489,84.9954 16.2499,84.9965 17.4985,86.2451 18.7493,84.9965 18.7492,84.9954 18.7493,84.9955 19.9989,84.9965 21.2486,83.7457 21.2496,84.9954 22.4983,83.7458 22.4993,83.7468 23.749,83.7458 23.7479,83.7457 24.9997,83.7459 26.2484,83.7456 26.2483,82.4961 26.2494,82.4961 28.7487,82.4961 27.498,82.4951 28.7487,82.496 29.9984,81.2465 29.9984,82.4961 31.2491,81.24539 32.4977,81.2463 31.2491,79.9957 33.7485,81.2465 33.7474,79.9957 33.7484,79.9968 34.9992,79.9957 36.2478,79.9957 36.2478,78.746 36.2488,78.746 37.4974,78.7471 38.7483,77.495302 38.7483,78.746 38.748,77.4964 41.2486,77.496398 39.998,76.2467 41.2474,77.4963 42.4982,76.2456 42.4984,74.996 42.4971,76.2467 44.9975,74.996 43.7479,74.997 44.9988,74.996 0,1.2497"
         style="fill:none;fill-opacity:1;fill-rule:nonzero;stroke:#000000;stroke-width:30.77973747;stroke-linecap:round;stroke-linejoin:round;stroke-miterlimit:4;stroke-dasharray:none;stroke-opacity:1"
         id="path4189"
         inkscape:connector-curvature="0" />
      <path
         d="m -4557.1414,777.16149 1.2495,1.2497 1.2497,2.5003 2.5004,1.2497 1.2498,1.2497 1.2495,2.5004 1.2497,1.2496 2.5004,2.5004 1.2498,1.2497 1.2496,1.2497 2.5003,1.2496 1.2497,2.5004 2.5004,1.2497 1.2498,1.2497 2.4992,1.2507 1.2507,1.2497 2.4995,1.2496 1.2495,1.2497 2.5004,1.2507 2.4995,1.2497 1.2506,1.2497 2.4993,0 2.5004,1.2496 2.4995,1.2508 1.2507,0 2.4992,1.2496 2.5004,1.2497 2.4994,0 1.2496,1.2497 2.5004,0 2.4994,0 2.5004,1.2507 2.4994,0 2.5004,0 1.2496,0 2.5003,1.2497 2.4995,0 2.5004,0 2.4992,0 2.5004,0 2.4993,0 2.5004,0 1.2497,-1.2497 2.4993,0 2.5004,0 2.4995,-1.2507 2.5004,0 2.5004,0 1.2495,-1.2497 0,1.2497"
         style="fill:none;fill-opacity:1;fill-rule:nonzero;stroke:#000000;stroke-width:30.77973747;stroke-linecap:round;stroke-linejoin:round;stroke-miterlimit:4;stroke-dasharray:none;stroke-opacity:1"
         id="path4191"
         inkscape:connector-curvature="0" />
      <path
         d="m -2635.9866,263.43669 2673.619159,866.20741 0,1.2497"
         style="fill:none;fill-opacity:1;fill-rule:nonzero;stroke:#000000;stroke-width:30.77973747;stroke-linecap:round;stroke-linejoin:round;stroke-miterlimit:4;stroke-dasharray:none;stroke-opacity:1"
         id="path4193"
         inkscape:connector-curvature="0" />
      <path
         d="m -930.08744,-1213.4981 0,550.21821 0,1.50292"
         style="fill:none;fill-opacity:1;fill-rule:nonzero;stroke:#000000;stroke-width:30.77973747;stroke-linecap:round;stroke-linejoin:round;stroke-miterlimit:4;stroke-dasharray:none;stroke-opacity:1"
         id="path4195"
         inkscape:connector-curvature="0" />
      <path
         d="m -5988.3217,-3121.3971 0,-2.4994 0,-2.5003 0,-2.4994 0,-2.5004 0,-3.749 -1.2497,-2.5004 0,-2.4993 0,-2.5004 0,-2.4993 0,-2.5004 -1.2497,-2.5004 0,-2.4994 0,-2.5004 0,-2.4993 0,-2.5004 0,-2.4993 0,-2.5004 -1.2507,-2.4994 0,-2.5004 0,-2.4993 0,-2.5004 0,-2.4993 0,-2.5004 0,-2.4994 0,-4.9997 0,-4.9997 -1.2496,-4.9998 0,-4.9997 0,-4.9997 0,-4.9997 0,-4.9998 0,-4.9997 1.2496,-4.9997 0,-4.9998 0,-4.9997 0,-4.9997 0,-4.9998 1.2507,-4.9997 0,-4.9997 1.2497,-4.9998 0,-5.0007 1.2497,-4.9998 0,-4.9997 1.2497,-4.9997 1.2507,-4.9998 0,-4.9997 1.2496,-4.9997 1.2497,-4.9998 0,-1.2496 0,-2.4994 1.2497,-1.2507 0,-1.2497 0,-1.2496 1.2507,-1.2497 0,-1.2507 0,-1.2497 0,-1.2497 1.2497,-1.2496 0,-1.2508 0,-1.2496 1.2496,-1.2497 0,-1.2497 0,-1.2507 1.2497,-1.2497 0,-1.2496 1.2507,-1.2507 0,-1.2497 0,-1.2497 1.2497,-1.2497 0,-1.2507 1.2497,-1.2496 0,-1.2497 1.2496,-1.2497 1.2508,-1.2507 0,-2.4993 1.2496,-1.2497 1.2497,-1.2507 1.2497,-1.2497 1.2507,-2.4993 1.2497,-1.2508 1.2496,-1.2496 1.2497,-1.2497 1.2507,-1.2497 1.2497,-1.2507 1.2497,-2.4993 1.2507,-1.2497 1.2497,-1.2507 1.2496,-1.2497 1.2497,-1.2497 1.2507,-1.2496 1.2497,-1.2508 1.2497,-1.2496 1.2496,-1.2497 1.2508,-1.2497 1.2496,-1.2507 1.2497,-2.4993 1.2497,0 1.2507,-1.2497 1.2497,-1.2507 0,-1.2497 1.2496,0 1.2497,-1.2497 1.2507,-1.2496 0,0 1.2497,-1.2508 1.2497,-1.2496 1.2496,-1.2497 0,0 1.2507,-1.2497 1.2497,-1.2507 1.2497,0 1.2497,-1.2497 0,-1.2496 1.2507,0 1.2496,-1.2507 1.2497,0 1.2497,-1.2497 1.2507,0 1.2497,-1.2497 0,0 1.2496,-1.2497 1.2497,0 1.2507,-1.2507 1.2497,0 1.2497,-1.2496 1.2496,0 1.2508,0 1.2496,-1.2497 1.2497,0 1.2497,0 1.2507,-1.2497 1.2497,0 1.2496,0 1.2508,-1.2507 1.2496,0 1.2497,0 1.2497,0 1.2507,-1.2497 1.2497,0 1.2496,0 1.2497,0 1.2507,0 1.2497,-1.2496 2.4993,0 1.2508,0 1.2496,0 2.4994,0 1.2507,-1.2497 1.2497,0 2.4993,0 1.2507,0 1.2497,0 2.4993,-1.2507 1.2508,0 1.2496,0 2.4994,0 1.2507,0 1.2497,0 2.4993,0 1.2507,0 1.2497,0 2.4993,-1.2497 1.2507,0 1.2497,0 2.4994,0 1.2507,0 2.4993,0 1.2497,0 1.2507,0 1.2497,0 0,0 1.2496,1.2497 1.2508,0 1.2496,0 1.2497,0 1.2497,0 1.2507,0 0,0 1.2497,0 1.2496,0 1.2497,0 1.2507,0 1.2497,0 1.2497,0 0,1.2507 1.2496,0 1.2508,0 1.2496,0 1.2497,0 1.2497,0 1.2507,0 0,1.2497 2.4993,0 2.5004,0 1.2497,1.2496 2.4993,0 2.5004,0 1.2497,1.2497 2.5004,0 2.4993,1.2507 1.2497,0 2.5004,1.2497 2.4993,0 1.2507,1.2497 2.4994,0 1.2497,1.2496 2.5003,1.2507 2.4994,0 1.2507,1.2497 2.4993,0 1.2508,1.2497 2.4993,1.2497 2.5004,0 1.2497,1.2507 2.4993,1.2496 1.2507,0 6.2494,2.5004 6.2494,2.4994 6.2494,3.75 6.2505,2.4994 4.9997,2.5004 6.2494,2.4993 6.2494,3.7501 4.9998,2.5004 6.2504,3.749 6.2494,2.5004 4.9997,2.4993 6.2494,3.7501 6.2494,2.5004 4.9998,3.749 6.2504,3.75 4.9998,2.5004 6.2494,3.749 6.2494,2.5004 4.9997,3.7501 6.2504,3.75 4.9998,2.4994 6.2494,3.75 11.2491,6.2494 0,1.2497"
         style="fill:none;fill-opacity:1;fill-rule:nonzero;stroke:#000000;stroke-width:30.77973747;stroke-linecap:round;stroke-linejoin:round;stroke-miterlimit:4;stroke-dasharray:none;stroke-opacity:1"
         id="path4199"
         inkscape:connector-curvature="0" />
      <path
         d="m -1346.0495,-1691.4666 -2.5004,-4.9998 -2.4995,-6.2504 -2.5004,-6.2494 -2.4992,-4.9998 -3.7502,-6.2494 -2.5004,-4.9997 -3.749,-4.9996 -3.7499,-4.9999 -3.7502,-6.2504 -3.7501,-4.9997 -3.749,-3.749 -3.7499,-4.9998 -4.9999,-4.9997 -3.7499,-4.9997 -4.9998,-3.7501 -4.9998,-4.9997 -4.9996,-3.7501 -3.7502,-3.7501 -6.2494,-3.7499 -4.9996,-3.7491 -4.9997,-3.7501 -4.9999,-3.75 -4.9997,-2.4994 -6.2494,-3.7501 -4.9996,-2.5003 -6.2506,-2.4994 -6.2494,-3.75 -4.9996,-1.2496 -6.2494,-2.5005 -6.2506,-2.4993 -6.2494,-1.2496 -6.2494,-2.5005 -6.2494,-1.2497 -6.2503,-1.2496 -6.2494,-1.2508 -6.2494,-1.2496 -6.2494,0 -6.2506,-1.2497 -6.2494,0 -6.2494,-1.2507 -6.2503,0 -6.2494,1.2507 -6.2494,0 -6.2494,0 -6.2506,1.2497 -6.2494,0 -6.2494,1.2496 -6.2503,1.2508 0,1.2496"
         style="fill:none;stroke:#000000;stroke-width:30.77973747;stroke-linecap:round;stroke-linejoin:round;stroke-miterlimit:4;stroke-dasharray:none;stroke-opacity:1"
         id="path6699"
         inkscape:connector-curvature="0" />
      <path
         d="m -1171.0579,-1317.7354 -174.9916,-373.7312 0,1.2496"
         style="fill:none;stroke:#000000;stroke-width:30.77973747;stroke-linecap:round;stroke-linejoin:round;stroke-miterlimit:4;stroke-dasharray:none;stroke-opacity:1"
         id="path6701"
         inkscape:connector-curvature="0" />
      <path
         d="m -1170.4064,-1317.0787 2.0111,3.703 2.0108,3.7022 2.0113,3.7032 4.0239,3.7031 2.0111,3.7031 4.0239,3.7033 4.0221,3.7021 2.0111,2.4692 4.0239,3.7031 4.0221,3.7021 4.0239,2.4691 4.022,3.7031 4.0238,2.4681 4.0225,3.7031 4.0237,2.4681 4.0222,2.4691 4.0239,3.7033 6.0347,2.4679 4.0224,2.4691 6.0347,2.4682 4.0225,2.4691 6.0347,2.4681 4.0238,2.4692 6.0352,2.4679 4.022,2.4691 6.0351,2.4682 6.035,1.2351 6.0333,2.4679 4.0239,1.2342 6.0347,2.4691 6.0332,1.234 6.0352,2.4691 6.035,1.234 6.0347,1.2342 6.0332,1.2339 6.0352,1.2352 6.0348,1.234 6.0349,1.2339 6.03517,1.2342 8.04599,0 6.03308,1.235 6.03517,1.2341 6.03469,0 6.03518,0 6.03324,1.234 8.04582,0 6.03518,0 6.03501,0 0,1.234"
         style="fill:none;stroke:#000000;stroke-width:30.77973747;stroke-linecap:round;stroke-linejoin:round;stroke-miterlimit:4;stroke-dasharray:none;stroke-opacity:1"
         id="path6703"
         inkscape:connector-curvature="0" />
      <path
         d="m -929.82014,-657.76781 -12.4998,4.9998 -12.4988,6.2494 -12.4999,6.2494 -12.4988,6.2505 -12.4999,7.4991 -11.24916,7.5001 -11.2502,7.4991 -11.249,8.7498 -9.9996,9.9993 -9.9993,8.7498 -9.9996,9.9996 -8.7498,11.2491 -8.7498,9.9995 -8.7486,11.2501 -7.5001,11.2492 -7.4991,12.4988 -7.5001,12.4998 -6.2494,12.4999 -4.9999,12.4988 -4.9996,12.4998 -4.9997,13.7484 -3.7502,12.5 -3.75,13.7495 -2.4994,13.7494 -2.5004,13.7486 -2.4992,13.7495 0,13.7495 -1.2507,13.7496 0,13.7495 1.2507,13.7485 1.2496,15.0002 1.2496,13.7485 2.5004,13.7495 3.749,12.4998 3.7502,13.7496 3.7499,13.7484 4.9999,12.4999 6.2494,12.4988 4.9997,13.7494 6.2505,11.2503 7.4989,12.4988 7.5003,11.2491 7.4989,11.2502 8.7498,11.2492 8.7498,11.2491 9.9996,9.9994 9.9993,9.9995 9.9996,8.7498 0,1.2497"
         style="fill:none;stroke:#000000;stroke-width:30.77973747;stroke-linecap:round;stroke-linejoin:round;stroke-miterlimit:4;stroke-dasharray:none;stroke-opacity:1"
         id="path6705"
         inkscape:connector-curvature="0" />
      <path
         d="m -1032.3151,-112.79491 1159.94286,1088.697 0,1.2498"
         style="fill:none;stroke:#000000;stroke-width:30.77973747;stroke-linecap:round;stroke-linejoin:round;stroke-miterlimit:4;stroke-dasharray:none;stroke-opacity:1"
         id="path6707"
         inkscape:connector-curvature="0" />
      <path
         d="m 37.632559,1129.6441 4.9997,1.2497 4.9998,1.2507 4.9997,1.2497 4.9997,0 4.9998,1.2496 4.9997,0 4.9997,-1.2496 4.9998,0 4.9997,-1.2497 4.9997,-1.2507 4.9998,-1.2497 4.9997,-1.2497 4.999701,-2.5004 4.9998,-1.2496 3.75,-2.4994 4.9997,-3.75 3.7491,-2.5003 4.9997,-3.7502 3.75,-2.4992 3.7501,-3.7502 2.4993,-3.75 3.7501,-3.749 2.5004,-4.9998 2.4993,-3.75 2.5004,-4.9998 2.4994,-4.9997 2.5004,-3.7501 1.2496,-4.9997 1.2497,-4.9997 1.2507,-4.9998 1.2497,-4.9997 0,-4.9997 1.2497,-6.2494 0,-4.9998 -1.2497,-4.9997 0,-4.9996 -1.2497,-4.9998 -1.2507,-4.9998 -1.2497,-4.9997 -1.2496,-4.9997 -2.5004,-4.9998 -2.4994,-3.75 -2.5004,-4.99981 -2.4993,-3.75 -2.5004,-4.9998 -3.7501,-3.7499 -3.749,-3.7502 -3.75,-3.749 0,1.2498"
         style="fill:none;stroke:#000000;stroke-width:30.77973747;stroke-linecap:round;stroke-linejoin:round;stroke-miterlimit:4;stroke-dasharray:none;stroke-opacity:1"
         id="path7049"
         inkscape:connector-curvature="0" />
    </g>
  </g>
</svg>
