<?xml version="1.0" encoding="UTF-8" standalone="no"?>
<!-- Created with Inkscape (http://www.inkscape.org/) -->

<svg
   xmlns:dc="http://purl.org/dc/elements/1.1/"
   xmlns:cc="http://creativecommons.org/ns#"
   xmlns:rdf="http://www.w3.org/1999/02/22-rdf-syntax-ns#"
   xmlns:svg="http://www.w3.org/2000/svg"
   xmlns="http://www.w3.org/2000/svg"
   xmlns:sodipodi="http://sodipodi.sourceforge.net/DTD/sodipodi-0.dtd"
   xmlns:inkscape="http://www.inkscape.org/namespaces/inkscape"
   width="210mm"
   height="297mm"
   viewBox="0 0 744.09448819 1052.3622047"
   id="svg17487"
   version="1.1"
   inkscape:version="0.91 r13725"
   sodipodi:docname="flying-V.svg">
  <defs
     id="defs17489" />
  <sodipodi:namedview
     id="base"
     pagecolor="#ffffff"
     bordercolor="#666666"
     borderopacity="1.0"
     inkscape:pageopacity="0.0"
     inkscape:pageshadow="2"
     inkscape:zoom="0.7"
     inkscape:cx="356.37862"
     inkscape:cy="524.37813"
     inkscape:document-units="px"
     inkscape:current-layer="layer1"
     showgrid="false"
     inkscape:window-width="2048"
     inkscape:window-height="1100"
     inkscape:window-x="0"
     inkscape:window-y="24"
     inkscape:window-maximized="1" />
  <metadata
     id="metadata17492">
    <rdf:RDF>
      <cc:Work
         rdf:about="">
        <dc:format>image/svg+xml</dc:format>
        <dc:type
           rdf:resource="http://purl.org/dc/dcmitype/StillImage" />
        <dc:title></dc:title>
      </cc:Work>
    </rdf:RDF>
  </metadata>
  <g
     inkscape:label="flying-V"
     inkscape:groupmode="layer"
     id="layer1">
    <g
       id="g18428"
       transform="matrix(0,-0.4476574,0.4476574,0,260.12495,-843.76945)"
       style="stroke-width:11.16925621;stroke-miterlimit:4;stroke-dasharray:none">
      <path
         inkscape:connector-curvature="0"
         id="path18234"
         d="m -2406.4987,151.42955 0,197.79576"
         style="fill:none;stroke:#000000;stroke-width:11.16925621;stroke-linecap:round;stroke-linejoin:round;stroke-miterlimit:4;stroke-dasharray:none;stroke-opacity:1" />
      <path
         id="path18230"
         d="m -2407.0987,349.8435 -4.05,1.05 -3.975,1.2 -3.975,1.35 -3.9,1.5 -3.9,1.725 -3.75,1.8 -3.675,2.025 -3.6,2.1 -3.525,2.325 -3.45,2.4 -3.3,2.625 -3.225,2.7 -3.075,2.775 -3,3 -2.85,3.075 -2.7,3.15 -2.625,3.3 -2.4,3.45 -2.325,3.45 -2.175,3.6 -2.025,3.675 -1.875,3.75 -1.725,3.825 -1.5,3.9 -1.425,3.975 -1.2,4.05 -1.05,4.05 -0.9,4.05 -0.75,4.2 -0.525,4.125 -0.45,4.2 -0.15,4.2"
         style="fill:none;stroke:#000000;stroke-width:11.16925621;stroke-linecap:round;stroke-linejoin:round;stroke-miterlimit:4;stroke-dasharray:none;stroke-opacity:1"
         inkscape:connector-curvature="0" />
      <path
         id="path18228"
         d="m -2501.1487,467.1435 -1573.05,576"
         style="fill:none;stroke:#000000;stroke-width:11.16925621;stroke-linecap:round;stroke-linejoin:round;stroke-miterlimit:4;stroke-dasharray:none;stroke-opacity:1"
         inkscape:connector-curvature="0" />
      <path
         id="path18226"
         d="m -2486.1487,54.6435 0.15,4.125 0.45,4.2 0.525,4.2 0.75,4.125 0.9,4.05 1.05,4.05 1.2,4.05 1.425,3.975 1.5,3.9 1.725,3.825 1.875,3.75 2.025,3.675 2.175,3.6 2.325,3.45 2.4,3.45 2.625,3.3 2.7,3.15 2.85,3.075 3,3 3.075,2.85 3.225,2.7 3.3,2.55 3.45,2.4 3.525,2.325 3.6,2.1 3.675,2.025 3.75,1.8"
         style="fill:none;stroke:#000000;stroke-width:11.16925621;stroke-linecap:round;stroke-linejoin:round;stroke-miterlimit:4;stroke-dasharray:none;stroke-opacity:1"
         inkscape:connector-curvature="0" />
      <path
         id="path18224"
         d="m -2426.8987,144.3435 3.9,1.725 3.9,1.5 3.975,1.35 3.975,1.2 4.05,1.05"
         style="fill:none;stroke:#000000;stroke-width:11.16925621;stroke-linecap:round;stroke-linejoin:round;stroke-miterlimit:4;stroke-dasharray:none;stroke-opacity:1"
         inkscape:connector-curvature="0" />
      <path
         id="path18222"
         d="m -2486.1487,54.6435 -0.075,-0.9 -0.075,-0.825 -0.075,-0.825 -0.15,-0.825 -0.15,-0.825 -0.225,-0.825 -0.225,-0.825 -0.225,-0.825 -0.3,-0.825 -0.375,-0.75 -0.3,-0.75 -0.375,-0.825 -0.375,-0.75 -0.45,-0.675 -0.45,-0.75 -0.525,-0.675 -0.525,-0.675 -0.525,-0.675 -0.525,-0.6 -0.6,-0.675 -0.6,-0.6 -0.6,-0.525 -0.675,-0.525 -0.675,-0.525 -0.675,-0.525 -0.675,-0.45 -0.75,-0.45 -0.75,-0.45 -1.5,-0.75 -0.75,-0.3 -0.825,-0.375"
         style="fill:none;stroke:#000000;stroke-width:11.16925621;stroke-linecap:round;stroke-linejoin:round;stroke-miterlimit:4;stroke-dasharray:none;stroke-opacity:1"
         inkscape:connector-curvature="0" />
      <path
         id="path18064"
         d="m -2501.1487,467.1435 0.825,-0.3 0.75,-0.375 1.5,-0.75 0.75,-0.45 0.75,-0.375 0.675,-0.525 0.675,-0.45 0.675,-0.525 0.675,-0.6 0.6,-0.525 0.6,-0.6 0.6,-0.675"
         style="fill:none;stroke:#000000;stroke-width:11.16925621;stroke-linecap:round;stroke-linejoin:round;stroke-miterlimit:4;stroke-dasharray:none;stroke-opacity:1"
         inkscape:connector-curvature="0" />
      <path
         id="path18426"
         d="m -2492.0737,460.9935 0.525,-0.6 0.525,-0.675 0.525,-0.675 0.525,-0.675 0.45,-0.75 0.45,-0.675 0.375,-0.75 0.375,-0.75 0.3,-0.825 0.375,-0.75 0.3,-0.825 0.225,-0.825 0.225,-0.75 0.225,-0.825 0.15,-0.9 0.15,-0.825 0.075,-0.825 0.075,-0.825 0.075,-0.825"
         style="fill:none;stroke:#000000;stroke-width:11.16925621;stroke-linecap:round;stroke-linejoin:round;stroke-miterlimit:4;stroke-dasharray:none;stroke-opacity:1"
         inkscape:connector-curvature="0" />
      <path
         id="path18424"
         d="m -4160.0737,899.7435 657.3,-585.75"
         style="fill:none;stroke:#000000;stroke-width:11.16925621;stroke-linecap:round;stroke-linejoin:round;stroke-miterlimit:4;stroke-dasharray:none;stroke-opacity:1"
         inkscape:connector-curvature="0" />
      <path
         id="path18422"
         d="m -2501.1487,33.8685 -1573.05,-576"
         style="fill:none;stroke:#000000;stroke-width:11.16925621;stroke-linecap:round;stroke-linejoin:round;stroke-miterlimit:4;stroke-dasharray:none;stroke-opacity:1"
         inkscape:connector-curvature="0" />
      <path
         id="path18420"
         d="m -4160.0737,899.7435 -3.6,3.375 -3.3,3.6 -3.15,3.75 -2.925,3.9 -2.7,4.125 -2.475,4.2 -2.25,4.35 -1.95,4.5 -1.65,4.65 -1.425,4.65 -1.2,4.8 -0.9,4.8 -0.6,4.875 -0.3,4.875 0,4.875 0.225,4.875 0.525,4.875 0.825,4.875 1.05,4.725 1.35,4.725 1.65,4.65 1.875,4.5 2.175,4.425 2.325,4.275 2.7,4.125 2.85,3.975 3.075,3.75 3.3,3.675 3.525,3.375 3.675,3.225 3.9,3 4.05,2.775 4.2,2.475 4.35,2.325 4.425,2.025 4.575,1.725 4.65,1.5 4.8,1.275 4.8,0.975 4.8,0.675 4.875,0.375 4.95,0.075 4.875,-0.15 4.875,-0.45 4.875,-0.75 4.8,-0.975 4.725,-1.275 4.65,-1.575"
         style="fill:none;stroke:#000000;stroke-width:11.16925621;stroke-linecap:round;stroke-linejoin:round;stroke-miterlimit:4;stroke-dasharray:none;stroke-opacity:1"
         inkscape:connector-curvature="0" />
      <path
         id="path18418"
         d="m -4160.0737,-398.7315 657.3,585.75"
         style="fill:none;stroke:#000000;stroke-width:11.16925621;stroke-linecap:round;stroke-linejoin:round;stroke-miterlimit:4;stroke-dasharray:none;stroke-opacity:1"
         inkscape:connector-curvature="0" />
      <path
         id="path18416"
         d="m -4074.1987,-542.1315 -4.65,-1.575 -4.725,-1.275 -4.8,-0.975 -4.875,-0.75 -4.875,-0.45 -4.875,-0.15 -4.95,0.075 -4.875,0.45 -4.8,0.675 -4.8,0.9 -4.8,1.275 -4.65,1.5 -4.575,1.725 -4.425,2.025 -4.35,2.325 -4.2,2.475 -4.05,2.775 -3.9,3 -3.675,3.225 -3.525,3.45 -3.3,3.6 -3.075,3.75 -2.85,3.975 -2.7,4.125 -2.325,4.275 -2.175,4.425 -1.875,4.5 -1.65,4.65 -1.35,4.725 -1.05,4.725 -0.825,4.875 -0.525,4.875 -0.225,4.875 0,4.875 0.3,4.95 0.6,4.8 0.9,4.875 1.2,4.725 1.425,4.725 1.65,4.575 1.95,4.5 2.25,4.35 2.475,4.2 2.7,4.125 2.925,3.9 3.15,3.75 3.3,3.6 3.6,3.375"
         style="fill:none;stroke:#000000;stroke-width:11.16925621;stroke-linecap:round;stroke-linejoin:round;stroke-miterlimit:4;stroke-dasharray:none;stroke-opacity:1"
         inkscape:connector-curvature="0" />
      <path
         id="path18414"
         d="m -3502.7737,313.9935 3.225,-3.075 3.075,-3.225 2.925,-3.375 2.775,-3.525 2.55,-3.675 2.325,-3.825 2.175,-3.975 1.95,-3.975 1.725,-4.2 1.5,-4.2 1.275,-4.275 1.05,-4.35 0.825,-4.425 0.6,-4.425 0.375,-4.5 0.075,-4.425 -0.075,-4.5 -0.375,-4.5 -0.6,-4.425 -0.825,-4.425 -1.05,-4.35 -1.275,-4.275 -1.5,-4.2 -1.725,-4.125 -1.95,-4.05 -2.175,-3.975 -2.325,-3.75 -2.55,-3.75 -2.775,-3.525 -2.925,-3.375 -3.075,-3.225 -3.225,-3.075"
         style="fill:none;stroke:#000000;stroke-width:11.16925621;stroke-linecap:round;stroke-linejoin:round;stroke-miterlimit:4;stroke-dasharray:none;stroke-opacity:1"
         inkscape:connector-curvature="0" />
    </g>
  </g>
</svg>
