<?xml version="1.0" encoding="UTF-8" standalone="no"?>
<!-- Created with Inkscape (http://www.inkscape.org/) -->

<svg
   xmlns:dc="http://purl.org/dc/elements/1.1/"
   xmlns:cc="http://creativecommons.org/ns#"
   xmlns:rdf="http://www.w3.org/1999/02/22-rdf-syntax-ns#"
   xmlns:svg="http://www.w3.org/2000/svg"
   xmlns="http://www.w3.org/2000/svg"
   xmlns:sodipodi="http://sodipodi.sourceforge.net/DTD/sodipodi-0.dtd"
   xmlns:inkscape="http://www.inkscape.org/namespaces/inkscape"
   width="210mm"
   height="297mm"
   viewBox="0 0 744.09448819 1052.3622047"
   id="svg2"
   version="1.1"
   inkscape:version="0.91 r13725"
   sodipodi:docname="FRX.svg">
  <defs
     id="defs4">
    <clipPath
       id="clipPath4171"
       clipPathUnits="userSpaceOnUse">
      <path
         inkscape:connector-curvature="0"
         id="path4173"
         d="m 0,0 1.4406,0 0,1 L 0,1 0,0 Z" />
    </clipPath>
    <clipPath
       id="clipPath10551"
       clipPathUnits="userSpaceOnUse">
      <path
         inkscape:connector-curvature="0"
         id="path10553"
         d="m 997.3589,176.2305 112.485,0 0,-19.0876 -112.485,0 0,19.0876 z" />
    </clipPath>
  </defs>
  <sodipodi:namedview
     id="base"
     pagecolor="#ffffff"
     bordercolor="#666666"
     borderopacity="1.0"
     inkscape:pageopacity="0.0"
     inkscape:pageshadow="2"
     inkscape:zoom="0.7"
     inkscape:cx="180.4786"
     inkscape:cy="455.41266"
     inkscape:document-units="px"
     inkscape:current-layer="layer1"
     showgrid="false"
     inkscape:window-width="2048"
     inkscape:window-height="1100"
     inkscape:window-x="0"
     inkscape:window-y="24"
     inkscape:window-maximized="1" />
  <metadata
     id="metadata7">
    <rdf:RDF>
      <cc:Work
         rdf:about="">
        <dc:format>image/svg+xml</dc:format>
        <dc:type
           rdf:resource="http://purl.org/dc/dcmitype/StillImage" />
        <dc:title></dc:title>
      </cc:Work>
    </rdf:RDF>
  </metadata>
  <g
     inkscape:label="FRX"
     inkscape:groupmode="layer"
     id="layer1">
    <g
       id="g16002"
       transform="matrix(0,-0.20827599,0.20827599,0,376.554,-216.05592)"
       style="stroke-width:24.00660706;stroke-miterlimit:4;stroke-dasharray:none">
      <path
         d="m -2346.0664,265.29479 0,-551.2521 0,1.2495"
         style="fill:none;stroke:#000000;stroke-width:24.00660706;stroke-linecap:round;stroke-linejoin:round;stroke-miterlimit:4;stroke-dasharray:none;stroke-opacity:1"
         id="path5447"
         inkscape:connector-curvature="0" />
      <path
         d="m -2343.5664,-278.45721 -3.7506,-7.5001 -3.7495,-7.5002 -3.7506,-7.5001 -2.4991,-7.5002 -3.7505,-7.5001 -3.7496,-7.4991 -2.5,-7.5002 -3.7506,-7.5001 -2.5001,-7.5002 -3.7495,-7.5001 -2.5001,-7.50019 -2.5,-7.5001 -2.5001,-7.5002 -2.5,-7.4991 -1.2496,-7.5001 -2.5,-7.5002 -1.2505,-7.5001 -1.2496,-7.5002 -1.2505,-6.2496 -1.2495,-7.5001 0,-7.5002 -1.2505,-7.5001 0,-7.5002 1.2505,-7.5001 0,-7.5002 1.2495,-7.5001 1.2505,-7.4991 1.2496,-7.5002 2.5,-7.5001 2.5001,-7.5002 2.5,-6.2496 2.5001,-7.5001 2.5,-7.5002 3.7496,-7.5001 3.7506,-7.5002 3.7495,-6.2496 3.7506,-7.5001 3.7496,-7.5002 5.0001,-6.2506 3.7495,-7.4991 5.0001,-6.2507 5.0001,-7.5001 3.7506,-6.2496 5.0001,-6.2507 5.0001,-6.2496 6.2496,-6.2496 5.0001,-7.5001 5.0001,-6.2507 8.7497,-9.9991 10.0002,-10.0002 10.0002,-10.0002 10.0002,-10.0002 10.0001,-8.7497 9.9992,-10.0002 10.0002,-8.7507 10.0002,-8.7496 11.2497,-8.7497 10.0002,-7.5001 11.2507,-8.7497 11.2498,-7.5001 11.2497,-7.5002 11.2497,-7.5001 11.2507,-7.5002 11.2497,-6.2496 11.2497,-7.5001 12.5003,-6.2507 11.2507,-7.5001 12.4992,-6.2496 11.2508,-6.2496 12.5002,-5.0001 12.4992,-6.2507 11.2507,-6.2496 18.7499,-8.7496 18.7499,-7.5002 18.7498,-8.7507 18.7499,-7.5001 20.0004,-7.4991 18.7498,-6.2507 18.7509,-7.5001 19.9994,-6.2496 20.0004,-6.2507 18.7498,-4.999 20.0004,-6.2507 19.9994,-5.0001 20.0004,-3.7495 20.0004,-5.0001 20.0003,-3.7506 19.9994,-3.7496 20.0004,-3.7495 21.2499,-2.5001 20.0004,-2.5 19.9994,-2.5001 20.0004,-2.5 20.0004,-1.2506 21.2499,-1.2495 20.0003,0 2.5001,0 1.2495,0 2.5001,0 2.5,0 2.5001,-1.2505 1.2495,0 2.5,0 2.5001,0 2.5,0 1.2506,0 2.5,0 2.5001,0 2.5,0 1.2495,0 2.5001,0 2.5,0 2.5001,0 1.2495,0 2.5,1.2505 2.5001,0 2.5,0 1.2506,0 2.5,0 2.5001,0 11.2497,0 12.5002,0 11.2497,1.2495 12.5003,0 11.2497,1.2506 12.5002,1.2495 11.2497,1.2505 12.5003,0 11.2507,1.2495 12.4992,1.2506 11.2508,1.2495 12.5002,2.5 11.2497,1.2506 12.5003,1.2495 11.2497,1.2495 12.5002,2.5 11.2497,1.2506 11.2497,1.2495 12.5003,2.5 11.2507,1.2506 12.4992,2.5 11.2508,1.2495 23.7499,3.7506 0,1.2495"
         style="fill:none;stroke:#000000;stroke-width:24.00660706;stroke-linecap:round;stroke-linejoin:round;stroke-miterlimit:4;stroke-dasharray:none;stroke-opacity:1"
         id="path10577"
         inkscape:connector-curvature="0" />
      <path
         d="m -1176.063,-1034.7102 -6.2496,-2.5001 -5.0001,-2.5 -6.2496,-2.499 -5.0001,-1.2506 -6.2506,-2.5 -5.0001,-2.5001 -6.2496,-2.5 -5.0001,-1.2495 -6.2497,-2.5001 -5,-2.5 -6.2507,-2.5001 -5.0001,-2.5 -5.0001,-2.5001 -5.0001,-2.5 -4.9991,-2.5001 -6.2506,-3.7495 -5.0001,-2.5001 -5.0001,-2.5 -5.0001,-3.7506 -5.0001,-2.5001 -3.7495,-3.7495 -5.0001,-2.5001 -5.0001,-3.7506 -3.7496,-3.7495 -5.0001,-3.7506 -5.0001,-4.9991 -5.0001,-3.7506 -3.7496,-5.0001 -5,-3.7495 -3.7506,-5.0001 -5.0001,-5.0001 -3.7496,-5.0001 -3.7506,-5.0001 -5.0001,-5.0001 -3.7495,-6.2496 -3.7496,-5.0001 -3.7506,-5.0001 -3.7495,-6.2496 -3.7506,-5.0001 -3.7496,-6.2507 -3.7506,-5.0001 -2.5,-6.2496 -3.7496,-5.0001 -3.7496,-6.2496 -3.7505,-6.2506 -3.7496,-5.0001 -6.2506,-12.5003 0,1.2506"
         style="fill:none;stroke:#000000;stroke-width:24.00660706;stroke-linecap:round;stroke-linejoin:round;stroke-miterlimit:4;stroke-dasharray:none;stroke-opacity:1"
         id="path10579"
         inkscape:connector-curvature="0" />
      <path
         d="m -1397.3137,-1224.7109 -13.7498,3.7506 -15.0003,2.5001 -13.7497,3.7495 -13.7498,2.5001 -15.0003,2.5 -13.7498,3.7506 -13.7507,2.5001 -13.7498,2.5 -15.0003,2.499 -13.7497,2.5001 -13.7498,2.5 -13.7508,1.2506 -14.9992,2.5 -13.7508,2.5001 -13.7498,1.2495 -13.7497,1.2505 -15.0003,1.2495 -13.7498,1.2506 -13.7498,0 -13.7507,1.2495 -13.7498,0 -13.7497,0 -13.7508,-1.2495 -13.7498,0 -17.5003,-1.2506 -17.4993,-2.5 -17.5004,-1.2495 -17.5003,-3.7506 -17.5004,-2.5001 -16.2498,-3.7495 -17.4993,-3.7496 -17.5003,-5.0001 -17.5004,-5.0001 -16.2498,-5.0001 -17.5003,-5.0001 -17.5004,-5.0001 -16.2498,-6.2496 -17.5003,-6.2506 -16.2498,-6.2496 -17.5004,-6.2507 -17.4993,-7.5001 -16.2498,-6.2496 -17.5003,-7.5002 -16.2499,-7.5001 -17.5003,-6.2496 -16.2498,-7.5002 -33.7502,-15.0003 0,1.2506"
         style="fill:none;stroke:#000000;stroke-width:24.00660706;stroke-linecap:round;stroke-linejoin:round;stroke-miterlimit:4;stroke-dasharray:none;stroke-opacity:1"
         id="path10581"
         inkscape:connector-curvature="0" />
      <path
         d="m -2143.5656,-1308.461 -22.5004,16.2498 -22.5004,15.0003 -22.4994,15.0003 -21.25,16.2498 -22.5004,15.0003 -22.5004,15.0003 -22.4995,15.0003 -22.5004,14.9993 -22.5004,15.0003 -22.4994,15.0003 -22.5005,13.7497 -23.7499,13.7498 -22.5005,13.7508 -23.7499,13.7497 -22.5005,12.5003 -23.7499,12.5002 -23.75,12.4992 -23.7499,11.2508 -23.75,11.2497 -25.0005,10.0002 -23.7499,11.2497 -24.9995,8.7507 -25.0005,8.7496 -25.0005,8.7497 -19.9993,6.2506 -20.0004,6.2496 -20.0004,5.0001 -19.9994,5.0001 -20.0004,5.0001 -21.2499,3.7496 -20.0004,5.0001 -19.9994,2.5 -21.2509,3.7506 -19.9993,2.5001 -21.25,2.499 -21.2509,2.5 -19.9994,2.5001 -21.2499,1.2505 -21.2509,1.2495 -19.9994,1.2506 -21.2509,0 -21.2499,1.2495 -21.2499,0 -20.0004,0 -21.2499,-1.2495 -21.2499,-1.2506 -20.0004,-1.2495 -21.2499,-1.2505 -16.2498,-1.2495 -16.2498,-1.2506 -16.2498,-1.2495 -16.2508,-2.5 -16.2498,-2.5001 -16.2498,-2.5 -16.2499,-2.5001 -16.2508,-2.5 -16.2498,-2.5001 -16.2498,-2.5 -16.2498,-3.7496 -16.2508,-3.7506 -16.2498,-3.7495 -16.2498,-3.7506 -16.2498,-3.7496 -15.0003,-3.7495 -16.2499,-5.0001 -16.2508,-3.7506 -16.2498,-5.0001 -16.2498,-5.0001 -16.2498,-5.0001 -16.2508,-4.9991 -16.2498,-5.0001 -16.2498,-6.2506 -13.7498,-5.0001 -13.7508,-5.0001 -13.7497,-5.0001 -13.7498,-4.9991 -13.7498,-6.2506 -12.5002,-5.0001 -13.7508,-6.2496 -13.7497,-6.2507 -12.5003,-6.2496 -12.4992,-6.2496 -13.7508,-7.5001 -12.4992,-6.2507 -11.2507,-7.5001 -12.5003,-7.4991 -11.2497,-8.7507 -11.2497,-7.5002 -11.2507,-8.7496 -11.2497,-8.7497 -10.0002,-8.7507 -10.0002,-10.0002 -8.7497,-9.9991 -10.0002,-10.0002 -8.7496,-10.0002 -7.5002,-11.2497 -3.7496,-6.2507 -5.0001,-6.2496 -3.7505,-6.2506 -3.7496,-6.2496 -3.7506,-6.2496 -3.7495,-7.5002 -2.5001,-6.2506 -3.7506,-6.2496 -3.7495,-7.5002 -2.5001,-6.2496 -3.7496,-7.5001 -2.5,-7.5002 -2.5,-6.2506 -2.5001,-7.4991 -3.7506,-7.5002 -2.5,-7.5001 -2.5001,-7.5002 -2.5,-7.5001 -2.5001,-7.5002 -2.499,-7.5001 -2.5001,-6.2496 -2.5,-7.5002 -5.0001,-15.0003 0,1.2506"
         style="fill:none;stroke:#000000;stroke-width:24.00660706;stroke-linecap:round;stroke-linejoin:round;stroke-miterlimit:4;stroke-dasharray:none;stroke-opacity:1"
         id="path10583"
         inkscape:connector-curvature="0" />
      <path
         d="m -3942.3216,-1370.9612 -6.2506,-1.2495 -7.5002,-1.2505 -6.2496,-1.2495 -6.2496,-1.2506 -7.5002,0 -6.2506,-1.2495 -6.2496,-1.2505 -7.5001,-1.2495 -6.2497,-1.2506 -6.2506,-1.2495 -7.5001,-1.2505 -6.2496,-1.2495 -6.2497,-1.2506 -6.2506,-1.2495 -7.5001,-1.2495 -6.2496,-1.2505 -6.2507,-1.2495 -6.2496,-1.2506 -6.2496,-2.5 -7.5001,-1.2495 -6.2507,-1.2506 -6.2496,-2.5 -6.2496,-1.2495 -6.2506,-2.5001 -11.2497,-2.5 -10.0002,-3.7506 -10.0002,-3.7496 -10.0002,-3.7506 -11.2497,-4.999 -10.0002,-3.7506 -10.0002,-5.0001 -10.0002,-3.7496 -9.9992,-5.0001 -10.0002,-5.0001 -10.0002,-5.0001 -10.0002,-5.0001 -10.0002,-5.0001 -10.0002,-5.0001 -9.9992,-5.0001 -10.0001,-6.2496 -10.0002,-5.0001 -10.0002,-5.0001 -10.0002,-6.2496 -10.0002,-5.0001 -9.9992,-5.0001 -10.0002,-6.2506 -10.0002,-5.0001 -10.0002,-4.9991 -12.5002,-6.2506 -12.5003,-7.5002 -12.4992,-6.2496 -12.5002,-6.2506 -12.5003,-6.2496 -13.7497,-6.2496 -12.5003,-5.0001 -12.5002,-6.2507 -13.7498,-5.0001 -12.5002,-6.2496 -12.5003,-5.0001 -13.7497,-5.0001 -12.5003,-5.0001 -13.7497,-5.0001 -13.7498,-3.7495 -12.5002,-5.0001 -13.7508,-3.7496 -13.7498,-3.7506 -12.5002,-3.7495 -13.7498,-3.7506 -13.7497,-2.5001 -13.7498,-3.7495 -13.7508,-2.5001 -13.7497,-2.5 -15.0003,-1.2506 -15.0003,-2.5 -13.7498,-1.2495 -15.0003,-1.2495 -14.9993,0 -15.0002,-1.2506 -15.0003,0 -15.0003,0 -14.9993,0 -15.0003,1.2506 -15.0003,1.2495 -15.0003,1.2495 -14.9993,1.2505 -15.0002,1.2495 -15.0003,2.5001 -15.0003,2.5 -14.9993,2.5001 -15.0003,2.5 -15.0003,3.7506 -15.0003,3.7496 -15.0003,3.7506 -14.9992,3.7495 -13.7508,3.7496 -14.9993,5.0001 -17.5003,5.0001 -17.5004,6.2506 -16.2498,6.2496 -17.5003,6.2507 -16.2498,7.4991 -17.5004,6.2506 -16.2498,7.5002 -16.2498,8.7496 -16.2498,7.5002 -16.2508,8.7496 -14.9993,8.7507 -16.2508,8.7497 -14.9993,10.0002 -15.0003,10.0002 -15.0003,10.0002 -15.0003,9.9991 -14.9993,10.0002 -13.7507,11.2508 -15.0003,11.2497 -13.7498,11.2497 -12.5002,12.5002 -13.7498,11.2497 -12.5002,12.5003 -12.4993,12.5002 -10.0002,10.0002 -8.7506,10.0002 -10.0002,9.9992 -8.7497,10.0002 -8.7496,10.0002 -7.5002,10.0002 -8.7497,11.2497 -8.7506,10.0002 -7.5002,11.2497 -8.7496,10.0002 -7.5002,11.2507 -8.7497,11.2497 -7.5001,11.2497 -7.5001,11.2508 -7.5002,11.2497 -7.5001,11.2497 -7.5002,11.2507 -6.2496,11.2497 -7.5001,12.5003 -7.5002,11.2497 -6.2496,11.2497 -7.5001,12.5002 -6.2507,11.2497 -7.4991,11.2508 -10.0002,18.7498 -11.2507,18.7499 -9.9992,18.7498 -10.0002,18.7509 -10.0002,18.7499 -10.0002,18.7498 -8.7497,18.7499 -10.0002,18.7498 -8.7507,18.7509 -9.9991,18.7499 -8.7507,19.9993 -8.7497,18.7509 -7.5001,18.7499 -8.7497,20.0004 -7.5001,19.9993 -7.5002,18.7499 -7.5001,20.0004 -7.5002,20.0004 -7.5001,18.7498 -6.2496,20.0004 -6.2507,19.9994 -6.2496,20.0004 -5.0001,20.0004 -6.2496,19.9993 -6.2506,25.0005 -5.0001,25.0005 -6.2496,24.9995 -5.0001,26.25 -3.7496,25.0005 -5.0001,25.0005 -3.7506,26.25 -2.5,24.9994 -3.7496,26.25 -2.5,26.25 -2.5001,25.0005 -2.5,26.24999 -2.5001,26.25 -1.2495,26.25 -1.2505,25.0005 -1.2495,26.25 -1.2506,26.25 -1.2495,26.25 -1.2505,26.25 -1.2495,26.25 0,26.25 -1.2506,26.249999 -1.2495,52.5011 0,1.2495"
         style="fill:none;stroke:#000000;stroke-width:24.00660706;stroke-linecap:round;stroke-linejoin:round;stroke-miterlimit:4;stroke-dasharray:none;stroke-opacity:1"
         id="path10585"
         inkscape:connector-curvature="0" />
      <path
         d="m -5972.3286,341.54469 12.5002,15.0003 12.4992,15.0003 12.5003,14.9993 12.5002,15.0003 12.5003,15.0003 12.5002,15.0003 12.4992,14.9992 11.2508,15.0003 12.5002,15.0003 11.2497,16.2498 12.5003,15.0003 11.2497,15.0003 11.2497,16.2498 11.2507,15.00029 10.0002,16.2498 11.2497,16.2498 10.0002,16.2498 10.0002,16.2509 9.9992,16.2498 8.7507,16.2498 10.0002,16.2498 8.7496,17.5003 7.5002,17.5004 8.7496,16.2498 3.7506,10.0002 3.7496,10.0002 5.0001,10.00021 3.7495,8.7496 3.7506,10.0002 3.7496,10.0002 3.7506,9.9992 2.5,10.0002 3.7496,10.0002 3.7506,10.0002 2.5,10.0002 3.7496,10.0002 2.5,10.0002 2.5001,9.9991 3.7495,11.2508 2.5001,10.0002 2.5,9.9991 2.5001,10.0002 2.5,10.0002 2.5001,11.2497 2.5,10.0002 1.2506,10.0002 2.5,11.2497 2.5001,10.0002 1.2495,8.7507 1.2495,9.9992 2.5,10.0002 1.2506,10.00021 1.2495,8.7496 2.5,10.0002 1.2506,10.0002 1.2495,8.7507 1.2505,9.9992 1.2495,10.0002 1.2506,8.7507 1.2495,9.9991 1.2505,10.0002 1.2495,10.0002 1.2506,8.7497 1.2495,10.0002 1.2505,10.0002 1.2495,8.7496 1.2506,10.0002 0,10.0002 1.2495,10.0002 1.2505,8.7497 2.5001,20.0004 0,1.2505"
         style="fill:none;stroke:#000000;stroke-width:24.00660706;stroke-linecap:round;stroke-linejoin:round;stroke-miterlimit:4;stroke-dasharray:none;stroke-opacity:1"
         id="path10589"
         inkscape:connector-curvature="0" />
      <path
         d="m -5603.577,1192.7976 7.4991,3.7495 7.5002,3.7506 7.5001,3.7496 7.5002,2.5 8.7496,3.7506 7.5002,3.7496 7.5001,3.7506 7.5002,3.7495 7.5001,3.7506 7.5002,3.7496 7.5001,3.7495 7.5001,3.7506 7.4992,5.0001 7.5001,3.7496 7.5002,3.7506 7.5001,3.7495 7.5002,3.7506 7.5001,4.9991 6.2496,3.7506 7.5002,3.7495 7.5001,5.0001 7.5002,3.7506 6.2496,5.0001 7.5001,3.7496 10.0002,7.5001 11.2497,7.5002 10.0002,6.2496 10.0002,7.5001 10.0002,7.5002 10.0002,8.7496 10.0002,7.5002 9.9992,7.5001 10.0002,8.7497 8.7506,7.5001 9.9992,8.7507 10.0002,7.5002 8.7507,8.7496 9.9992,8.7497 8.7507,8.7507 10.0001,8.7496 8.7497,8.7497 10.0002,8.7507 8.7497,10.0002 10.0002,8.7496 8.7496,8.7497 8.7507,8.7507 10.0002,10.0002 8.7497,8.7496 5.0001,5.0001 5.0001,5.0001 5.0001,5.0001 5,5.0001 5.0001,4.9991 5.0001,5.0001 4.9991,5.0001 5.0001,5.0001 5.0001,5.0001 5.0001,3.7506 5.0001,5.0001 5.0001,4.999 5.0001,3.7506 6.2496,5.0001 5.0001,3.7496 5.0001,5.0001 5.0001,3.7506 6.2506,3.7495 4.9991,3.7506 6.2507,3.7496 5.0001,3.7495 6.2496,3.7506 5.0001,3.7496 6.2506,2.5 12.4992,6.2507 12.5003,5.0001 12.5002,4.999 12.5002,3.7506 13.7498,3.7496 12.5003,2.5 13.7497,2.5001 13.7498,1.2505 15.0003,1.2495 13.7497,1.2506 13.7508,0 14.9993,0 13.7508,0 14.9992,-1.2506 15.0003,-1.2495 15.0003,-1.2505 13.7498,-1.2495 15.0003,-2.5001 15.0003,-1.2505 15.0002,-2.5001 13.7498,-2.5 15.0003,-2.5001 14.9993,-2.499 13.7507,-2.5 8.7497,-2.5001 7.5002,-1.2505 8.7496,-1.2495 8.7507,-2.5001 7.5001,-1.2505 8.7497,-1.2495 7.5002,-2.5001 8.7496,-1.2505 7.5002,-2.5001 8.7496,-1.2495 7.5002,-2.5 7.5001,-1.2506 8.7497,-2.5 7.5001,-2.5001 7.5002,-2.499 7.5001,-2.5 7.5002,-2.5001 8.7496,-2.5 7.5002,-2.5001 7.5001,-2.5 7.5002,-2.5001 7.5001,-2.5 7.5002,-3.7506 7.5001,-2.5001 8.7497,-5.0001 8.7496,-3.7495 8.7507,-3.7496 8.7497,-5.0001 7.5001,-5.0001 8.7497,-3.7506 8.7507,-5.0001 8.7496,-5.0001 7.5002,-4.999 8.7496,-6.2507 8.7507,-5.0001 7.5001,-5.0001 8.7497,-6.2496 8.7497,-5.0001 7.5001,-6.2496 8.7507,-5.0001 7.4991,-6.2506 8.7507,-5.0001 7.5001,-6.2496 8.7497,-6.2496 7.5002,-5.0001 7.5001,-6.2507 8.7497,-6.2496 7.5001,-5.0001 13.7498,-10.0002 13.7507,-10.0002 12.4993,-8.7496 13.7507,-10.0002 12.4993,-8.7497 13.7508,-10.0002 13.7497,-8.7507 12.5003,-9.9991 13.7497,-10.0002 12.5003,-8.7507 12.5002,-9.9992 13.7498,-10.0002 12.5002,-10.0002 12.5002,-10.0002 12.4993,-10.0002 12.5002,-10.0002 12.5003,-10.0002 12.5002,-11.2497 12.5002,-10.0002 12.4993,-11.2497 11.2507,-10.0002 12.5002,-11.2497 11.2498,-11.2497 11.2497,-12.5002 7.5001,-7.5002 8.7497,-7.5001 7.5001,-8.7497 7.5002,-7.5001 7.5001,-8.7507 7.5002,-7.5002 7.5001,-8.7496 7.5001,-7.5002 7.5002,-8.7496 7.4991,-7.5002 7.5002,-7.5001 7.5001,-8.7497 7.5002,-7.5001 7.5001,-7.5002 7.5002,-7.5001 8.7496,-7.5002 7.5002,-7.5001 7.5001,-6.2496 8.7497,-7.5002 8.7507,-6.2496 8.7496,-6.2506 8.7497,-6.2496 8.7507,-6.2507 8.7496,-6.2496 10.0002,-5.00011 10.0002,-6.2496 10.0002,-5.0001 10.0002,-3.7506 11.2497,-5.0001 11.2497,-3.7495 10.0002,-5.0001 11.2497,-2.5001 11.2507,-3.7495 12.4993,-3.7506 11.2507,-2.5001 11.2497,-2.5 11.2497,-2.5001 12.5003,-1.2495 11.2507,-2.5 12.4992,-1.2506 11.2507,-1.2495 12.4993,-1.2505 11.2507,-1.2495 12.5002,-1.2495 12.4993,0 11.2507,-1.2506 12.5002,0 12.4993,0 11.2507,0 11.2497,0 12.5003,0 11.2497,1.2506 11.2497,0 12.5002,1.2495 11.2507,1.2495 11.2498,0 11.2497,1.2505 12.5002,2.5001 11.2497,1.2495 11.2507,1.2505 11.2498,2.5001 11.2497,1.2495 11.2507,2.5 11.2497,2.5001 11.2497,2.5 11.2507,2.5001 11.2498,2.5 11.2497,2.5001 11.2497,3.7506 11.2507,2.5 10.0002,3.7496 11.2497,3.7495 10.0002,2.5001 10.0002,3.7506 10.0002,3.7495 9.9992,3.7506 10.0002,3.74961 8.7506,3.7506 9.9992,3.7495 10.0002,5.0001 8.7507,3.7496 9.9992,5.0001 8.7507,3.7506 10.0001,5.0001 8.7497,5.0001 10.0002,4.999 8.7497,5.0001 8.7506,5.0001 8.7497,6.2507 8.7497,5.0001 8.7506,6.2496 8.7497,5.0001 8.7497,6.2496 8.7507,6.2506 7.5001,6.2496 8.7497,6.2507 7.5001,6.2496 7.5002,6.2496 8.7496,7.5001 7.5002,6.2507 7.5001,7.5001 7.5002,6.2496 6.2496,7.5002 7.5001,7.5001 7.5002,7.5002 7.5001,7.4991 6.2496,7.5001 7.5002,7.5002 6.2496,7.5001 7.5001,7.5002 6.2507,7.5001 6.2496,7.5002 7.5001,8.7496 6.2496,7.5002 6.2507,7.5001 7.5001,7.5002 6.2496,8.7496 6.2506,7.5002 13.7498,16.2498 0,1.2505"
         style="fill:none;stroke:#000000;stroke-width:24.00660706;stroke-linecap:round;stroke-linejoin:round;stroke-miterlimit:4;stroke-dasharray:none;stroke-opacity:1"
         id="path10591"
         inkscape:connector-curvature="0" />
      <path
         d="m -2911.0683,1276.5477 11.2497,-8.7497 11.2497,-7.5001 11.2508,-8.7497 12.5002,-7.5001 11.2497,-7.5002 11.2497,-7.5001 12.5003,-8.7497 11.2497,-6.2506 11.2507,-7.5002 12.4992,-7.5001 11.2508,-6.2496 12.5002,-6.2496 11.2497,-5.0001 11.2497,-6.2507 12.5003,-5.0001 11.2497,-3.7495 12.5002,-3.7496 12.5003,-3.7506 11.2497,-3.7495 12.5002,-1.2506 11.2497,-2.5 12.5003,-1.2495 12.5002,0 12.5003,0 5.0001,0 6.2496,1.2495 6.2506,1.2505 6.2496,0 6.2496,1.2495 6.2507,1.2506 6.2496,1.2495 6.2506,1.2505 4.9991,2.5001 6.2506,1.2495 6.2496,1.2505 6.2506,2.499 6.2497,1.2506 6.2496,2.5 6.2506,2.5001 6.2496,1.2495 6.2506,2.5 6.2497,2.5001 6.2496,2.5 6.2506,2.5001 6.2496,2.5 6.2506,2.5001 11.2498,5.0001 0,1.2505"
         style="fill:none;stroke:#000000;stroke-width:24.00660706;stroke-linecap:round;stroke-linejoin:round;stroke-miterlimit:4;stroke-dasharray:none;stroke-opacity:1"
         id="path10593"
         inkscape:connector-curvature="0" />
      <path
         d="m -2481.067,1192.7976 3.7495,-3.7496 3.7506,-3.7506 2.5001,-3.7495 3.7495,-3.7506 3.7506,-3.7496 2.5,-3.7506 3.7496,-3.7495 3.7506,-5.0001 2.499,-3.7496 3.7506,-3.7506 2.5001,-3.7495 3.7495,-3.7506 2.5001,-3.7496 3.7506,-3.7506 2.5,-3.7495 3.7496,-5.0001 2.5,-3.7496 2.5001,-3.7506 3.7495,-3.7495 2.5001,-3.7506 2.5,-5.0001 2.5001,-3.7496 2.5,-3.7506 2.5001,-4.999 2.5,-2.5001 1.2506,-2.5 1.2495,-2.5001 1.2505,-2.5 1.2495,-2.5001 1.2506,-2.5 1.2495,-2.5001 1.2505,-2.5 1.2495,-2.5001 2.5001,-2.5 1.2505,-3.7496 1.2495,-2.5 1.2505,-2.5001 1.2496,-2.5 1.2495,-2.5001 1.2505,-2.5 1.2495,-2.5001 1.2506,-2.5 1.2495,-3.7506 1.2505,-2.5001 1.2495,-2.5 1.2506,-2.5001 2.5,-4.999 0,1.2495"
         style="fill:none;stroke:#000000;stroke-width:24.00660706;stroke-linecap:round;stroke-linejoin:round;stroke-miterlimit:4;stroke-dasharray:none;stroke-opacity:1"
         id="path10595"
         inkscape:connector-curvature="0" />
      <path
         d="m -2374.8165,1035.2976 -7.5001,-2.5001 -7.5002,-2.5 -7.5001,-1.2506 -7.5002,-2.5 -7.5001,-1.2495 -7.5002,-2.5001 -7.4991,-2.5 -7.5001,-1.2506 -7.5002,-2.5 -7.5001,-2.5001 -7.5002,-1.2495 -7.5001,-2.5 -7.5002,-2.5001 -7.5001,-1.2495 -7.4992,-2.5 -7.5001,-2.5001 -7.5001,-2.50001 -7.5002,-2.5001 -7.5001,-1.2505 -7.5002,-2.5001 -7.5001,-2.5 -7.5002,-2.5001 -7.4991,-2.5 -6.2506,-2.5001 -6.2496,-2.5 -6.2507,-2.5001 -6.2496,-2.499 -5.0001,-1.2505 -6.2496,-2.5001 -6.2506,-2.5 -5.0001,-2.5001 -6.2496,-2.5 -6.2507,-2.5001 -4.9991,-2.5 -6.2506,-2.5001 -5.0001,-2.5 -6.2496,-2.5001 -5.0001,-2.5 -6.2496,-2.5001 -5.0001,-2.5 -6.2506,-3.7496 -5.0001,-2.5 -6.2496,-2.5001 -5.0001,-3.7495 -6.2497,-2.5001 -5.0001,-3.7506 -5,-2.5 -6.2507,-3.7496 -6.2496,-3.7506 -6.2496,-3.7495 -7.5002,-5.0001 -6.2506,-3.7496 -6.2496,-5.0001 -6.2506,-5.0001 -6.2496,-5.0001 -6.2497,-3.7506 -6.2506,-4.999 -6.2496,-5.0001 -6.2506,-5.0001 -5.0001,-6.2507 -6.2496,-5.0001 -5.0001,-5.0001 -6.2496,-6.2496 -5.0001,-5.0001 -5.0001,-6.2496 -6.2497,-5.0001 -5.0001,-6.2506 -5,-6.2496 -3.7506,-6.2496 -5.0001,-6.2507 -5.0001,-6.2496 -3.7496,-6.2506 -5.0001,-6.2496 -3.7496,-7.5002 -5,-7.5001 -3.7506,-6.2496 -3.7496,-7.5002 -3.7506,-7.5001 -3.7495,-7.5002 -2.5001,-7.50011 -3.7496,-7.5002 -2.5,-7.4991 -2.5001,-8.7507 -3.7505,-7.5001 -2.5001,-7.5002 -1.2495,-8.7496 -2.5,-7.5002 -2.5001,-8.7496 -1.2505,-7.5002 -2.5001,-8.7496 -1.2495,-8.7507 -1.2505,-8.7497 -1.2495,-7.5001 -1.2506,-8.7497 -1.2495,-8.7507 -1.2505,-8.7496 0,-8.7497 -1.2495,-10.0002 0,-10.0002 0,-8.7507 0,-9.9991 0,-8.7507 0,-10.00019 1.2495,-8.7497 0,-10.0002 1.2505,-8.7496 1.2495,-8.7497 1.2506,-10.0002 2.5,-8.7507 1.2495,-8.7496 2.5001,-8.7497 2.5,-8.7507 2.5001,-8.7496 3.7506,-7.5002 2.5,-8.7496 3.7496,-7.5002 3.7505,-8.7507 4.9991,-7.4991 3.7506,-6.2506 5.0001,-7.5002 5.0001,-6.2496 5.0001,-6.2506 5.0001,-6.2496 6.2496,-6.2496 6.2496,-6.2507 5.0001,-5.0001 6.2507,-5.0001 7.5001,-5.0001 6.2496,-4.999 7.5002,-5.0001 6.2496,-5.0001 7.5001,-5.0001 7.5002,-5.0001 7.5001,-3.7506 7.5002,-5.0001 7.5001,-3.7496 7.5001,-3.7495 8.7497,-5.0001 7.5002,-3.7506 8.7496,-3.7496 7.5002,-3.7506 8.7496,-3.7495 16.2508,-8.7497 0,1.2495"
         style="fill:none;stroke:#000000;stroke-width:24.00660706;stroke-linecap:round;stroke-linejoin:round;stroke-miterlimit:4;stroke-dasharray:none;stroke-opacity:1"
         id="path10597"
         inkscape:connector-curvature="0" />
      <path
         d="m -2343.5664,-278.45721 -8.7507,-5.0001 -8.7496,-3.7495 -10.0002,-5.0001 -8.7497,-5.0001 -8.7497,-3.7506 -7.5001,-5.0001 -8.7507,-5.0001 -8.7496,-5.0001 -7.5002,-4.9991 -8.7497,-5.0001 -7.5001,-5.0001 -7.5001,-5.0001 -7.5002,-6.2506 -7.5001,-5.0001 -6.2496,-6.2496 -6.2507,-6.2496 -6.2496,-6.25069 -6.2496,-6.2496 -6.2506,-6.2506 -5.0001,-7.4991 -3.7496,-6.2507 -5.0001,-7.5001 -3.7506,-7.5002 -3.7495,-7.4991 -1.2506,-6.2506 -2.499,-5.0001 -1.2505,-5.0001 -1.2496,-5.0001 -1.2505,-6.2496 -1.2495,-5.0001 -1.2505,-6.2496 0,-5.0001 0,-6.2507 -1.2496,-5.0001 0,-6.2496 0,-6.2496 0,-6.2506 0,-5.0001 1.2496,-6.2496 0,-6.2496 1.2505,-5.0001 1.2495,-6.2507 0,-6.2496 1.2505,-5.0001 1.2496,-6.2506 2.5,-6.2496 1.2495,-5.0001 1.2506,-6.2496 3.7495,-8.7507 3.7506,-8.7497 3.7496,-10.0002 3.7506,-8.7496 5,-7.5002 5.0001,-8.7496 4.9991,-8.7507 5.0001,-7.5002 6.2507,-7.5001 5.0001,-8.7497 6.2496,-7.5001 6.2506,-6.2496 6.2496,-7.5002 7.5002,-7.5001 6.2496,-7.5002 7.5001,-6.2496 7.5002,-6.2506 7.5001,-7.5002 7.5002,-6.2496 7.5001,-6.2496 7.5001,-6.2506 7.4992,-6.2496 8.7507,-6.2507 7.5001,-6.2496 13.7498,-10.0002 15.0003,-10.0002 13.7497,-9.9991 15.0003,-10.0002 13.7498,-8.7507 15.0003,-9.9992 15.0002,-8.7507 14.9993,-8.7496 15.0003,-8.7507 15.0003,-7.4991 16.2498,-7.5002 15.0003,-8.7507 15.0003,-6.2496 16.2498,-7.5001 15.0003,-7.5002 16.2498,-6.2496 15.0003,-6.2506 16.2498,-6.2496 16.2498,-5.0001 16.2498,-5.0001 16.2508,-6.2496 14.9993,-3.7506 16.2508,-5.0001 16.2499,-5.0001 22.4994,-5.0001 21.2509,-3.7496 22.4994,-5.0001 21.2499,-3.7495 22.5005,-2.5001 21.2499,-3.7506 22.5004,-2.5 22.4994,-1.2495 22.5005,-2.5001 22.5004,-1.2505 22.4994,0 22.5005,-1.2495 22.5004,0 22.4994,0 22.5005,1.2495 22.5004,0 22.4994,1.2505 22.5005,1.2495 23.7499,1.2506 22.5005,1.2495 22.4994,2.5 23.7499,2.5001 22.5005,1.2505 22.5004,2.5001 0,1.2495"
         style="fill:none;stroke:#000000;stroke-width:24.00660706;stroke-linecap:round;stroke-linejoin:round;stroke-miterlimit:4;stroke-dasharray:none;stroke-opacity:1"
         id="path10599"
         inkscape:connector-curvature="0" />
      <path
         d="m -1762.3147,-940.9599 -22.5005,0 -22.4994,0 -22.5004,1.2505 -23.75,1.2495 -22.5004,0 -22.4994,2.5001 -22.5005,1.2505 -22.5004,1.2495 -23.75,2.5001 -22.4994,2.5 -22.5004,2.5001 -22.5005,3.7506 -22.4994,2.5 -22.5004,3.7496 -22.5005,3.7495 -22.4994,3.7506 -22.5004,3.7496 -22.4995,5.0001 -22.5004,5.0001 -21.2499,5.0001 -22.5004,5.0001 -22.5005,6.2496 -21.2499,5.0001 -22.4994,6.2506 -20.0004,6.2496 -21.2499,6.2507 -21.2499,7.4991 -20.0004,6.2506 -21.2499,7.5002 -20.0004,6.2496 -21.2499,7.5001 -20.0004,7.5002 -21.2499,7.5001 -20.0004,8.7497 -19.9993,7.5001 -21.25,7.5002 -20.0003,7.5001 -20.0004,8.7497 -21.2499,7.5001 -20.0004,7.5002 -19.9994,8.7496 -21.2499,7.5002 -20.0004,7.5001 -21.2499,7.5002 -20.0004,7.5001 -21.2499,7.5002 -20.0004,7.5001 -21.2499,7.4991 -16.2498,5.0001 -16.2508,6.2507 -16.2498,5.0001 -16.2498,5.0001 -16.2498,4.999 -16.2499,5.0001 -16.2508,3.7506 -17.4993,5.0001 -16.2508,5.0001 -16.2498,3.7496 -16.2498,3.7506 -17.5004,3.7495 -16.2498,3.7496 -17.5003,3.7506 -16.2498,2.5 -16.2499,3.7496 -17.5003,2.5 -16.2498,2.5001 -17.5003,2.5 -16.2498,1.2506 -17.5004,1.2495 -16.2498,2.5 -17.5003,1.2506 -17.5004,0 -22.4994,1.2495 -21.2499,0 -22.5004,0 -22.5005,-1.2495 -22.4994,-1.2506 -22.5004,-1.2495 -22.5005,-2.5 -22.4994,-2.5001 -22.5004,-2.5 -22.5005,-3.7506 -22.4994,-3.7496 -21.2499,-5.0001 -22.5004,-5.0001 -22.5005,-5.0001 -21.2499,-5.0001 -22.5004,-6.2496 -21.2499,-6.2506 -21.2499,-6.2496 -21.2499,-7.5002 -21.2499,-7.5001 -21.25,-7.5002 -21.2509,-8.7496 -21.2499,-8.7497 -19.9994,-8.7507 -23.7499,-10.0002 -22.5004,-11.2497 -23.75,-11.2497 -22.5004,-11.2507 -22.5005,-12.4992 -22.4994,-11.2508 -21.2499,-12.4992 -22.5004,-12.5002 -22.5005,-12.5003 -21.2499,-13.7497 -22.4994,-12.5003 -21.2509,-13.7497 -22.4994,-12.5003 -21.25,-12.5002 -22.5004,-13.7498 -21.2499,-12.5002 -22.5004,-13.7498 -22.4995,-12.5002 -21.2509,-12.5003 -22.4994,-12.5002 -22.5004,-11.2497 -23.75,-12.5003 -22.5004,-11.2497 -22.4995,-11.2507 -18.7508,-8.7497 -19.9994,-8.7496 -18.7499,-8.7507 -20.0003,-7.5002 -18.7499,-8.7496 -20.0004,-7.5002 -20.0004,-6.2496 -19.9994,-7.5001 -20.0003,-6.2496 -20.0004,-6.2507 -19.9994,-6.2496 -20.0004,-5.0001 -20.0004,-5.0001 -21.2499,-3.7506 -20.0004,-4.999 -19.9994,-3.7506 -21.2499,-2.5001 -20.0003,-2.5 -21.25,-2.5001 -21.2499,-1.2495 -20.0003,-1.2505 -21.25,-1.2495 -21.2499,0 -20.0003,0 -21.25,1.2495 -21.2499,1.2505 -21.2509,2.5001 -21.2499,2.5 -19.9994,3.7496 -21.2509,3.7506 -21.2499,4.999 -20.0004,5.0001 -21.2499,5.0001 -19.9994,6.2507 -20.0003,6.2496 -21.2499,7.5001 -20.0004,6.2496 -18.7499,8.7507 -20.0004,8.7497 -19.9994,8.7496 -18.7508,8.7507 -18.7499,10.0002 -18.7498,9.9992 -18.7499,11.2507 -17.5003,10.0002 -17.5004,12.4992 -17.4993,11.2508 -17.5003,12.5002 -23.75,17.4993 -22.5004,18.7499 -21.2499,20.0004 -22.5005,20.0004 -19.9994,20.0004 -20.0003,21.2499 -20.0004,22.4994 -18.7499,21.2509 -18.7498,23.75 -18.7499,22.4994 -17.5003,23.7499 -16.2499,25.0005 -17.5003,23.75 -16.2498,25.0005 -16.2508,26.25 -14.9993,24.9994 -15.0003,26.2511 -15.0003,26.25 -15.0003,26.25 -14.9993,26.25 -13.7507,26.25 -13.7498,26.25 -13.7498,26.25 -13.7497,27.5005 -16.2509,29.99959 -14.9992,30.0006 -15.0003,29.9995 -15.0003,30.0006 -13.7498,31.2501 -15.0003,29.9996 -15.0003,30.0006 -13.7497,29.9995 -13.7498,30.0006 -15.0003,31.250099 -13.7497,29.9996 -13.7508,30.0006 -13.7498,29.9995 -13.7497,30.0006 -13.7508,29.9996 -13.7498,31.250101 -13.7497,30.0006 -12.5003,29.9995 -13.7497,30.0006 -13.7498,29.9996 -13.7508,30.0006 -12.5002,31.2501 -13.7498,30.0006 -13.7497,29.9995 0,1.2506"
         style="fill:none;stroke:#000000;stroke-width:24.00660706;stroke-linecap:round;stroke-linejoin:round;stroke-miterlimit:4;stroke-dasharray:none;stroke-opacity:1"
         id="path10601"
         inkscape:connector-curvature="0" />
      <path
         d="m -5603.577,1192.7976 14.9993,7.5001 13.7507,7.5002 14.9993,7.5001 13.7508,7.5002 14.9993,7.4991 15.0003,6.2506 13.7497,7.5002 15.0003,7.5001 15.0003,7.4991 15.0003,6.2507 13.7498,6.2496 15.0003,7.5001 15.0002,6.2507 14.9993,6.2496 15.0003,6.2496 15.0003,5.0001 15.0003,6.2506 14.9993,5.0001 15.0003,5.0001 15.0003,4.9991 16.2498,3.7506 15.0003,5.0001 15.0002,3.7495 16.2499,2.5001 13.7497,3.7506 13.7498,2.5 13.7507,1.2495 13.7498,2.5001 13.7498,1.2505 13.7507,2.5001 13.7498,1.2495 15.0003,0 13.7498,1.2495 13.7497,0 13.7498,1.2505 15.0003,0 13.7497,-1.2505 13.7508,0 15.0003,0 13.7498,-1.2495 13.7497,-1.2495 15.0003,-1.2506 13.7498,-1.2495 13.7497,-2.5 15.0003,-1.2506 13.7498,-2.5 13.7508,-2.5001 13.7497,-2.5 17.5004,-2.5001 16.2498,-3.7495 16.2498,-3.7506 17.5003,-3.7496 16.2498,-5.0001 16.2498,-3.7495 16.2508,-5.0001 16.2499,-5.0001 16.2498,-6.2507 16.2498,-5.0001 16.2508,-6.2496 14.9993,-6.2496 16.2508,-6.2506 14.9993,-6.2496 16.2508,-7.5002 14.9993,-6.2496 16.2508,-7.5001 14.9993,-7.5002 15.0003,-7.5001 15.0003,-7.5002 15.0002,-8.7496 14.9993,-7.5002 13.7508,-8.7507 15.0003,-8.7496 17.4993,-11.2497 16.2498,-10.0002 16.2509,-11.2497 16.2498,-11.2508 17.5003,-11.2497 14.9993,-11.2497 16.2508,-12.5002 16.2498,-12.5003 16.2498,-11.2497 15.0003,-12.5002 16.2498,-12.5003 15.0003,-12.5002 16.2498,-12.5003 15.0003,-12.4992 15.0003,-13.7508 16.2498,-12.4992 15.0003,-12.50021 14.9993,-13.7498 15.0003,-12.5002 16.2498,-12.5003 15.0003,-13.7497 15.0003,-12.5003 16.2498,-12.5002 15.0003,-13.7498 7.5001,-6.2506 7.5002,-6.2496 7.5001,-6.2496 7.5001,-5.0001 7.4992,-6.2507 7.5001,-6.2496 7.5002,-6.2506 7.5001,-6.2496 7.5002,-6.2496 8.7496,-5.0001 7.5002,-6.2507 7.5001,-6.2496 7.5002,-5.0001 8.7496,-6.2496 7.5002,-5.0001 7.5001,-6.2506 8.7497,-5.0001 7.5001,-6.2496 8.7507,-5.0001 7.5001,-5.0001 8.7497,-5.0001 8.7497,-5.0001 7.5001,-5.0001 8.7497,-5.0001 13.7508,-7.4991 13.7497,-6.2507 12.5003,-7.5001 13.7497,-6.24961 13.7498,-6.2507 15.0003,-6.2496 13.7497,-5.0001 13.7508,-5.0001 15.0003,-5.0001 13.7498,-5.0001 15.0002,-5.0001 13.7498,-3.7495 15.0003,-3.7496 14.9993,-3.7506 15.0003,-3.7495 15.0003,-2.5001 15.0002,-2.5 14.9993,-2.5001 15.0003,-2.5 15.0003,-1.2506 15.0003,-1.2495 14.9993,-1.2505 15.0003,0 15.0003,-1.2495 13.7497,0 15.0003,1.2495 13.7498,0 15.0003,1.2505 13.7497,1.2495 15.0003,1.2506 13.7498,2.5 15.0003,2.5001 13.7497,2.5 13.7508,2.5001 14.9993,2.5 13.7508,2.5001 13.7497,3.7495 13.7498,3.7496 15.0003,3.7506 13.7497,3.7495 13.7508,5.0001 13.7498,3.7506 13.7497,5.0001 13.7498,5.0001 13.7508,4.9991 13.7497,5.0001 12.5003,5.0001 13.7497,5.00011 8.7507,3.7506 7.4991,3.7495 8.7507,3.7506 8.7497,3.7496 7.5001,2.5 8.7497,3.7496 7.5001,3.7506 8.7507,3.7495 7.4991,3.7506 8.7507,3.7496 7.5002,3.7506 8.7496,3.7495 7.5002,3.7496 8.7496,3.7506 7.5002,3.7495 8.7506,3.7506 7.4992,3.7496 8.7507,5.0001 7.5001,3.7506 8.7497,2.5 7.5001,3.7496 8.7497,3.7495 7.5001,3.7506 8.7507,3.7496 0,1.2505"
         style="fill:none;stroke:#000000;stroke-width:24.00660706;stroke-linecap:round;stroke-linejoin:round;stroke-miterlimit:4;stroke-dasharray:none;stroke-opacity:1"
         id="path10603"
         inkscape:connector-curvature="0" />
      <path
         d="m -2679.8174,277.79499 -13.7507,6.2496 -12.4993,5.0001 -13.7507,5.0001 -13.7498,5.0001 -12.5002,5.0001 -13.7498,5.0001 -12.5002,6.2496 -13.7498,5.0001 -13.7498,5.0001 -12.5002,5.0001 -13.7508,5.0001 -13.7497,5.0001 -13.7498,6.2496 -12.5002,5.0001 -13.7498,5.0001 -13.7498,5.0001 -13.7507,6.2496 -13.7498,5.0001 -13.7498,5.0001 -15.0002,5.0001 -13.7498,5.0001 -13.7508,6.2496 -14.9993,5.0001 -13.7507,5.0001 -10.0002,3.7506 -9.9992,3.7496 -10.0002,3.7495 -10.0002,3.7506 -8.7497,3.7496 -10.0001,3.7506 -10.0002,3.7495 -8.7497,5.0001 -10.0002,3.7506 -8.7507,4.9991 -10.0002,3.7506 -8.7496,5.0001 -8.7497,5.0001 -8.7507,5.0001 -7.4991,6.2496 -8.7507,5.0001 -7.5001,6.2496 -7.5002,6.2506 -6.2496,6.2496 -7.5001,7.5002 -6.2496,6.2496 -6.2507,7.5001 -5.0001,8.7507 -5.0001,7.5002 -2.499,4.999 -3.7506,6.25069 -2.5,5.0001 -2.5001,6.2496 -2.5,6.2506 -1.2495,6.2496 -2.5001,5.0001 -1.2505,6.2496 -1.2495,6.2507 -1.2506,6.2496 -1.2495,7.5001 -1.2505,6.2496 -1.2495,6.2507 0,6.2496 -1.2506,6.2506 0,6.2496 0,6.2496 0,6.2507 1.2506,6.2496 0,6.2506 1.2495,6.2496 0,6.2496 1.2505,6.2507 1.2495,6.2496 5.0001,15.0003 5.0001,15.0003 7.5002,13.7497 7.5001,13.7498 10.0002,12.50021 10.0002,12.5003 11.2497,11.2497 12.5003,10.0002 12.5002,11.2497 13.7498,8.7507 15.0002,10.0002 14.9993,8.7496 16.2508,7.5002 16.2499,8.7496 16.2498,7.5002 17.5003,6.2496 17.5003,7.5001 18.7499,6.2507 17.4993,6.2496 18.7509,6.2506 17.4993,4.9991 18.7509,6.2506 18.7499,5.0001 17.4993,5.0001 23.7509,7.5002 23.75,6.2496 23.75,7.5001 22.4994,6.2496 22.5004,6.2507 22.5005,6.2496 22.4994,6.2496 22.5004,5.0001 21.2499,6.2506 21.2499,6.2496 22.5005,5.0001 21.2499,6.2507 20.0004,4.999 21.2499,5.0001 21.2499,6.2507 20.0004,5.0001 21.2499,5.0001 20.0004,5.00011 21.2499,4.999 20.0003,5.0001 19.9994,6.2507 20.0004,5.0001 41.2503,10.0002 0,1.2495"
         style="fill:none;stroke:#000000;stroke-width:24.00660706;stroke-linecap:round;stroke-linejoin:round;stroke-miterlimit:4;stroke-dasharray:none;stroke-opacity:1"
         id="path10605"
         inkscape:connector-curvature="0" />
      <path
         d="m -1176.063,-1034.7102 -63.7497,136.2511 0,1.2495"
         style="fill:none;stroke:#000000;stroke-width:24.00660706;stroke-linecap:round;stroke-linejoin:round;stroke-miterlimit:4;stroke-dasharray:none;stroke-opacity:1"
         id="path10607"
         inkscape:connector-curvature="0" />
      <path
         d="m -2679.8174,277.79499 336.251,0 0,1.2495"
         style="fill:none;stroke:#000000;stroke-width:24.00660706;stroke-linecap:round;stroke-linejoin:round;stroke-miterlimit:4;stroke-dasharray:none;stroke-opacity:1"
         id="path10635"
         inkscape:connector-curvature="0" />
      <path
         d="m -2343.5664,-278.45721 0,556.2522 0,1.2495"
         style="fill:none;stroke:#000000;stroke-width:24.00660706;stroke-linecap:round;stroke-linejoin:round;stroke-miterlimit:4;stroke-dasharray:none;stroke-opacity:1"
         id="path10637"
         inkscape:connector-curvature="0" />
    </g>
  </g>
</svg>
