<?xml version="1.0" encoding="UTF-8" standalone="no"?>
<!-- Created with Inkscape (http://www.inkscape.org/) -->

<svg
   xmlns:dc="http://purl.org/dc/elements/1.1/"
   xmlns:cc="http://creativecommons.org/ns#"
   xmlns:rdf="http://www.w3.org/1999/02/22-rdf-syntax-ns#"
   xmlns:svg="http://www.w3.org/2000/svg"
   xmlns="http://www.w3.org/2000/svg"
   xmlns:sodipodi="http://sodipodi.sourceforge.net/DTD/sodipodi-0.dtd"
   xmlns:inkscape="http://www.inkscape.org/namespaces/inkscape"
   width="210mm"
   height="297mm"
   viewBox="0 0 744.09448819 1052.3622047"
   id="svg2"
   version="1.1"
   inkscape:version="0.91 r13725"
   sodipodi:docname="jaguar.svg"
   inkscape:export-filename="/home/cho2/Gambar/jaguar.png"
   inkscape:export-xdpi="90"
   inkscape:export-ydpi="90">
  <defs
     id="defs4" />
  <sodipodi:namedview
     id="base"
     pagecolor="#ffffff"
     bordercolor="#666666"
     borderopacity="1.0"
     inkscape:pageopacity="0.0"
     inkscape:pageshadow="2"
     inkscape:zoom="0.7"
     inkscape:cx="191.44101"
     inkscape:cy="551.09571"
     inkscape:document-units="px"
     inkscape:current-layer="layer1"
     showgrid="false"
     inkscape:window-width="2048"
     inkscape:window-height="1100"
     inkscape:window-x="0"
     inkscape:window-y="24"
     inkscape:window-maximized="1" />
  <metadata
     id="metadata7">
    <rdf:RDF>
      <cc:Work
         rdf:about="">
        <dc:format>image/svg+xml</dc:format>
        <dc:type
           rdf:resource="http://purl.org/dc/dcmitype/StillImage" />
        <dc:title></dc:title>
      </cc:Work>
    </rdf:RDF>
  </metadata>
  <g
     inkscape:label="jaguar"
     inkscape:groupmode="layer"
     id="layer1">
    <g
       transform="matrix(1.25,0,0,-1.25,-44.841651,1097.2061)"
       inkscape:label="FenderJaguarJazzmaster"
       id="g9389">
      <g
         transform="translate(0,-14868)"
         id="g9391" />
    </g>
    <path
       inkscape:connector-curvature="0"
       id="path11671"
       style="fill:none;stroke:#000000;stroke-width:5;stroke-linecap:butt;stroke-linejoin:miter;stroke-miterlimit:3.86360002;stroke-dasharray:none;stroke-opacity:1"
       d="m 558.75103,232.9773 -19.43068,7.1275 c -11.45404,4.175 -23.55837,6.32 -35.7554,6.32 -13.74443,0 -27.35474,-2.69125 -40.03943,-8.01125 -19.14534,-7.98125 -31.71799,-26.53625 -32.00425,-47.2975 l -0.81859,-59.65875 c -0.0596,-4.2725 -3.53356,-7.705 -7.80204,-7.705 l -101.10537,0 c -3.02279,0 -5.77741,1.75 -7.06435,4.48875 -6.43171,13.68625 -20.19091,22.41 -35.31214,22.41 -6.26737,0 -12.4411,-1.495 -18.00366,-4.38625 -20.7995,-13.6775 -38.93555,-31.04875 -53.5214,-51.203745 -11.26304,-17.2875 -24.39359,-33.2425 -39.1563,-47.65125 -2.04135,-2.35 -4.32613,-4.48875 -6.81341,-6.3575 -7.66262,-5.76625 -16.99422,-8.8775 -26.58378,-8.8775 -21.61857,0 -40.067206,15.61875 -43.622456,36.94125 -2.377975,14.26375 -3.572475,28.68875 -3.572475,43.121245 0,14.3925 1.182863,28.755 3.538662,42.92125 8.590849,51.80875 21.090379,102.86875 37.392519,152.7725 6.67609,20.44875 10.07724,41.79375 10.07724,63.3325 0,35.68 -9.36529,70.73375 -27.15591,101.67125 -31.249111,54.33375 -58.531043,110.87875 -81.629835,169.115 -11.406321,28.78125 -17.266641,59.43625 -17.266641,90.4025 0,96.90125 57.05706,184.72 145.595506,224.1025 48.68112,21.63125 99.44855,38.23625 151.51145,49.565 64.17013,13.93 129.5347,21.6388 195.18779,23.0425 2.94685,0.088 5.89093,0.125 8.83735,0.125 38.87336,0 77.55085,-5.47 114.88996,-16.2887 48.61115,-14.0513 85.84398,-53.27005 97.37958,-102.5338 3.86386,-16.4875 5.81215,-33.38 5.81215,-50.31 0,-36.48875 -9.04495,-72.42125 -26.32823,-104.5875 -12.36243,-22.9425 -26.14966,-45.135 -41.28531,-66.38125 -22.4449,-31.51375 -38.17445,-67.31625 -46.21057,-105.17125 -1.69678,-7.98875 -2.55155,-16.1425 -2.55155,-24.3075 0,-14.08 2.54002,-28.04875 7.5006,-41.22625 l 21.83147,-58.02125 c 14.19558,-37.72625 21.4663,-77.685 21.4663,-118.0075 0,-0.46125 0,-0.95375 0,-1.425 -0.10975,-25.48625 -6.31694,-50.5875 -18.10185,-73.1875 -12.58709,-24.10625 -37.55235,-39.27125 -64.77885,-39.27125 -8.5657,0 -17.06134,1.48875 -25.10317,4.44125 z" />
  </g>
</svg>
