<?xml version="1.0" encoding="UTF-8" standalone="no"?>
<!-- Created with Inkscape (http://www.inkscape.org/) -->

<svg
   xmlns:dc="http://purl.org/dc/elements/1.1/"
   xmlns:cc="http://creativecommons.org/ns#"
   xmlns:rdf="http://www.w3.org/1999/02/22-rdf-syntax-ns#"
   xmlns:svg="http://www.w3.org/2000/svg"
   xmlns="http://www.w3.org/2000/svg"
   xmlns:sodipodi="http://sodipodi.sourceforge.net/DTD/sodipodi-0.dtd"
   xmlns:inkscape="http://www.inkscape.org/namespaces/inkscape"
   width="210mm"
   height="297mm"
   viewBox="0 0 744.09448819 1052.3622047"
   id="svg2"
   version="1.1"
   inkscape:version="0.91 r13725"
   sodipodi:docname="JEM.svg">
  <defs
     id="defs4">
    <clipPath
       id="clipPath4171"
       clipPathUnits="userSpaceOnUse">
      <path
         inkscape:connector-curvature="0"
         id="path4173"
         d="m 0,0 0,14670 11002,0 L 11002,0 0,0 Z" />
    </clipPath>
  </defs>
  <sodipodi:namedview
     id="base"
     pagecolor="#ffffff"
     bordercolor="#666666"
     borderopacity="1.0"
     inkscape:pageopacity="0.0"
     inkscape:pageshadow="2"
     inkscape:zoom="0.83125"
     inkscape:cx="357.24469"
     inkscape:cy="538.06334"
     inkscape:document-units="px"
     inkscape:current-layer="layer1"
     showgrid="false"
     inkscape:window-width="2048"
     inkscape:window-height="1100"
     inkscape:window-x="0"
     inkscape:window-y="24"
     inkscape:window-maximized="1">
    <inkscape:grid
       type="xygrid"
       id="grid18877" />
  </sodipodi:namedview>
  <metadata
     id="metadata7">
    <rdf:RDF>
      <cc:Work
         rdf:about="">
        <dc:format>image/svg+xml</dc:format>
        <dc:type
           rdf:resource="http://purl.org/dc/dcmitype/StillImage" />
      </cc:Work>
    </rdf:RDF>
  </metadata>
  <g
     inkscape:label="JEM"
     inkscape:groupmode="layer"
     id="layer1">
    <g
       id="g18879"
       style="stroke-width:5;stroke-miterlimit:10;stroke-dasharray:none"
       transform="matrix(0,-0.62356313,0.62356313,0,43.097739,-396.57654)">
      <path
         d="m -910.82674,434.73885 -19.948,-3.7487 -19.9509,-4.3495 -19.6506,-5.2506 -19.4974,-6.1516 -9.603,-3.4484 -9.44976,-4.052 -8.9993,-4.6498 -8.6989,-5.3978 -8.2513,-6.1517 -7.6505,-6.8996 -6.8997,-7.5004 -5.9985,-8.3985 -5.1004,-9.0022 -2.0996,-4.7971 -1.9524,-4.8029 -1.4989,-4.8 -1.0483,-5.1004 -0.751,-4.9473 -0.4505,-5.1003 0.1502,-4.9502 0.4505,-5.1004 0.751,-5.1004 1.0483,-4.9501 3.3011,-9.9004 4.1993,-9.7502 5.1003,-9.2997 5.8484,-8.849 6.3018,-8.4015 6.8997,-7.7978 7.2,-7.2 7.5003,-6.9026 7.951,-6.2989 8.0981,-5.9985 8.55166,-5.7011 8.6989,-5.2506 8.8491,-4.9502 9.1494,-4.6498 9.3026,-4.3495 9.4499,-4.049 9.4498,-3.7517 9.6,-3.4483 9.7502,-3.0008 9.8974,-2.8505 19.8008,-4.9502 19.9509,-3.5986 20.2484,-2.8505 20.2513,-1.9495 20.4014,-1.3516 20.3986,-0.5978 20.4015,0.4476 20.3985,1.2015 20.1011,1.4989 10.2008,0.4505 10.348,0.1502 5.1003,-0.4505 2.4,-0.748 2.2499,-1.0513 2.0996,-1.4989 1.9494,-1.8022 3.151,-4.1993 2.4,-4.8 1.3516,-5.1004 0.4476,-5.2505 -0.7479,-4.9502 -1.9495,-4.4996 -2.7033,-4.1993 -3.4484,-3.8989 -3.8989,-3.6015 -15.9018,-13.9494 -7.6506,-6.7495 -7.6476,-6.4491 -8.1011,-6.001495 -8.3985,-5.4007 -9.0022,-4.8 -9.2997,-4.1993 -9.4498,-3.8989 -9.7502,-3.4513 -19.6506,-5.9985 -19.8007,-4.8 -19.948,-4.2022 -20.1011,-3.5985 -10.0476,-1.3517 -10.2008,-0.8982 -10.0505,-0.4505 -10.2008,-0.1502 -10.2007,0.3004 -10.1978,0.748 -20.4015,1.9524 -20.2484,2.7003 -20.2513,2.9978 -20.10106,3.3011 -19.948,3.7487 -19.9509,4.4997 -19.6506,4.8 -19.7978,5.2505 -39.3011,11.1019 -78.4492,22.050495 -39.3129,11.099 -19.6417,4.9501 -10.0417,2.0997 -10.0418,1.7992 -20.1129,2.8506 -20.4073,2.2498 -20.2307,1.4989 -10.2184,0.1502 -10.189,-0.1502 -10.2184,-0.4476 -10.189,-0.9011 -10.0418,-1.3517 -10.2184,-1.4989 -9.8945,-1.9494 -10.0417,-2.2498 -19.6417,-5.2506 -19.524,-5.9985 -19.3472,-6.452 -38.2528,-13.9495 -38.0761,-14.700395 -37.8111,-15.148 -75.7399,-30.3018 -37.8111,-15.3011 -19.0528,-7.3473 -19.0527,-6.9026 -19.3473,-6.5992002 -19.4945,-5.8484 -19.7889,-5.2505 -19.8185,-4.3495 -20.0834,-3.9017998 -20.1129,-3.2982 -20.2602,-2.8506 -20.2306,-2.0996 -20.4074,-1.3516 -20.4074,-0.1502 -10.189,0.4505 -10.1889,0.6008 -10.0712,1.0512 -10.189,1.4989 -10.0417,1.6491 -9.9239,2.2498 -9.8945,2.4 -9.8945,2.8505998 -9.7472,3.1509 -9.6001,3.4484 -9.4527,3.7516 -9.3055,4.0491 -9.3056,4.3495 -9.1288,4.6498002 -17.6982,10.0505 -17.2564,10.9517 -8.3927,5.8484 -8.2748,6.0014 -7.951,6.4491 -7.627,6.5993 -7.5092,6.8996 -7.1853,7.3502 -6.9202,7.5004 -6.7436,7.6505 -12.7509,15.898895 -11.838,16.4997 -11.5731,16.9502 -10.9251,17.2506 -10.3657,17.7011 -4.6527,8.9992 -4.5056,9.1495 -3.8871,9.2996 -3.4454,9.6 -3.1509,9.603 -2.7092,9.8974 -4.6528,19.951 -3.8871,20.1011 -3.4454,20.0982 -3.2982,20.2513 -2.8564,20.0981 -2.2675,20.2513 -1.6491,20.2484 -1.0306,20.4015 -0.7657,20.4015 -0.7362,40.8 -0.2945,40.7971 0.4418,81.4528 0.4417,40.7971 0.4417,20.4015 0.7656,20.3985 5.389,81.3027 1.3546,20.3985 1.7963,20.2513 2.8565,20.0982 3.8871,20.1011 4.3583,19.9509 4.9472,19.8008 5.7129,19.6477 3.2982,9.6 3.5926,9.4498 4.0638,9.4498 4.3288,9.3026 4.6528,8.9993 5.0945,8.849 5.4184,8.7019 5.6834,8.5487 6.0074,8.0982 6.3018,8.1011 6.5964,7.8007 6.7435,7.6506 14.2528,14.5502 7.5092,7.04985 7.6565,6.7495 7.8037,6.5992 8.0981,6.0015 8.5399,5.8483 8.7166,5.2506 8.9816,4.9502 9.1583,4.4996 9.3055,4.0521 9.4528,3.7487 9.6,3.4483 9.7472,3.1509 19.6417,5.4008 19.789,4.6498 20.1129,3.7487 20.2602,2.5502 20.3779,1.5018 20.4074,0.4476 20.4073,-0.3003 20.4074,-1.3487 20.2307,-2.0997 20.1129,-3.1509 19.9362,-3.8989 19.8184,-4.8 19.789,-5.2505 19.6417,-5.7012 19.4945,-5.8483 19.3767,-6.1517 19.3473,-6.7494 18.8761,-7.3473 18.7583,-8.1011 18.611,-8.4015 147.0038,-70.79855 18.5816,-8.4015 9.4528,-3.7487 9.6,-3.4513 9.7473,-3.0008 9.8944,-2.5501 9.924,-2.2499 10.0417,-1.649 10.189,-1.1986 10.2184,-0.7509 10.1889,-0.3004 10.189,0.3004 10.2184,0.6007 10.0417,1.0484 10.1891,1.5018 10.0711,1.7993 9.8945,2.2498 9.8945,2.4 9.8945,2.8506 9.6,3.148"
         style="fill:none;stroke:#000000;stroke-width:5;stroke-linecap:round;stroke-linejoin:round;stroke-miterlimit:10;stroke-dasharray:none;stroke-opacity:1"
         id="path5327"
         inkscape:connector-curvature="0" />
      <path
         sodipodi:nodetypes="ccccccccccccccccccccccccccccccccccccccccccccccccccccccccccccccccccccccccccccccccccccccccccccccccccccccc"
         d="m -1332.6351,925.98835 9.7472,3.3011 9.4528,3.7487 9.3055,4.052 9.3056,4.3495 36.4564,18.1487 18.5816,8.4015 18.9056,7.5003 19.2059,6.7495 19.5004,6.452 19.5003,5.6982 19.7979,4.9502 19.9509,3.89895 20.2513,3.0007 20.2484,2.4 20.3985,1.7993 10.0506,0.3003 10.2007,-0.4505 10.2007,-1.0484 10.0506,-1.5018 10.0476,-1.9495 9.9004,-2.4 9.90036,-2.8505 9.9003,-2.99785 9.6,-3.4513 9.4499,-3.8989 8.9992,-4.4996 8.7019,-5.2506 8.3985,-5.8513 8.1011,-6.2989 7.6506,-6.8996 3.5985,-3.6015 3.3011,-3.8989 3.0008,-4.0491 2.8505,-4.2022 0.2974,-1.3487 -0.1501,-1.2015 -0.4476,-1.3487 -0.751,-1.0483 -0.9011,-0.7509 -1.1985,-0.4506 -2.5502,0 -5.5509,1.2015 -5.4008,1.0483 -5.2505,0.6008 -5.0974,0.3003 -9.9004,-0.1531 -9.7502,-0.4476 -20.2513,-0.4506 -20.5487,-0.3003 -10.20076,-0.5978 -10.2007,-0.7509 -10.1978,-1.0513 -10.0506,-1.4989 -10.0505,-1.8022 -9.9004,-2.2499 -9.9004,-2.5501 -9.7502,-2.9978 -9.6,-3.3011 -9.6,-3.5986 -9.4498,-3.9018 -9.1495,-4.3495 -9.1494,-4.6498 -8.9993,-4.9502 -8.7018,-5.2505 -8.5488,-5.6982 -8.2513,-5.8513 -7.9479,-6.4491 -7.6506,-6.5992 -7.3502,-7.203 -6.8996,-7.5004 -6.4521,-7.948 -6.1487,-8.2513 -5.5509,-8.5487 -5.1004,-8.7018 -4.4996,-9.1495 -4.3553,-9.2996 -3.7399,-9.6 -3.2982,-9.6001 -2.7092,-9.9003 -1.7963,-10.0476 -0.589,-10.2008 0.2945,-10.2007 1.5019,-10.0506 2.0908,-10.2007 3.0036,-9.7502 3.7399,-9.5971 4.6587,-9.1524 2.8505,-4.1993 2.8476,-4.1992 6.7524,-7.6506 7.3473,-7.0498 8.1011,-6.4491 8.5516,-5.7011 8.699,-5.2506 9.1494,-4.8 9.2996,-4.049 9.6001,-3.4513 9.7501,-2.8476 9.9004,-2.403 10.0506,-2.0996 20.0982,-3.2982 182.35889,0.09"
         style="fill:none;stroke:#000000;stroke-width:5;stroke-linecap:round;stroke-linejoin:round;stroke-miterlimit:10;stroke-dasharray:none;stroke-opacity:1"
         id="path5329"
         inkscape:connector-curvature="0" />
      <path
         d="m -1422.3334,208.23755 2.2675,1.652 2.5325,1.1985 2.8565,0.751 2.8564,0 2.8565,-0.4506 2.6797,-1.0483 2.4147,-1.5019 1.9436,-2.0996"
         style="fill:none;stroke:#000000;stroke-width:5;stroke-linecap:round;stroke-linejoin:round;stroke-miterlimit:10;stroke-dasharray:none;stroke-opacity:1"
         id="path5331"
         inkscape:connector-curvature="0" />
      <path
         d="m -1422.3334,208.23755 -3.7399,-2.9978 -3.9165,-2.5502 -4.3289,-1.9494 -4.3583,-1.5019 -4.6527,-0.8981 -4.6528,-0.3004 -4.8,0.1502 -4.6527,0.7509 -4.4761,1.3487 -4.3583,1.7993 -4.0638,2.4 -3.7399,2.8505 -3.2982,3.3011 -3.0036,3.5986 -2.562,4.049 -1.9436,4.1993 -1.5018,4.5026 -0.8834,4.6498 -0.324,4.6498 0.1767,4.6499 0.7362,4.6498 1.3546,4.4996 1.7963,4.3495 2.4148,4.049 2.827,3.7517 3.2981,3.4513 3.6221,3.0007 7.1853,4.7971 7.6564,4.2022 7.8037,3.7487 8.0982,3.3011 14.2528,4.6498 14.5472,4.1993 14.6945,3.4484 14.8418,3.0007 15.0184,2.2498 14.989,1.5019 15.1656,1.0483 14.989,0.3004 15.1362,-0.3004 15.1656,-1.0483 14.989,-1.5019 15.0184,-2.2498 14.8418,-3.0007 14.6944,-3.4484 9.0111,-2.7004 8.9904,-3.3011 8.6989,-3.8989 8.4015,-4.4996 7.9509,-5.1004 7.7978,-5.5509 7.3502,-6.1487 6.8997,-6.4491 6.452,-7.0498 5.8483,-7.3502 2.7004,-4.2022 2.2498,-4.3495 1.6491,-4.6498 1.0513,-4.8 0.4506,-4.9502 0,-4.9502 -0.751,-4.8 -1.3487,-4.8 -1.7992,-4.4996 -2.403,-4.3495 -2.8476,-4.049 -3.3011,-3.6015 -3.7487,-3.148 -4.2022,-2.7004 -4.3495,-2.2498 -4.6498,-1.652 -4.8,-1.0484 -4.9502,-0.4505 -4.9502,0.1502 -4.8,0.7509 -4.8,1.1985 -6.2989,2.5502 -6.0015,3.1509 -5.5421,3.7487 -5.2711,4.3495 -4.6233,4.9502"
         style="fill:none;stroke:#000000;stroke-width:5;stroke-linecap:round;stroke-linejoin:round;stroke-miterlimit:10;stroke-dasharray:none;stroke-opacity:1"
         id="path5333"
         inkscape:connector-curvature="0" />
      <path
         d="m -1249.6804,201.33795 2.7092,1.0512 2.8564,0.751 2.827,0.1501 3.0037,-0.3003 2.8564,-0.9011 2.7092,-1.1986 2.3853,-1.652 2.1203,-2.0996"
         style="fill:none;stroke:#000000;stroke-width:5;stroke-linecap:round;stroke-linejoin:round;stroke-miterlimit:10;stroke-dasharray:none;stroke-opacity:1"
         id="path5335"
         inkscape:connector-curvature="0" />
      <path
         d="m -1249.6804,201.33795 -4.9473,-2.2499 -5.0945,-1.649 -5.3889,-1.0484 -5.2712,-0.4505 -5.389,0 -5.4184,0.7509 -5.2417,1.1985 -5.0945,1.7993 -4.8,2.4 -4.5055,2.8505 -4.3583,3.2982 -3.7399,3.7516"
         style="fill:none;stroke:#000000;stroke-width:5;stroke-linecap:round;stroke-linejoin:round;stroke-miterlimit:10;stroke-dasharray:none;stroke-opacity:1"
         id="path5337"
         inkscape:connector-curvature="0" />
      <path
         d="m -1334.7259,212.43975 2.562,2.0996 2.6797,1.4989 3.0037,1.2015 3.1509,0.4506 3.1509,0 3.151,-0.751 3.0036,-1.0513 2.7093,-1.7992 2.3852,-2.0997"
         style="fill:none;stroke:#000000;stroke-width:5;stroke-linecap:round;stroke-linejoin:round;stroke-miterlimit:10;stroke-dasharray:none;stroke-opacity:1"
         id="path5339"
         inkscape:connector-curvature="0" />
      <path
         d="m -1334.7259,212.43975 -4.6528,-4.3495 -5.0945,-3.7516 -5.3889,-3.3011 -5.8601,-2.6974 -5.8602,-2.1026 -6.3018,-1.6491 -4.6528,-0.6007 -4.8,0.1501 -4.6527,0.6008 -4.4762,1.3516 -4.3583,1.7993 -4.0638,2.5502 -3.7398,2.8505 -3.2982,3.4484"
         style="fill:none;stroke:#000000;stroke-width:5;stroke-linecap:round;stroke-linejoin:round;stroke-miterlimit:10;stroke-dasharray:none;stroke-opacity:1"
         id="path5341"
         inkscape:connector-curvature="0" />
      <path
         d="m -910.82674,434.73885 -19.948,-3.7487 -19.9509,-4.3495 -19.6506,-5.2506 -19.4974,-6.0014 -9.4528,-3.5986 -9.44976,-4.052 -9.1495,-4.4996 -8.5487,-5.3978 -8.2513,-6.1517 -7.6505,-6.8996 -6.8997,-7.5004 -5.9985,-8.3985 -5.1004,-9.0022 -2.2498,-4.6499 -1.7993,-4.8 -1.5018,-4.9502 -1.1985,-4.9501 -0.751,-4.9502 -0.4505,-5.1004 0.1502,-4.9472 0.3003,-5.1004 0.9012,-5.1004 1.0483,-4.9502 3.1509,-9.9004 4.1993,-9.7501 5.1004,-9.2997 5.7011,-8.8491 6.449,-8.4014 6.7495,-7.7978 7.2,-7.3532 7.5004,-6.7494 7.8007,-6.2989 8.2484,-6.0015"
         style="fill:none;stroke:#000000;stroke-width:5;stroke-linecap:round;stroke-linejoin:round;stroke-miterlimit:10;stroke-dasharray:none;stroke-opacity:1"
         id="path10527"
         inkscape:connector-curvature="0" />
      <path
         sodipodi:nodetypes="cc"
         inkscape:connector-curvature="0"
         id="path10561"
         d="m -910.76208,634.29935 0,-198.76089"
         style="fill:none;stroke:#000000;stroke-width:5;stroke-linecap:round;stroke-linejoin:round;stroke-miterlimit:10;stroke-dasharray:none;stroke-opacity:1" />
    </g>
  </g>
</svg>
