<?xml version="1.0" encoding="UTF-8" standalone="no"?>
<!-- Created with Inkscape (http://www.inkscape.org/) -->

<svg
   xmlns:dc="http://purl.org/dc/elements/1.1/"
   xmlns:cc="http://creativecommons.org/ns#"
   xmlns:rdf="http://www.w3.org/1999/02/22-rdf-syntax-ns#"
   xmlns:svg="http://www.w3.org/2000/svg"
   xmlns="http://www.w3.org/2000/svg"
   xmlns:sodipodi="http://sodipodi.sourceforge.net/DTD/sodipodi-0.dtd"
   xmlns:inkscape="http://www.inkscape.org/namespaces/inkscape"
   width="210mm"
   height="297mm"
   viewBox="0 0 744.09448819 1052.3622047"
   id="svg2"
   version="1.1"
   inkscape:version="0.91 r13725"
   sodipodi:docname="kelly.svg">
  <defs
     id="defs4">
    <clipPath
       id="clipPath4171"
       clipPathUnits="userSpaceOnUse">
      <path
         inkscape:connector-curvature="0"
         id="path4173"
         d="m 0,0 1.4225,0 0,1 L 0,1 0,0 Z" />
    </clipPath>
  </defs>
  <sodipodi:namedview
     id="base"
     pagecolor="#ffffff"
     bordercolor="#666666"
     borderopacity="1.0"
     inkscape:pageopacity="0.0"
     inkscape:pageshadow="2"
     inkscape:zoom="0.7"
     inkscape:cx="83.338252"
     inkscape:cy="550.8927"
     inkscape:document-units="px"
     inkscape:current-layer="layer1"
     showgrid="false"
     inkscape:window-width="2048"
     inkscape:window-height="1100"
     inkscape:window-x="0"
     inkscape:window-y="24"
     inkscape:window-maximized="1">
    <inkscape:grid
       type="xygrid"
       id="grid9783" />
  </sodipodi:namedview>
  <metadata
     id="metadata7">
    <rdf:RDF>
      <cc:Work
         rdf:about="">
        <dc:format>image/svg+xml</dc:format>
        <dc:type
           rdf:resource="http://purl.org/dc/dcmitype/StillImage" />
        <dc:title></dc:title>
      </cc:Work>
    </rdf:RDF>
  </metadata>
  <g
     inkscape:label="kelly"
     inkscape:groupmode="layer"
     id="layer1">
    <g
       id="g9787"
       transform="matrix(0,-0.19881481,0.19881481,0,424.49912,-84.909017)"
       style="stroke-width:25.14903259;stroke-miterlimit:4;stroke-dasharray:none">
      <path
         d="m -5607.0732,-2102.4341 8.7497,81.2464 9.9995,81.2454 11.2491,81.2464 12.4999,79.9957 12.4988,81.2464 14.9992,79.9957 14.9992,79.9968 16.2499,81.2453 17.4985,78.746 18.7493,79.9968 18.7492,79.9957 21.2486,78.746 21.2486,78.746 22.4993,78.74596 23.749,77.4964 23.749,78.746 24.9987,77.4964 27.499,77.4963 27.498,76.2467 27.4991,77.4953 29.9983,76.2467 29.9984,74.996 31.2481,76.2467 32.4988,74.996 33.7484,73.7463 33.7485,74.997 34.9981,73.7463401 36.2478,72.4954999 37.4985,72.4967 37.4985,72.4966 39.9978,72.4966 38.7482,71.2459 41.2475,69.9973 41.2486,71.2459 42.4972,68.7466 43.7479,69.9973 44.9976,68.7465 44.9986,67.4969 46.2473,67.4959 46.2483,67.4969 48.7476,66.2472 47.4969,64.9965 49.9973,64.9965 49.9984,64.9976 51.247,63.7468 52.4977,62.4961 52.4977,62.4972 53.7474,61.2475 0,1.2497"
         style="fill:none;stroke:#000000;stroke-width:25.14903259;stroke-linecap:round;stroke-linejoin:round;stroke-miterlimit:4;stroke-dasharray:none;stroke-opacity:1"
         id="path6571"
         inkscape:connector-curvature="0" />
      <path
         d="m -582.32034,1578.6345 -61.2475,-47.497 -62.4972,-46.2483 -63.7468,-43.7479 -64.9965,-42.4972 -64.9965,-39.9978 -67.4969,-38.7482 -67.49686,-37.4985 -69.9963,-34.9981 -68.7465,-33.7485 -71.247,-31.248 -71.2459,-29.9995 -72.4966,-28.7476 -72.4966,-24.9997 -73.7463,-24.9987 -74.996,-21.2486 -73.7463,-21.2486 -76.2467,-17.4996 -74.996,-16.2488 -76.2466,-14.9992 -76.2457,-12.4999 -77.4963,-9.9994 -76.2467,-7.4991 -77.4964,-6.2505 -77.4963,-4.9997 -77.4954,-2.4993 -77.4963,0 -77.4964,2.4993 -77.4963,3.7501 -77.4964,4.9997 -76.2456,8.7498 -77.4964,9.9995 -76.2467,11.2491 -76.2456,13.7495 -74.997,16.2489 -76.2457,17.4996 -74.997,19.9989 -73.7463,22.4993 -73.7463,23.7479 -73.7463,24.9987 -72.4966,27.499 -71.2459,29.9984 -71.247,31.2491 -69.9962,32.4978 -68.7466,34.9981 -67.4969,37.4985 -67.4969,37.4985 -66.2461,41.2475 -64.9965,41.2486 0,1.2497"
         style="fill:none;stroke:#000000;stroke-width:25.14903259;stroke-linecap:round;stroke-linejoin:round;stroke-miterlimit:4;stroke-dasharray:none;stroke-opacity:1"
         id="path6573"
         inkscape:connector-curvature="0" />
      <path
         d="m -626.06824,1164.9054 43.7479,413.7291 0,1.2507"
         style="fill:none;stroke:#000000;stroke-width:25.14903259;stroke-linecap:round;stroke-linejoin:round;stroke-miterlimit:4;stroke-dasharray:none;stroke-opacity:1"
         id="path6575"
         inkscape:connector-curvature="0" />
      <path
         d="m -1436.0289,146.2057 -8.7498,6.2494 -7.499,6.2494 -7.5002,7.5001 -7.499,7.4991 -7.5002,7.5001 -6.2494,7.4991 -6.2494,8.7498 -6.2504,8.7498 -6.2494,8.7498 -4.9998,8.7498 -4.9997,8.7487 -3.75,8.7498 -4.9998,9.9995 -3.749,9.9994 -2.5004,9.9995 -3.75,9.9994 -2.4994,9.9995 -1.2496,9.9995 -2.5004,9.9994 -1.2497,10.0005 0,11.2492 -1.2497,9.9994 1.2497,9.9995 0,9.9995 1.2497,11.2491 1.2496,9.9995 1.2508,9.9994 2.4993,9.9995 2.5004,9.9994 2.4993,9.9995 3.7501,10.0005 3.75,9.9995 4.9998,8.7487 3.749,9.9995 6.2504,8.7498 4.9998,8.7498 4.9997,8.7498 6.2494,8.7498 7.5001,7.499 6.2494,7.5001 7.4991,7.4991 7.5001,7.5001 7.4991,7.4991 7.5001,6.2494 8.7498,6.2505 8.7498,6.2494 8.7487,4.9997 8.7498,4.9997 0,1.2497"
         style="fill:none;stroke:#000000;stroke-width:25.14903259;stroke-linecap:round;stroke-linejoin:round;stroke-miterlimit:4;stroke-dasharray:none;stroke-opacity:1"
         id="path6581"
         inkscape:connector-curvature="0" />
      <path
         d="m -1407.2802,563.6848 781.21196,601.2206 0,1.2497"
         style="fill:none;stroke:#000000;stroke-width:25.14903259;stroke-linecap:round;stroke-linejoin:round;stroke-miterlimit:4;stroke-dasharray:none;stroke-opacity:1"
         id="path6583"
         inkscape:connector-curvature="0" />
      <path
         d="m -5607.0732,-2102.4341 43.7479,43.7479 44.9975,41.2486 44.9976,42.4971 46.2483,41.2486 46.2473,39.9979 46.2483,39.9978 47.4969,39.9979 48.7476,38.7481 47.498,37.4986 49.9973,37.4985 48.7477,37.4974 49.9973,36.2489 49.9983,34.9981 51.247,34.9981 51.247,33.7484 51.248,33.7485 52.4977,32.4977 52.4967,32.4988 53.7474,31.2481 52.4977,31.2491 53.7473,29.9984 54.9971,28.7487 53.7473,28.7487 54.9981,28.7476 54.9971,26.2494 56.2467,27.498 56.2478,24.9997 56.2467,24.9987 56.2477,24.9986 57.4975,23.749 57.4964,22.4983 57.4974,21.2496 57.4974,21.2486 57.4975,21.2486 58.7471,19.99886 58.7471,18.7493 58.7471,17.4996 58.7471,17.4985 59.9967,17.4996 58.7471,16.2488 59.9968,14.9992 59.9968,13.7496 59.9978,13.7495 61.2465,12.4988 59.9967,12.4998 59.9979,11.2492 61.2464,9.9994 61.2475,9.9995 0,1.2507"
         style="fill:none;stroke:#000000;stroke-width:25.14903259;stroke-linecap:round;stroke-linejoin:round;stroke-miterlimit:4;stroke-dasharray:none;stroke-opacity:1"
         id="path6585"
         inkscape:connector-curvature="0" />
      <path
         d="m -2264.7377,-876.24404 563.722,-247.48826 0,1.2507"
         style="fill:none;stroke:#000000;stroke-width:25.14903259;stroke-linecap:round;stroke-linejoin:round;stroke-miterlimit:4;stroke-dasharray:none;stroke-opacity:1"
         id="path6587"
         inkscape:connector-curvature="0" />
      <path
         d="m -3004.7011,-799.99844 14.9992,1.2507 16.2489,1.2497 14.9991,2.4993 14.9992,1.2507 16.2489,1.2497 15.0003,0 16.2488,1.2497 14.9992,1.2496 16.2489,0 14.9992,1.2508 16.2499,0 14.9992,0 16.2488,0 14.9992,0 16.2489,0 14.9992,-1.2508 16.2499,0 14.9992,-1.2496 16.2489,0 14.9991,-1.2497 16.25,-1.2497 14.9992,-1.2507 16.2488,-1.2497 14.9992,-1.2496 14.9992,-2.5004 16.2489,-1.2497 14.9992,-2.4993 16.2499,-1.2507 14.9992,-2.4994 14.9992,-2.5004 16.2488,-2.4993 14.9992,-2.5004 14.9992,-2.4993 16.2499,-3.7501 14.9992,-2.4993 14.9992,-3.7501 14.9992,-2.5004 14.9992,-3.749 16.2489,-3.7501 14.9992,-3.75 14.9992,-3.7501 14.9991,-3.7501 15.0003,-4.9997 14.9992,-3.749 14.9992,-4.9997 14.9992,-3.7501 14.9992,-4.9997 14.9992,-4.9997 0,1.2496"
         style="fill:none;stroke:#000000;stroke-width:25.14903259;stroke-linecap:round;stroke-linejoin:round;stroke-miterlimit:4;stroke-dasharray:none;stroke-opacity:1"
         id="path6589"
         inkscape:connector-curvature="0" />
      <path
         d="m -1701.0157,-1123.7323 503.7253,724.96416 0,1.2507"
         style="fill:none;stroke:#000000;stroke-width:25.14903259;stroke-linecap:round;stroke-linejoin:round;stroke-miterlimit:4;stroke-dasharray:none;stroke-opacity:1"
         id="path6591"
         inkscape:connector-curvature="0" />
      <path
         inkscape:connector-curvature="0"
         id="path9785"
         d="m -1200,-407.6378 -240,560"
         style="fill:none;fill-rule:evenodd;stroke:#000000;stroke-width:25.14903259;stroke-linecap:butt;stroke-linejoin:miter;stroke-miterlimit:4;stroke-dasharray:none;stroke-opacity:1" />
    </g>
  </g>
</svg>
