<?xml version="1.0" encoding="UTF-8" standalone="no"?>
<!-- Created with Inkscape (http://www.inkscape.org/) -->

<svg
   xmlns:dc="http://purl.org/dc/elements/1.1/"
   xmlns:cc="http://creativecommons.org/ns#"
   xmlns:rdf="http://www.w3.org/1999/02/22-rdf-syntax-ns#"
   xmlns:svg="http://www.w3.org/2000/svg"
   xmlns="http://www.w3.org/2000/svg"
   xmlns:sodipodi="http://sodipodi.sourceforge.net/DTD/sodipodi-0.dtd"
   xmlns:inkscape="http://www.inkscape.org/namespaces/inkscape"
   width="210mm"
   height="297mm"
   viewBox="0 0 744.09448819 1052.3622047"
   id="svg2"
   version="1.1"
   inkscape:version="0.91 r13725"
   sodipodi:docname="les-paul.svg">
  <defs
     id="defs4" />
  <sodipodi:namedview
     id="base"
     pagecolor="#ffffff"
     bordercolor="#666666"
     borderopacity="1.0"
     inkscape:pageopacity="0.0"
     inkscape:pageshadow="2"
     inkscape:zoom="0.7"
     inkscape:cx="-17.366989"
     inkscape:cy="484.71266"
     inkscape:document-units="px"
     inkscape:current-layer="layer1"
     showgrid="false"
     inkscape:window-width="2048"
     inkscape:window-height="1100"
     inkscape:window-x="0"
     inkscape:window-y="24"
     inkscape:window-maximized="1" />
  <metadata
     id="metadata7">
    <rdf:RDF>
      <cc:Work
         rdf:about="">
        <dc:format>image/svg+xml</dc:format>
        <dc:type
           rdf:resource="http://purl.org/dc/dcmitype/StillImage" />
        <dc:title />
      </cc:Work>
    </rdf:RDF>
  </metadata>
  <g
     inkscape:label="les paul"
     inkscape:groupmode="layer"
     id="layer1">
    <path
       inkscape:connector-curvature="0"
       id="path4249"
       style="fill:none;stroke:#000000;stroke-width:5;stroke-linecap:butt;stroke-linejoin:miter;stroke-miterlimit:4;stroke-dasharray:none;stroke-opacity:1"
       d="m 431.16146,83.89201 c 0,0 -129.65291,0.38133 -129.65291,0.38133 0,0 -49.19183,5.71998 -61.7758,9.15198 -12.58396,3.43198 -45.7599,13.72795 -67.87717,31.65056 -22.11726,17.9226 -45.37851,43.85319 -52.62382,72.45309 -7.24531,28.5999 -9.15198,64.44512 10.29596,104.48498 19.44793,40.03985 35.46387,69.02109 38.13321,90.37568 2.66932,21.3546 1.90665,42.7092 -6.48264,56.05582 -8.38931,13.34662 -26.69326,39.27721 -39.27721,51.4802 -12.58396,12.20263 -45.378509,56.05583 -47.666501,59.10648 -2.287993,3.05066 -37.370482,55.67448 -44.997124,83.51172 -7.626642,27.83725 -17.541276,62.9198 -12.202627,124.31427 5.338649,61.39444 35.082551,112.11161 40.802533,121.64492 5.719981,9.5333 31.650501,48.42917 70.165029,75.88506 38.51454,27.4559 88.85037,52.6238 132.70362,57.9624 43.8532,5.3387 64.82646,9.152 107.15432,8.3894 42.32786,-0.7627 47.66651,0.7626 80.8424,-3.432 33.17589,-4.1947 66.35178,-11.8213 89.23171,-20.9732 22.87992,-9.152 52.24249,-19.448 89.99436,-53.00523 37.75185,-33.5572 52.62383,-50.33582 66.73314,-75.50373 14.10925,-25.16792 30.88785,-67.87711 34.31979,-111.34896 3.43201,-43.47186 -0.3813,-70.16511 -4.95726,-91.51969 -4.57596,-21.35461 -12.07519,-49.31847 -34.70122,-88.08772 -21.482,-36.80972 -40.03989,-54.53048 -49.19182,-65.58912 -9.15199,-11.05863 -25.67664,-31.52395 -41.56519,-46.52288 -4.31382,-4.07214 -23.26126,-28.85425 -27.07457,-41.18387 -0.78427,-2.53564 -10.8047,-20.71893 1.144,-57.19981 13.65046,-41.67841 25.54924,-54.91183 33.93854,-75.50373 8.38931,-20.59194 13.34663,-37.75187 14.87195,-49.9545 1.52533,-12.20262 2.79593,-36.22655 -1.90665,-47.28517 -0.359,-0.84351 -3.55939,-12.83793 -13.72796,-20.59194 -7.34067,-5.59711 -12.20263,-3.81332 -17.54127,-1.52533 -5.33866,2.288 -12.58397,14.10929 -14.49062,17.15995 -1.90666,3.05066 -11.43997,19.44793 -28.59992,28.98124 -11.19194,6.21784 -24.89683,16.96477 -64.69912,7.24531 -10.93202,-2.66932 -18.17733,-9.27897 -24.29944,-15.10587 -7.40694,-7.04938 -12.3285,-15.80438 -15.48642,-20.73935 -6.10131,-9.53331 -7.88138,-41.0565 -8.38931,-46.90385 -0.49603,-5.69839 -1.14399,-68.25844 -1.14399,-68.25844 z" />
  </g>
</svg>
