<?xml version="1.0" encoding="UTF-8" standalone="no"?>
<!-- Created with Inkscape (http://www.inkscape.org/) -->

<svg
   xmlns:dc="http://purl.org/dc/elements/1.1/"
   xmlns:cc="http://creativecommons.org/ns#"
   xmlns:rdf="http://www.w3.org/1999/02/22-rdf-syntax-ns#"
   xmlns:svg="http://www.w3.org/2000/svg"
   xmlns="http://www.w3.org/2000/svg"
   xmlns:sodipodi="http://sodipodi.sourceforge.net/DTD/sodipodi-0.dtd"
   xmlns:inkscape="http://www.inkscape.org/namespaces/inkscape"
   width="210mm"
   height="297mm"
   viewBox="0 0 744.09448819 1052.3622047"
   id="svg6549"
   version="1.1"
   inkscape:version="0.91 r13725"
   sodipodi:docname="les-paul-junior-double-cut.svg">
  <defs
     id="defs6551" />
  <sodipodi:namedview
     id="base"
     pagecolor="#ffffff"
     bordercolor="#666666"
     borderopacity="1.0"
     inkscape:pageopacity="0.0"
     inkscape:pageshadow="2"
     inkscape:zoom="0.7"
     inkscape:cx="221.31666"
     inkscape:cy="499.13646"
     inkscape:document-units="px"
     inkscape:current-layer="layer1"
     showgrid="false"
     inkscape:window-width="2048"
     inkscape:window-height="1100"
     inkscape:window-x="0"
     inkscape:window-y="24"
     inkscape:window-maximized="1" />
  <metadata
     id="metadata6554">
    <rdf:RDF>
      <cc:Work
         rdf:about="">
        <dc:format>image/svg+xml</dc:format>
        <dc:type
           rdf:resource="http://purl.org/dc/dcmitype/StillImage" />
        <dc:title></dc:title>
      </cc:Work>
    </rdf:RDF>
  </metadata>
  <g
     inkscape:label="les paul junior double cut"
     inkscape:groupmode="layer"
     id="layer1">
    <g
       id="g9135"
       transform="matrix(0,-0.62014581,0.62014581,0,-387.63916,-1503.1684)"
       style="stroke-width:8.04569721;stroke-miterlimit:4;stroke-dasharray:none">
      <path
         inkscape:connector-curvature="0"
         id="path9051"
         d="m -2829.3315,1377.2745 0,-292.5"
         style="fill:none;stroke:#000000;stroke-width:8.04569721;stroke-linecap:round;stroke-linejoin:round;stroke-miterlimit:4;stroke-dasharray:none;stroke-opacity:1" />
      <path
         inkscape:connector-curvature="0"
         id="path9049"
         d="m -3151.3815,865.69943 5.475,4.05 5.625,3.9 5.85,3.6 5.925,3.3 6.075,3.075 6.225,2.85 6.3,2.55 6.45,2.25 6.525,2.025 6.6,1.65 6.675,1.425 6.75,1.125 6.75,0.9 6.825,0.525 6.825,0.225 6.825,-0.075 6.75,-0.3 6.825,-0.675 6.75,-0.9 6.75,-1.275 6.6,-1.5 6.6,-1.8 6.525,-2.1 6.375,-2.325 6.3,-2.625 6.15,-2.925"
         style="fill:none;stroke:#000000;stroke-width:8.04569721;stroke-linecap:round;stroke-linejoin:round;stroke-miterlimit:4;stroke-dasharray:none;stroke-opacity:1" />
      <path
         inkscape:connector-curvature="0"
         id="path9045"
         d="m -3310.9815,740.82444 -9.375,-7.2 -9.525,-6.9 -9.75,-6.675 -9.9,-6.45 -10.125,-6.225 -10.2,-5.925 -10.35,-5.7 -10.5,-5.4 -10.65,-5.1 -10.725,-4.95 -10.875,-4.575 -11.025,-4.35 -11.025,-4.05 -11.25,-3.825 -11.25,-3.525 -11.4,-3.225 -11.4,-2.925 -11.55,-2.625 -11.55,-2.4 -11.625,-2.025 -11.7,-1.8 -11.7,-1.5 -11.775,-1.2 -11.775,-0.9 -11.775,-0.6 -11.85,-0.3 -11.775,0 -11.85,0.225 -11.775,0.6 -11.775,0.9 -11.775,1.125 -11.7,1.5 -11.7,1.725 -11.625,2.025 -11.625,2.325 -11.475,2.625 -11.475,2.925 -11.4,3.225 -11.25,3.45 -11.25,3.75 -11.1,4.05 -10.95,4.275 -10.95,4.65 -10.725,4.8 -10.65,5.175 -10.5,5.4 -10.425,5.625 -10.2,5.925 -10.05,6.15 -9.975,6.375 -9.75,6.675 -9.6,6.9 -9.375,7.125 -9.225,7.425 -9.075,7.575 -8.85,7.8 -8.625,8.1 -8.475,8.25 -8.25,8.475 -8.025,8.625 -7.8,8.85 -7.575,9.07499 -7.35,9.225 -7.125,9.45 -6.9,9.6 -6.675,9.825 -6.375,9.9 -6.15,10.125 -5.85,10.2 -5.625,10.425 -5.4,10.5 -5.1,10.65 -4.875,10.8 -4.5,10.875 -4.35,11.025 -3.975,11.1 -3.75,11.175 -3.45,11.325 -3.15,11.40004 -4.2,16.35003 -3.9,16.425 -3.525,16.5 -3.3,16.575 -2.925,16.575 -2.7,16.65 -2.325,16.725 -2.025,16.8 -1.725,16.8 -1.35,16.8 -1.125,16.8 -0.75,16.875 -0.525,16.875 -0.15,16.875"
         style="fill:none;stroke:#000000;stroke-width:8.04569721;stroke-linecap:round;stroke-linejoin:round;stroke-miterlimit:4;stroke-dasharray:none;stroke-opacity:1" />
      <path
         inkscape:connector-curvature="0"
         id="path9043"
         d="m -3310.9815,740.82444 159.6,124.87499"
         style="fill:none;stroke:#000000;stroke-width:8.04569721;stroke-linecap:round;stroke-linejoin:round;stroke-miterlimit:4;stroke-dasharray:none;stroke-opacity:1" />
      <path
         inkscape:connector-curvature="0"
         id="path9041"
         d="m -2715.7065,815.29943 -8.925,-1.72499 -9,-1.5 -9.075,-1.2 -9.075,-0.9 -9.15,-0.525 -9.15,-0.3 -9.075,0.075 -9.15,0.375 -9.075,0.675 -9.075,0.975 -9.075,1.275 -9,1.575 -8.925,1.87499 -8.85,2.25 -8.775,2.475 -8.7,2.775 -8.625,3.075 -8.475,3.375 -8.325,3.675 -8.25,3.9 -90.6,45.15"
         style="fill:none;stroke:#000000;stroke-width:8.04569721;stroke-linecap:round;stroke-linejoin:round;stroke-miterlimit:4;stroke-dasharray:none;stroke-opacity:1" />
      <path
         inkscape:connector-curvature="0"
         id="path9039"
         d="m -2646.8565,884.29943 -1.2,-5.025 -1.5,-4.875 -1.8,-4.875 -2.1,-4.725 -2.325,-4.575 -2.55,-4.425 -2.85,-4.275 -3.075,-4.125 -3.375,-3.975 -3.525,-3.75 -3.75,-3.525 -3.9,-3.3 -4.125,-3.075 -4.275,-2.85 -4.425,-2.625 -4.65,-2.325 -4.65,-2.1 -4.875,-1.8 -4.875,-1.5 -5.025,-1.275"
         style="fill:none;stroke:#000000;stroke-width:8.04569721;stroke-linecap:round;stroke-linejoin:round;stroke-miterlimit:4;stroke-dasharray:none;stroke-opacity:1" />
      <path
         inkscape:connector-curvature="0"
         id="path9037"
         d="m -2673.2565,924.49943 3,-0.75 3,-1.05 2.85,-1.275 2.775,-1.575 2.55,-1.8 2.4,-2.1 2.175,-2.25 1.95,-2.475 1.725,-2.625 1.5,-2.775 1.2,-2.925 0.975,-3 0.6,-3.075 0.375,-3.15 0.075,-3.15 -0.225,-3.15 -0.525,-3.075"
         style="fill:none;stroke:#000000;stroke-width:8.04569721;stroke-linecap:round;stroke-linejoin:round;stroke-miterlimit:4;stroke-dasharray:none;stroke-opacity:1" />
      <path
         inkscape:connector-curvature="0"
         id="path9035"
         d="m -2702.4315,930.27443 -6.6,1.5 -6.525,1.725 -6.45,2.025 -6.375,2.25 -6.3,2.625 -6.15,2.775 -6,3.15 -5.85,3.3 -5.775,3.6 -5.55,3.9 -5.4,4.05 -5.25,4.275 -5.025,4.575 -4.8,4.725 -4.65,4.95 -4.425,5.1 -4.125,5.32504 -3.975,5.55 -3.675,5.62503 -3.525,5.85 -3.15,5.925 -3,6.075 -2.7,6.225 -2.4,6.3 -2.1,6.45 -1.875,6.525 -1.575,6.525 -1.35,6.675 -0.975,6.675 -0.75,6.75 -0.45,6.75 -0.15,6.75"
         style="fill:none;stroke:#000000;stroke-width:8.04569721;stroke-linecap:round;stroke-linejoin:round;stroke-miterlimit:4;stroke-dasharray:none;stroke-opacity:1" />
      <path
         inkscape:connector-curvature="0"
         id="path9033"
         d="m -2673.2565,924.49943 -29.175,5.775"
         style="fill:none;stroke:#000000;stroke-width:8.04569721;stroke-linecap:round;stroke-linejoin:round;stroke-miterlimit:4;stroke-dasharray:none;stroke-opacity:1" />
      <path
         inkscape:connector-curvature="0"
         id="path9031"
         d="m -4058.8065,1459.0245 3.15,11.4 3.45,11.325 3.75,11.175 3.975,11.1 4.35,11.025 4.5,10.875 4.875,10.8 5.1,10.65 5.4,10.575 5.625,10.35 5.85,10.275 6.15,10.05 6.375,9.975 6.675,9.75 6.9,9.6 7.125,9.45 7.35,9.225 7.575,9.075 7.8,8.85 8.025,8.7 8.25,8.475 8.475,8.25 8.625,8.025 8.85,7.8 9.075,7.65 9.225,7.35 9.375,7.125 9.6,6.9 9.75,6.675 9.975,6.375 10.05,6.225 10.2,5.85 10.425,5.7 10.5,5.4 10.65,5.1 10.725,4.875 10.95,4.575 10.95,4.275 11.1,4.05 11.25,3.75 11.25,3.525 11.4,3.15 11.475,2.925 11.475,2.625 11.625,2.325 11.625,2.025 11.7,1.8 11.7,1.425 11.775,1.2 11.775,0.825 11.775,0.6 11.85,0.3 11.775,-0.075 11.85,-0.3 11.775,-0.6 11.775,-0.9 11.775,-1.2 11.7,-1.5 11.7,-1.725 11.625,-2.1 11.55,-2.4 11.55,-2.625 11.4,-2.925 11.4,-3.225 11.25,-3.525 11.25,-3.75 11.025,-4.125 11.025,-4.35 10.875,-4.575 10.725,-4.875 10.65,-5.175 10.5,-5.4 10.35,-5.7 10.2,-5.925 10.125,-6.225 9.9,-6.45 9.75,-6.675 9.525,-6.9 9.375,-7.2"
         style="fill:none;stroke:#000000;stroke-width:8.04569721;stroke-linecap:round;stroke-linejoin:round;stroke-miterlimit:4;stroke-dasharray:none;stroke-opacity:1" />
      <path
         inkscape:connector-curvature="0"
         id="path9029"
         d="m -4089.3315,1225.3995 0.15,16.875 0.525,16.875 0.75,16.875 1.125,16.8 1.35,16.875 1.725,16.8 2.025,16.725 2.325,16.725 2.7,16.65 2.925,16.65 3.3,16.5 3.525,16.5 3.9,16.425 4.2,16.35"
         style="fill:none;stroke:#000000;stroke-width:8.04569721;stroke-linecap:round;stroke-linejoin:round;stroke-miterlimit:4;stroke-dasharray:none;stroke-opacity:1" />
      <path
         inkscape:connector-curvature="0"
         id="path9027"
         d="m -3310.9815,1709.9745 159.6,-124.875"
         style="fill:none;stroke:#000000;stroke-width:8.04569721;stroke-linecap:round;stroke-linejoin:round;stroke-miterlimit:4;stroke-dasharray:none;stroke-opacity:1" />
      <path
         inkscape:connector-curvature="0"
         id="path9025"
         d="m -2984.6565,1567.8495 -6.15,-2.85 -6.3,-2.625 -6.375,-2.325 -6.45,-2.025 -6.6,-1.8 -6.6,-1.425 -6.675,-1.2 -6.75,-0.975 -6.75,-0.6 -6.825,-0.3 -6.825,-0.075 -6.75,0.3 -6.75,0.525 -6.75,0.825 -6.75,1.2 -6.6,1.425 -6.6,1.65 -6.525,2.025 -6.375,2.25 -6.3,2.55 -6.225,2.775 -6,3.15 -5.925,3.3 -5.775,3.6 -5.625,3.825 -5.475,4.05"
         style="fill:none;stroke:#000000;stroke-width:8.04569721;stroke-linecap:round;stroke-linejoin:round;stroke-miterlimit:4;stroke-dasharray:none;stroke-opacity:1" />
      <path
         inkscape:connector-curvature="0"
         id="path9023"
         d="m -2706.7815,1567.9245 0,-3.075 -0.15,-3 -0.525,-3.075 -0.75,-2.925 -1.05,-2.925 -1.275,-2.775 -1.5,-2.625 -1.8,-2.55 -2.025,-2.325 -2.175,-2.1 -2.325,-1.95 -2.55,-1.725"
         style="fill:none;stroke:#000000;stroke-width:8.04569721;stroke-linecap:round;stroke-linejoin:round;stroke-miterlimit:4;stroke-dasharray:none;stroke-opacity:1" />
      <path
         inkscape:connector-curvature="0"
         id="path9021"
         d="m -2829.3315,1377.2745 0.15,6.9 0.45,6.9 0.675,6.9 0.975,6.825 1.275,6.825 1.575,6.675 1.8,6.675 2.1,6.6 2.325,6.525 2.625,6.375 2.925,6.3 3.075,6.15 3.45,6 3.6,5.85 3.825,5.775 4.125,5.55 4.35,5.4 4.5,5.175 4.8,5.025 4.95,4.875 5.1,4.575 5.325,4.425 5.55,4.125 5.625,3.975 5.85,3.75"
         style="fill:none;stroke:#000000;stroke-width:8.04569721;stroke-linecap:round;stroke-linejoin:round;stroke-miterlimit:4;stroke-dasharray:none;stroke-opacity:1" />
      <path
         inkscape:connector-curvature="0"
         id="path9019"
         d="m -2878.1565,1620.3495 5.85,2.775 6,2.475 6.075,2.25 6.225,1.95 6.225,1.725 6.375,1.425 6.375,1.2 6.45,0.825 6.45,0.675 6.525,0.3 6.45,0.075 6.525,-0.225 6.45,-0.525 6.45,-0.75 6.375,-1.05 6.375,-1.35 6.3,-1.575 6.225,-1.875 6.15,-2.1 6,-2.4 6,-2.625 5.775,-2.85 5.7,-3.15"
         style="fill:none;stroke:#000000;stroke-width:8.04569721;stroke-linecap:round;stroke-linejoin:round;stroke-miterlimit:4;stroke-dasharray:none;stroke-opacity:1" />
      <path
         inkscape:connector-curvature="0"
         id="path9017"
         d="m -2748.3315,1521.4245 25.425,15.45"
         style="fill:none;stroke:#000000;stroke-width:8.04569721;stroke-linecap:round;stroke-linejoin:round;stroke-miterlimit:4;stroke-dasharray:none;stroke-opacity:1" />
      <path
         inkscape:connector-curvature="0"
         id="path9015"
         d="m -2984.6565,1567.8495 106.5,52.5"
         style="fill:none;stroke:#000000;stroke-width:8.04569721;stroke-linecap:round;stroke-linejoin:round;stroke-miterlimit:4;stroke-dasharray:none;stroke-opacity:1" />
      <path
         inkscape:connector-curvature="0"
         id="path9013"
         d="m -2734.8315,1615.5495 3.45,-2.25 3.375,-2.4 3.075,-2.7 2.925,-2.925 2.7,-3.075 2.475,-3.3 2.25,-3.45 1.95,-3.675 1.725,-3.75 1.35,-3.9 1.125,-3.9 0.825,-4.05 0.525,-4.125 0.3,-4.125"
         style="fill:none;stroke:#000000;stroke-width:8.04569721;stroke-linecap:round;stroke-linejoin:round;stroke-miterlimit:4;stroke-dasharray:none;stroke-opacity:1" />
      <path
         inkscape:connector-curvature="0"
         id="path8967"
         d="m -2830.0815,1328.7495 0.525,-0.9 0.225,-1.05"
         style="fill:none;stroke:#000000;stroke-width:8.04569721;stroke-linecap:round;stroke-linejoin:round;stroke-miterlimit:4;stroke-dasharray:none;stroke-opacity:1" />
      <path
         inkscape:connector-curvature="0"
         id="path8093"
         d="m -2829.3315,1225.3995 0,-140.625"
         style="fill:none;stroke:#000000;stroke-width:8.04569721;stroke-linecap:round;stroke-linejoin:round;stroke-miterlimit:4;stroke-dasharray:none;stroke-opacity:1" />
    </g>
  </g>
</svg>
