<?xml version="1.0" encoding="UTF-8" standalone="no"?>
<!-- Created with Inkscape (http://www.inkscape.org/) -->

<svg
   xmlns:dc="http://purl.org/dc/elements/1.1/"
   xmlns:cc="http://creativecommons.org/ns#"
   xmlns:rdf="http://www.w3.org/1999/02/22-rdf-syntax-ns#"
   xmlns:svg="http://www.w3.org/2000/svg"
   xmlns="http://www.w3.org/2000/svg"
   xmlns:sodipodi="http://sodipodi.sourceforge.net/DTD/sodipodi-0.dtd"
   xmlns:inkscape="http://www.inkscape.org/namespaces/inkscape"
   width="210mm"
   height="297mm"
   viewBox="0 0 744.09448819 1052.3622047"
   id="svg2"
   version="1.1"
   inkscape:version="0.91 r13725"
   sodipodi:docname="ML.svg">
  <defs
     id="defs4">
    <clipPath
       id="clipPath4171"
       clipPathUnits="userSpaceOnUse">
      <path
         inkscape:connector-curvature="0"
         id="path4173"
         d="m 0,0 0,14670 11002,0 L 11002,0 0,0 Z" />
    </clipPath>
    <clipPath
       id="clipPath14848"
       clipPathUnits="userSpaceOnUse">
      <path
         inkscape:connector-curvature="0"
         id="path14850"
         d="m 0,0 0,14670 11002,0 L 11002,0 0,0 Z" />
    </clipPath>
  </defs>
  <sodipodi:namedview
     id="base"
     pagecolor="#ffffff"
     bordercolor="#666666"
     borderopacity="1.0"
     inkscape:pageopacity="0.0"
     inkscape:pageshadow="2"
     inkscape:zoom="0.7"
     inkscape:cx="344.77816"
     inkscape:cy="539.83618"
     inkscape:document-units="px"
     inkscape:current-layer="layer1"
     showgrid="false"
     inkscape:window-width="2048"
     inkscape:window-height="1100"
     inkscape:window-x="0"
     inkscape:window-y="24"
     inkscape:window-maximized="1" />
  <metadata
     id="metadata7">
    <rdf:RDF>
      <cc:Work
         rdf:about="">
        <dc:format>image/svg+xml</dc:format>
        <dc:type
           rdf:resource="http://purl.org/dc/dcmitype/StillImage" />
        <dc:title></dc:title>
      </cc:Work>
    </rdf:RDF>
  </metadata>
  <g
     inkscape:label="ML"
     inkscape:groupmode="layer"
     id="layer1">
    <g
       id="g20038"
       transform="matrix(0,-0.47709802,0.47709802,0,140.83361,-123.28879)"
       style="stroke-width:10.48002625;stroke-miterlimit:4;stroke-dasharray:none">
      <path
         d="m -546.57247,384.49912 -40.9472,-16.95019 -18.8997,-11.84983 -16.5026,-16.50259 -11.3992,-18.89964 -6.2989,-16.94725 -25.7993,-80.40154 -9.3026,-21.90038 -12,-18.89965 -14.9978,-12.74798 -14.4,-7.95093 -14.4,-3.00074 -15.0008,1.20147 -296.84933,56.99931 -17.2506,2.84761 -17.8513,1.65203 -19.0498,-1.05129 -23.5465,-6.44909 -1188.3101,-469.20182"
         style="fill:none;stroke:#000000;stroke-width:10.48002625;stroke-linecap:round;stroke-linejoin:round;stroke-miterlimit:4;stroke-dasharray:none;stroke-opacity:1"
         id="path5209"
         inkscape:connector-curvature="0" />
      <path
         d="m -1762.6195,578.89927 -617.4041,511.65093 m 68.7019,129.2997 1142.2535,-369.60028"
         style="fill:none;stroke:#000000;stroke-width:10.48002625;stroke-linecap:round;stroke-linejoin:round;stroke-miterlimit:4;stroke-dasharray:none;stroke-opacity:1"
         id="path5211"
         inkscape:connector-curvature="0" />
      <path
         d="m -2380.0236,1090.5502 -4.8,4.3494 -4.5056,4.8 -3.8871,5.1004 -3.5926,5.3978 -3.0037,5.7011 -2.562,5.8484 -1.9435,6.1516 -1.5019,6.2989 -0.9129,6.3019 -0.4417,6.4491 0.2945,6.452 0.6184,6.4491 1.3252,6.2989 1.8257,6.1487 2.3853,6.0015 2.8565,5.8513 3.2981,5.3978 3.8871,5.2505 4.2111,4.9502 4.6528,4.3495 4.9472,4.052 5.389,3.5985 5.5656,3.1509 6.0074,2.7004 5.9779,2.0996 6.3018,1.4989 6.3019,1.0513 6.4491,0.5978 6.449,-0.1502 6.4491,-0.5978 6.3019,-1.2014 6.3018,-1.6491"
         style="fill:none;stroke:#000000;stroke-width:10.48002625;stroke-linecap:round;stroke-linejoin:round;stroke-miterlimit:4;stroke-dasharray:none;stroke-opacity:1"
         id="path5213"
         inkscape:connector-curvature="0" />
      <path
         d="M -401.22067,1117.6982 -1109.822,851.59842 m 511.95133,-80.1012 261.45,240.90128"
         style="fill:none;stroke:#000000;stroke-width:10.48002625;stroke-linecap:round;stroke-linejoin:round;stroke-miterlimit:4;stroke-dasharray:none;stroke-opacity:1"
         id="path5215"
         inkscape:connector-curvature="0" />
      <path
         d="m -401.22067,1117.6982 5.8513,1.7993 6.1487,1.3516 6.1487,0.7509 6.1517,0 6.1487,-0.4505 6.1517,-1.2015 5.9985,-1.6491 5.7011,-2.2498 5.5509,-2.8505 5.0975,-3.4513 4.9501,-3.8989 4.3524,-4.3495 4.0491,-4.6498 3.4484,-5.1004 3.0007,-5.5509 2.4,-5.6982 1.9495,-5.8513 1.2014,-5.9985 0.751,-6.1517 0,-6.2989 -0.4506,-6.1516 -1.2015,-6.1487 -1.7992,-5.8513 -2.2499,-5.8484 -2.8505,-5.4007 -3.4484,-5.2506 -3.9018,-4.8 -4.3495,-4.3494"
         style="fill:none;stroke:#000000;stroke-width:10.48002625;stroke-linecap:round;stroke-linejoin:round;stroke-miterlimit:4;stroke-dasharray:none;stroke-opacity:1"
         id="path5217"
         inkscape:connector-curvature="0" />
      <path
         d="m -546.57247,579.04946 -7.9479,2.09963 -7.6506,2.70037 -7.5004,3.14798 -7.2,3.75166 -7.0498,4.34945 -6.5993,4.64982 -6.3018,5.25055 -5.8484,5.69817 -5.4007,6.00147 -4.9502,6.44909 -4.4996,6.89964 -4.0491,7.05276 -3.4513,7.34725 -3.0007,7.65055 -2.3971,7.80077 -1.8022,7.9509 -1.1985,7.948 -0.6008,8.1011 -0.1502,8.2513 0.6008,8.0982 1.0483,8.1011 1.8022,7.9479 2.2498,7.8008 2.8506,7.6505 3.2982,7.3502 4.049,7.2 4.3524,6.8997 4.9502,6.452 5.2476,6.1487 5.8513,5.6982"
         style="fill:none;stroke:#000000;stroke-width:10.48002625;stroke-linecap:round;stroke-linejoin:round;stroke-miterlimit:4;stroke-dasharray:none;stroke-opacity:1"
         id="path5219"
         inkscape:connector-curvature="0" />
      <path
         d="m -1109.822,851.59842 -7.2118,-2.4 -7.3325,-1.7993 -7.3619,-1.0513 -7.6565,-0.4476 -7.4798,0.1472 -7.5092,0.7509 -7.5092,1.3517 -7.1853,2.0996"
         style="fill:none;stroke:#000000;stroke-width:10.48002625;stroke-linecap:round;stroke-linejoin:round;stroke-miterlimit:4;stroke-dasharray:none;stroke-opacity:1"
         id="path5221"
         inkscape:connector-curvature="0" />
      <path
         d="m -1762.6195,384.79949 -617.4041,-511.80112"
         style="fill:none;stroke:#000000;stroke-width:10.48002625;stroke-linecap:round;stroke-linejoin:round;stroke-miterlimit:4;stroke-dasharray:none;stroke-opacity:1"
         id="path5223"
         inkscape:connector-curvature="0" />
      <path
         d="m -2309.3782,-255.55338 -6.3018,-1.64909 -6.3019,-1.19852 -6.4491,-0.60074 -6.449,-0.15018 -6.4491,0.45055 -6.3019,1.04834 -6.3018,1.65203 -5.9779,2.09963 -6.0074,2.70037 -5.5656,2.9978 -5.389,3.60147 -4.9472,4.19927 -4.6528,4.34945 -4.2111,4.95019 -3.8871,5.10037 -3.2981,5.55092 -2.8565,5.8513 -2.3853,5.99853 -1.8257,6.14871 -1.3252,6.30185 -0.6184,6.44908 -0.2945,6.44909 0.4417,6.44908 0.9129,6.30185 1.5019,6.2989 1.9435,6.15166 2.562,5.84835 3.0037,5.70111 3.5926,5.40074 3.8871,5.10037 4.5056,4.64982 4.8,4.34945"
         style="fill:none;stroke:#000000;stroke-width:10.48002625;stroke-linecap:round;stroke-linejoin:round;stroke-miterlimit:4;stroke-dasharray:none;stroke-opacity:1"
         id="path5225"
         inkscape:connector-curvature="0" />
      <path
         d="m -1762.6195,578.89927 6.4491,-5.70111 5.8601,-6.14871 5.5362,-6.45203 5.0945,-6.74946 4.6528,-7.2 4.211,-7.35019 3.5927,-7.80074 3.1509,-7.94798 2.5619,-8.10112 1.9436,-8.25129 1.5019,-8.39853 0.7361,-8.39854 0.2945,-8.55166 -0.2945,-8.54872 -0.7361,-8.40148 -1.5019,-8.39853 -1.9436,-8.2513 -2.5619,-8.24835 -3.1509,-7.80074 -3.5927,-7.80074 -4.211,-7.35019 -4.6528,-7.2 -5.0945,-6.89964 -5.5362,-6.44909 -5.8601,-6.00147 -6.4491,-5.69817"
         style="fill:none;stroke:#000000;stroke-width:10.48002625;stroke-linecap:round;stroke-linejoin:round;stroke-miterlimit:4;stroke-dasharray:none;stroke-opacity:1"
         id="path5227"
         inkscape:connector-curvature="0" />
      <path
         inkscape:connector-curvature="0"
         id="path20018"
         d="m -545.2486,386.35421 0,191.6256"
         style="fill:none;stroke:#000000;stroke-width:10.48002625;stroke-linecap:round;stroke-linejoin:round;stroke-miterlimit:4;stroke-dasharray:none;stroke-opacity:1" />
    </g>
  </g>
</svg>
