<?xml version="1.0" encoding="UTF-8" standalone="no"?>
<!-- Created with Inkscape (http://www.inkscape.org/) -->

<svg
   xmlns:dc="http://purl.org/dc/elements/1.1/"
   xmlns:cc="http://creativecommons.org/ns#"
   xmlns:rdf="http://www.w3.org/1999/02/22-rdf-syntax-ns#"
   xmlns:svg="http://www.w3.org/2000/svg"
   xmlns="http://www.w3.org/2000/svg"
   xmlns:sodipodi="http://sodipodi.sourceforge.net/DTD/sodipodi-0.dtd"
   xmlns:inkscape="http://www.inkscape.org/namespaces/inkscape"
   width="210mm"
   height="297mm"
   viewBox="0 0 744.09448819 1052.3622047"
   id="svg2"
   version="1.1"
   inkscape:version="0.91 r13725"
   sodipodi:docname="mockingbird.svg">
  <defs
     id="defs4" />
  <sodipodi:namedview
     id="base"
     pagecolor="#ffffff"
     bordercolor="#666666"
     borderopacity="1.0"
     inkscape:pageopacity="0.0"
     inkscape:pageshadow="2"
     inkscape:zoom="0.7"
     inkscape:cx="156.00946"
     inkscape:cy="560.43765"
     inkscape:document-units="px"
     inkscape:current-layer="layer1"
     showgrid="false"
     inkscape:window-width="2048"
     inkscape:window-height="1100"
     inkscape:window-x="0"
     inkscape:window-y="24"
     inkscape:window-maximized="1" />
  <metadata
     id="metadata7">
    <rdf:RDF>
      <cc:Work
         rdf:about="">
        <dc:format>image/svg+xml</dc:format>
        <dc:type
           rdf:resource="http://purl.org/dc/dcmitype/StillImage" />
        <dc:title></dc:title>
      </cc:Work>
    </rdf:RDF>
  </metadata>
  <g
     inkscape:label="mockingbird"
     inkscape:groupmode="layer"
     id="layer1">
    <g
       id="g5457"
       transform="matrix(0.58331141,0,0,0.58331141,1330.6601,36.969578)"
       style="stroke-width:8.57175064;stroke-miterlimit:4;stroke-dasharray:none">
      <path
         inkscape:connector-curvature="0"
         id="path4337"
         style="fill:none;stroke:#000000;stroke-width:8.57175064;stroke-linecap:butt;stroke-linejoin:miter;stroke-miterlimit:4;stroke-dasharray:none;stroke-opacity:1"
         d="m -1997.5205,954.16613 -28.1409,84.06097 -37.568,80.2948" />
      <path
         inkscape:connector-curvature="0"
         id="path4339"
         style="fill:none;stroke:#000000;stroke-width:8.57175064;stroke-linecap:butt;stroke-linejoin:miter;stroke-miterlimit:4;stroke-dasharray:none;stroke-opacity:1"
         d="m -2238.5979,1541.7469 -2.3956,-26.2211 1.8858,-26.2722 6.125,-25.6238 10.1883,-24.2844" />
      <path
         inkscape:connector-curvature="0"
         id="path4341"
         style="fill:none;stroke:#000000;stroke-width:8.57175064;stroke-linecap:butt;stroke-linejoin:miter;stroke-miterlimit:4;stroke-dasharray:none;stroke-opacity:1"
         d="m -2222.7944,1439.3454 159.565,-320.8235" />
      <path
         inkscape:connector-curvature="0"
         id="path4343"
         style="fill:none;stroke:#000000;stroke-width:8.57175064;stroke-linecap:butt;stroke-linejoin:miter;stroke-miterlimit:4;stroke-dasharray:none;stroke-opacity:1"
         d="m -1683.6292,1673.8787 -121.0935,18.7005 -122.4419,4.5166" />
      <path
         inkscape:connector-curvature="0"
         id="path4345"
         style="fill:none;stroke:#000000;stroke-width:8.57175064;stroke-linecap:butt;stroke-linejoin:miter;stroke-miterlimit:4;stroke-dasharray:none;stroke-opacity:1"
         d="m -2154.8851,1645.3186 -24.024,-13.5951 -21.0476,-17.8395 -17.3527,-21.4696 -13.0372,-24.324 -8.2513,-26.3435" />
      <path
         inkscape:connector-curvature="0"
         id="path4347"
         style="fill:none;stroke:#000000;stroke-width:8.57175064;stroke-linecap:butt;stroke-linejoin:miter;stroke-miterlimit:4;stroke-dasharray:none;stroke-opacity:1"
         d="m -1927.1646,1697.0958 -78.2361,-5.6437 -76.5008,-17.392 -72.9836,-28.7415" />
      <path
         inkscape:connector-curvature="0"
         id="path4349"
         style="fill:none;stroke:#000000;stroke-width:8.57175064;stroke-linecap:butt;stroke-linejoin:miter;stroke-miterlimit:4;stroke-dasharray:none;stroke-opacity:1"
         d="m -1276.8248,1499.8328 -195.0457,106.5473 -211.7587,67.4986" />
      <path
         inkscape:connector-curvature="0"
         id="path4351"
         style="fill:none;stroke:#000000;stroke-width:8.57175064;stroke-linecap:butt;stroke-linejoin:miter;stroke-miterlimit:4;stroke-dasharray:none;stroke-opacity:1"
         d="m -1041.0536,1221.4533 -67.1081,-75.9399 -30.9983,-39.6971 -27.94,-41.7957 -26.2726,-49.0387 -21.2885,-51.70647 -16.2933,-53.6548 -11.256,-54.8918 -6.3655,-56.2797 -1.7982,-56.4918 2.1295,-56.4097 5.4141,-56.0137 14.7048,-89.2456 22.5658,-88.1079 14.0337,-42.36447 16.2652,-41.92588 18.6495,-41.12712 21.2091,-39.98913 34.8014,-54.73062 38.5618,-51.2985" />
      <path
         inkscape:connector-curvature="0"
         id="path4353"
         style="fill:none;stroke:#000000;stroke-width:8.57175064;stroke-linecap:butt;stroke-linejoin:miter;stroke-miterlimit:4;stroke-dasharray:none;stroke-opacity:1"
         d="m -1039.8531,1228.9969 -60.6459,105.2987 -80.0177,91.4434 -96.3081,74.0938" />
      <path
         inkscape:connector-curvature="0"
         id="path4355"
         style="fill:none;stroke:#000000;stroke-width:8.57175064;stroke-linecap:butt;stroke-linejoin:miter;stroke-miterlimit:4;stroke-dasharray:none;stroke-opacity:1"
         d="m -1041.0536,1221.4533 0.8011,1.0789 0.5893,1.2094 0.3397,1.2996 0.079,1.3479 -0.1811,1.328 -0.4277,1.2798" />
      <path
         inkscape:connector-curvature="0"
         id="path4357"
         style="fill:none;stroke:#000000;stroke-width:8.57175064;stroke-linecap:butt;stroke-linejoin:miter;stroke-miterlimit:4;stroke-dasharray:none;stroke-opacity:1"
         d="m -1924.7264,277.80295 -0.7392,9.55126 -0.3199,9.489 0.3908,9.38974 1.3876,9.25126 1.6082,6.06262 2.1494,5.95488 2.6448,5.78512 3.1291,5.60413 3.5564,5.36312 3.9557,5.10563 4.3158,4.79362 4.6523,4.46575 4.4175,3.68675 4.6353,3.38675 4.8339,3.06663 5.0062,2.74687 10.4489,4.51375 10.9077,3.18825 7.4218,1.36775 7.5126,0.77888 7.5716,0.22075 7.6033,-0.32 7.5717,-0.81813 7.5323,-1.31962 7.4417,-1.77838 7.3113,-2.21737 8.1807,-3.0975 8.0419,-3.93625 7.9629,-5.07438 7.9512,-6.513 5.2444,-5.17325 4.995,-5.536 4.4543,-5.50212 3.6585,-5.08538" />
      <path
         inkscape:connector-curvature="0"
         id="path4359"
         style="fill:none;stroke:#000000;stroke-width:8.57175064;stroke-linecap:butt;stroke-linejoin:miter;stroke-miterlimit:4;stroke-dasharray:none;stroke-opacity:1"
         d="m -1938.5705,267.07658 1.8266,-0.46975 1.8885,-0.1305 1.8773,0.218 1.8096,0.5495 1.6764,0.86925 1.4895,1.16113 1.26,1.40737 0.9882,1.60825 0.6797,1.76713 0.3398,1.86025 0.012,1.88575" />
      <path
         inkscape:connector-curvature="0"
         id="path4361"
         style="fill:none;stroke:#000000;stroke-width:8.57175064;stroke-linecap:butt;stroke-linejoin:miter;stroke-miterlimit:4;stroke-dasharray:none;stroke-opacity:1"
         d="m -1994.8332,298.36408 26.8132,-18.0125 29.4495,-13.275" />
      <path
         inkscape:connector-curvature="0"
         id="path4363"
         style="fill:none;stroke:#000000;stroke-width:8.57175064;stroke-linecap:butt;stroke-linejoin:miter;stroke-miterlimit:4;stroke-dasharray:none;stroke-opacity:1"
         d="m -2134.8254,711.16843 -5.5757,-71.1942 3.8059,-71.3154 13.1275,-70.1975" />
      <path
         inkscape:connector-curvature="0"
         id="path4365"
         style="fill:none;stroke:#000000;stroke-width:8.57175064;stroke-linecap:butt;stroke-linejoin:miter;stroke-miterlimit:4;stroke-dasharray:none;stroke-opacity:1"
         d="m -2123.4677,498.46133 20.5097,-56.7185 28.7274,-53.02587 36.3136,-48.15813 43.0838,-42.19475" />
      <path
         inkscape:connector-curvature="0"
         id="path4369"
         style="fill:none;stroke:#000000;stroke-width:8.57175064;stroke-linecap:butt;stroke-linejoin:miter;stroke-miterlimit:4;stroke-dasharray:none;stroke-opacity:1"
         d="m -1747.2907,335.20408 7.1613,-9.61937 8.611,-8.34201" />
      <path
         inkscape:connector-curvature="0"
         id="path4377"
         style="fill:none;stroke:#000000;stroke-width:8.57175064;stroke-linecap:butt;stroke-linejoin:miter;stroke-miterlimit:4;stroke-dasharray:none;stroke-opacity:1"
         d="m -1098.772,160.5067 19.8701,-1.31987 19.8189,1.88037" />
      <path
         inkscape:connector-curvature="0"
         id="path4379"
         style="fill:none;stroke:#000000;stroke-width:8.57175064;stroke-linecap:butt;stroke-linejoin:miter;stroke-miterlimit:4;stroke-dasharray:none;stroke-opacity:1"
         d="m -1059.083,161.0672 1.2883,0.34838 1.1895,0.60025 1.0591,0.81 0.889,1.008 0.6682,1.1495 0.4504,1.2575 0.1896,1.3195 -0.06,1.328 -0.3198,1.29975 -0.5607,1.20612 -0.7787,1.09025" />
      <path
         inkscape:connector-curvature="0"
         id="path4381"
         style="fill:none;stroke:#000000;stroke-width:8.57175064;stroke-linecap:butt;stroke-linejoin:miter;stroke-miterlimit:4;stroke-dasharray:none;stroke-opacity:1"
         d="m -1062.0392,180.7447 6.9715,-8.26024" />
      <path
         inkscape:connector-curvature="0"
         id="path4383"
         style="fill:none;stroke:#000000;stroke-width:8.57175064;stroke-linecap:butt;stroke-linejoin:miter;stroke-miterlimit:4;stroke-dasharray:none;stroke-opacity:1"
         d="m -2017.7585,796.52923 15.3054,29.0417 9.8996,31.2959 4.1736,32.5555 -1.6677,32.7768 -7.4729,31.967" />
      <path
         inkscape:connector-curvature="0"
         id="path4385"
         style="fill:none;stroke:#000000;stroke-width:8.57175064;stroke-linecap:butt;stroke-linejoin:miter;stroke-miterlimit:4;stroke-dasharray:none;stroke-opacity:1"
         d="m -2122.3887,725.37513 -3.0979,-1.2094 -2.8064,-1.778 -2.4179,-2.277 -1.9371,-2.6985 -1.3876,-3.0158 -0.7898,-3.228" />
      <path
         inkscape:connector-curvature="0"
         id="path4387"
         style="fill:none;stroke:#000000;stroke-width:8.57175064;stroke-linecap:butt;stroke-linejoin:miter;stroke-miterlimit:4;stroke-dasharray:none;stroke-opacity:1"
         d="m -2122.3887,725.37513 30.1177,11.2272 27.94,15.8943 25.0548,20.1476 21.5177,23.885" />
      <path
         inkscape:connector-curvature="0"
         id="path4437"
         style="fill:none;stroke:#000000;stroke-width:8.57175064;stroke-linecap:butt;stroke-linejoin:miter;stroke-miterlimit:4;stroke-dasharray:none;stroke-opacity:1"
         d="m -1731.5184,317.2427 5.7342,-4.355 4.9751,-3.21699 9.5995,-4.41463 5.805,-2.03875 6.1024,-1.66788 5.683,-1.079 5.6661,-0.62 5.652,-0.13 5.6154,0.33975 6.8017,1.07013 6.7139,1.69612 6.6032,2.24013 6.4819,2.67587 10.7206,5.35463 10.2593,6.2635 9.6984,7.09337 9.0503,7.80975 9.8595,10.19125 8.9115,10.9475 8.0929,11.56738 7.402,12.02887 6.6628,12.16775 5.9722,12.69425 5.1368,13.47588 4.134,14.48715 3.7548,18.151 1.8804,8.8405 2.1973,8.2116" />
      <path
         inkscape:connector-curvature="0"
         id="path4439"
         style="fill:none;stroke:#000000;stroke-width:8.57175064;stroke-linecap:butt;stroke-linejoin:miter;stroke-miterlimit:4;stroke-dasharray:none;stroke-opacity:1"
         d="m -1098.772,160.5067 -15.2341,1.68763 -14.8946,2.58813 -14.5549,3.62725 -14.1951,4.75437 -21.0168,9.5995 -20.1501,11.97788 -19.2695,13.81562 -18.3806,15.07325 -15.424,13.94575 -14.6853,14.5435 -13.8752,15.17525 -13.0369,15.83475 -14.9939,20.61738 -13.9149,21.45837 -25.7623,44.44325 -19.7,36.57938 -17.5819,37.37267 -13.6943,31.6666 -10.5505,17.6215 -6.4817,7.971 -7.4333,7.0821 -10.7886,7.3343 -12.0264,5.4733 -12.8076,3.5767 -13.1446,1.648 -12.0373,-0.2407 -11.7092,-2.1267 -11.1483,-4.2165 -10.3383,-6.5013 -10.5992,-10.1798 -7.9822,-10.4093" />
      <path
         inkscape:connector-curvature="0"
         id="path4441"
         style="fill:none;stroke:#000000;stroke-width:8.57175064;stroke-linecap:butt;stroke-linejoin:miter;stroke-miterlimit:4;stroke-dasharray:none;stroke-opacity:1"
         d="m -1536.1836,492.29983 -6.1648,-12.2074 -4.0038,-13.0656" />
    </g>
  </g>
</svg>
