<?xml version="1.0" encoding="UTF-8" standalone="no"?>
<!-- Created with Inkscape (http://www.inkscape.org/) -->

<svg
   xmlns:dc="http://purl.org/dc/elements/1.1/"
   xmlns:cc="http://creativecommons.org/ns#"
   xmlns:rdf="http://www.w3.org/1999/02/22-rdf-syntax-ns#"
   xmlns:svg="http://www.w3.org/2000/svg"
   xmlns="http://www.w3.org/2000/svg"
   xmlns:sodipodi="http://sodipodi.sourceforge.net/DTD/sodipodi-0.dtd"
   xmlns:inkscape="http://www.inkscape.org/namespaces/inkscape"
   width="210mm"
   height="297mm"
   viewBox="0 0 744.09448819 1052.3622047"
   id="svg2"
   version="1.1"
   inkscape:version="0.91 r13725"
   sodipodi:docname="mustang.svg">
  <defs
     id="defs4">
    <clipPath
       id="clipPath4171"
       clipPathUnits="userSpaceOnUse">
      <path
         inkscape:connector-curvature="0"
         id="path4173"
         d="m 0,0 2381,0 0,1683 L 0,1683 0,0 Z" />
    </clipPath>
  </defs>
  <sodipodi:namedview
     id="base"
     pagecolor="#ffffff"
     bordercolor="#666666"
     borderopacity="1.0"
     inkscape:pageopacity="0.0"
     inkscape:pageshadow="2"
     inkscape:zoom="0.7"
     inkscape:cx="457.73119"
     inkscape:cy="572.47593"
     inkscape:document-units="px"
     inkscape:current-layer="layer1"
     showgrid="false"
     inkscape:window-width="2048"
     inkscape:window-height="1100"
     inkscape:window-x="0"
     inkscape:window-y="24"
     inkscape:window-maximized="1" />
  <metadata
     id="metadata7">
    <rdf:RDF>
      <cc:Work
         rdf:about="">
        <dc:format>image/svg+xml</dc:format>
        <dc:type
           rdf:resource="http://purl.org/dc/dcmitype/StillImage" />
        <dc:title></dc:title>
      </cc:Work>
    </rdf:RDF>
  </metadata>
  <g
     inkscape:label="mustang"
     inkscape:groupmode="layer"
     id="layer1">
    <g
       id="g4165"
       transform="matrix(1.25,0,0,-1.25,-2646.1375,1473.7997)" />
    <g
       id="g4167"
       transform="matrix(1.25,0,0,-1.25,-2646.1375,1473.7997)">
      <g
         id="g4169"
         clip-path="url(#clipPath4171)" />
    </g>
    <g
       id="g6307"
       transform="matrix(0,-0.77091457,-0.77091457,0,1100.3915,1433.8584)"
       style="stroke-width:6.48580296;stroke-miterlimit:100;stroke-dasharray:none">
      <path
         inkscape:connector-curvature="0"
         id="path4179"
         style="fill:none;stroke:#110f0d;stroke-width:6.48580296;stroke-linecap:butt;stroke-linejoin:miter;stroke-miterlimit:100;stroke-dasharray:none;stroke-opacity:1"
         d="m 852.1251,1373.415 c 28.6179,-0.628 57.1079,-4.083 85.0579,-10.31" />
      <path
         inkscape:connector-curvature="0"
         id="path4181"
         style="fill:none;stroke:#110f0d;stroke-width:6.48580296;stroke-linecap:butt;stroke-linejoin:miter;stroke-miterlimit:100;stroke-dasharray:none;stroke-opacity:1"
         d="m 585.035,1217.138 c 4.196,8.919 8.97,17.558 14.284,25.862" />
      <path
         inkscape:connector-curvature="0"
         id="path4183"
         style="fill:none;stroke:#110f0d;stroke-width:6.48580296;stroke-linecap:butt;stroke-linejoin:miter;stroke-miterlimit:100;stroke-dasharray:none;stroke-opacity:1"
         d="m 599.319,1243 c 55.175,81.604 147.261,130.498 245.7771,130.498 2.3439,0 4.6839,-0.029 7.029,-0.083" />
      <path
         inkscape:connector-curvature="0"
         id="path4185"
         style="fill:none;stroke:#110f0d;stroke-width:6.48580296;stroke-linecap:butt;stroke-linejoin:miter;stroke-miterlimit:100;stroke-dasharray:none;stroke-opacity:1"
         d="m 1596.027,858.3491 0,0" />
      <path
         inkscape:connector-curvature="0"
         id="path4187"
         style="fill:none;stroke:#110f0d;stroke-width:6.48580296;stroke-linecap:butt;stroke-linejoin:miter;stroke-miterlimit:100;stroke-dasharray:none;stroke-opacity:1"
         d="m 1274.766,607.212 0.053,-0.009" />
      <path
         inkscape:connector-curvature="0"
         id="path4189"
         style="fill:none;stroke:#110f0d;stroke-width:6.48580296;stroke-linecap:butt;stroke-linejoin:miter;stroke-miterlimit:100;stroke-dasharray:none;stroke-opacity:1"
         d="m 531.194,969.082 c 0.513,25.5641 2.218,51.09 5.108,76.498" />
      <path
         inkscape:connector-curvature="0"
         id="path4197"
         style="fill:none;stroke:#110f0d;stroke-width:6.48580296;stroke-linecap:butt;stroke-linejoin:miter;stroke-miterlimit:100;stroke-dasharray:none;stroke-opacity:1"
         d="m 531.074,854.4841 -0.067,-3.0271" />
      <path
         inkscape:connector-curvature="0"
         id="path4205"
         style="fill:none;stroke:#110f0d;stroke-width:6.48580296;stroke-linecap:butt;stroke-linejoin:miter;stroke-miterlimit:100;stroke-dasharray:none;stroke-opacity:1"
         d="m 531.074,854.4841 c -0.33,18.0349 -0.486,36.0769 -0.486,54.1189 0,20.1601 0.199,40.31 0.606,60.479" />
      <path
         inkscape:connector-curvature="0"
         id="path4213"
         style="fill:none;stroke:#110f0d;stroke-width:6.48580296;stroke-linecap:butt;stroke-linejoin:miter;stroke-miterlimit:100;stroke-dasharray:none;stroke-opacity:1"
         d="m 568.0211,669.175 c -3.4801,6.8411 -6.5091,13.909 -9.0561,21.1641" />
      <path
         inkscape:connector-curvature="0"
         id="path4215"
         style="fill:none;stroke:#110f0d;stroke-width:6.48580296;stroke-linecap:butt;stroke-linejoin:miter;stroke-miterlimit:100;stroke-dasharray:none;stroke-opacity:1"
         d="m 558.965,690.3391 c -18.503,50.6789 -27.969,104.216 -27.969,158.166 0,0.9829 0,1.9699 0.011,2.9519" />
      <path
         inkscape:connector-curvature="0"
         id="path4217"
         style="fill:none;stroke:#110f0d;stroke-width:6.48580296;stroke-linecap:butt;stroke-linejoin:miter;stroke-miterlimit:100;stroke-dasharray:none;stroke-opacity:1"
         d="M 673.1851,553.702 C 628.913,582.642 592.725,622.38 568.0211,669.175" />
      <path
         inkscape:connector-curvature="0"
         id="path4235"
         style="fill:none;stroke:#110f0d;stroke-width:6.48580296;stroke-linecap:butt;stroke-linejoin:miter;stroke-miterlimit:100;stroke-dasharray:none;stroke-opacity:1"
         d="m 673.1851,553.702 c 18.1489,-10.9229 45.0459,-21.754 69.8159,-28.256 24.706,-6.4899 47.13,-6 72.667,-6 8.148,0 20.8841,1.336 29,2 61.666,5.3331 132.666,41.667 132.666,41.667 35.251,17.3 65,38 95.333,56 10.25,4.75 38.501,25.2491 94.501,26.7491 11.465,0.3069 16.292,-0.2591 25.5,-0.75 30.984,-1.648 53.382,-11.8811 83.333,-20.0001 34.75,-10.75 68.77,-21.324 106.333,-31 32.497,-6.799 57.097,-9.641 75.667,-12 17.333,-1.3329 31.223,-2.666 49,-2.666 19.889,0 38.595,3.228 58.333,5.667 29.667,3.6661 54.597,26.126 57,30.6661 3.833,4.6669 7.594,14.3089 8.666,19.6669 1.334,6.6661 10e-4,20.6661 -4.999,30 -3.334,8 -14.105,13.8251 -24.633,19.4061 -16.266,8.6239 -36.583,18.1419 -46.701,33.927 -8.632,15.185 -15.042,27.0279 -15.042,44.5 0,7.5409 -1.302,16.6549 0.375,24 4.632,20.385 5.75,34.375 22.333,52.5 5.5,6 9.042,9.25 16.292,13.375 5.25,2.375 9.463,3.648 14.464,4.398 0.108,0.016 23.141,0.75 23.249,0.75" />
      <path
         inkscape:connector-curvature="0"
         id="path4237"
         style="fill:none;stroke:#110f0d;stroke-width:6.48580296;stroke-linecap:butt;stroke-linejoin:miter;stroke-miterlimit:100;stroke-dasharray:none;stroke-opacity:1"
         d="m 536.302,1045.58 c 6.767,59.463 23.229,117.416 48.733,171.558" />
      <path
         inkscape:connector-curvature="0"
         id="path4239"
         style="fill:none;stroke:#110f0d;stroke-width:6.48580296;stroke-linecap:butt;stroke-linejoin:miter;stroke-miterlimit:100;stroke-dasharray:none;stroke-opacity:1"
         d="m 1722.185,859.985 c 0.036,0.019 0.074,0.027 0.112,0.0441" />
      <path
         inkscape:connector-curvature="0"
         id="path4277"
         style="fill:none;stroke:#110f0d;stroke-width:6.48580296;stroke-linecap:butt;stroke-linejoin:miter;stroke-miterlimit:100;stroke-dasharray:none;stroke-opacity:1"
         d="m 1596.027,857.4921 0,0" />
      <path
         inkscape:connector-curvature="0"
         id="path4655"
         style="fill:none;stroke:#110f0d;stroke-width:6.48580296;stroke-linecap:butt;stroke-linejoin:miter;stroke-miterlimit:100;stroke-dasharray:none;stroke-opacity:1"
         d="m 1688.692,1092.608 c 11.237,27.306 27.527,47.994 52.98,62.944 16.333,10 24.509,14.879 37.333,20.666 0,0 18.068,9.476 21.583,12.084 7.878,4.507 16.664,12.586 19.745,21.144 12,33.333 -11.333,52.667 -11.333,52.667 -4,5.666 -10.627,9.595 -14.333,12 -19.813,11.806 -31.333,15 -58.667,19.666 -14.333,2.334 -38.769,3.33 -51.667,3.334 -90.615,-4.684 -142.171,-20.317 -182.667,-30.667 -42.238,-15.28 -96.333,-28.667 -96.333,-28.667 -16.263,-4.329 -48.18,-4.333 -65,-4.333 -15.226,0 -33.878,2.78 -48.667,6.333 -21.717,5.254 -42.79,9.885 -63.333,18.667 -37.815,15.797 -75.551,31.155 -113.333,47 l -23,10.333 -49.667,19.334 c -34.167,13.589 -69.046,21.096 -105.15,27.992" />
      <path
         inkscape:connector-curvature="0"
         id="path4657"
         style="fill:none;stroke:#110f0d;stroke-width:6.48580296;stroke-linecap:butt;stroke-linejoin:miter;stroke-miterlimit:100;stroke-dasharray:none;stroke-opacity:1"
         d="m 531.074,853.645 -0.067,-3.047" />
      <path
         sodipodi:nodetypes="ccccccccccccc"
         inkscape:connector-curvature="0"
         id="path4693"
         style="fill:none;stroke:#110f0d;stroke-width:6.48580296;stroke-linecap:butt;stroke-linejoin:miter;stroke-miterlimit:100;stroke-dasharray:none;stroke-opacity:1"
         d="m 1610.7433,858.14312 109.3397,2.88598 0.04,0.07 c 6.622,0.2999 7.544,3.68 8.072,10.8159 l 0,134.786 c -0.037,1.644 -0.499,3.067 -1.527,3.841 l -0.34,0.273 -4.828,2.964 c -10.333,7 -12.491,10.068 -19.5,18.5 -1.838,2.51 -5.071,6.736 -6.5,9.5 -1.97,4.792 -5.893,10.179 -6.45,15.324 l -2.341,8.03 c -2.07,10.06 -1.6,18.751 1.983,27.475" />
    </g>
  </g>
</svg>
