<?xml version="1.0" encoding="UTF-8" standalone="no"?>
<!-- Created with Inkscape (http://www.inkscape.org/) -->

<svg
   xmlns:dc="http://purl.org/dc/elements/1.1/"
   xmlns:cc="http://creativecommons.org/ns#"
   xmlns:rdf="http://www.w3.org/1999/02/22-rdf-syntax-ns#"
   xmlns:svg="http://www.w3.org/2000/svg"
   xmlns="http://www.w3.org/2000/svg"
   xmlns:sodipodi="http://sodipodi.sourceforge.net/DTD/sodipodi-0.dtd"
   xmlns:inkscape="http://www.inkscape.org/namespaces/inkscape"
   width="210mm"
   height="297mm"
   viewBox="0 0 744.09448819 1052.3622047"
   id="svg2"
   version="1.1"
   inkscape:version="0.91 r13725"
   sodipodi:docname="PRS.svg">
  <defs
     id="defs4">
    <clipPath
       id="clipPath4171"
       clipPathUnits="userSpaceOnUse">
      <path
         inkscape:connector-curvature="0"
         id="path4173"
         d="m 0,0 1.2986,0 0,1 L 0,1 0,0 Z" />
    </clipPath>
  </defs>
  <sodipodi:namedview
     id="base"
     pagecolor="#ffffff"
     bordercolor="#666666"
     borderopacity="1.0"
     inkscape:pageopacity="0.0"
     inkscape:pageshadow="2"
     inkscape:zoom="0.7"
     inkscape:cx="757.53049"
     inkscape:cy="437.28906"
     inkscape:document-units="px"
     inkscape:current-layer="layer1"
     showgrid="false"
     inkscape:window-width="2048"
     inkscape:window-height="1100"
     inkscape:window-x="0"
     inkscape:window-y="24"
     inkscape:window-maximized="1" />
  <metadata
     id="metadata7">
    <rdf:RDF>
      <cc:Work
         rdf:about="">
        <dc:format>image/svg+xml</dc:format>
        <dc:type
           rdf:resource="http://purl.org/dc/dcmitype/StillImage" />
        <dc:title></dc:title>
      </cc:Work>
    </rdf:RDF>
  </metadata>
  <g
     inkscape:label="PRS"
     inkscape:groupmode="layer"
     id="layer1">
    <path
       inkscape:connector-curvature="0"
       id="path5029"
       style="fill:none;fill-opacity:1;fill-rule:nonzero;stroke:#000000;stroke-width:5;stroke-linecap:round;stroke-linejoin:round;stroke-miterlimit:4;stroke-dasharray:none;stroke-opacity:1"
       d="m 243.9376,188.19067 1.10368,0.78844 1.1038,0.7883 1.10381,0.78844 1.10367,0.78845 1.10381,0.78829 1.1038,0.78844 1.10368,0.78845 1.10368,0.78829 1.10368,0.78845 1.10381,0.63078 1.26136,0.78829 1.10381,0.78845 1.1038,0.63064 1.26137,0.78845 1.1038,0.63078 1.10381,0.7883 1.26136,0.63078 1.10381,0.63063 1.26136,0.78845 1.10381,0.63078 1.26136,0.63064 1.26149,0.63079 1.10368,0.63063 1.26149,0.63078 1.10368,0.47299 1.10381,0.63078 1.1038,0.47297 0.94612,0.47299 1.10368,0.47312 1.10381,0.63063 1.1038,0.47312 1.10368,0.47299 1.1038,0.47312 1.10368,0.47298 1.10381,0.47297 1.26149,0.47313 1.10368,0.31532 1.1038,0.47298 1.10356,0.47312 1.1038,0.31533 1.10381,0.47312 1.10368,0.47297 1.26149,0.31532 1.10368,0.47312 1.1038,0.31533 1.10381,0.31532 1.26136,0.47312 1.10381,0.31531 1.41905,0.47299 1.4193,0.31546 1.57674,0.47298 1.41905,0.31532 1.41905,0.47312 1.41918,0.31531 1.57674,0.47299 1.41918,0.31546 1.41905,0.31532 1.57686,0.31532 1.41906,0.31531 1.41905,0.31548 1.57674,0.31531 1.4193,0.31532 1.57674,0.31532 1.41905,0.31546 1.57674,0.31533 1.4193,0.31532 1.41905,0.15765 1.57674,0.31547 1.41905,0.31531 1.57687,0.15766 1.41905,0.31532 1.57674,0.15767 2.52285,0.47312 2.52299,0.47298 2.52285,0.31531 2.52286,0.31547 2.52286,0.47298 2.52285,0.31532 2.52286,0.31546 2.52286,0.31532 2.36517,0.47299 2.52298,0.31546 2.68042,0.15766 2.52285,0.31531 2.52286,0.31532 2.52286,0.31546 2.52285,0.31532 2.52299,0.15766 2.52285,0.31533 2.52286,0.15766 2.52286,0.31546 2.52285,0.15766 2.52286,0.15766 2.52273,0.31531 2.52298,0.15766 2.52286,0.15766 2.20761,0.1578 2.04967,0.15767 2.20749,0 2.04992,0.15766 2.20748,0.15766 2.04993,0.15766 2.20736,0 2.04979,0.15766 2.20761,0 2.0498,0.15766 2.20761,0 2.04967,0.15765 2.20749,0 2.04992,0.15781 2.20748,0 2.04993,0.15766 2.20748,0 2.04967,0.15766 2.20761,0 2.0498,0 2.20748,0.15765 2.04993,0 2.20735,0.15766 2.04993,0 1.41905,0 1.41918,0 1.41918,0.15767 1.26136,0 1.41905,0 1.41905,0 1.2615,0.15766 1.41917,0 1.41906,0 1.26149,0 1.41905,0 1.41905,0.1578 1.41918,0 1.26149,0 1.41905,0 1.41918,0 1.26136,0 1.41906,0 1.41917,0 1.41918,0 1.26137,0 1.41917,0 1.41906,0 1.41905,0 1.73455,-0.1578 1.73442,0 1.73455,0 1.73443,-0.15766 1.73455,0 1.7343,-0.15767 1.73455,-0.15766 1.73442,-0.15765 1.73455,-0.15766 1.73443,-0.15766 1.73455,-0.15781 1.73442,-0.15765 1.7343,-0.31532 1.73455,-0.15766 1.73443,-0.31532 1.73455,-0.31547 1.73442,-0.31532 1.57687,-0.31531 1.73442,-0.31532 1.73455,-0.47312 1.57674,-0.47299 1.73443,-0.47312 1.73455,-0.47298 1.57673,-0.47297 1.10368,-0.31546 0.94612,-0.31533 1.10381,-0.47298 0.94612,-0.31546 0.94611,-0.47299 1.10356,-0.31531 0.94612,-0.47312 0.94611,-0.47298 1.10381,-0.47298 0.94599,-0.31547 0.94612,-0.47298 0.94599,-0.63078 1.10381,-0.47297 0.94612,-0.47299 0.94599,-0.47312 0.94612,-0.47297 0.94612,-0.63078 0.94599,-0.47299 0.94612,-0.63078 0.94612,-0.63063 0.78843,-0.47314 0.94586,-0.63063 0.94612,-0.63078 0.94612,-0.63064 0.78843,-0.47313 0.63062,-0.63063 0.78843,-0.47313 0.78856,-0.63064 0.78818,-0.63078 0.78856,-0.47298 0.63075,-0.63078 0.7883,-0.63064 0.78844,-0.63079 0.63061,-0.63063 0.78844,-0.63078 0.63074,-0.63064 0.78831,-0.63078 0.63087,-0.63064 0.78831,-0.63079 0.63074,-0.63063 0.63075,-0.63078 0.63062,-0.78845 0.78843,-0.63064 0.63075,-0.63079 0.63074,-0.78829 0.63062,-0.63078 0.63075,-0.78845 0.63062,-0.63063 0.63087,-0.78845 0.63062,-0.78844 0.63074,-0.78829 0.63075,-0.78845 0.47306,-0.78844 0.63062,-0.7883 0.63074,-0.78844 0.47306,-0.78845 0.63075,-0.78829 0.63074,-0.78844 0.47306,-0.78845 0.63062,-0.94595 0.47306,-0.78845 0.47306,-0.78844 0.63075,-0.7883 0.47293,-0.9461 0.47319,-0.78845 0.47293,-0.78829 0.63074,-0.94611 0.47306,-0.78844 0.47294,-0.78843 0.47318,-0.94597 0.47294,-0.78843 0.47313,-0.94611 0.15765,-0.47298 0.31532,-0.31546 0.15766,-0.47299 0.31533,-0.47297 0.15766,-0.47312 0.31546,-0.47298 0.15766,-0.31533 0.31531,-0.47312 0.15766,-0.47297 0.31547,-0.47312 0.15765,-0.47299 0.31532,-0.47298 0.15767,-0.31546 0.31532,-0.47297 0.15766,-0.47314 0.31546,-0.47297 0.31532,-0.47298 0.15765,-0.47312 0.31532,-0.31533 0.15782,-0.47297 0.31531,-0.47312 0.31532,-0.47298 0.15766,-0.47313 0.31532,-0.31532 0.31546,-0.63063 0.31533,-0.47312 0.31531,-0.47299 0.31547,-0.47312 0.31531,-0.47298 0.31532,-0.47297 0.31532,-0.47313 0.31547,-0.47298 0.31532,-0.47312 0.31532,-0.47298 0.47312,-0.47298 0.31531,-0.47312 0.31532,-0.31532 0.47313,-0.47312 0.31532,-0.47299 0.47298,-0.31532 0.31531,-0.47312 0.47313,-0.31531 0.47298,-0.31532 0.47312,-0.47313 0.31532,-0.31532 0.47297,-0.31532 0.47314,-0.31531 0.47297,-0.31547 0.31532,-0.15767 0.47313,-0.15764 0.31532,-0.31533 0.47297,-0.15766 0.31547,-0.15766 0.47297,-0.1578 0.31533,-0.15766 0.47312,-0.15766 0.31532,-0.15766 0.47297,0 0.47312,-0.15766 0.31533,-0.15766 0.47312,-0.15765 0.47298,0 0.47297,-0.15766 0.31548,-0.15782 0.47297,0 0.47298,-0.15766 0.47312,0 0.31533,-0.15765 0.47297,0 0.47312,0 0.47298,-0.15766 0.47313,0 1.10376,-0.15766 1.26142,0 1.10377,-0.15766 1.26141,0 1.10377,0 1.26141,0 1.10377,0 1.26142,0.15766 1.10376,0 1.26142,0.15766 1.10377,0.15766 1.10375,0.15765 1.26143,0.15766 1.10376,0.31548 1.10376,0.15765 1.10377,0.31532 1.10362,0.31532 1.26156,0.31546 0.94596,0.47298 1.10375,0.31531 1.10377,0.47314 1.10375,0.47297 0.94611,0.47298 1.10377,0.63079 0.63063,0.31531 0.63078,0.31547 0.63065,0.31531 0.47312,0.47298 0.63063,0.31533 0.63079,0.31546 0.63064,0.47298 0.47312,0.47312 0.63063,0.31533 0.63079,0.47297 0.47298,0.47312 0.63079,0.47298 0.47297,0.47297 0.47312,0.31548 0.63064,0.47297 0.47313,0.63078 0.63063,0.47299 0.47313,0.47297 0.47297,0.47313 0.47299,0.47297 0.47312,0.47313 0.47297,0.63064 0.63078,0.47312 0.47299,0.47297 0.63078,0.78845 0.47299,0.7883 0.63078,0.63079 0.63063,0.78843 0.63078,0.78831 0.47299,0.78844 0.63078,0.63063 0.47297,0.78845 0.63079,0.78844 0.47298,0.7883 0.47297,0.78844 0.47314,0.78845 0.47297,0.94609 0.47312,0.78831 0.47298,0.78844 0.47297,0.78843 0.47314,0.94597 0.31531,0.78843 0.47298,0.94611 0.31546,0.78844 0.31533,0.94596 0.47297,0.78844 0.31547,0.94611 0.31531,0.78829 0.15766,0.63078 0.31532,0.63079 0.15767,0.78829 0.15779,0.63079 0.15767,0.63064 0.31532,0.63078 0.15766,0.63064 0.15766,0.78844 0.15765,0.63078 0.15781,0.63065 0.15766,0.63078 0.15766,0.63063 0,0.78845 0.15765,0.63063 0.15766,0.63079 0.15767,0.78844 0,0.63064 0.15766,0.63079 0,0.78829 0.15766,0.63079 0,0.63063 0.1578,0.78844 0,0.63079 0.15766,0.63064 0,0.94609 0.15766,0.94611 0,0.94611 0,0.94595 0,0.94611 0,0.94609 0,0.94611 0,0.9461 0,0.94596 0,0.9461 0,0.9461 -0.15766,0.9461 0,0.94611 0,0.94595 -0.15766,0.94611 0,0.94609 -0.1578,0.94611 -0.15766,0.9461 -0.15766,0.94596 0,0.9461 -0.15767,0.9461 -0.15766,0.9461 -0.15765,0.94611 -0.15766,0.94595 -0.15766,1.10377 -0.31546,1.10376 -0.15766,1.10376 -0.31532,0.9461 -0.15766,1.10376 -0.31546,1.10377 -0.31533,1.10376 -0.15766,1.10376 -0.31531,1.10376 -0.31532,0.9461 -0.31546,1.10362 -0.31532,1.10377 -0.31533,1.10375 -0.31546,0.94611 -0.31532,1.10375 -0.31532,1.10377 -0.31531,1.10377 -0.47312,0.94609 -0.31533,1.10377 -0.31532,0.9461 -0.47312,1.10362 -0.31532,1.10375 -0.47298,0.94611 -0.31547,1.10377 -0.63063,1.57673 -0.63078,1.57688 -0.63065,1.57675 -0.63077,1.57674 -0.78831,1.57688 -0.63078,1.57675 -0.63078,1.57674 -0.63064,1.57687 -0.78844,1.57675 -0.63065,1.57688 -0.78843,1.57674 -0.63064,1.57675 -0.78845,1.57688 -0.78844,1.57673 -0.63063,1.41909 -0.78845,1.57674 -0.63078,1.57689 -0.7883,1.57674 -0.78844,1.57674 -0.78845,1.41923 -0.63063,1.57673 -0.78844,1.57674 -0.7883,1.57689 -0.63078,1.57674 -0.63078,1.10377 -0.63065,1.26141 -0.47297,1.26142 -0.63078,1.10377 -0.63079,1.26141 -0.47298,1.26143 -0.63063,1.26142 -0.63079,1.10376 -0.47298,1.26142 -0.63078,1.26143 -0.63063,1.10375 -0.47314,1.26143 -0.63063,1.26142 -0.47312,1.26142 -0.63065,1.10376 -0.63078,1.26143 -0.47297,1.26156 -0.63079,1.26142 -0.47298,1.10377 -0.63078,1.26141 -0.47298,1.26142 -0.63078,1.26143 -0.47298,1.10376 -0.63079,1.26142 -0.47297,1.10377 -0.47298,1.10375 -0.47312,1.10377 -0.47299,1.10375 -0.47312,1.10362 -0.47297,1.10377 -0.47298,1.10375 -0.47313,1.10377 -0.47298,1.10376 -0.47312,1.10376 -0.47299,1.10377 -0.47297,1.10375 -0.47312,1.10377 -0.47298,1.10375 -0.31546,1.26143 -0.47299,1.10376 -0.47297,1.10376 -0.31547,1.10377 -0.47297,1.10375 -0.47299,1.10377 -0.31546,1.10376 -0.47298,1.26142 -0.31531,1.10376 -0.47312,1.10377 -0.31533,0.94595 -0.31532,1.10377 -0.31546,0.94609 -0.31532,0.94611 -0.31532,1.10376 -0.15765,0.9461 -0.31533,0.94597 -0.31546,1.10375 -0.31532,0.94611 -0.15766,0.9461 -0.31532,1.10376 -0.31546,0.9461 -0.15766,1.10376 -0.31533,0.94596 -0.15765,1.10376 -0.15766,0.9461 -0.31547,1.10376 -0.15765,0.94611 -0.15766,1.10376 -0.15766,0.9461 -0.15766,1.10376 -0.15766,0.94596 -0.15767,1.10376 -0.1578,0.9461 -0.15766,0.9461 -0.15766,0.94611 0,0.94611 -0.15766,0.94595 -0.15766,0.94609 0,0.94611 -0.15765,0.94611 0,0.9461 0,0.7883 -0.15766,0.9461 0,0.94609 0,0.94611 0,0.94595 -0.15781,0.94611 0,0.94611 0,0.94609 0,0.94611 0,0.9461 0,0.94596 0,0.9461 0.15781,0.9461 0,0.9461 0,0.94611 0,0.94595 0.15766,1.26142 0.15765,1.26143 0,1.26156 0.15766,1.26142 0.15766,1.26143 0.15766,1.41907 0.15766,1.26142 0.1578,1.26143 0.15767,1.26141 0.15766,1.26143 0.31532,1.26142 0.15766,1.26143 0.15765,1.26141 0.31547,1.26143 0.31531,1.26157 0.15766,1.26141 0.31533,1.26142 0.31546,1.26143 0.31532,1.26141 0.31532,1.26143 0.31531,1.26142 0.31548,1.26143 0.31531,1.26141 0.31532,1.26142 0.47312,1.57689 0.47298,1.57674 0.63079,1.57673 0.47297,1.57689 0.47298,1.41908 0.63079,1.57675 0.47298,1.57674 0.63078,1.57688 0.63064,1.41909 0.47312,1.57673 0.63064,1.41923 0.63079,1.57674 0.63063,1.57674 0.63078,1.41908 0.78845,1.57689 0.63063,1.41907 0.63078,1.57675 0.63065,1.41908 0.78844,1.41923 0.63063,1.57674 0.78845,1.41907 0.63078,1.41908 0.7883,1.57689 0.78844,1.41908 0.47298,1.10376 0.63079,1.10377 0.47297,1.10376 0.63078,1.10376 0.63065,1.10376 0.47312,1.10376 0.63063,1.10376 0.63079,1.10363 0.47298,1.10375 0.63078,0.94611 0.63063,1.10375 0.63079,1.10377 0.63064,1.10377 0.47313,1.10375 0.63063,1.10377 0.63078,1.10375 0.63065,0.94611 0.63078,1.10377 0.63063,1.10375 0.63079,1.10362 0.63064,0.9461 0.63078,1.10376 0.63079,1.10376 0.63063,1.10377 0.78844,1.10376 0.63064,1.10376 0.63078,1.10376 0.78844,1.10377 0.63065,1.26141 0.78843,1.10377 0.63065,1.10375 0.78844,1.10377 0.63063,1.10377 0.78845,1.10375 0.78844,1.26143 0.63063,1.10375 0.78845,1.10377 0.63078,1.10362 0.78831,1.10375 0.78843,1.10377 0.63065,1.10377 0.78844,1.10375 0.78845,1.10377 0.63063,1.10375 0.78844,1.26143 0.78845,1.10376 0.63063,1.10376 0.78844,1.10376 0.78845,1.10376 0.78829,1.10377 0.63079,1.26142 0.78829,1.10376 0.78844,1.10376 0.78845,1.10377 0.78829,1.26141 0.63079,1.10377 0.78844,1.10375 0.78831,1.26143 0.78843,1.10376 0.78844,1.10376 0.63065,1.10376 0.78844,1.26143 0.7883,1.10375 0.78844,1.10377 0.78845,1.26141 0.63063,1.10377 0.78844,1.10362 0.78845,1.26156 0.78829,1.10362 0.78845,1.10377 0.63078,1.10375 0.78829,1.26143 0.78845,1.26157 0.78844,1.10361 0.7883,1.26157 0.78844,1.26142 0.78845,1.26142 0.78829,1.10376 0.78844,1.26143 0.78845,1.26141 0.78829,1.26142 0.78845,1.26143 0.78844,1.10375 0.78829,1.26143 0.78845,1.26142 0.78844,1.26142 0.63064,1.26142 0.78844,1.26143 0.78831,1.26141 0.78843,1.10377 0.78844,1.26142 0.78831,1.26143 0.63078,1.26141 0.78844,1.26142 0.7883,1.26156 0.78845,1.26143 0.63078,1.10376 0.63063,1.26143 0.78845,1.10375 0.63063,1.26143 0.63078,1.10375 0.78845,1.10377 0.63064,1.26142 0.63079,1.10376 0.63063,1.26142 0.78844,1.10377 0.63064,1.26141 0.63078,1.10377 0.63064,1.26141 0.63079,1.10377 0.63063,1.26142 0.63078,1.10376 0.78845,1.26142 0.63063,1.10377 0.63078,1.26141 0.47299,1.26143 0.63078,1.10376 0.63063,1.26142 0.63079,1.26142 0.63064,1.10377 0.47312,1.10376 0.47299,0.94596 0.63078,1.10375 0.47297,0.94611 0.47299,0.94611 0.47312,1.10375 0.47298,0.94611 0.47312,1.10376 0.47297,0.9461 0.47299,1.10361 0.47312,0.94611 0.47298,1.10377 0.47313,0.94609 0.47297,1.10377 0.47298,1.10375 0.31546,0.94611 0.47299,1.10376 0.47312,0.94596 0.47297,1.10375 0.47298,1.10377 0.31546,0.94611 0.47299,1.10375 0.47297,0.94611 0.47313,1.10376 0.63064,1.7344 0.63078,1.57688 0.63063,1.7344 0.78845,1.73455 0.63078,1.7344 0.63064,1.7344 0.63079,1.73455 0.47297,1.57674 0.63078,1.73454 0.63065,1.7344 0.63078,1.73455 0.63063,1.7344 0.47313,1.73453 0.63064,1.7344 0.63078,1.73455 0.47298,1.7344 0.63078,1.73455 0.47298,1.7344 0.47297,1.7344 0.63079,1.73454 0.47298,1.7344 0.47312,1.73455 0.47299,1.7344 0.63078,1.8922 0.31531,1.57674 0.47298,1.57689 0.47313,1.57674 0.47298,1.57673 0.31531,1.57689 0.47313,1.57674 0.47298,1.73455 0.31546,1.57674 0.47298,1.57674 0.31532,1.57689 0.31531,1.57674 0.47314,1.7344 0.31531,1.57688 0.31532,1.57674 0.31546,1.57674 0.47298,1.73455 0.31533,1.57674 0.31546,1.57689 0.31532,1.7344 0.31531,1.57674 0.15766,1.57687 0.31546,1.7344 0.31532,1.57675 0.15767,1.57688 0.31532,1.26143 0.15766,1.26142 0.1578,1.26142 0.15766,1.26142 0.15766,1.26142 0.15766,1.26142 0.15766,1.26142 0.15765,1.26143 0.15766,1.26141 0.15767,1.41923 0.15781,1.26142 0,1.26143 0.15765,1.26141 0.15766,1.26143 0.15766,1.26142 0,1.26142 0.15766,1.26142 0,1.26143 0.15766,1.26141 0,1.26142 0.15766,1.26143 0,1.26157 0,1.41907 0.1578,1.26143 0,1.57674 0,1.57674 0.15766,1.57689 0,1.7344 0,1.57687 0,1.57674 0,1.7344 0,1.57689 0,1.57674 0,1.73455 -0.15766,1.57674 0,1.57674 0,1.57688 -0.1578,1.7344 0,1.57674 -0.15766,1.57689 0,1.7344 -0.15766,1.57689 -0.15766,1.57674 0,1.57674 -0.15766,1.73454 -0.15766,1.57675 -0.15765,1.57674 -0.15781,1.73454 -0.15767,1.57674 -0.15766,1.57688 -0.15765,1.7344 -0.31532,1.57674 -0.15766,1.57689 -0.15766,1.7344 -0.31546,1.57689 -0.15766,1.57674 -0.31533,1.7344 -0.31532,1.57689 -0.1578,1.57674 -0.31532,1.57673 -0.31531,1.73455 -0.31532,1.57674 -0.31546,1.57688 -0.31533,1.57675 -0.31532,1.57674 -0.31532,1.73454 -0.47312,1.57673 -0.31531,1.57675 -0.47314,1.57688 -0.31531,1.57674 -0.47298,1.57675 -0.47312,1.57688 -0.63064,2.36518 -0.63078,2.20753 -0.63064,2.20738 -0.78845,2.36518 -0.78844,2.20752 -0.63064,2.20752 -0.78844,2.20754 -0.94611,2.36518 -0.78829,2.20752 -0.78844,2.20752 -0.9461,2.20752 -0.94597,2.20753 -0.94609,2.04972 -0.9461,2.20752 -0.94611,2.20752 -0.94609,2.20752 -1.10377,2.04988 -0.94596,2.20752 -1.10376,2.20737 -1.10376,2.04987 -1.10376,2.04986 -1.10376,2.20752 -1.10377,2.04986 -1.10376,2.04973 -1.10376,1.89221 -0.9461,1.8922 -1.10376,1.89206 -1.10377,1.73454 -1.10376,1.89206 -1.10376,1.73455 -1.10376,1.89206 -1.10362,1.73454 -1.10376,1.89206 -1.26142,1.73455 -1.10376,1.7344 -1.26143,1.8922 -1.26156,1.7344 -1.10362,1.73455 -1.26157,1.7344 -1.26141,1.73453 -1.26143,1.57675 -1.26142,1.73454 -1.26142,1.7344 -1.41908,1.57674 -1.26142,1.73455 -1.41909,1.57674 -1.26141,1.73455 -1.41923,1.57674 -1.57674,1.73453 -1.57674,1.89206 -1.73455,1.73455 -1.57674,1.7344 -1.73455,1.8922 -1.7344,1.7344 -1.57673,1.57689 -1.73454,1.7344 -1.7344,1.7344 -1.89221,1.57689 -1.7344,1.7344 -1.73454,1.57687 -1.89206,1.7344 -1.73455,1.57675 -1.8922,1.57688 -1.7344,1.57674 -1.89221,1.57675 -1.89205,1.41922 -1.89221,1.57675 -1.89206,1.57674 -1.8922,1.41922 -2.04988,1.57674 -1.89204,1.41908 -1.89222,1.41908 -2.04986,1.41909 -2.04986,1.57687 -1.89206,1.41909 -2.04987,1.41908 -2.04986,1.41908 -2.04972,1.41922 -2.04986,1.41908 -2.04986,1.41909 -2.20753,1.26142 -2.04972,1.41907 -2.04986,1.26143 -2.20752,1.41923 -2.04987,1.26142 -2.20752,1.26142 -2.04973,1.26142 -2.20752,1.26143 -2.04986,1.26145 -2.20752,1.1037 -2.20752,1.2614 -2.20754,1.2615 -2.20752,1.1037 -2.20737,1.1038 -2.20752,1.2614 -2.20753,1.1038 -2.6805,1.2614 -2.68065,1.2614 -2.6805,1.4191 -2.83816,1.2614 -2.68067,1.1038 -2.83811,1.2614 -2.68054,1.2614 -2.83836,1.1038 -2.68041,1.1037 -2.83823,1.1038 -2.83823,1.1038 -2.83823,1.1037 -2.83823,1.1038 -2.83823,0.9461 -2.83836,0.9461 -2.8381,1.1038 -2.8381,0.9459 -2.83836,0.7885 -2.99579,0.9461 -2.83835,0.9461 -2.83811,0.7883 -2.99604,0.7884 -2.8381,0.7885 -2.99605,0.7882 -2.52285,0.7885 -2.52273,0.6308 -2.68055,0.6306 -2.52285,0.6308 -2.52286,0.6306 -2.68067,0.4732 -2.52286,0.6306 -2.68041,0.4731 -2.52286,0.6307 -2.68067,0.4729 -2.68054,0.4732 -2.52286,0.4729 -2.68042,0.6308 -2.52285,0.3153 -2.68067,0.473 -2.68054,0.4731 -2.52274,0.473 -2.68054,0.4731 -2.68067,0.3154 -2.52285,0.4729 -2.68055,0.3155 -2.68041,0.473 -2.52299,0.3153 -2.68054,0.3155 -2.36517,0.3153 -2.20749,0.3153 -2.36517,0.3153 -2.20761,0.3155 -2.36517,0.1577 -2.20735,0.3153 -2.36517,0.3153 -2.36517,0.1576 -2.20761,0.3155 -2.36517,0.3153 -2.20749,0.1577 -2.36517,0.1577 -2.20748,0.3154 -2.36517,0.1577 -2.3653,0.3153 -2.20748,0.1576 -2.36517,0.1577 -2.36517,0.1577 -2.20749,0.1576 -2.36517,0.1578 -2.20761,0.1577 -2.36517,0.1577 -2.36517,0.1576 -2.20748,0.1577 -3.15348,0.1576 -2.99604,0.1577 -2.99579,0.1578 -2.99592,0.1577 -2.99604,0.1576 -2.99579,0 -3.1536,0.1577 -2.99579,0 -2.99604,0 -2.99579,0.1576 -2.99605,0 -3.1536,0 -2.99579,0 -2.99591,0 -2.99592,0 -2.99592,-0.1576 -2.99579,0 -3.1536,-0.1577 -2.99604,0 -2.99579,-0.1576 -2.99592,-0.1577 -2.99591,-0.1578 -2.99592,-0.1577 -3.15347,-0.1576 -2.99605,-0.1577 -2.99591,-0.1576 -2.99579,-0.3154 -3.15361,-0.1578 -2.99591,-0.3153 -2.99592,-0.3153 -2.99579,-0.1577 -3.1536,-0.3153 -2.99604,-0.3154 -2.99579,-0.3154 -2.99604,-0.473 -2.99579,-0.3154 -2.99592,-0.3153 -3.15348,-0.473 -2.99604,-0.3155 -2.99591,-0.473 -2.99579,-0.4729 -2.99605,-0.3155 -2.99579,-0.473 -2.99591,-0.4731 -3.15348,-0.473 -2.99604,-0.473 -2.99579,-0.4731 -2.99592,-0.6306 -2.36517,-0.3155 -2.20761,-0.473 -2.36517,-0.4729 -2.36517,-0.3155 -2.36517,-0.473 -2.36517,-0.473 -2.20748,-0.4731 -2.3653,-0.473 -2.36517,-0.4731 -2.36517,-0.473 -2.20748,-0.6308 -2.36517,-0.4729 -2.20761,-0.473 -2.36517,-0.6308 -2.36517,-0.473 -2.20749,-0.6307 -2.36517,-0.6307 -2.20736,-0.6308 -2.36517,-0.6306 -2.20761,-0.6308 -2.20748,-0.7884 -2.36517,-0.6307 -2.20748,-0.7884 -2.20761,-0.6307 -1.73443,-0.6307 -1.73455,-0.6307 -1.57674,-0.6308 -1.73455,-0.4729 -1.7343,-0.6308 -1.57674,-0.6307 -1.73455,-0.6307 -1.57673,-0.7885 -1.73456,-0.6306 -1.57673,-0.6308 -1.73455,-0.6306 -1.57674,-0.7885 -1.73443,-0.6306 -1.57686,-0.7885 -1.57674,-0.6308 -1.73455,-0.7883 -1.57674,-0.6307 -1.73442,-0.7885 -1.57687,-0.7883 -1.57674,-0.7884 -1.57673,-0.6307 -1.73455,-0.7884 -1.57674,-0.7884 -1.57687,-0.7883 -1.57673,-0.7885 -1.73443,-0.7884 -1.57686,-0.7883 -1.57674,-0.7885 -1.57674,-0.7884 -1.57699,-0.7883 -1.57674,-0.7884 -1.57674,-0.7885 -1.57686,-0.7883 -1.57674,-0.7884 -1.57674,-0.7885 -1.57686,-0.9461 -1.57674,-0.7883 -1.57674,-0.7884 -1.57686,-0.9461 -1.57674,-0.78832 -1.41905,-0.94609 -1.57699,-0.78845 -1.57674,-0.9461 -1.57674,-0.94596 -1.41918,-0.78844 -1.57674,-0.94611 -1.57673,-0.94609 -1.41905,-0.94611 -1.73456,-0.94595 -1.57673,-1.10377 -1.57687,-1.10375 -1.73442,-1.10377 -1.57674,-1.10377 -1.57687,-1.10375 -1.57673,-1.10377 -1.73455,-1.10376 -1.57674,-1.10376 -1.57674,-1.10376 -1.57699,-1.26143 -1.41905,-1.10375 -1.57674,-1.26143 -1.57674,-1.10375 -1.57686,-1.26143 -1.419055,-1.26142 -1.576738,-1.26143 -1.419304,-1.26141 -1.576738,-1.26143 -1.419052,-1.26142 -1.419052,-1.26142 -1.419052,-1.26142 -1.419304,-1.41923 -1.419051,-1.26141 -1.576738,-1.41909 -1.419052,-1.57674 -1.576864,-1.41908 -1.419178,-1.41923 -1.419052,-1.57673 -1.419052,-1.41908 -1.419178,-1.57689 -1.419178,-1.57674 -1.419051,-1.41908 -1.261366,-1.57675 -1.419177,-1.57687 -1.261366,-1.57674 -1.419178,-1.57675 -1.261491,-1.73454 -1.261365,-1.57674 -1.419052,-1.57689 -1.261492,-1.57673 -1.261365,-1.7344 -1.261491,-1.57689 -1.261366,-1.7344 -1.103805,-1.73455 -1.261365,-1.57674 -1.261491,-1.7344 -1.103679,-1.73454 -0.946119,-1.26143 -0.946118,-1.26141 -0.946119,-1.41908 -0.788306,-1.26143 -0.946119,-1.26141 -0.946118,-1.41923 -0.788432,-1.26143 -0.945993,-1.41908 -0.788432,-1.26141 -0.788432,-1.41909 -0.946119,-1.41908 -0.788179,-1.26157 -0.788559,-1.41907 -0.788432,-1.41908 -0.945866,-1.26143 -0.788432,-1.41908 -0.788559,-1.41908 -0.78818,-1.41922 -0.630871,-1.41909 -0.788433,-1.26142 -0.788306,-1.41907 -0.788432,-1.41909 -0.630619,-1.41908 -0.788432,-1.41923 -0.788433,-1.7344 -0.788306,-1.73454 -0.788432,-1.57675 -0.788432,-1.7344 -0.788306,-1.73453 -0.788432,-1.57674 -0.788432,-1.73455 -0.630746,-1.7344 -0.788432,-1.73454 -0.630746,-1.7344 -0.788306,-1.73455 -0.630746,-1.7344 -0.630619,-1.73455 -0.630872,-1.7344 -0.63062,-1.73454 -0.630745,-1.7344 -0.63062,-1.7344 -0.630746,-1.89221 -0.630745,-1.73454 -0.47306,-1.7344 -0.630619,-1.73455 -0.473186,-1.89206 -0.630619,-1.73453 -0.473059,-1.7344 -0.47306,-1.57674 -0.315246,-1.41923 -0.473186,-1.57674 -0.315247,-1.57675 -0.473185,-1.41908 -0.315373,-1.57689 -0.472933,-1.41907 -0.315247,-1.57674 -0.315499,-1.57689 -0.315373,-1.41908 -0.315246,-1.57674 -0.315499,-1.57689 -0.315373,-1.41907 -0.315247,-1.57674 -0.315373,-1.57675 -0.315499,-1.57688 -0.315246,-1.41909 -0.315373,-1.57673 -0.315247,-1.57688 -0.157813,-1.57675 L 9.941908,791.78577 9.626662,790.20888 9.468975,788.63214 9.153602,787.0554 8.99579,785.79399 8.83823,784.53256 8.680543,783.11333 8.522857,781.85192 8.36517,780.59049 8.049924,779.32907 7.892111,777.91 l -0.1576864,-1.26143 -0.1576865,-1.26142 0,-1.26143 -0.1576864,-1.41907 -0.1575603,-1.26157 -0.1576864,-1.26142 -0.1576864,-1.26143 0,-1.41907 -0.1576864,-1.26142 0,-1.26143 -0.1578126,-1.41908 0,-1.26143 -0.1576865,-1.26141 0,-1.41923 -0.1575602,-1.26142 0,-1.26142 0,-1.26142 0,-1.57674 0,-1.41909 0,-1.41921 0,-1.57675 0,-1.41908 0,-1.41908 0.1575602,-1.57689 0,-1.41908 0,-1.41908 0.1576865,-1.57674 0,-1.41923 0.1578126,-1.41908 0.1576864,-1.57674 0,-1.41907 0.1576864,-1.41923 0.1576864,-1.41908 0.1575603,-1.57675 0,-1.41908 0.1576864,-1.41922 0.1576865,-1.57674 0.1576864,-1.41908 0.157813,-1.41908 0.15756,-1.57689 0.157686,-1.41909 0.157687,-1.41907 0.157686,-1.41908 0.157687,-1.57689 0.15756,-1.41908 0.315499,-1.41907 0.157686,-1.57675 0.157687,-1.41922 0.15756,-1.41909 0.157686,-1.57674 0.315373,-1.41907 0.157813,-1.41908 0.157686,-1.41923 0.315247,-1.57674 0.157687,-1.41909 0.315246,-1.41907 0.157813,-1.41923 0.315373,-1.57674 0.157686,-1.41908 0.315247,-1.41909 0.315373,-1.41921 0.315499,-1.41909 0.15756,-1.57674 0.315373,-1.41908 0.315373,-1.41923 0.315373,-1.57673 0.473059,-1.7344 0.315247,-1.57689 0.473185,-1.57674 0.315247,-1.73455 0.473059,-1.57674 0.315373,-1.57674 0.473059,-1.73455 0.473059,-1.57674 0.47306,-1.57674 0.315246,-1.73453 0.473186,-1.57675 0.472933,-1.57674 0.472933,-1.57688 0.630872,-1.57675 0.472933,-1.73454 0.473186,-1.57674 0.472933,-1.57675 0.630745,-1.57687 0.47306,-1.57674 0.472933,-1.57675 0.630746,-1.57688 0.473059,-1.57674 0.630746,-1.7344 0.630619,-1.73455 0.630746,-1.7344 0.630872,-1.73455 0.630619,-1.57674 0.630746,-1.73453 0.63062,-1.7344 0.630872,-1.73455 0.788179,-1.7344 0.630872,-1.73454 0.63062,-1.7344 0.788432,-1.73455 0.630746,-1.57674 0.788306,-1.7344 0.630872,-1.73455 0.788432,-1.57674 0.788306,-1.73455 0.788432,-1.7344 0.788432,-1.57674 0.788306,-1.73454 0.788432,-1.57673 0.788432,-1.73455 0.788306,-1.57674 0.788433,-1.73455 0.946118,-1.57674 0.788306,-1.57674 0.788432,-1.57689 0.788432,-1.57674 0.945993,-1.57674 0.788432,-1.41907 0.945992,-1.57689 0.788559,-1.57674 0.945866,-1.57674 0.788432,-1.41923 0.946119,-1.57673 0.946118,-1.57676 0.788306,-1.41921 0.946119,-1.57675 0.946119,-1.57674 0.946118,-1.41908 0.946119,-1.57689 0.78818,-1.41907 0.946118,-1.57674 0.946119,-1.57689 0.946118,-1.41908 0.945993,-1.57674 0.946118,-1.41909 0.946119,-1.57687 0.945992,-1.57674 0.946119,-1.57675 0.945992,-1.73454 1.103805,-1.57674 0.946119,-1.73455 1.103679,-1.57674 0.946118,-1.73455 1.103805,-1.57674 0.946119,-1.7344 0.945992,-1.73453 1.103679,-1.57675 0.946119,-1.73454 1.103679,-1.57674 0.946118,-1.7344 1.103805,-1.57689 0.946119,-1.7344 0.946119,-1.73455 1.103552,-1.57674 0.946119,-1.73454 1.103805,-1.57673 0.946118,-1.73442 0.946119,-1.57687 1.103679,-1.7344 0.946118,-1.57689 1.103805,-1.7344 0.63062,-1.10377 0.630746,-1.10375 0.788306,-1.10377 0.630745,-1.10375 0.630746,-1.10377 0.788432,-1.10376 0.630746,-1.10376 0.63062,-1.10377 0.788432,-1.10362 0.630619,-1.10375 0.630872,-1.10377 0.788306,-1.10375 0.630746,-1.10377 0.788432,-1.10375 0.630623,-1.10377 0.63074,-1.10377 0.78831,-1.10375 0.63087,-1.10377 0.63062,-1.10375 0.78843,-1.10377 0.63075,-1.26142 0.7883,-1.10376 0.63075,-1.10376 0.63062,-1.10377 0.78856,-1.10376 0.78843,-1.10376 0.63062,-1.10361 0.78843,-1.26157 0.63075,-1.10362 0.7883,-1.10376 0.78844,-1.26142 0.63061,-1.10377 0.78844,-1.10375 0.63087,-1.26143 0.7883,-1.10375 0.63075,-1.26143 0.78831,-1.10376 0.63074,-1.10376 0.78843,-1.26142 0.63062,-1.10377 0.78856,-1.26141 0.63062,-1.10377 0.63075,-1.26142 0.78843,-1.10376 0.63062,-1.26142 0.63074,-1.10377 0.63075,-1.26141 0.78843,-1.10377 0.63062,-1.41923 0.78843,-1.26141 0.63075,-1.26143 0.63062,-1.41908 0.78843,-1.26143 0.63075,-1.41907 0.63074,-1.26142 0.63062,-1.26143 0.63075,-1.41923 0.63087,-1.41907 0.63062,-1.26142 0.63075,-1.41909 0.63062,-1.26141 0.63087,-1.41908 0.63062,-1.41923 0.47306,-1.26143 0.63062,-1.41908 0.63087,-1.41907 0.47293,-1.41908 0.63075,-1.26143 0.47306,-1.41907 0.63074,-1.41923 0.47293,-1.41908 0.63062,-1.41909 0.63088,-1.57674 0.63074,-1.73454 0.63062,-1.7344 0.63075,-1.73455 0.47306,-1.7344 0.63074,-1.73455 0.63062,-1.7344 0.47319,-1.73453 0.63062,-1.7344 0.47293,-1.73455 0.63087,-1.7344 0.47293,-1.73454 0.47306,-1.7344 0.47306,-1.73455 0.63075,-1.7344 0.47293,-1.73454 0.47319,-1.7344 0.31537,-1.73441 0.47293,-1.8922 0.47306,-1.73455 0.47306,-1.7344 0.31525,-1.73454 0.47318,-1.89206 0.31525,-1.73455 0.31537,-1.41908 0.31538,-1.57673 0.31537,-1.41908 0.31537,-1.41923 0.15769,-1.57674 0.31525,-1.41909 0.31549,-1.57674 0.15769,-1.41922 0.31525,-1.41908 0.15768,-1.57674 0.31538,-1.41908 0.15781,-1.57688 0.15756,-1.41908 0.31537,-1.57675 0.15769,-1.41908 0.15769,-1.57689 0.15756,-1.41908 0.15781,-1.57673 0.15769,-1.41923 0.15768,-1.57674 0.15769,-1.57674 0,-1.41908 0.15756,-1.57689 0.15768,-1.41907 0,-1.57675 0.15769,-1.41922 0,-1.57675 0,-1.41908 0.15781,-1.57673 0,-1.41923 0,-1.57674 0,-1.41908 0,-1.57689 0,-1.41907 0,-1.57676 0,-1.41907 -0.15781,-1.57689 0,-1.41908 -0.15769,-1.57674 0,-1.41907 -0.15768,-1.57689 -0.15756,-1.41908 -0.15769,-1.41909 -0.15768,-1.57674 -0.15769,-1.41923 -0.15781,-1.57673 -0.15756,-1.41908 -0.15769,-1.57689 -0.31537,-1.57674 -0.31525,-1.7344 -0.3155,-1.73454 -0.31537,-1.57675 -0.31525,-1.73454 -0.31537,-1.57673 -0.3155,-1.7344 -0.47293,-1.57689 -0.47306,-1.7344 -0.31538,-1.73455 -0.47293,-1.57674 -0.47318,-1.57674 -0.47294,-1.73455 -0.47306,-1.57674 -0.47306,-1.73454 -0.47293,-1.57673 -0.47318,-1.57676 -0.63062,-1.73453 -0.47319,-1.57674 -0.63062,-1.57689 -0.47293,-1.7344 -0.63075,-1.57674 -0.63087,-1.57689 -0.47293,-1.57674 -0.63062,-1.57673 -0.63087,-1.73456 -0.63075,-1.57673 -0.47293,-1.57689 -0.63062,-1.57674 -0.63087,-1.57674 -0.63075,-1.57689 -0.63062,-1.57674 -0.63075,-1.57674 -0.63074,-1.57688 -0.63075,-1.57674 -0.63062,-1.57674 -0.63074,-1.41908 -0.78831,-1.57689 -0.63074,-1.57674 -0.63088,-1.57673 -0.63062,-1.57689 -0.63074,-1.57674 -0.63062,-1.57674 -0.63087,-1.57689 -0.78831,-1.57674 -0.63074,-1.57674 -0.63062,-1.57688 -0.63075,-1.41908 -0.63062,-1.73455 -0.78856,-1.7344 -0.63074,-1.7344 -0.78831,-1.57689 -0.63075,-1.7344 -0.78843,-1.73454 -0.63062,-1.7344 -0.78843,-1.57689 -0.63075,-1.7344 -0.63074,-1.7344 -0.78843,-1.73455 -0.63062,-1.57673 -0.63075,-1.73454 -0.7883,-1.7344 -0.63088,-1.73455 -0.63062,-1.7344 -0.78843,-1.57689 -0.63074,-1.7344 -0.63062,-1.7344 -0.78844,-1.73454 -0.63061,-1.7344 -0.63088,-1.57689 -0.63062,-1.7344 -0.78843,-1.73455 -0.63074,-2.04971 -0.78831,-1.89221 -0.78843,-2.04986 -0.78843,-1.89206 -0.78831,-2.04986 -0.63087,-1.89221 -0.78831,-2.04986 -0.78843,-2.04972 -0.63075,-1.8922 -0.7883,-2.04986 -0.63075,-2.04973 -0.63062,-1.89221 -0.63087,-2.04986 -0.78843,-2.04972 -0.63062,-2.04986 -0.63075,-1.8922 -0.473056,-2.04987 -0.630746,-2.04971 -0.630619,-2.04988 -0.47306,-2.04986 -0.630745,-2.04972 -0.472934,-2.04986 -0.473059,-2.04986 -0.473059,-2.04987 -0.315499,-1.26142 -0.15756,-1.26141 -0.315373,-1.41909 -0.315373,-1.26142 -0.15756,-1.26143 -0.315499,-1.26141 -0.157687,-1.41908 -0.315247,-1.26157 -0.157686,-1.26143 -0.157686,-1.41907 -0.157687,-1.26142 -0.157812,-1.26143 -0.157561,-1.41907 -0.157686,-1.26142 -0.157687,-1.26143 -0.157686,-1.41923 -0.157687,-1.26141 -0.15756,-1.26142 -0.157686,-1.41909 0,-1.26141 -0.157813,-1.41908 0,-1.26143 -0.157686,-1.26141 0,-1.41909 0,-1.41922 -0.157687,-1.57675 0,-1.41908 0,-1.57689 0,-1.41907 0,-1.57674 0,-1.41908 0,-1.57689 0.157687,-1.41908 0,-1.57675 0,-1.41907 0.157686,-1.57689 0,-1.41908 0.157813,-1.57674 0.157686,-1.41923 0.15756,-1.57673 0.157687,-1.41908 0.157686,-1.41909 0.157687,-1.57688 0.157686,-1.41909 0.157561,-1.57674 0.157812,-1.41907 0.315373,-1.57689 0.157686,-1.41908 0.315247,-1.57674 0.157687,-1.57689 0.315499,-1.57673 0.315246,-1.57674 0.315373,-1.57689 0.315247,-1.41908 0.315499,-1.57674 0.315373,-1.57675 0.472933,-1.57688 0.315499,-1.41908 0.472933,-1.57674 0.315373,-1.57688 0.473059,-1.41909 0.473059,-1.57674 0.47306,-1.41907 0.472933,-1.576894 0.630746,-1.419077 0.47306,-1.576738 0.63062,-1.419229 0.63087,-1.419076 0.47293,-1.576751 0.63075,-1.419077 0.78843,-1.419229 0.63062,-1.419077 0.47319,-1.103767 0.63062,-1.103754 0.63074,-1.103767 0.63075,-1.103616 0.63074,-1.103755 0.63062,-1.103767 0.63075,-1.103767 0.63062,-1.103755 0.78856,-0.946106 0.63062,-1.103754 0.78843,-1.103767 0.63074,-0.946106 0.78831,-0.946094 0.78843,-1.103615 0.78843,-0.946106 0.78831,-0.946106 0.94612,-0.946106 0.78843,-0.946094 0.94612,-0.945954 0.78831,-0.788445 0.94611,-0.946106 0.94612,-0.788445 0.94599,-0.788293 0.94612,-0.946106 0.78831,-0.472984 0.63087,-0.630783 0.78831,-0.630784 0.78843,-0.472971 0.78843,-0.630645 0.78831,-0.473122 0.78843,-0.472971 0.78843,-0.630784 0.94612,-0.472983 0.78831,-0.473123 0.78843,-0.315322 0.78843,-0.472971 0.94587,-0.473122 0.78856,-0.315323 0.94599,-0.472983 0.7883,-0.315462 0.94612,-0.315322 0.94612,-0.31531 0.78843,-0.315322 0.94612,-0.315461 0.94599,-0.157661 0.78844,-0.315323 0.94612,-0.157661 0.94611,-0.157661 0.78818,-0.1578 0.78856,-0.157661 0.78843,-0.157662 0.94587,0 0.78843,-0.157661 0.78856,0 0.78818,0 0.78856,0 0.78843,0 0.78831,0 0.94599,0 0.78856,0.157661 0.78843,0 0.78831,0.157662 0.78843,0 0.78843,0.157661 0.94587,0.1578 0.78855,0.157661 0.78844,0.315322 0.7883,0.157662 0.78844,0.157661 0.78843,0.315461 0.7883,0.157661 0.78844,0.31531 0.63074,0.315322 0.63062,0.157661 0.63075,0.315462 0.47306,0.157661 0.63074,0.315322 0.63062,0.315323 0.47319,0.315461 0.63062,0.315322 0.63074,0.31531 0.47306,0.315322 0.63075,0.315462 0.47293,0.315322 0.47306,0.315322 0.63074,0.473123 0.47294,0.315322 0.47318,0.472971 0.47294,0.315461 0.47318,0.472984 0.47294,0.472983 0.47293,0.473123 0.3155,0.472971 0.47293,0.473122 0.31537,0.472984 0.3155,0.472983 0.31525,0.473123 0.31537,0.315322 0.15769,0.472971 0.31537,0.473123 0.15769,0.315322 0.31537,0.472984 0.15769,0.473122 0.31524,0.472971 0.15769,0.473122 0.15781,0.472984 0.15769,0.472983 0.15756,0.473123 0.15769,0.472971 0.15768,0.473122 0.15769,0.472984 0.15769,0.472983 0.15781,0.473123 0.15756,0.472971 0,0.473122 0.15768,0.472984 0.15769,0.472983 0,0.473123 0.15769,0.472971 0.15756,0.630783 0,0.472984 0.15768,0.473122 0,0.472984 0.15769,0.472971 0,0.473122 0.15781,0.630645 0,0.473122 0.15769,0.472971 0,0.473135 0,0.472971 0.15769,0.472984 0,0.473122 0,0.630632 0.15756,0.473123 0,0.472983 0,0.473123 0,0.472983 0,0.472971 0.15768,0.630784 0,0.472984 0,0.473122 0,0.472984 0,0.472971 0,0.473122 0.15769,0.946106 0,0.945954 0,1.103768 0,0.946106 0,0.946093 0,0.946106 0,0.946106 0,0.945954 0,0.946106 0,0.946094 0,0.946106 0,0.946106 0,1.103754 0,0.945952 0,0.94611 0,0.9461 0,0.94611 0,0.94609 0.15769,0.94596 0,0.9461 0,0.94611 0,1.10376 0.15781,0.9461 0,0.94611 0.15756,1.10375 0,1.10362 0.15768,1.26156 0.15769,1.10363 0.15769,1.26156 0.15768,1.10363 0.15756,1.10375 0.15769,1.26143 0.15781,1.10375 0.15769,1.10377 0.31525,1.26142 0.15768,1.10376 0.31538,1.10376 0.15781,1.26143 0.31525,1.10375 0.31537,1.10377 0.15768,1.10375 0.31525,1.26143 0.3155,1.10376 0.31537,1.10376 0.31525,1.10377 0.3155,1.10375 0.31525,1.26143 0.31537,1.10376 0.31537,1.10376 0.31537,1.10376 0.47306,1.26143 0.31525,1.10375 0.3155,1.10377 0.47293,1.26142 0.31538,1.10376 0.47305,1.10376 0.31538,1.10376 0.47293,1.10377 0.47319,1.26142 0.47293,1.10376 0.31537,1.10376 0.47306,1.10377 0.47306,1.10361 0.47306,1.10376 0.47293,1.10376 0.47306,1.10377 0.63075,1.10376 0.47293,1.10376 0.47319,0.9461 0.63062,1.10376 0.47318,1.10377 0.63062,1.10375 0.63075,0.94611 0.47293,0.94596 0.63087,0.9461 0.63062,1.10376 0.47306,0.9461 0.63075,0.94611 0.63074,0.94609 0.63062,0.94597 0.63075,0.94609 0.63062,0.94611 0.78856,0.9461 0.63061,0.9461 0.63075,0.94596 0.78843,0.9461 0.63062,0.9461 0.63087,0.78845 0.78818,0.94595 0.78856,0.9461 0.63075,0.78844 0.7883,0.94611 0.78844,0.78829 0.63074,0.94611 0.78831,0.78844 0.78843,0.94611 0.63062,0.63063 0.63087,0.78844 0.63062,0.63064 0.78843,0.78844 0.63075,0.63078 0.63062,0.63065 0.63087,0.78843 0.78831,0.63065 0.63074,0.63078 0.63062,0.78844 0.78843,0.63064 0.63075,0.63078 0.63062,0.63064 0.78856,0.63079 0.63062,0.78829 0.78843,0.63079 0.63074,0.63063 0.78831,0.63078 0.63075,0.63078 0.78843,0.63065 0.63074,0.63078 0.78844,0.63064 0.63062,0.78844 0.78843,0.63064 0.63062,0.47313 0.63074,0.63063 0.63088,0.63078 0.7883,0.63065 0.63075,0.63078 0.63062,0.47297 0.78843,0.63079 0.63062,0.63064 0.63087,0.47312 0.78843,0.63064 0.63062,0.63078 0.63075,0.63064 0.7883,0.47313 0.63075,0.63063 0.63062,0.47312 0.78856,0.63065 0.63074,0.63078 0.78831,0.47297 0.63074,0.63078 0.78844,0.47299 0.63062,0.63078 0.78843,0.47297 1.41918,1.10377 0,0.15766" />
  </g>
</svg>
