<?xml version="1.0" encoding="UTF-8" standalone="no"?>
<!-- Created with Inkscape (http://www.inkscape.org/) -->

<svg
   xmlns:dc="http://purl.org/dc/elements/1.1/"
   xmlns:cc="http://creativecommons.org/ns#"
   xmlns:rdf="http://www.w3.org/1999/02/22-rdf-syntax-ns#"
   xmlns:svg="http://www.w3.org/2000/svg"
   xmlns="http://www.w3.org/2000/svg"
   xmlns:sodipodi="http://sodipodi.sourceforge.net/DTD/sodipodi-0.dtd"
   xmlns:inkscape="http://www.inkscape.org/namespaces/inkscape"
   width="210mm"
   height="297mm"
   viewBox="0 0 744.09448819 1052.3622047"
   id="svg2"
   version="1.1"
   inkscape:version="0.91 r13725"
   sodipodi:docname="razorback.svg">
  <defs
     id="defs4" />
  <sodipodi:namedview
     id="base"
     pagecolor="#ffffff"
     bordercolor="#666666"
     borderopacity="1.0"
     inkscape:pageopacity="0.0"
     inkscape:pageshadow="2"
     inkscape:zoom="0.58778251"
     inkscape:cx="474.54699"
     inkscape:cy="349.44416"
     inkscape:document-units="px"
     inkscape:current-layer="layer1"
     showgrid="false"
     inkscape:window-width="2048"
     inkscape:window-height="1100"
     inkscape:window-x="0"
     inkscape:window-y="24"
     inkscape:window-maximized="1" />
  <metadata
     id="metadata7">
    <rdf:RDF>
      <cc:Work
         rdf:about="">
        <dc:format>image/svg+xml</dc:format>
        <dc:type
           rdf:resource="http://purl.org/dc/dcmitype/StillImage" />
        <dc:title></dc:title>
      </cc:Work>
    </rdf:RDF>
  </metadata>
  <g
     inkscape:label="razorback"
     inkscape:groupmode="layer"
     id="layer1">
    <g
       id="g20237"
       transform="matrix(0,-0.45880707,0.45880707,0,253.66561,-169.92034)"
       style="stroke-width:10.89782684;stroke-miterlimit:4;stroke-dasharray:none" />
    <g
       style="stroke-width:10.89782715;stroke-miterlimit:4;stroke-dasharray:none"
       id="g20254"
       transform="matrix(0,-0.45880707,0.45880707,0,269.66561,-191.92035)">
      <path
         inkscape:connector-curvature="0"
         id="path4701"
         style="fill:none;stroke:#000000;stroke-width:10.89782715;stroke-linecap:round;stroke-linejoin:round;stroke-miterlimit:4;stroke-dasharray:none;stroke-opacity:1"
         d="m -687.53049,122.67313 -21.2982,-13.351 -14.2528,-10.8 -16.6491,-15.8982 -15,-16.5018 -17.2491,-22.951 -20.551,-30.7473 -15.1509,-26.1019 -12.6,-26.1018 -484.34801,-161.6985 -1.6528,-0.2981 -1.6491,0.2981 -1.4982,0.6 -1.3509,1.2 -0.7509,1.351 -0.4491,1.649 0,1.6491 0.6,1.6528 1.0491,1.3472 121.3511,117.6002" />
      <path
         inkscape:connector-curvature="0"
         id="path4703"
         style="fill:none;stroke:#000000;stroke-width:10.89782715;stroke-linecap:round;stroke-linejoin:round;stroke-miterlimit:4;stroke-dasharray:none;stroke-opacity:1"
         d="m -1209.2295,-41.57627 3.1473,0.7473 3.3018,0.3018 3.4491,-0.3018 3.1509,-0.7473 3.1509,-1.3509 2.6982,-1.9509 2.4,-2.2491 2.1018,-2.7018 1.4982,-3 0.9018,-3.151 0.4491,-3.4491 -0.1509,-3.2981 -0.6,-3.3019 -1.2,-3.1472 -1.8,-2.8528 -2.2491,-2.4" />
      <path
         inkscape:connector-curvature="0"
         id="path4705"
         style="fill:none;stroke:#000000;stroke-width:10.89782715;stroke-linecap:round;stroke-linejoin:round;stroke-miterlimit:4;stroke-dasharray:none;stroke-opacity:1"
         d="m -1209.2295,-41.57627 -1444.806,-508.5026 -1.6564,-0.3019 -1.8037,0.151 -1.4724,0.7509 -1.362,1.2 -0.9202,1.3509 -0.2945,1.8 0.1472,1.6491 0.6258,1.6491 1.1779,1.2 311.5588,271.8004" />
      <path
         inkscape:connector-curvature="0"
         id="path4707"
         style="fill:none;stroke:#000000;stroke-width:10.89782715;stroke-linecap:round;stroke-linejoin:round;stroke-miterlimit:4;stroke-dasharray:none;stroke-opacity:1"
         d="m -2359.5933,-243.32747 3.0184,0 2.6871,-0.4528 2.6871,-0.8981 2.5767,-1.6491 2.0982,-1.9509 1.6564,-2.2491 1.178,-2.7019 0.6257,-2.6981 0,-2.8528 -0.4785,-2.8491 -1.0307,-2.6981 -1.5092,-2.4 -1.9509,-2.1019" />
      <path
         inkscape:connector-curvature="0"
         id="path4709"
         style="fill:none;stroke:#000000;stroke-width:10.89782715;stroke-linecap:round;stroke-linejoin:round;stroke-miterlimit:4;stroke-dasharray:none;stroke-opacity:1"
         d="m -2359.5933,-243.32747 -49.951,-6.6 -1.6564,0 -1.7669,0.6 -1.362,1.2 -1.0675,1.3509 -0.4417,1.8 0.1472,1.8 0.6258,1.6491 1.1779,1.3472 439.0682,391.6534" />
      <path
         inkscape:connector-curvature="0"
         id="path4711"
         style="fill:none;stroke:#000000;stroke-width:10.89782715;stroke-linecap:round;stroke-linejoin:round;stroke-miterlimit:4;stroke-dasharray:none;stroke-opacity:1"
         d="m -1974.8197,285.87333 5.3743,-5.2527 4.9693,-5.6982 4.4908,-6.1509 3.9018,-6.4491 3.4602,-6.9019 2.8343,-7.0491 2.0982,-7.2 1.6564,-7.3509 0.9203,-7.4982 0.2945,-7.6491 -0.2945,-7.5018 -0.9203,-7.6491 -1.6564,-7.3509 -2.0982,-7.2001 -2.8343,-7.049 -3.4602,-6.751 -3.9018,-6.6 -4.4908,-6 -4.9693,-5.6982 -5.3743,-5.4" />
      <path
         inkscape:connector-curvature="0"
         id="path4713"
         style="fill:none;stroke:#000000;stroke-width:10.89782715;stroke-linecap:round;stroke-linejoin:round;stroke-miterlimit:4;stroke-dasharray:none;stroke-opacity:1"
         d="m -1974.8197,285.87333 -490.5284,437.5517 -1.0306,1.3472 -0.7362,1.6491 0,1.8037 0.4417,1.6491 1.0306,1.4981 1.362,1.0528 1.6565,0.7472 1.8036,0 48.4418,-6.4491" />
      <path
         inkscape:connector-curvature="0"
         id="path4715"
         style="fill:none;stroke:#000000;stroke-width:10.89782715;stroke-linecap:round;stroke-linejoin:round;stroke-miterlimit:4;stroke-dasharray:none;stroke-opacity:1"
         d="m -2400.8204,752.22133 1.951,-2.0981 1.6196,-2.4 0.9202,-2.6982 0.4418,-2.8528 0,-2.849 -0.589,-2.6982 -1.2147,-2.7019 -1.6565,-2.249 -2.0981,-1.951 -2.5399,-1.649 -2.6871,-0.9019 -2.724,-0.4491 -2.9816,0" />
      <path
         inkscape:connector-curvature="0"
         id="path4717"
         style="fill:none;stroke:#000000;stroke-width:10.89782715;stroke-linecap:round;stroke-linejoin:round;stroke-miterlimit:4;stroke-dasharray:none;stroke-opacity:1"
         d="m -2400.8204,752.22133 -258.7734,225.7524 -1.1779,1.3502 -0.6258,1.5 -0.1472,1.8 0.2945,1.6495 0.9202,1.4996 1.362,1.0509 1.4724,0.7495 1.8037,0.1494 1.6564,-0.2992 1218.6056,-428.8517" />
      <path
         inkscape:connector-curvature="0"
         id="path4719"
         style="fill:none;stroke:#000000;stroke-width:10.89782715;stroke-linecap:round;stroke-linejoin:round;stroke-miterlimit:4;stroke-dasharray:none;stroke-opacity:1"
         d="m -1375.7316,558.57193 -7.2,-2.249 -7.4982,-1.6491 -7.5018,-0.9019 -7.6491,-0.2981 -7.6491,0.2981 -7.5019,0.9019 -7.3472,1.6491 -7.351,2.249" />
      <path
         inkscape:connector-curvature="0"
         id="path4721"
         style="fill:none;stroke:#000000;stroke-width:10.89782715;stroke-linecap:round;stroke-linejoin:round;stroke-miterlimit:4;stroke-dasharray:none;stroke-opacity:1"
         d="m -1375.7316,558.57193 881.25048,310.2016 1.6528,0.2993 1.649,-0.2993 1.6491,-0.7505 1.2,-1.0495 0.9019,-1.5 0.449,-1.6505 -0.1509,-1.8004 -0.7509,-1.4996 -1.0491,-1.3502 -241.64937,-210.6007" />
      <path
         inkscape:connector-curvature="0"
         id="path4723"
         style="fill:none;stroke:#000000;stroke-width:10.89782715;stroke-linecap:round;stroke-linejoin:round;stroke-miterlimit:4;stroke-dasharray:none;stroke-opacity:1"
         d="m -719.02869,622.92303 -2.8528,0 -2.8491,0.449 -2.6981,1.0491 -2.4,1.5019 -2.1019,1.9509 -1.6491,2.2491 -1.2,2.6981 -0.7509,2.8528 0,2.8491 0.4528,2.8491 1.0491,2.5509 1.4981,2.5509 1.951,2.0982" />
      <path
         inkscape:connector-curvature="0"
         id="path4725"
         style="fill:none;stroke:#000000;stroke-width:10.89782715;stroke-linecap:round;stroke-linejoin:round;stroke-miterlimit:4;stroke-dasharray:none;stroke-opacity:1"
         d="m -719.02869,622.92303 24.6,3.2981 1.8,0 1.6491,-0.6 1.3509,-1.2 1.0491,-1.3472 0.4491,-1.8 0,-1.8 -0.7509,-1.6528 -1.0491,-1.3472 -117.2983,-104.702" />
      <path
         inkscape:connector-curvature="0"
         id="path4727"
         style="fill:none;stroke:#000000;stroke-width:10.89782715;stroke-linecap:round;stroke-linejoin:round;stroke-miterlimit:4;stroke-dasharray:none;stroke-opacity:1"
         d="m -733.88149,315.42063 -7.9472,0.3019 -7.951,1.049 -7.8,1.5019 -7.6491,1.9472 -7.5018,2.551 -7.3473,3.1509 -7.0528,3.6 -6.7509,4.2 -6.4491,4.5018 -6.1472,5.0982 -5.8528,5.4 -5.4,5.8491 -4.9509,6.1509 -4.4982,6.6001 -4.0491,6.7509 -3.4528,7.0491 -3.1472,7.3509 -2.4,7.6491 -1.9509,7.6491 -1.5019,7.8 -0.8981,7.8 -0.2982,7.951 0.2982,7.9509 0.7509,7.9509 1.3509,7.7963 1.9473,7.6528 2.4,7.6491 3,7.3509 3.4527,7.0491 4.0491,6.9019 4.3509,6.6 4.9473,6.1472 5.4,6.0001 5.7019,5.4" />
      <path
         style="fill:none;stroke:#000000;stroke-width:10.89782715;stroke-linecap:round;stroke-linejoin:round;stroke-miterlimit:4;stroke-dasharray:none;stroke-opacity:1"
         d="m -685.81295,123.14221 -48.06182,192.27152"
         id="path20235"
         inkscape:connector-curvature="0" />
    </g>
  </g>
</svg>
