<?xml version="1.0" encoding="UTF-8" standalone="no"?>
<!-- Created with Inkscape (http://www.inkscape.org/) -->

<svg
   xmlns:dc="http://purl.org/dc/elements/1.1/"
   xmlns:cc="http://creativecommons.org/ns#"
   xmlns:rdf="http://www.w3.org/1999/02/22-rdf-syntax-ns#"
   xmlns:svg="http://www.w3.org/2000/svg"
   xmlns="http://www.w3.org/2000/svg"
   xmlns:sodipodi="http://sodipodi.sourceforge.net/DTD/sodipodi-0.dtd"
   xmlns:inkscape="http://www.inkscape.org/namespaces/inkscape"
   width="210mm"
   height="297mm"
   viewBox="0 0 744.09448819 1052.3622047"
   id="svg2"
   version="1.1"
   inkscape:version="0.91 r13725"
   sodipodi:docname="RG.svg">
  <defs
     id="defs4">
    <clipPath
       id="clipPath4171"
       clipPathUnits="userSpaceOnUse">
      <path
         inkscape:connector-curvature="0"
         id="path4173"
         d="m 0,0 1.4297,0 0,1 L 0,1 0,0 Z" />
    </clipPath>
    <clipPath
       id="clipPath4187"
       clipPathUnits="userSpaceOnUse">
      <path
         inkscape:connector-curvature="0"
         id="path4189"
         d="m 142.9763,900.0357 1143.8104,0 0,-800.0715 -1143.8104,0 0,800.0715 z" />
    </clipPath>
  </defs>
  <sodipodi:namedview
     id="base"
     pagecolor="#ffffff"
     bordercolor="#666666"
     borderopacity="1.0"
     inkscape:pageopacity="0.0"
     inkscape:pageshadow="2"
     inkscape:zoom="0.7"
     inkscape:cx="104.50191"
     inkscape:cy="441.44123"
     inkscape:document-units="px"
     inkscape:current-layer="layer1"
     showgrid="false"
     inkscape:window-width="2048"
     inkscape:window-height="1100"
     inkscape:window-x="0"
     inkscape:window-y="24"
     inkscape:window-maximized="1">
    <inkscape:grid
       type="xygrid"
       id="grid5964" />
  </sodipodi:namedview>
  <metadata
     id="metadata7">
    <rdf:RDF>
      <cc:Work
         rdf:about="">
        <dc:format>image/svg+xml</dc:format>
        <dc:type
           rdf:resource="http://purl.org/dc/dcmitype/StillImage" />
        <dc:title></dc:title>
      </cc:Work>
    </rdf:RDF>
  </metadata>
  <g
     inkscape:label="RG"
     inkscape:groupmode="layer"
     id="layer1">
    <g
       id="g5966"
       style="stroke-width:26.03256798;stroke-miterlimit:4;stroke-dasharray:none"
       transform="matrix(0,-0.19206711,0.19206711,0,377.39046,-158.42827)">
      <path
         d="m -1978.4023,-308.20515 -5.0004,-5.0004 -5.0004,-6.251 -5.0004,-4.9993 -5.0004,-5.0004 -5.0003,-5.0004 -3.7498,-5.0004 -5.0004,-6.2499 -5.0003,-5.0004 -5.0004,-5.0004 -4.9994,-5.0003 -5.0003,-5.0004 -5.0004,-6.25 -5.0004,-5.0004 -3.7508,-5.0003 -4.9993,-5.0004 -5.0004,-5.0004 -5.0004,-6.2499 -5.0004,-5.0004 -5.0003,-5.0004 -5.0004,-5.0004 -5.0004,-5.0004 -5.0004,-5.0003 -4.9993,-4.9994 -5.0004,-6.251 -3.7508,-3.7497 -3.7498,-3.7508 -5.0003,-3.7498 -3.7498,-3.7497 -3.7508,-3.7509 -3.7498,-3.7497 -3.7508,-5.0004 -4.9993,-3.7498 -3.7508,-3.7508 -3.7498,-3.7497 -3.7508,-3.7508 -3.7497,-3.7498 -3.7509,-5.0004 -3.7497,-3.7497 -3.7498,-3.7508 -3.7508,-3.7498 -3.7497,-5.0004 -3.7509,-3.7497 -3.7497,-5.0004 -2.5002,-3.7508 -3.7498,-5.0004 -3.7508,-3.7498 -2.5002,-5.0003 -3.7497,-5.0004 -2.5002,-3.7498 -3.7498,-5.0004 -2.5002,-5.0003 -2.5001,-5.0004 -2.5002,-5.0004 -2.5002,-5.0004 -2.5002,-4.9993 -2.5002,-5.0004 -2.5002,-5.0004 -2.5002,-5.0003 -1.2496,-5.0004 -2.5001,-6.25 -1.2507,-5.0004 -2.5002,-5.0003 -1.2495,-6.25 -1.2506,-5.0004 -1.2496,-5.0003 -1.2506,-6.251 -1.2496,-4.9994 -1.2506,-6.251 0,-5.0003 -1.2496,-6.25 0,-5.0004 -1.2496,-6.2499 0,-6.251 0,-7.4995 0,-7.5006 0,-7.5006 0,-6.2499 1.2496,-7.5006 0,-7.5006 1.2496,-6.2499 1.2506,-7.5006 1.2496,-7.5005 1.2506,-6.25 2.5002,-7.5006 1.2495,-7.5005 2.5002,-6.25 2.5002,-7.5006 2.5002,-6.2499 2.5002,-7.5006 2.5002,-6.251 2.5002,-6.2499 3.7497,-6.25 2.5002,-7.5005 3.7508,-6.25 2.5002,-6.2509 3.7498,-6.25 6.2499,-8.7501 6.251,-8.7512 6.25,-8.7502 6.2499,-8.7501 7.5006,-8.7512 6.251,-8.7501 7.4995,-7.5006 7.5006,-7.4995 7.5006,-7.5006 8.7501,-7.5006 7.5006,-7.5005 8.7501,-7.5006 8.7512,-6.2499 8.7501,-7.5006 8.7502,-6.25 8.7501,-6.251 8.7512,-6.2499 8.7501,-6.25 10.0008,-6.251 8.7501,-6.2499 10.0008,-6.25 8.7501,-5.0003 10.0008,-6.251 10.0007,-4.9994 7.4996,-5.00025 7.5005,-5.0004 8.7512,-3.7508 7.4995,-4.9994 7.5006,-3.7508 8.7501,-5.0003 7.5006,-3.7498 7.5006,-3.7508 8.7501,-4.9993 7.5006,-3.7508 7.5006,-3.7498 8.7501,-3.7508 7.5006,-3.7498 8.7501,-3.7497 7.5006,-3.7508 8.7501,-3.7498 7.5006,-3.7508 8.7512,-3.7498 7.4995,-3.7497 8.7512,-3.7508 7.5005,-3.7498 8.7502,-2.5002 7.5006,-3.7508 8.7501,-3.7498 3.7498,-1.2506 3.7508,-1.2495 3.7497,-1.2496 5.0004,-2.5002 3.7498,-1.2506 3.7508,-1.2496 3.7497,-1.2506 3.7508,-2.5002 3.7498,-1.2496 3.7498,-1.2506 5.0003,-1.2496 3.7508,-1.2506 3.7498,-1.2496 3.7508,-2.5001 3.7498,-1.2496 3.7497,-1.2506 3.7508,-1.2496 5.0004,-1.2506 3.7498,-1.2496 3.7497,-2.5002 3.7508,-1.2506 3.7498,-1.2496 5.0004,-1.2506 3.7508,-1.2496 6.2499,-2.5002 6.25,-2.5001 6.251,-2.5002 4.9993,-1.2496 6.251,-2.5002 6.25,-2.5002 6.2499,-1.2506 6.251,-2.5002 6.25,-2.5002 6.251,-1.2496 6.2499,-2.5001 6.25,-1.2507 6.251,-1.2495 6.2499,-2.5002 6.25,-1.2496 6.251,-1.2506 6.2499,-1.2496 7.5006,-1.2506 6.2499,0 6.25,-1.2496 6.251,-1.2506 6.2499,0 12.501,0 0,1.2506"
         style="fill:none;stroke:#000000;stroke-width:26.03256798;stroke-linecap:round;stroke-linejoin:round;stroke-miterlimit:4;stroke-dasharray:none;stroke-opacity:1"
         id="path4223"
         inkscape:connector-curvature="0" />
      <path
         d="m -2069.6566,1353.1273 -6.251,-1.2496 -6.25,-1.2506 -6.2499,-1.2496 -7.5006,0 -6.251,-1.2506 -6.2499,0 -6.25,-1.2496 -7.5006,-1.2506 -6.2499,0 -6.251,-1.2496 -6.25,0 -7.5005,-1.2506 -6.25,0 -6.251,-1.2496 -6.2499,-1.2506 -7.5006,0 -6.2499,-1.2495 -6.251,-1.2507 -6.25,0 -6.2499,-1.2495 -7.5006,-1.2496 -6.25,-1.2506 -6.251,-1.2496 -6.2499,-1.2506 -10.0008,-1.2496 -10.0007,-2.5002 -11.2503,-2.5002 -10.0008,-2.5002 -9.9997,-3.7508 -10.0008,-2.4991 -8.7501,-3.7508 -10.0008,-3.7498 -10.0007,-3.7508 -10.0008,-3.7497 -9.9997,-3.7508 -8.7512,-4.9994 -9.9997,-3.7508 -10.0007,-5.0004 -8.7502,-3.7497 -10.0007,-5.0004 -10.0008,-5.0004 -8.7501,-5.0004 -8.7512,-5.0003 -9.9997,-4.9994 -8.7512,-6.251 -9.9997,-5.0003 -8.7512,-6.25 -8.7502,-5.0004 -10.0007,-6.2499 -9.9997,-6.251 -8.7512,-6.25 -9.9997,-6.2499 -8.7512,-6.251 -9.9997,-6.25 -8.7512,-6.2499 -8.7501,-7.5006 -10.0008,-6.2499 -8.7501,-6.251 -8.7502,-7.5006 -8.7512,-7.4995 -7.4995,-7.5006 -8.7512,-6.251 -8.7501,-7.4995 -7.5006,-7.5006 -8.7501,-8.7512 -7.5006,-7.4995 -7.5006,-7.5006 -7.5005,-8.7501 -7.4995,-7.5006 -7.5006,-8.7511 -6.251,-8.7502 -6.25,-8.7501 -5.0003,-6.25 -5.0004,-7.5005 -5.0004,-7.5006 -4.9993,-6.25 -5.0004,-7.5005 -3.7508,-7.5006 -5.0004,-6.2499 -3.7498,-7.5006 -5.0003,-7.50065 -3.7498,-7.5006 -3.7508,-7.5005 -5.0004,-7.4995 -3.7497,-7.5006 -3.7498,-7.5006 -3.7508,-7.5005 -3.7498,-8.7502 -3.7508,-7.5006 -3.7497,-7.5005 -3.7498,-7.5006 -3.7508,-7.4995 -3.7498,-7.5006 -3.7508,-8.7512 -3.7497,-7.4995 -3.7498,-7.5006 -2.5002,-5.0003 -2.5002,-5.0004 -2.5002,-3.7498 -2.5002,-5.0004 -1.2506,-5.0003 -2.5002,-5.0004 -2.5002,-3.7498 -2.4991,-5.0003 -1.2506,-5.0004 -2.5002,-5.0004 -2.5002,-3.7498 -1.2496,-5.0003 -2.5002,-5.0004 -1.2506,-5.0004 -2.5002,-5.0004 -1.2495,-3.7497 -1.2507,-5.0004 -2.4991,-5.0004 -1.2506,-5.0004 -1.2496,-5.0004 -1.2506,-5.0003 -1.2496,-5.0004 -1.2506,-4.9993 -1.2496,-5.0004 -1.2506,-8.7512 -1.2495,-9.9997 -1.2507,-10.0008 0,-8.7501 0,-10.0008 0,-10.0007 1.2507,-10.0008 0,-9.9997 1.2495,-8.7512 2.5002,-9.9997 1.2506,-10.0008 2.5002,-10.0007 2.5002,-8.7502 2.4991,-10.0007 3.7509,-10.0008 2.5001,-8.7501 3.7498,-10.0008 5.0004,-8.7501 3.7497,-8.7501 5.0004,-8.7512 3.7508,-8.7502 6.25,-8.7501 5.0004,-7.5006 5.0003,-8.7501 2.5002,-3.7508 3.7498,-3.7498 2.5002,-3.7508 2.5002,-3.7498 3.7508,-2.5001 2.4991,-3.7498 3.7508,-3.7508 2.5002,-3.7498 3.7498,-2.5002 2.5002,-3.7497 3.7508,-3.7508 2.4991,-2.5002 3.7508,-3.7498 3.7498,-3.7508 2.5002,-2.5002 3.7508,-3.7497 3.7497,-2.5002 3.7498,-2.5002 3.7508,-3.7498 2.5002,-2.5002 3.7498,-2.5002 3.7508,-3.7508 3.7497,-2.4991 3.7498,-2.5002 3.7508,-2.5002 3.7498,-2.5002 2.5001,-3.7508 3.7509,-2.5002 3.7497,-2.5002 3.7498,-2.5001 3.7508,-2.4992 3.7497,-2.5002 2.5002,-1.2506 3.7508,-2.5002 3.7498,-2.5002 3.7498,-2.5002 3.7508,-2.5002 3.7497,-2.5001 3.7508,-2.5002 3.7498,-2.4992 3.7498,-1.2506 3.7508,-2.5002 3.7497,-2.5002 3.7508,-2.5002 3.7498,-1.2495 3.7498,-2.5002 3.7508,-2.5002 3.7497,-2.5002 5.0004,-2.5002 5.0004,-2.5002 6.2499,-2.5002 5.0004,-3.7497 5.0004,-2.5002 5.0004,-2.5002 5.0003,-2.5002 6.25,-2.5002 5.0004,-3.7497 5.0004,-2.5002 5.0003,-2.5002 6.25,-2.5002 5.0004,-2.5002 5.0003,-2.5002 6.25,-2.5002 5.0004,-2.5002 5.0003,-2.5002 5.0004,-2.5002 6.25,-2.5001 5.0004,-1.2496 6.2499,-2.5002 5.0004,-2.5002 11.2514,-5.0004 0,1.2496"
         style="fill:none;stroke:#000000;stroke-width:26.03256798;stroke-linecap:round;stroke-linejoin:round;stroke-miterlimit:4;stroke-dasharray:none;stroke-opacity:1"
         id="path4357"
         inkscape:connector-curvature="0" />
      <path
         d="m -1784.6424,1404.3796 1.2496,-1.2496 1.2496,-1.2506 1.2506,-1.2496 0,0 1.2496,-1.2506 1.2506,-1.2496 1.2495,0 1.2507,-1.2495 0,-1.2507 1.2495,-1.2495 1.2507,-1.2506 1.2495,0 0,-1.2496 1.2506,-1.2506 0,-1.2496 1.2496,-1.2506 0,-1.2496 1.2506,0 0,-1.2506 1.2496,-1.2496 0,-1.2506 0,-1.2496 0,-1.2506 1.2506,-1.2496 0,-1.2495 0,0 0,-1.2507 0,-1.2495 0,-1.2506 0,0 0,-1.2496 -1.2506,-1.2506 0,0 0,-1.2496 0,-1.2506 0,-1.2496 -1.2496,0 0,-1.2506 0,-1.2496 -1.2506,0 0,-1.2506 0,-1.2496 -1.2496,0 0,-1.2506 -1.2506,0 0,-1.2496 0,0 -1.2495,-1.2506 -1.2507,-1.2495 -1.2495,0 0,-1.2496 -1.2507,0 0,0 -1.2495,-1.2506 0,0 -1.2506,0 -1.2496,0 0,-1.2496 -1.2506,0 0,0 -1.2496,0 0,0 -1.2496,0 -1.2506,-1.2506 0,0 -1.2496,0 0,0 -1.2506,0 -1.2495,0 0,1.2506"
         style="fill:none;stroke:#000000;stroke-width:26.03256798;stroke-linecap:round;stroke-linejoin:round;stroke-miterlimit:4;stroke-dasharray:none;stroke-opacity:1"
         id="path4359"
         inkscape:connector-curvature="0" />
      <path
         d="m -1789.6427,1353.1273 -280.0139,0 0,1.2506"
         style="fill:none;stroke:#000000;stroke-width:26.03256798;stroke-linecap:round;stroke-linejoin:round;stroke-miterlimit:4;stroke-dasharray:none;stroke-opacity:1"
         id="path4517"
         inkscape:connector-curvature="0" />
      <path
         d="m -1977.3315,-304.35771 0,613.5542 0,1.73886"
         style="fill:none;stroke:#000000;stroke-width:26.03256798;stroke-linecap:round;stroke-linejoin:round;stroke-miterlimit:4;stroke-dasharray:none;stroke-opacity:1"
         id="path4533"
         inkscape:connector-curvature="0" />
      <path
         d="m -2452.9397,342.68655 471.1167,-29.21833 0,1.04314"
         style="fill:none;stroke:#000000;stroke-width:26.03256798;stroke-linecap:round;stroke-linejoin:round;stroke-miterlimit:4;stroke-dasharray:none;stroke-opacity:1"
         id="path4559"
         inkscape:connector-curvature="0" />
      <path
         d="m -2502.1789,-1410.7603 -12.4999,3.7497 -12.501,3.7508 -13.7505,5.0004 -12.5009,3.7498 -12.501,5.0004 -12.4999,3.7497 -13.7515,3.7508 -12.4999,5.0004 -13.7506,3.7498 -12.5009,3.7497 -12.501,5.0004 -13.7505,3.7508 -12.5009,3.7498 -12.4999,3.7497 -13.7505,5.0004 -12.501,3.7508 -13.7505,3.7498 -12.501,3.7508 -12.5009,3.7498 -13.7505,3.7497 -12.501,2.5002 -13.7505,3.7508 -12.4999,3.7498 -13.7515,3.7508 -9.9998,2.4991 -10.0007,2.5002 -11.2503,2.5002 -10.0008,2.5002 -10.0008,2.5002 -10.0007,2.5002 -11.2503,1.2506 -10.0008,2.5002 -9.9997,2.4991 -11.2514,1.2506 -9.9997,2.5002 -10.0008,2.5002 -11.2503,1.2496 -10.0007,2.5002 -11.2504,1.2506 -10.0007,2.5002 -10.0008,1.2496 -11.2503,1.2506 -10.0008,1.2495 -11.2503,2.5002 -10.0008,1.2496 -11.2503,1.2506 -10.0007,1.2496 -11.2504,1.2506 -8.7501,0 -10.0008,1.2496 -8.7501,1.2506 -10.0008,1.2496 -8.7501,0 -10.0008,1.2506 -8.7501,0 -10.0008,0 -8.7501,1.2496 -10.0008,0 -8.7501,0 -10.0008,0 -8.7501,0 -10.0007,0 -8.7502,0 -10.0007,0 -8.7502,0 -10.0007,-1.2496 -8.7502,0 -10.0007,-1.2506 -8.7512,-1.2496 -9.9997,0 -8.7512,-1.2506 -8.7502,-1.2496 -7.5005,-1.2506 -7.4996,-1.2496 -6.2509,-1.2506 -7.5006,-1.2496 -7.4995,-1.2495 -7.5006,-1.2507 -6.251,-2.5001 -7.4995,-1.2496 -6.251,-1.2506 -7.5006,-2.5002 -7.4995,-1.2496 -6.251,-2.5002 -7.5006,-1.2506 -7.4995,-2.5002 -6.251,-1.2496 -7.5006,-2.5002 -6.2499,-1.2495 -7.5006,-2.5002 -6.2499,-2.5002 -7.5006,-2.5002 -7.5006,-1.2506 -6.2499,-2.5002 -7.5006,-2.5002 -6.2499,-2.5002 -30.0013,-9.9997 -30.0022,-10.0007 -28.7506,-10.0008 -30.0023,-11.2503 -28.7517,-11.2504 -30.0012,-11.2503 -28.7516,-11.2514 -28.7507,-11.2503 -30.0022,-12.5009 -28.7506,-12.4999 -28.7517,-11.2514 -28.7516,-12.4999 -28.7517,-12.501 -28.7517,-12.5009 -28.7506,-11.2503 -28.7516,-12.501 -28.7517,-12.4999 -30.0012,-12.5009 -28.7516,-12.501 -28.7517,-11.2503 -28.7517,-12.4999 -28.7506,-11.2514 -58.7528,-23.7513 0,1.2507"
         style="fill:none;stroke:#000000;stroke-width:26.03256798;stroke-linecap:round;stroke-linejoin:round;stroke-miterlimit:4;stroke-dasharray:none;stroke-opacity:1"
         id="path4681"
         inkscape:connector-curvature="0" />
      <path
         d="m -1062.1065,-1161.9983 2.5002,0 3.7498,-1.2496 2.5002,0 2.5001,-1.2506 2.5002,-1.2495 3.7498,-1.2507 2.5002,-1.2495 2.5002,-1.2507 2.5002,-1.2495 2.5001,-1.2506 2.5002,-2.4992 2.5002,-1.2506 2.5002,-2.5002 2.5002,-1.2496 2.5002,-2.5002 2.5002,-2.5001 2.5002,-2.5002 1.2495,-1.2507 2.5002,-2.5001 1.2496,-2.5002 2.5002,-2.4992 1.2506,-2.5002 1.2496,-2.5002 1.2506,-2.5001 5.0004,-8.7512 2.50021,-8.7502 2.5002,-8.7501 0,-8.7501 0,-8.7512 -2.5002,-8.7502 -2.50021,-10.0007 -3.7508,-8.7502 -3.7498,-8.7501 -5.0004,-8.7512 -6.2499,-8.7501 -6.251,-8.7502 -7.5006,-8.7501 -7.4995,-8.7512 -8.7512,-8.7501 -8.7501,-8.7502 -8.7502,-7.5005 -10.0007,-8.7502 -10.0008,-7.5006 -9.9997,-7.5005 -10.0008,-7.5006 -10.0007,-7.5006 -10.0008,-7.4995 -9.9997,-6.251 -16.2517,-10.0007 -15.0001,-8.7502 -15.0012,-8.7501 -15,-8.7501 -15.0012,-7.5006 -13.7505,-7.5006 -15.0011,-6.2499 -15.0012,-6.251 -13.7505,-5.0004 -15.0001,-6.25 -13.7505,-5.0003 -13.7516,-5.0004 -15.0001,-3.7498 -13.7505,-3.7508 -13.7515,-4.9993 -13.7506,-2.5002 -15,-3.7508 -13.7516,-3.7498 -13.7505,-2.5002 -15.0001,-3.7497 -13.7505,-2.5002 -13.7516,-3.7508 -15.0001,-2.5002 -15.0011,-2.5002 -8.7502,-2.5002 -10.0007,-2.5002 -10.0008,-1.2496 -8.7501,-2.5001 -10.0008,-1.2496 -9.9997,-2.5002 -10.0007,-1.2506 -10.0008,-2.5002 -10.0008,-1.2496 -9.9997,-2.5002 -10.0007,-1.2506 -10.0008,-1.2496 -10.0007,-2.5001 -9.9997,-1.2507 -10.0008,-1.2495 -10.0008,-1.2496 -10.0007,-1.2506 -10.0008,-1.2496 -9.9997,-1.2506 -10.0007,-1.2496 -10.0008,-1.2506 -10.0008,0 -9.9997,-1.2496 -10.0007,0 -18.7509,-1.2506 -17.5014,0 -18.7509,0 -18.7508,1.2506 -17.5003,1.2496 -18.7509,1.2506 -18.7509,1.2496 -17.5013,2.5002 -18.7509,2.5002 -17.5014,2.5002 -18.7509,2.5001 -17.5002,3.7498 -18.7509,2.5002 -17.5014,3.7508 -18.7509,3.7498 -17.5002,3.7497 -18.7509,3.7508 -17.5014,5.0004 -18.7509,3.7498 -17.5013,3.7508 -18.7509,4.9993 -17.5003,3.7508 -17.5013,5.0004 -18.7509,3.7498 -13.7505,3.7497 -15.0011,3.7508 -13.7506,3.7498 -15,2.5002 -13.7506,3.7508 -15.0011,3.7497 -15.0011,3.7498 -13.7506,2.5002 -15.0011,3.7508 -13.7505,3.7498 -15.0001,3.7508 -13.7505,3.7497 -13.7516,3.7498 -15.0001,3.7508 -13.7505,3.7498 -15.0011,3.7508 -13.7505,3.7497 -15.0012,3.7498 -13.7505,3.7508 -13.7505,3.7497 -15.0012,3.7509 -13.7505,5.0003 -28.7516,8.7502 0,1.2495"
         style="fill:none;stroke:#000000;stroke-width:26.03256798;stroke-linecap:round;stroke-linejoin:round;stroke-miterlimit:4;stroke-dasharray:none;stroke-opacity:1"
         id="path4683"
         inkscape:connector-curvature="0" />
      <path
         d="m -1554.6312,-1161.9983 492.5247,0 0,1.2506"
         style="fill:none;stroke:#000000;stroke-width:26.03256798;stroke-linecap:round;stroke-linejoin:round;stroke-miterlimit:4;stroke-dasharray:none;stroke-opacity:1"
         id="path4729"
         inkscape:connector-curvature="0" />
      <path
         d="m -2488.4284,1523.136 8.7512,1.2495 9.9997,1.2507 8.7512,2.5001 8.7501,1.2496 8.7502,1.2506 8.7511,1.2496 9.9998,1.2506 8.7511,1.2496 8.7502,1.2506 8.7501,2.5002 8.7502,1.2496 8.7511,1.2495 9.9998,1.2507 8.7511,1.2495 8.7502,0 8.7501,1.2506 8.7512,1.2496 9.9997,1.2506 8.7512,1.2496 8.7501,0 8.7502,1.2506 8.7512,0 9.9997,1.2496 8.7512,0 12.4999,1.2506 12.5009,0 12.501,0 12.4999,0 12.5009,0 12.501,0 12.4999,0 12.5009,-1.2506 12.5009,-1.2496 12.4999,0 12.501,-1.2506 12.5009,-2.5002 12.501,-1.2496 11.2503,-1.2506 12.4999,-2.5002 12.501,-1.2495 12.5009,-2.5002 12.501,-2.5002 12.4999,-3.7498 12.5009,-2.5002 11.2503,-3.7508 12.501,-2.5002 12.5009,-3.7497 12.4999,-3.7498 8.7502,-2.5002 8.7512,-3.7508 8.7501,-2.5002 8.7501,-3.7497 8.7512,-3.7498 8.7502,-3.7508 8.7501,-3.7498 7.5006,-3.7508 8.7501,-3.7497 8.7512,-3.7498 7.4995,-5.0004 8.7512,-3.7508 7.4995,-5.0003 8.7512,-5.0004 7.5006,-4.9994 7.4995,-5.0003 7.5006,-5.0004 7.5005,-5.0004 7.5006,-6.2499 7.5006,-5.0004 6.2499,-6.251 7.5006,-6.25 12.5009,-12.5009 0,1.2506"
         style="fill:none;stroke:#000000;stroke-width:26.03256798;stroke-linecap:round;stroke-linejoin:round;stroke-miterlimit:4;stroke-dasharray:none;stroke-opacity:1"
         id="path4735"
         inkscape:connector-curvature="0" />
      <path
         d="m -6197.3636,-53.193146 1.2507,16.2507 1.2495,17.5013 1.2506,17.5012996 1.2496,17.5003004 0,16.2507 1.2506,17.5013 0,17.5003 0,17.5013 0,16.250796 0,17.5013 -1.2506,17.5003 0,17.5013 0,17.5003 -1.2496,16.2507 0,17.5013 0,17.5013 -1.2506,17.5003 0,16.2507 -1.2495,17.5013 0,17.5003 0,17.5013 0,17.5003 -1.2507,16.2518 0,17.5002 0,20.0016 0,20.0004 1.2507,18.7509 0,20.0015 1.2495,20.0005 0,18.7509 1.2506,20.0015 1.2496,20.0005 1.2506,18.7509 1.2496,20.0015 1.2506,20.0005 2.5002,18.7509 1.2496,20.0015 2.5002,20.0004 1.2506,18.7509 2.5002,20.0016 2.4991,18.7509 2.5002,20.0004 2.5002,18.7509 2.5002,20.0015 2.5002,20.0016 2.5002,18.7509 3.7508,20.0004 2.4991,18.7509 1.2506,11.2503 2.5002,12.501 2.5002,11.2503 1.2496,12.501 2.5002,11.2503 2.5002,11.2503 1.2506,12.501 2.5002,11.2503 2.5002,11.2503 2.4991,12.501 2.5002,11.2503 2.5002,11.2514 2.5002,12.4999 2.5002,11.2514 2.5002,11.25035 2.5001,11.2503 3.7509,12.501 2.4991,11.2503 3.7508,11.2503 2.5002,11.2503 3.7498,11.2514 3.7508,12.4999 2.5001,11.2503 3.7498,11.2514 6.25,18.7509 6.251,17.5003 7.4995,18.7509 6.251,17.5013 7.5005,18.7509 8.7502,17.5013 7.5006,17.5003 8.7501,17.5013 8.7501,17.5003 8.7512,17.5014 8.7502,17.5002 10.0007,16.2507 9.9997,17.5014 10.0008,16.2507 11.2503,16.2507 11.2514,15.0011 11.2503,16.2507 11.2503,15.0012 12.501,15 12.4999,13.7506 12.5009,15.0011 13.7506,13.7505 12.5009,13.7505 15.0011,12.501 7.4996,7.5006 8.7511,7.5005 8.7502,6.25 8.7501,7.5005 8.7512,6.25 8.7501,7.5006 8.7502,6.2499 8.7501,6.251 8.7512,6.25 9.9997,6.2499 8.7512,6.251 9.9997,6.25 8.7512,5.0003 9.9997,6.25 10.0008,5.0004 8.7512,6.2499 9.9997,5.0004 10.0007,5.0004 10.0008,5.0003 10.0007,5.0004 9.9998,5.0004 10.0007,5.0004 10.0008,5.0004 10.0007,4.9993 16.2507,6.251 16.2507,6.2499 15.0001,6.251 16.2507,6.25 16.2518,6.2499 16.2507,6.251 16.2507,4.9994 16.2507,5.0003 16.2507,5.0004 16.2507,5.0004 17.5014,3.7498 16.2507,5.0003 16.2507,3.7508 17.5002,3.7498 16.2508,3.7508 16.2517,3.7498 17.5003,2.5002 16.2507,3.7497 17.5013,2.5002 17.5003,2.5002 16.2507,1.2506 17.5013,2.5002 16.2507,1.2496 17.5014,2.5002 35.0016,2.5002 36.2512,1.2495 36.2522,1.2507 35.0016,0 36.2522,-1.2507 36.2512,-2.5002 35.0026,-2.4991 36.2512,-2.5002 35.0016,-5.0004 36.2522,-5.0003 36.2512,-5.0004 35.0027,-6.25 35.0016,-7.5005 36.2512,-7.5006 35.0016,-7.5006 35.0026,-8.7501 35.0016,-10.0008 35.0016,-10.0007 35.0016,-9.9997 33.7521,-11.2514 35.0016,-11.2503 33.752,-11.2504 33.751,-12.5009 33.752,-12.4999 23.7513,-10.0008 23.7513,-8.7501 23.7512,-10.0008 22.5007,-8.7501 23.7513,-10.0008 23.7512,-10.0007 22.5007,-10.0008 22.5017,-9.9997 23.7513,-10.0008 22.5006,-11.2503 22.5017,-10.0007 23.7503,-10.0008 22.5017,-11.2503 22.5006,-10.0008 22.5017,-11.2503 23.7513,-10.0008 22.5007,-10.0007 22.5017,-11.2504 22.5006,-10.0007 22.5007,-11.2503 23.7513,-10.0008 22.5017,-9.9997 22.5006,-11.2514 23.7513,-9.9997 6.251,-2.5002 6.25,-3.7508 7.5005,-2.5002 6.25,-2.5002 7.5005,-3.7497 6.25,-2.5002 7.5006,-2.5002 6.2499,-3.7498 7.5006,-2.5002 6.251,-2.5002 6.2499,-3.7508 7.5006,-2.4991 6.2499,-2.5002 7.5006,-3.7508 6.25,-2.5002 7.5005,-2.5002 6.25,-3.7497 7.5005,-2.5002 6.251,-2.5002 7.4996,-3.7498 6.251,-2.5002 7.4995,-2.5002 6.251,-2.5001 7.5005,-3.7509 5.0004,-1.2495 4.9994,-2.5002 5.0003,-2.5002 6.251,-2.5002 5.0004,-1.2496 4.9993,-2.5002 5.0004,-2.5001 6.251,-1.2507 4.9993,-2.5002 5.0004,-2.5001 5.0004,-1.2496 6.251,-2.5002 4.9993,-1.2496 5.0004,-2.5002 5.0004,-2.5002 6.251,-1.2506 4.9993,-1.2495 5.0004,-2.5002 6.251,-1.2506 5.0004,-2.5002 6.2499,-1.2496 5.0004,-1.2506 5.0004,-1.2496 6.2499,-2.5002 12.501,-2.5002 13.7505,-3.7497 12.5009,-2.5002 13.7506,-2.5002 12.4999,-1.2506 13.7515,-2.5002 13.7505,-1.2496 12.4999,-1.2506 13.7516,-1.2496 13.7505,0 13.7505,-1.2496 13.7506,0 12.5009,0 13.7505,1.2496 13.7505,0 13.7506,1.2496 13.7505,1.2506 12.5009,2.5002 13.7505,1.2496 13.7506,2.5002 12.5009,1.2506 13.7505,3.7497 13.7505,2.5002 12.501,2.5002 12.5009,3.7498 12.4999,3.7508 11.2514,2.5002 12.4999,3.7497 12.501,5.0004 11.2503,3.7498 12.5009,3.7508 11.2504,5.0004 12.5009,5.0003 11.2503,3.7498 11.2504,5.0004 12.5009,5.0004 11.2503,5.0003 11.2504,6.25 11.2514,5.0004 12.4999,5.0003 11.2513,5.0004 11.2504,6.25 11.2503,5.0003 11.2503,6.25 11.2503,5.0004 11.2514,6.2499 12.4999,5.0004 11.2514,6.251 8.7501,5.0004 10.0008,3.7497 9.9997,5.0004 10.0008,5.0004 10.0007,5.0004 10.0008,4.9993 8.7501,5.0004 10.0008,3.7508 9.9997,5.0004 10.0007,4.9993 10.0008,5.0004 10.0008,3.7508 9.9997,5.0004 10.0007,5.0003 10.0008,3.7498 10.0007,5.0004 9.9997,3.7497 10.0008,5.0004 10.0008,3.7498 10.0007,5.0004 10.0008,3.7508 9.9997,3.7497 10.0007,5.0004 10.0008,3.7498 8.7501,3.7508 8.7502,2.5002 8.7512,3.7497 8.7501,3.7508 8.7501,2.5002 10.0008,3.7498 8.7501,2.5002 8.7512,3.7497 8.7502,2.5002 8.7501,2.5002 10.0008,2.5002 8.7501,3.7508 8.7501,2.4992 8.7512,2.5001 9.9997,2.5002 8.7512,2.5002 8.7502,1.2506 10.0007,2.5002 8.7502,2.5002 10.0007,1.2496 8.7502,2.5002 8.7501,1.2506 18.7509,3.7498 0,1.2495"
         style="fill:none;stroke:#000000;stroke-width:26.03256798;stroke-linecap:round;stroke-linejoin:round;stroke-miterlimit:4;stroke-dasharray:none;stroke-opacity:1"
         id="path4737"
         inkscape:connector-curvature="0" />
      <path
         d="m -5659.8365,-1533.2665 -6.2499,5.0004 -5.0004,5.0004 -6.2499,5.0004 -5.0004,4.9993 -5.0004,5.0004 -6.2499,5.0004 -5.0004,6.2499 -6.251,5.0004 -5.0004,5.0004 -4.9993,5.0003 -6.251,5.0004 -5.0004,5.0004 -5.0004,5.0004 -6.2499,6.2499 -5.0004,5.0004 -5.0004,5.0004 -6.2499,5.0004 -5.0004,5.0004 -5.0004,6.2499 -6.2499,5.0004 -5.0004,5.0004 -5.0004,6.2499 -5.0004,5.0004 -5.0004,5.0004 -11.2503,12.4999 -11.2503,12.5009 -11.2503,11.2503 -11.2504,12.501 -11.2514,12.5009 -9.9997,13.7506 -11.2513,12.5009 -9.9997,12.4999 -10.0008,13.7505 -10.0008,12.501 -10.0007,13.7505 -9.9997,13.7515 -8.7512,12.4999 -9.9997,13.7506 -8.7512,13.7515 -8.7502,15.0001 -8.7501,13.7505 -8.7512,13.7506 -8.7501,13.7515 -7.5006,15.0001 -8.7501,15.0011 -7.5006,13.7506 -7.5006,15.0011 -7.4995,15.0001 -7.5006,15.0011 -6.251,16.2507 -7.4995,16.2507 -6.251,15.0012 -6.2499,16.2507 -6.25,16.25065 -6.251,16.2507 -6.2499,16.2507 -5.0004,16.2507 -5.0004,16.2507 -6.2499,16.2507 -5.0004,17.5014 -3.7508,16.2507 -4.9993,16.2507 -3.7508,17.5013 -5.0004,16.2507 -3.7498,17.5003 -3.7497,16.2517 -3.7509,17.5003 -3.7497,16.2507 -3.7508,17.5013 -2.5002,16.2507 -3.7498,17.5003 -2.5002,17.5013 -3.7497,26.2515 -3.7508,26.2515 -3.7498,26.2514 -3.7508,26.2504 -2.5002,26.2515 -2.5002,26.2515 -2.4991,26.2514 -2.5002,27.5011 -2.5002,26.2514 -2.5002,26.2515 -2.5002,26.2515 -1.2506,26.2514 -2.5002,27.5011 -1.2496,26.2514 -2.5001,26.2515 -1.2496,26.2515 -2.5002,26.2504 -1.2506,27.5021 -2.5002,26.2514 -2.5002,26.2504 -1.2496,26.2515 -2.5002,26.2515 -6.251,53.752504 0,1.2506"
         style="fill:none;stroke:#000000;stroke-width:26.03256798;stroke-linecap:round;stroke-linejoin:round;stroke-miterlimit:4;stroke-dasharray:none;stroke-opacity:1"
         id="path4763"
         inkscape:connector-curvature="0" />
      <path
         d="m -4156.0107,-1593.27 -15.0012,-5.0003 -15.0011,-6.25 -15.0001,-6.2499 -13.7505,-6.251 -15.0012,-4.9994 -15.0011,-6.251 -15.0001,-6.2499 -15.0011,-6.25 -15.0012,-5.0003 -15,-6.251 -15.0012,-5.0004 -15.0011,-6.25 -15.0001,-5.0003 -15.0011,-6.25 -15.0001,-5.0004 -15.0012,-5.0004 -15.0011,-6.2499 -16.2507,-5.0004 -15.0001,-5.0004 -15.0011,-5.0003 -15.0012,-5.0004 -15.0001,-5.0004 -16.2507,-4.9993 -15.0011,-3.7508 -21.2511,-6.25 -21.2511,-6.251 -21.2511,-4.9993 -22.5006,-6.251 -21.2511,-5.0004 -21.2511,-5.0004 -22.5017,-3.7497 -21.2511,-5.0004 -21.2511,-3.7498 -22.5006,-3.7508 -21.2511,-3.7497 -22.5017,-3.7498 -22.5007,-2.5002 -21.2511,-2.5002 -22.5006,-2.5002 -22.5017,-1.2506 -21.2511,-2.5002 -22.5007,-1.2495 -22.5017,0 -21.2511,-1.2507 -22.5006,0 -22.5017,0 -22.5007,1.2507 -21.2511,0 -10.0007,1.2495 -10.0008,0 -9.9997,1.2506 -10.0007,1.2496 -10.0008,0 -11.2503,1.2506 -10.0008,1.2496 -10.0007,1.2506 -9.9998,1.2496 -10.0007,1.2506 -10.0008,1.2496 -8.7501,1.2506 -10.0008,2.4991 -10.0007,1.2507 -9.9997,2.5002 -10.0008,1.2495 -10.0008,2.5002 -10.0007,2.5002 -9.9997,1.2506 -10.0008,2.5002 -8.7501,2.5002 -10.0008,3.7498 -10.0008,2.5001 -10.0007,2.5002 -17.5003,5.0004 -16.2507,6.25 -17.5013,6.2499 -17.5003,7.5006 -16.2518,6.251 -17.5002,7.4995 -16.2507,8.7512 -17.5014,7.4995 -16.2507,8.7512 -16.2507,8.7501 -16.2507,8.7502 -15.0011,8.7512 -16.2507,9.9997 -16.2507,10.0007 -15.0012,10.0008 -15.0001,10.0007 -15.0011,11.2504 -15.0001,11.2503 -15.0011,10.0008 -15.0012,11.2503 -15.0001,12.5009 -13.7505,11.2504 -27.5021,23.7512 0,1.2496"
         style="fill:none;stroke:#000000;stroke-width:26.03256798;stroke-linecap:round;stroke-linejoin:round;stroke-miterlimit:4;stroke-dasharray:none;stroke-opacity:1"
         id="path4775"
         inkscape:connector-curvature="0" />
    </g>
  </g>
</svg>
