<?xml version="1.0" encoding="UTF-8" standalone="no"?>
<!-- Created with Inkscape (http://www.inkscape.org/) -->

<svg
   xmlns:dc="http://purl.org/dc/elements/1.1/"
   xmlns:cc="http://creativecommons.org/ns#"
   xmlns:rdf="http://www.w3.org/1999/02/22-rdf-syntax-ns#"
   xmlns:svg="http://www.w3.org/2000/svg"
   xmlns="http://www.w3.org/2000/svg"
   xmlns:sodipodi="http://sodipodi.sourceforge.net/DTD/sodipodi-0.dtd"
   xmlns:inkscape="http://www.inkscape.org/namespaces/inkscape"
   width="210mm"
   height="297mm"
   viewBox="0 0 744.09448819 1052.3622047"
   id="svg2"
   version="1.1"
   inkscape:version="0.91 r13725"
   sodipodi:docname="rhoads.svg">
  <defs
     id="defs4">
    <clipPath
       id="clipPath4171"
       clipPathUnits="userSpaceOnUse">
      <path
         inkscape:connector-curvature="0"
         id="path4173"
         d="m 0,0 0,14670 11002,0 L 11002,0 0,0 Z" />
    </clipPath>
  </defs>
  <sodipodi:namedview
     id="base"
     pagecolor="#ffffff"
     bordercolor="#666666"
     borderopacity="1.0"
     inkscape:pageopacity="0.0"
     inkscape:pageshadow="2"
     inkscape:zoom="0.7"
     inkscape:cx="288.15295"
     inkscape:cy="506.34837"
     inkscape:document-units="px"
     inkscape:current-layer="layer1"
     showgrid="false"
     inkscape:window-width="2048"
     inkscape:window-height="1100"
     inkscape:window-x="0"
     inkscape:window-y="24"
     inkscape:window-maximized="1" />
  <metadata
     id="metadata7">
    <rdf:RDF>
      <cc:Work
         rdf:about="">
        <dc:format>image/svg+xml</dc:format>
        <dc:type
           rdf:resource="http://purl.org/dc/dcmitype/StillImage" />
        <dc:title></dc:title>
      </cc:Work>
    </rdf:RDF>
  </metadata>
  <g
     inkscape:label="rhoads"
     inkscape:groupmode="layer"
     id="layer1">
    <g
       id="g18053"
       transform="matrix(0,-0.50607104,0.50607104,0,81.904868,-629.81324)"
       style="stroke-width:9.88003581;stroke-miterlimit:10;stroke-dasharray:none">
      <path
         inkscape:connector-curvature="0"
         id="path4641"
         style="fill:none;stroke:#000000;stroke-width:9.88003581;stroke-linecap:round;stroke-linejoin:round;stroke-miterlimit:10;stroke-dasharray:none;stroke-opacity:1"
         d="m -1315.2325,583.91124 -67.8008,-4.9501 m 67.8008,199.9481 -67.8008,4.9531" />
      <path
         inkscape:connector-curvature="0"
         id="path9609"
         style="fill:none;stroke:#000000;stroke-width:9.88003581;stroke-linecap:round;stroke-linejoin:round;stroke-miterlimit:10;stroke-dasharray:none;stroke-opacity:1"
         d="m -1437.4824,527.36254 0.8981,5.6981 1.6521,5.551 2.0996,5.3978 2.5502,5.2505 3.148,4.8 3.6014,4.6498 4.0491,4.1993 4.3495,3.7517 4.8,3.3011 5.1003,2.8505 5.2506,2.3971 5.5509,1.8022 5.6982,1.1985 5.7011,0.751" />
      <path
         inkscape:connector-curvature="0"
         id="path9611"
         style="fill:none;stroke:#000000;stroke-width:9.88003581;stroke-linecap:round;stroke-linejoin:round;stroke-miterlimit:10;stroke-dasharray:none;stroke-opacity:1"
         d="m -1437.4824,527.36254 -1839.3114,-674.4035 -1.649,-0.4476 -1.7964,0.1473 -1.7963,0.4535 -1.5018,1.0483 -1.2074,1.2015 -0.7362,1.6491 -0.4417,1.649 0,1.7993 0.4417,1.8022 1.0602,1.4989 1.1779,1.1985 40.6675,29.8514 39.9019,29.4007 32.6871,24.4476 27.0037,20.1012 22.3509,16.9502 19.2,14.70029962 17.1093,13.20150038 16.3435,12.5978 15.6074,12.1502 15.1362,11.8498 14.5473,11.5495 13.9583,11.4022 13.6343,11.0989 13.2221,10.9487 12.8982,10.9517 12.6037,10.7985 12.2797,10.9517 12.4565,11.2491 12.4564,11.5494 12.751,12.0001 12.8981,12.4505 13.4872,13.2015 14.1055,13.9495 14.8417,14.8505 15.3129,15.5986 15.9019,16.3524 16.3435,17.0974 16.4909,17.5509 16.6675,17.9986 16.638,18.452 16.6675,18.5993 16.3436,18.8996 16.3435,19.3502 16.1964,19.6506 16.1963,20.1011 16.1963,20.8491 16.5203,21.4498 16.638,22.348 16.8148,23.2521 17.227,24.3004 17.1092,24.6007 16.8147,24.5978 16.3436,24.0001 15.1362,22.8014 13.9583,20.8491 12.3092,18.5993 10.3362,15.7517 8.0982,12.3004 6.1546,9.2996 4.5055,6.8996 3.0037,4.4997 1.9436,3.0007 1.0601,1.6491 0.5889,0.7509 0.2945,0.4506" />
      <path
         inkscape:connector-curvature="0"
         id="path9613"
         style="fill:none;stroke:#000000;stroke-width:9.88003581;stroke-linecap:round;stroke-linejoin:round;stroke-miterlimit:10;stroke-dasharray:none;stroke-opacity:1"
         d="m -2457.6422,749.21104 1.2073,-4.3495 0.589,-4.3494 0,-4.5026 -0.4417,-4.4996 -1.0601,-4.3495 -1.4724,-4.1992 -2.1203,-3.8989" />
      <path
         inkscape:connector-curvature="0"
         id="path9615"
         style="fill:none;stroke:#000000;stroke-width:9.88003581;stroke-linecap:round;stroke-linejoin:round;stroke-miterlimit:10;stroke-dasharray:none;stroke-opacity:1"
         d="m -2457.6422,749.21104 -1.3546,4.0491 -33.7473,105.0023 -47.2344,125.9986 -54.3019,120.75096 -50.562,106.9488 -28.5055,53.5507 -4.1816,7.4998 -0.9129,2.1005 -0.2945,2.2501 0.2945,2.2498 0.7657,2.2501 1.1779,1.799 1.8257,1.5001 1.9436,1.0504 2.238,0.4497 2.2675,0 2.2381,-0.5993 1228.5035,-450.60076" />
      <path
         inkscape:connector-curvature="0"
         id="path9617"
         style="fill:none;stroke:#000000;stroke-width:9.88003581;stroke-linecap:round;stroke-linejoin:round;stroke-miterlimit:10;stroke-dasharray:none;stroke-opacity:1"
         d="m -1383.0333,783.86234 -5.7011,0.748 -5.6982,1.2015 -5.5509,1.9494 -5.2506,2.2499 -5.1003,2.8505 -4.8,3.2982 -4.3495,3.9018 -4.0491,4.0491 -3.6014,4.6498 -3.148,4.9502 -2.5502,5.1004 -2.0996,5.4007 -1.6521,5.548 -0.8981,5.7011" />
      <path
         inkscape:connector-curvature="0"
         id="path9619"
         style="fill:none;stroke:#000000;stroke-width:9.88003581;stroke-linecap:round;stroke-linejoin:round;stroke-miterlimit:10;stroke-dasharray:none;stroke-opacity:1"
         d="m -1383.0333,783.86234 67.8008,-4.9531" />
      <path
         inkscape:connector-curvature="0"
         id="path17957"
         d="m -1314.8912,777.73185 0,-192.67007"
         style="fill:none;stroke:#000000;stroke-width:9.88003581;stroke-linecap:round;stroke-linejoin:round;stroke-miterlimit:10;stroke-dasharray:none;stroke-opacity:1" />
    </g>
  </g>
</svg>
