<?xml version="1.0" encoding="UTF-8" standalone="no"?>
<!-- Created with Inkscape (http://www.inkscape.org/) -->

<svg
   xmlns:dc="http://purl.org/dc/elements/1.1/"
   xmlns:cc="http://creativecommons.org/ns#"
   xmlns:rdf="http://www.w3.org/1999/02/22-rdf-syntax-ns#"
   xmlns:svg="http://www.w3.org/2000/svg"
   xmlns="http://www.w3.org/2000/svg"
   xmlns:sodipodi="http://sodipodi.sourceforge.net/DTD/sodipodi-0.dtd"
   xmlns:inkscape="http://www.inkscape.org/namespaces/inkscape"
   width="210mm"
   height="297mm"
   viewBox="0 0 744.09448819 1052.3622047"
   id="svg2"
   version="1.1"
   inkscape:version="0.91 r13725"
   sodipodi:docname="SG-V.svg">
  <defs
     id="defs4" />
  <sodipodi:namedview
     id="base"
     pagecolor="#ffffff"
     bordercolor="#666666"
     borderopacity="1.0"
     inkscape:pageopacity="0.0"
     inkscape:pageshadow="2"
     inkscape:zoom="0.71018519"
     inkscape:cx="185.9537"
     inkscape:cy="530.25458"
     inkscape:document-units="px"
     inkscape:current-layer="layer1"
     showgrid="false"
     inkscape:window-width="2048"
     inkscape:window-height="1100"
     inkscape:window-x="0"
     inkscape:window-y="24"
     inkscape:window-maximized="1"
     showguides="false" />
  <metadata
     id="metadata7">
    <rdf:RDF>
      <cc:Work
         rdf:about="">
        <dc:format>image/svg+xml</dc:format>
        <dc:type
           rdf:resource="http://purl.org/dc/dcmitype/StillImage" />
        <dc:title></dc:title>
      </cc:Work>
    </rdf:RDF>
  </metadata>
  <g
     inkscape:label="SG_V"
     inkscape:groupmode="layer"
     id="layer1">
    <g
       style="stroke-width:16.08551368;stroke-miterlimit:4;stroke-dasharray:none"
       id="g4165"
       transform="matrix(0,-0.31083869,-0.31083869,0,-132.16567,1606.8268)" />
    <g
       style="stroke-width:37.7938405;stroke-miterlimit:4;stroke-dasharray:none"
       id="g7445"
       transform="matrix(-0.13229669,0,0,0.13229669,852.897,-875.07157)">
      <path
         inkscape:connector-curvature="0"
         id="path4169"
         style="fill:none;stroke:#000000;stroke-width:37.7938405;stroke-linecap:round;stroke-linejoin:round;stroke-miterlimit:4;stroke-dasharray:none;stroke-opacity:1"
         d="m 3319.09,7770.52 -21.4,76.91 -9.17,32.09 -8.66,28.02 -8.66,24.44 -7.64,21.4 -7.64,18.85 -7.64,16.81 -7.13,15.79 -7.13,14.77 -7.13,13.75 -7.13,13.24 -7.13,12.74 -7.13,11.72 -7.14,11.71 -7.64,11.21 -7.13,10.69 -8.15,10.19 -7.64,10.19 -8.15,10.19 -8.15,9.16 -8.66,9.68 -9.17,8.66 -9.17,8.66 -9.68,8.15 -9.67,7.64 -10.7,7.64 -10.19,7.13 -11.2,6.63 -11.21,6.11 -11.21,5.6 -12.22,5.6 -11.72,5.1 -12.22,4.07 -12.23,4.08 -12.73,3.56 -12.73,3.57 -12.74,2.55 -13.24,2.54 -13.25,2.04 -13.24,1.53 -13.25,1.53 -13.24,0.51 -13.24,0.51 -13.75,0.5 -13.25,-0.5 -13.24,-0.51 -13.24,-0.51 -12.74,-1.53 -12.73,-1.53 -12.74,-2.04 -12.73,-2.03 -12.23,-2.55 -11.71,-3.06 -11.72,-3.05 -11.72,-3.57 -11.2,-3.56 -10.7,-3.57 -10.19,-4.08 -10.18,-4.07 -10.19,-4.07 -9.17,-4.59 -9.17,-4.58 -8.66,-4.59 -8.15,-5.09 -7.64,-4.59 -7.64,-5.09 -7.13,-5.09 -6.62,-5.61 -6.62,-5.6 -6.12,-6.11 -6.11,-6.11 -6.11,-6.63 -5.6,-6.62 -6.12,-7.64 -5.6,-7.13 -5.6,-8.15 -5.1,-7.64 -5.09,-8.15 -5.1,-8.66 -4.58,-8.15 -4.58,-8.66 -4.08,-8.15 -3.56,-8.66 -3.57,-8.66 -3.57,-9.17 -3.05,-8.66 -3.06,-9.17 -3.05,-8.66 -2.55,-9.16 -2.55,-9.17 -2.03,-9.68 -2.55,-9.17 -2.04,-9.68 -1.53,-9.17 -2.04,-9.67 -1.52,-9.17 -1.53,-9.68 -1.53,-9.68 -1.53,-9.17 -1.02,-9.68 -1.01,-10.18 -1.02,-9.68 -1.02,-10.19 -0.51,-10.7 -0.51,-11.2 -0.51,-13.75 0,-74.88 0.51,-43.3 0,-6.11" />
      <path
         inkscape:connector-curvature="0"
         id="path4171"
         style="fill:none;stroke:#000000;stroke-width:37.7938405;stroke-linecap:round;stroke-linejoin:round;stroke-miterlimit:4;stroke-dasharray:none;stroke-opacity:1"
         d="m 2466.9,7708.88 -85.06,95.25 -66.73,105.44 -57.56,115.63 -46.35,141.61 -37.7,176.75 -13.24,143.14 -2.55,151.79 18.34,171.66 53.48,185.41 91.18,196.62 98.31,180.32 64.18,121.74 24.45,66.22 12.23,40.24" />
      <path
         inkscape:connector-curvature="0"
         id="path4177"
         style="fill:none;stroke:#000000;stroke-width:37.7938405;stroke-linecap:round;stroke-linejoin:round;stroke-miterlimit:4;stroke-dasharray:none;stroke-opacity:1"
         d="m 4676.06,7283.04 2.55,2.04 13.24,11.72 13.76,11.71 13.75,12.22 13.75,12.74 13.25,12.73 13.24,13.25 12.22,13.24 11.72,13.25 11.71,13.75 11.21,13.75 11.21,14.77 11.2,14.77 10.7,15.8 11.21,15.79 10.69,16.81 10.7,17.32 10.7,17.32 10.69,17.82 10.19,17.83 9.68,18.34 9.68,17.83 9.17,17.82 9.17,17.83 8.66,17.83 8.14,17.83 8.15,17.32 7.64,17.32 7.14,17.32 7.13,16.8 7.13,16.81 6.62,16.81 6.11,16.81 6.12,16.81 6.11,16.81 5.6,16.81 5.61,16.81 5.6,17.32 5.09,17.32 4.59,17.32 4.58,17.82 4.58,17.32 4.59,17.83 4.07,17.83 4.08,17.83 4.07,17.31 3.57,17.32 3.57,17.33 3.56,16.8 3.57,16.81 3.05,16.81 3.06,16.3 3.05,15.79 2.55,15.79 3.06,15.79 2.03,14.78 2.55,15.28 2.04,14.77 2.55,15.28 2.04,14.77 2.03,14.78 1.53,15.28 2.04,15.28 1.52,15.79 2.04,15.79 1.53,16.3 1.53,16.81 1.02,16.81 1.53,17.83 1.01,17.82 0.51,18.34 1.02,18.34 0.51,19.36 0,79.96 -0.51,20.38 -0.51,20.89 -1.02,20.88 -1.01,21.9 -2.04,21.91 -2.04,22.92 -2.55,23.43 -3.56,24.96 -4.08,25.47 -5.09,26.99 -5.6,27.51 -6.63,28.53 -7.13,28.52 -7.13,29.03 -8.15,28.02 -8.15,27.51 -8.66,26.99 -9.17,25.47 -9.17,24.45 -9.16,23.94 -10.19,22.92 -10.19,22.93 -10.69,22.92 -11.21,23.43 -12.23,23.43 -12.22,23.94 -12.73,24.45 -13.25,24.96 -13.24,24.96 -13.25,24.45 -12.73,23.94 -12.23,22.92 -11.71,22.41 -10.7,21.4 -10.19,19.86 -9.17,19.36 -8.14,17.83 -8.16,17.32 -7.13,16.81 -6.62,15.79 -6.11,15.28 -5.6,14.77 -5.1,14.26 -4.58,13.76 -4.59,13.24 -4.07,13.25 -3.57,12.22 -3.56,12.22 -3.06,11.72 -2.55,11.21 -2.54,10.69 -2.55,10.7 -2.04,10.19 -1.53,9.67 -1.52,10.19 -1.53,9.68 -1.02,9.17 -1.02,9.68 -1.02,9.17 -1.02,9.16 -0.51,9.17 -0.5,8.66 -0.52,8.66 -0.5,8.66 0,16.3 0.5,8.66 1.53,10.7 1.53,13.24 3.57,16.81 4.07,21.39 6.11,27 8.16,33.62" />
      <path
         inkscape:connector-curvature="0"
         id="path4179"
         style="fill:none;stroke:#000000;stroke-width:37.7938405;stroke-linecap:round;stroke-linejoin:round;stroke-miterlimit:4;stroke-dasharray:none;stroke-opacity:1"
         d="m 3985.86,7770.52 18.34,49.91 11.2,27.51 10.19,23.43 9.17,19.36 8.15,15.79 8.15,13.24 7.13,11.21 7.64,9.67 7.13,9.17 7.64,8.15 7.64,7.65 7.64,7.12 7.64,6.12 7.64,6.62 8.15,5.6 8.66,5.61 8.66,5.6 9.17,5.1 9.17,5.09 9.17,4.58 9.68,4.59 9.68,4.58 9.67,3.57 10.19,3.56 9.68,3.57 9.67,2.54 10.19,2.55 10.19,2.04 10.7,2.04 10.69,2.04 11.21,1.52 11.72,1.02 12.22,1.02 12.74,1.02 12.73,1.02 40.75,0 13.76,-1.02 13.75,-1.02 13.24,-2.04 13.76,-2.04 13.24,-3.05 12.73,-3.57 12.74,-3.56 12.22,-4.59 11.72,-4.58 11.71,-5.6 10.7,-5.61 10.7,-6.11 9.67,-6.62 9.68,-6.62 9.17,-7.14 8.66,-7.13 8.15,-7.13 8.15,-7.64 7.13,-7.13 7.13,-7.64 6.62,-7.13 6.63,-7.64 6.11,-7.64 5.6,-7.64 5.1,-7.64 5.09,-7.65 4.58,-8.14 4.08,-8.16 4.08,-8.66 4.07,-8.65 3.57,-8.66 3.56,-9.68 3.06,-9.17 3.56,-9.68 3.57,-10.19 3.06,-10.69 3.56,-10.7 3.06,-11.21 3.05,-11.71 3.06,-11.72 3.05,-11.71 2.55,-12.74 2.55,-12.73 2.04,-12.74 2.03,-13.24 2.04,-13.75 1.53,-13.76 1.53,-13.75 1.02,-14.26 0.51,-14.26 0.51,-14.27 0.5,-14.26 0,-14.26 -0.5,-14.26 -0.51,-13.76 0,-13.24 -1.02,-13.24 -0.51,-12.23 -0.51,-11.71 -0.51,-11.72 -1.02,-10.7 -0.51,-11.21 -1.02,-11.2 -1.53,-11.72 -1.52,-12.22 -1.53,-13.25 -2.04,-14.26 -2.55,-15.79 -3.56,-18.34 -4.08,-21.9 -5.09,-25.47 -6.62,-30.56 -2.04,-10.19" />
      <path
         sodipodi:nodetypes="cc"
         inkscape:connector-curvature="0"
         id="path4463"
         style="fill:none;stroke:#000000;stroke-width:37.7938405;stroke-linecap:round;stroke-linejoin:round;stroke-miterlimit:4;stroke-dasharray:none;stroke-opacity:1"
         d="m 3874.81,11846 2431.76,2574.4" />
      <path
         sodipodi:nodetypes="cccc"
         inkscape:connector-curvature="0"
         id="path4467"
         style="fill:none;stroke:#000000;stroke-width:37.7938405;stroke-linecap:round;stroke-linejoin:round;stroke-miterlimit:4;stroke-dasharray:none;stroke-opacity:1"
         d="M 972.902,14404.6 2511.73,9928.73 M 3430.64,11846 998.883,14420.4" />
      <path
         inkscape:connector-curvature="0"
         id="path4469"
         style="fill:none;stroke:#000000;stroke-width:37.7938405;stroke-linecap:round;stroke-linejoin:round;stroke-miterlimit:4;stroke-dasharray:none;stroke-opacity:1"
         d="m 998.883,14420.4 -4.074,2.6 -4.079,1.5 -4.582,0.5 -4.585,-1 -4.075,-2.6 -3.054,-3.5 -2.039,-4.1 -0.508,-4.6 1.015,-4.6" />
      <path
         inkscape:connector-curvature="0"
         id="path4479"
         style="fill:none;stroke:#000000;stroke-width:37.7938405;stroke-linecap:round;stroke-linejoin:round;stroke-miterlimit:4;stroke-dasharray:none;stroke-opacity:1"
         d="m 2510.71,9570.64 9.68,34.13 8.15,34.13 5.6,35.15 3.56,35.15 1.53,35.14 -0.51,35.15 -3.05,35.15 -4.59,35.14 -7.13,34.64 -9.17,34.13 -11.21,33.62" />
      <path
         sodipodi:nodetypes="cc"
         inkscape:connector-curvature="0"
         id="path4481"
         style="fill:none;stroke:#000000;stroke-width:37.7938405;stroke-linecap:round;stroke-linejoin:round;stroke-miterlimit:4;stroke-dasharray:none;stroke-opacity:1"
         d="M 6332.55,14404.6 4778.45,9884.42" />
      <path
         inkscape:connector-curvature="0"
         id="path4483"
         style="fill:none;stroke:#000000;stroke-width:37.7938405;stroke-linecap:round;stroke-linejoin:round;stroke-miterlimit:4;stroke-dasharray:none;stroke-opacity:1"
         d="m 6332.55,14404.6 0.51,4.6 -0.51,4.6 -2.04,4.1 -3.06,3.5 -3.56,2.6 -4.59,1 -4.58,-0.5 -4.58,-1.5 -3.57,-2.6" />
      <path
         inkscape:connector-curvature="0"
         id="path4485"
         style="fill:none;stroke:#000000;stroke-width:37.7938405;stroke-linecap:round;stroke-linejoin:round;stroke-miterlimit:4;stroke-dasharray:none;stroke-opacity:1"
         d="m 2466.9,7708.88 3.56,-3.06 4.08,-1.52 4.59,-0.51 4.58,1.01 4.08,2.04 3.05,3.57 2.04,4.07 0.51,4.59" />
      <path
         inkscape:connector-curvature="0"
         id="path4499"
         style="fill:none;stroke:#000000;stroke-width:37.7938405;stroke-linecap:round;stroke-linejoin:round;stroke-miterlimit:4;stroke-dasharray:none;stroke-opacity:1"
         d="m 4652.12,7298.83 0,-5.09 1.02,-4.58 2.54,-4.08 4.08,-3.06 4.08,-1.52 5.09,-0.52 4.58,1.54 4.08,2.54" />
      <path
         inkscape:connector-curvature="0"
         id="path4873"
         style="fill:none;stroke:#000000;stroke-width:37.7938405;stroke-linecap:round;stroke-linejoin:round;stroke-miterlimit:4;stroke-dasharray:none;stroke-opacity:1"
         d="m 3430.64,11846 17.82,-17.3 18.85,-15.8 20.38,-14.2 21.39,-12.8 22.42,-10.7 23.43,-8.6 23.94,-7.2 24.45,-5.1 24.45,-3 24.96,-1 24.95,1 24.46,3 24.45,5.1 23.94,7.2 22.92,8.6 22.41,10.7 21.39,12.8 20.38,14.2 19.35,15.8 17.83,17.3" />
      <path
         sodipodi:nodetypes="cc"
         inkscape:connector-curvature="0"
         id="path5195"
         style="fill:none;stroke:#000000;stroke-width:37.7938405;stroke-linecap:round;stroke-linejoin:round;stroke-miterlimit:4;stroke-dasharray:none;stroke-opacity:1"
         d="m 3986.88,7767.2881 -668.31,0" />
    </g>
  </g>
</svg>
