<?xml version="1.0" encoding="UTF-8" standalone="no"?>
<!-- Created with Inkscape (http://www.inkscape.org/) -->

<svg
   xmlns:dc="http://purl.org/dc/elements/1.1/"
   xmlns:cc="http://creativecommons.org/ns#"
   xmlns:rdf="http://www.w3.org/1999/02/22-rdf-syntax-ns#"
   xmlns:svg="http://www.w3.org/2000/svg"
   xmlns="http://www.w3.org/2000/svg"
   xmlns:sodipodi="http://sodipodi.sourceforge.net/DTD/sodipodi-0.dtd"
   xmlns:inkscape="http://www.inkscape.org/namespaces/inkscape"
   width="210mm"
   height="297mm"
   viewBox="0 0 744.09448819 1052.3622047"
   id="svg2"
   version="1.1"
   inkscape:version="0.91 r13725"
   sodipodi:docname="SG.svg">
  <defs
     id="defs4">
    <clipPath
       id="clipPath4171"
       clipPathUnits="userSpaceOnUse">
      <path
         inkscape:connector-curvature="0"
         id="path4173"
         d="m 0,0 0,14670 11002,0 L 11002,0 0,0 Z" />
    </clipPath>
  </defs>
  <sodipodi:namedview
     id="base"
     pagecolor="#ffffff"
     bordercolor="#666666"
     borderopacity="1.0"
     inkscape:pageopacity="0.0"
     inkscape:pageshadow="2"
     inkscape:zoom="0.7"
     inkscape:cx="-47.251215"
     inkscape:cy="549.61979"
     inkscape:document-units="px"
     inkscape:current-layer="layer1"
     showgrid="false"
     inkscape:window-width="2048"
     inkscape:window-height="1100"
     inkscape:window-x="0"
     inkscape:window-y="24"
     inkscape:window-maximized="1" />
  <metadata
     id="metadata7">
    <rdf:RDF>
      <cc:Work
         rdf:about="">
        <dc:format>image/svg+xml</dc:format>
        <dc:type
           rdf:resource="http://purl.org/dc/dcmitype/StillImage" />
      </cc:Work>
    </rdf:RDF>
  </metadata>
  <g
     inkscape:label="SG"
     inkscape:groupmode="layer"
     id="layer1">
    <g
       id="g4167"
       transform="matrix(0,-0.29447875,-0.29447875,0,-106.16986,1976.2348)"
       style="stroke-width:16.97915384;stroke-miterlimit:10;stroke-dasharray:none">
      <g
         clip-path="url(#clipPath4171)"
         id="g4169"
         style="stroke-width:16.97915384;stroke-miterlimit:10;stroke-dasharray:none" />
    </g>
    <path
       inkscape:connector-curvature="0"
       id="path5613"
       style="fill:none;stroke:#000000;stroke-width:5;stroke-linecap:round;stroke-linejoin:round;stroke-miterlimit:10;stroke-dasharray:none;stroke-opacity:1"
       d="m 434.79332,225.43477 -129.93621,0 -5.37256,5.01395 -13.52279,12.53648 -8.5071,6.44848 -7.78981,3.31387 -9.49341,2.77419 -8.41743,1.34313 -12.89521,-2.41725 -11.55203,-4.02944 -7.43293,-5.10535 -9.8503,-10.11744 -8.50709,-15.94009 -3.67077,-13.25384 -2.4173,-15.58141 -0.35862,-18.26771 0.35862,-17.64184 -0.62762,-14.23834 -1.07413,-5.73118 -2.06041,-2.68626 -2.68631,0 -5.73119,1.34313 -9.49161,4.74668 -11.55203,8.77437 -10.02957,8.59678 -10.2089,9.49334 -10.11924,10.56579 -9.76056,12.08998 -8.23816,11.46237 -7.97094,13.25383 -6.44847,12.17787 -5.193226,11.55203 -4.657009,12.80549 -3.760427,11.10375 -2.865594,11.91071 -1.612134,9.67267 -2.686248,17.01422 -0.717294,11.1934 -0.446556,13.0745 -0.358614,12.8055 0,13.16237 0.269004,12.359 1.970747,13.69328 1.253461,8.87808 1.96902,11.98982 2.686253,11.28654 2.688043,11.46236 3.312144,12.44687 6.8053,24.71794 4.83634,15.66409 7.07437,19.53175 4.83634,14.41583 4.56561,12.09529 2.41903,10.37238 1.79147,9.22964 0.7155,10.38998 -0.7155,8.68471 -1.61213,10.93497 -4.83635,14.22247 -5.64157,10.67127 -7.16397,11.46236 -8.686443,12.53476 -8.955389,12.35899 -8.507106,10.47785 -4.834608,6.62777 -9.224397,12.44686 -6.805359,10.56579 -7.969149,13.87089 -8.419225,16.03329 -7.431194,15.7519 -5.732912,12.55238 -3.760431,10.37241 -4.119108,12.18319 -3.493215,14.50377 -2.596583,14.87295 -1.701803,17.10567 -0.625833,11.63811 0.268948,13.07981 1.074178,12.79845 2.06042,14.32795 2.95526,14.96089 3.760431,13.43138 6.446684,13.16763 6.986429,12.53475 10.565792,15.22458 4.208717,6.43439 7.612262,7.98151 7.253647,7.52438 8.955451,7.52433 9.222599,6.8915 11.10375,7.96391 13.881397,9.40545 16.11764,8.86048 20.05919,9.3176 23.73169,8.6847 20.50743,6.5398 21.31264,5.9071 18.35734,4.1138 22.20749,4.7467 20.1488,2.6897 26.68695,3.2348 20.14881,2.0569 24.08857,2.0569 18.716,0.3516 21.93849,0 18.62635,-0.3516 24.09031,-2.0569 20.1488,-2.0569 26.68521,-3.2348 20.14881,-2.6897 22.20742,-4.7467 18.44707,-4.1138 21.31438,-5.9071 20.41603,-6.5398 23.73168,-8.6847 20.1488,-9.3176 16.11942,-8.86048 13.87968,-9.40545 11.01408,-7.96391 9.2244,-6.8915 8.95368,-7.52433 7.34322,-7.52438 7.52268,-7.98151 4.2087,-6.43439 10.5675,-15.22458 7.07436,-12.53475 6.35886,-13.16763 3.85002,-13.43138 2.95524,-14.96089 1.96902,-14.32795 1.07592,-12.79845 0.26724,-13.07981 -0.53622,-11.63811 -1.79143,-17.10567 -2.59661,-14.87295 -3.4932,-14.50377 -4.02943,-12.18319 -3.76218,-10.37241 -5.81909,-12.55238 -7.43292,-15.7519 -8.32782,-16.03329 -8.06064,-13.87089 -6.71562,-10.56579 -9.2244,-12.44686 -4.92426,-6.62777 -8.41746,-10.47785 -8.95542,-12.35899 -8.77614,-12.53476 -7.164,-11.46236 -4.38804,-8.33307 -2.1483,-6.36412 -0.80688,-3.21716 -1.61214,-7.43651 -1.07418,-6.27618 -0.53616,-7.59465 0.26724,-7.89357 1.07586,-9.03634 1.78968,-6.27612 2.68626,-12.18318 2.8674,-9.03628 3.67074,-9.22972 4.56738,-11.90187 5.73114,-15.22453 6.00018,-16.20908 4.83462,-14.67953 3.67248,-11.74367 2.68632,-10.19661 2.1483,-10.3021 1.97076,-9.31753 1.16382,-10.02079 1.16382,-11.02284 0.44832,-8.95366 0.26898,-11.10375 -0.26898,-10.02957 -1.07418,-11.28309 -1.88112,-16.83666 -0.71724,-4.65527 -1.16382,-6.17947 -1.70184,-8.23816 -1.52064,-7.34331 -2.0604,-6.53808 -1.97076,-6.35708 -2.9553,-7.97094 -3.22248,-7.61047 -2.688,-6.53814 -3.31212,-6.89503 -4.02942,-8.2381 -5.6415,-8.95545 -4.65708,-7.61225 -4.2087,-6.71569 -4.47768,-6.62603 -4.20876,-5.91052 -5.64152,-7.25364 -5.55191,-6.26914 -5.01562,-5.64152 -5.10361,-4.65526 -5.64152,-4.12084 -3.31388,-1.70002 -3.13459,0 -2.41725,0.80517 -2.59664,2.59665 -1.34313,3.40355 -1.34491,6.00013 -1.34313,7.52085 -2.68626,11.10554 -3.22247,10.74508 -3.67255,9.93989 -4.02938,7.52265 -5.10535,7.07431 -7.07431,6.89497 -7.96914,4.56739 -10.47792,4.11905 -10.47612,2.15009 -11.10548,0.17934 -9.2226,-0.53795 -9.93996,-1.97075 -10.47786,-3.04493 -10.47784,-5.46224 -8.68645,-5.64151 -13.87967,-12.08999 -9.13473,-8.4157 z" />
  </g>
</svg>
