<?xml version="1.0" encoding="UTF-8" standalone="no"?>
<!-- Created with Inkscape (http://www.inkscape.org/) -->

<svg
   xmlns:dc="http://purl.org/dc/elements/1.1/"
   xmlns:cc="http://creativecommons.org/ns#"
   xmlns:rdf="http://www.w3.org/1999/02/22-rdf-syntax-ns#"
   xmlns:svg="http://www.w3.org/2000/svg"
   xmlns="http://www.w3.org/2000/svg"
   xmlns:sodipodi="http://sodipodi.sourceforge.net/DTD/sodipodi-0.dtd"
   xmlns:inkscape="http://www.inkscape.org/namespaces/inkscape"
   id="svg4557"
   version="1.1"
   inkscape:version="0.91 r13725"
   xml:space="preserve"
   width="210mm"
   height="297mm"
   viewBox="0 0 744.09449 1052.3622"
   sodipodi:docname="stratocaster.svg"
   inkscape:export-filename="/home/cho2/Gambar/stratocaster.png"
   inkscape:export-xdpi="90"
   inkscape:export-ydpi="90"><metadata
     id="metadata4563"><rdf:RDF><cc:Work
         rdf:about=""><dc:format>image/svg+xml</dc:format><dc:type
           rdf:resource="http://purl.org/dc/dcmitype/StillImage" /><dc:title></dc:title></cc:Work></rdf:RDF></metadata><defs
     id="defs4561" /><sodipodi:namedview
     pagecolor="#ffffff"
     bordercolor="#666666"
     borderopacity="1"
     objecttolerance="10"
     gridtolerance="10"
     guidetolerance="10"
     inkscape:pageopacity="0"
     inkscape:pageshadow="2"
     inkscape:window-width="2048"
     inkscape:window-height="1100"
     id="namedview4559"
     showgrid="false"
     inkscape:zoom="0.43628026"
     inkscape:cx="381.67074"
     inkscape:cy="808.40813"
     inkscape:window-x="0"
     inkscape:window-y="24"
     inkscape:window-maximized="1"
     inkscape:current-layer="layer1"
     showguides="false"
     units="mm" /><g
     inkscape:groupmode="layer"
     id="layer1"
     inkscape:label="stratocaster"><g
       transform="matrix(0.78664504,0,0,-0.78664504,-401.90115,1800.9353)"
       id="g48329"
       style="fill:#000000;stroke:#000000;stroke-width:6.35610694;stroke-miterlimit:4;stroke-dasharray:none"><path
         id="path25951"
         style="fill:#000000;stroke:#000000;stroke-width:6.35610694;stroke-linecap:round;stroke-linejoin:round;stroke-miterlimit:4;stroke-dasharray:none;stroke-opacity:1"
         d="m 590.19937,2121.965 0,0 m 0,0 0,0 m 474.59943,-31.218 0,-128.3586 m -141.47986,141.8048 -2.27946,-0.2336 m 2.27946,0.2336 -2.27946,-0.2336 m 0,0 -2.28113,-0.6007 m 2.28113,0.6007 -2.28113,-0.6007 m 0,0 -2.15931,-0.9679 m 2.15931,0.9679 -2.15931,-0.9679 m 0,0 -1.91902,-1.435 m 1.91902,1.435 -1.91902,-1.435 m 0,0 -1.68039,-1.6854 m 1.68039,1.6854 -1.68039,-1.6854 m 0,0 -1.31995,-1.9191 m 1.31995,1.9191 -1.31995,-1.9191 m 0,0 -0.9595,-2.0358 m 0,0 -0.60074,-2.2694 m 0.60074,2.2694 -0.60074,-2.2694 m 0,0 -0.24029,-2.403 m 0.24029,2.403 -0.24029,-2.403 m 154.91965,0 -0.2402,2.403 m 0.2402,-2.403 -0.2402,2.403 m 0,0 -0.5991,2.2694 m 0.5991,-2.2694 -0.5991,2.2694 m 0,0 -1.0813,2.0358 m 1.0813,-2.0358 -1.0813,2.0358 m 0,0 -1.32,1.9191 m 1.32,-1.9191 -1.32,1.9191 m 0,0 -1.6787,1.6854 m 1.6787,-1.6854 -1.6787,1.6854 m 0,0 -1.9207,1.435 m 1.9207,-1.435 -1.9207,1.435 m 0,0 -2.0408,0.9679 m 2.0408,-0.9679 -2.0408,0.9679 m 0,0 -2.2795,0.6007 m 2.2795,-0.6007 -2.2795,0.6007 m 0,0 -2.3996,0.2336 m 2.3996,-0.2336 -2.3996,0.2336 m -68.99948,-1133.99353 0,0 m 0,0 0,0 m 7.55925,0 0,0 m 0,0 0,0 m 61.44023,1133.99353 -127.91996,0 m 127.91996,0 -127.91996,0 m 144.72056,-152.2697 3.2389,-3.9716 m -3.2389,3.9716 3.2389,-3.9716 m 0,0 3.7196,-3.5877 m -3.7196,3.5877 3.7196,-3.5877 m 0,0 4.0817,-3.254 m -4.0817,3.254 4.0817,-3.254 m 0,0 4.3186,-2.7534 m -4.3186,2.7534 4.3186,-2.7534 m 0,0 4.6807,-2.4029 m -4.6807,2.4029 4.6807,-2.4029 m 0,0 4.7992,-1.8022 m -4.7992,1.8022 4.7992,-1.8022 m 86.6411,-11.7477 6.7199,2.0358 m -6.7199,-2.0358 6.7199,2.0358 m 0,0 6.4796,2.5198 m -6.4796,-2.5198 6.4796,2.5198 m 0,0 6.3595,2.8868 m -6.3595,-2.8868 6.3595,2.8868 m 0,0 6.1208,3.3541 m -6.1208,-3.3541 6.1208,3.3541 m 0,0 5.999,3.6044 m -5.999,-3.6044 5.999,3.6044 m 0,0 5.6403,4.0717 m -5.6403,-4.0717 5.6403,4.0717 m 0,0 5.3999,4.4388 m -5.3999,-4.4388 5.3999,4.4388 m 0,0 5.0412,4.8059 m -5.0412,-4.8059 5.0412,4.8059 m 0,0 4.7992,5.1563 m -4.7992,-5.1563 4.7992,5.1563 m 0,0 4.4404,5.4066 m -4.4404,-5.4066 4.4404,5.4066 m 0,0 4.08,5.6402 m -4.08,-5.6402 4.08,5.6402 m 0,0 3.7196,5.8739 m -3.7196,-5.8739 3.7196,5.8739 m 0,0 3.2406,6.241 m -3.2406,-6.241 3.2406,6.241 m 0,0 2.8802,6.3577 m -2.8802,-6.3577 2.8802,6.3577 m 126.7185,-67.1989 2.0408,13.4331 m -2.0408,-13.4331 2.0408,13.4331 m 0,0 1.5603,13.4498 m -1.5603,-13.4498 1.5603,13.4498 m 0,0 0.9595,13.5499 m -0.9595,-13.5499 0.9595,13.5499 m 0,0 0.2403,13.5667 m -0.2403,-13.5667 0.2403,13.5667 m -782.15945,28.318 5.5201,-22.1939 m -5.5201,22.1939 5.5201,-22.1939 m 0,0 6.00068,-21.9602 m -6.00068,21.9602 6.00068,-21.9602 m 0,0 6.35945,-21.9602 m -6.35945,21.9602 6.35945,-21.9602 m 0,0 6.7199,-21.7266 m -6.7199,21.7266 6.7199,-21.7266 m 0,0 7.20048,-21.71 m -7.20048,21.71 7.20048,-21.71 m 0,0 7.43911,-21.4929 m -7.43911,21.4929 7.43911,-21.4929 m 86.99986,298.1984 2.04084,-9.2279 m -2.04084,9.2279 2.04084,-9.2279 m 0,0 2.3996,-9.1279 m -2.3996,9.1279 2.3996,-9.1279 m 0,0 2.88019,-8.9943 m -2.88019,8.9943 2.88019,-8.9943 m 0,0 3.35912,-8.8776 m -3.35912,8.8776 3.35912,-8.8776 m 0,0 3.8397,-8.7607 m -3.8397,8.7607 3.8397,-8.7607 m 0,0 4.20014,-8.4103 m -4.20014,8.4103 4.20014,-8.4103 m 0,0 4.68073,-8.2768 m -4.68073,8.2768 4.68073,-8.2768 m 0,0 5.03951,-8.0432 m -5.03951,8.0432 5.03951,-8.0432 m -164.51979,3.7213 0.36044,-16.9208 m -0.36044,16.9208 0.36044,-16.9208 m 0,0 0.83936,-17.0375 m -0.83936,17.0375 0.83936,-17.0375 m 0,0 1.31995,-16.9207 m -1.31995,16.9207 1.31995,-16.9207 m 0,0 1.92069,-16.8039 m -1.92069,16.8039 1.92069,-16.8039 m 0,0 2.3996,-16.7872 m -2.3996,16.7872 2.3996,-16.7872 m 0,0 3.00034,-16.6871 m -3.00034,16.6871 3.00034,-16.6871 m 154.67941,97.4359 4.56058,-5.8738 m -4.56058,5.8738 4.56058,-5.8738 m 0,0 4.91936,-5.6403 m -4.91936,5.6403 4.91936,-5.6403 m 0,0 5.28147,-5.1563 m -5.28147,5.1563 5.28147,-5.1563 m 0,0 5.63857,-5.0395 m -5.63857,5.0395 5.63857,-5.0395 m 0,0 5.88053,-4.5556 m -5.88053,4.5556 5.88053,-4.5556 m 0,0 6.23931,-4.0883 m -6.23931,4.0883 6.23931,-4.0883 m 0,0 6.36112,-3.838 m -6.36112,3.838 6.36112,-3.838 m 0,0 6.7199,-3.3541 m -6.7199,3.3541 6.7199,-3.3541 m 0,0 6.84004,-3.0037 m -6.84004,3.0037 6.84004,-3.0037 m 0,0 6.96019,-2.6366 m -6.96019,2.6366 6.96019,-2.6366 m 0,0 7.19881,-2.1693 m -7.19881,2.1693 7.19881,-2.1693 m 0,0 7.20049,-1.6854 m -7.20049,1.6854 7.20049,-1.6854 m 0,0 7.44077,-1.1848 m -7.44077,1.1848 7.44077,-1.1848 m 0,0 7.43911,-0.6007 m -7.43911,0.6007 7.43911,-0.6007 m 0,0 7.43911,-0.2503 m -7.43911,0.2503 7.43911,-0.2503 m 0,0 7.44078,0.2503 m -7.44078,-0.2503 7.44078,0.2503 m 510.1196,-5.0395 -3.2406,7.1921 m 3.2406,-7.1921 -3.2406,7.1921 m 0,0 -3.7195,7.0753 m 3.7195,-7.0753 -3.7195,7.0753 m 0,0 -4.08,6.8418 m 4.08,-6.8418 -4.08,6.8418 m 0,0 -4.4405,6.6081 m 4.4405,-6.6081 -4.4405,6.6081 m 0,0 -4.7992,6.4745 m 4.7992,-6.4745 -4.7992,6.4745 m -97.4393,-92.8804 3.9598,8.9944 m -3.9598,-8.9944 3.9598,8.9944 m 0,0 3.4793,9.1278 m -3.4793,-9.1278 3.4793,9.1278 m 0,0 3.1205,9.3615 m -3.1205,-9.3615 3.1205,9.3615 m 0,0 2.76,9.3615 m -2.76,-9.3615 2.76,9.3615 m 0,0 2.2795,9.595 m -2.2795,-9.595 2.2795,9.595 m 0,0 1.8005,9.5951 m -1.8005,-9.5951 1.8005,9.5951 m 0,0 1.4401,9.7286 m -1.4401,-9.7286 1.4401,9.7286 m 78.5996,27.1165 -3.2406,3.2373 m 3.2406,-3.2373 -3.2406,3.2373 m 0,0 -3.5994,3.0037 m 3.5994,-3.0037 -3.5994,3.0037 m 0,0 -3.9599,2.5198 m 3.9599,-2.5198 -3.9599,2.5198 m 0,0 -4.08,2.1526 m 4.08,-2.1526 -4.08,2.1526 m 0,0 -4.4404,1.6854 m 4.4404,-1.6854 -4.4404,1.6854 m 0,0 -4.4405,1.2015 m 4.4405,-1.2015 -4.4405,1.2015 m 0,0 -4.679,0.7175 m 4.679,-0.7175 -4.679,0.7175 m 0,0 -4.6807,0.2503 m 4.6807,-0.2503 -4.6807,0.2503 m 0,0 -4.559,-0.2503 m 4.559,0.2503 -4.559,-0.2503 m 0,0 -4.6807,-0.7175 m 4.6807,0.7175 -4.6807,-0.7175 m 0,0 -4.4404,-1.2015 m 4.4404,1.2015 -4.4404,-1.2015 m 0,0 -4.4405,-1.6854 m 4.4405,1.6854 -4.4405,-1.6854 m 0,0 -4.0783,-2.1526 m 4.0783,2.1526 -4.0783,-2.1526 m 0,0 -3.9598,-2.5198 m 3.9598,2.5198 -3.9598,-2.5198 m 0,0 -3.6011,-3.0037 m 3.6011,3.0037 -3.6011,-3.0037 m 0,0 -3.3591,-3.2373 m 3.3591,3.2373 -3.3591,-3.2373 m 0,0 -3.1205,-3.9548 m 3.1205,3.9548 -3.1205,-3.9548 m 0,0 -2.7601,-4.2051 m 2.7601,4.2051 -2.7601,-4.2051 m 0,0 -2.2794,-4.4388 m 2.2794,4.4388 -2.2794,-4.4388 m 0,0 -1.9207,-4.6724 m 1.9207,4.6724 -1.9207,-4.6724 m 0,0 -1.32,-4.8059 m 1.32,4.8059 -1.32,-4.8059 m 0,0 -0.9595,-5.0395 m 0.9595,5.0395 -0.9595,-5.0395 m 112.6797,-78.9633 -0.1202,9.2446 m 0.1202,-9.2446 -0.1202,9.2446 m 0,0 -0.7192,9.1112 m 0.7192,-9.1112 -0.7192,9.1112 m 0,0 -1.0813,9.1278 m 1.0813,-9.1278 -1.0813,9.1278 m 0,0 -1.5603,9.1112 m 1.5603,-9.1112 -1.5603,9.1112 m 0,0 -1.919,9.011 m 1.919,-9.011 -1.919,9.011 m 0,0 -2.3996,8.8775 m 2.3996,-8.8775 -2.3996,8.8775 m 0,0 -2.76,8.7608 m 2.76,-8.7608 -2.76,8.7608 m 0,0 -3.2407,8.6439 m 3.2407,-8.6439 -3.2407,8.6439 M 1107.159,970.19967 l -223.80066,0 m 223.80066,0 -223.80066,0 m -354.23877,232.31943 1.92069,-10.5595 m -1.92069,10.5595 1.92069,-10.5595 m 0,0 2.15931,-10.5613 m -2.15931,10.5613 2.15931,-10.5613 m 0,0 2.76005,-10.5596 m -2.76005,10.5596 2.76005,-10.5596 m 0,0 3.12048,-10.3193 m -3.12048,10.3193 3.12048,-10.3193 m 0,0 3.47926,-10.2008 m -3.47926,10.2008 3.47926,-10.2008 m 0,0 3.95985,-10.0807 m -3.95985,10.0807 3.95985,-10.0807 m 0,0 4.32029,-9.8387 m -4.32029,9.8387 4.32029,-9.8387 m 0,0 4.79921,-9.7203 m -4.79921,9.7203 4.79921,-9.7203 m 0,0 5.16132,-9.4799 m -5.16132,9.4799 5.16132,-9.4799 m 78.23914,520.7994 -10.79989,-23.7608 m 10.79989,23.7608 -10.79989,-23.7608 m 0,0 -10.5596,-23.9994 m 10.5596,23.9994 -10.5596,-23.9994 m 0,0 -10.08068,-24.1195 m 10.08068,24.1195 -10.08068,-24.1195 m 0,0 -9.84038,-24.2397 m 9.84038,24.2397 -9.84038,-24.2397 m 0,0 -9.35979,-24.3598 m 9.35979,24.3598 -9.35979,-24.3598 m 70.67988,180.7196 2.28112,10.6798 m -2.28112,-10.6798 2.28112,10.6798 m 0,0 1.79887,10.6797 m -1.79887,-10.6797 1.79887,10.6797 m 0,0 1.31995,10.7966 m -1.31995,-10.7966 1.31995,10.7966 m 0,0 0.72089,10.93 m -0.72089,-10.93 0.72089,10.93 m 0,0 0.24029,10.9134 m -0.24029,-10.9134 0.24029,10.9134 m 0,0 -0.24029,10.7965 m 0.24029,-10.7965 -0.24029,10.7965 m 0,0 -0.72089,10.9301 m 0.72089,-10.9301 -0.72089,10.9301 m 0,0 -1.31995,10.7965 m 1.31995,-10.7965 -1.31995,10.7965 m 0,0 -1.79887,10.6798 m 1.79887,-10.6798 -1.79887,10.6798 m 0,0 -2.28112,10.6797 m 2.28112,-10.6797 -2.28112,10.6797 m 0,0 -3.23897,13.9171 m 3.23897,-13.9171 -3.23897,13.9171 m 0,0 -3.60107,13.917 m 3.60107,-13.917 -3.60107,13.917 m 0,0 -3.95985,13.8002 m 3.95985,-13.8002 -3.95985,13.8002 m 0,0 -4.44044,13.5666 m 4.44044,-13.5666 -4.44044,13.5666 m 0,0 -4.79921,13.55 m 4.79921,-13.55 -4.79921,13.55 m 0,-236.8734 4.91936,11.7594 m -4.91936,-11.7594 4.91936,11.7594 m 0,0 4.32029,11.8812 m -4.32029,-11.8812 4.32029,11.8812 m 0,0 4.07999,12.1198 m -4.07999,-12.1198 4.07999,12.1198 m 0,0 3.60108,12.2317 m -3.60108,-12.2317 3.60108,12.2317 m 0,0 3.11882,12.2483 m -3.11882,-12.2483 3.11882,12.2483 m -110.39852,-302.16 -4.92102,-20.4 m 4.92102,20.4 -4.92102,-20.4 m 0,0 -4.32029,-20.6402 m 4.32029,20.6402 -4.32029,-20.6402 m 0,0 -3.95985,-20.6403 m 3.95985,20.6403 -3.95985,-20.6403 m 0,0 -3.35912,-20.7588 m 3.35912,20.7588 -3.35912,-20.7588 m 0,0 -2.88019,-20.8805 m 2.88019,20.8805 -2.88019,-20.8805 m 59.15911,224.7602 -7.67941,-19.9211 m 7.67941,19.9211 -7.67941,-19.9211 m 0,0 -7.32063,-19.9194 m 7.32063,19.9194 -7.32063,-19.9194 m 0,0 -6.83837,-20.2798 m 6.83837,20.2798 -6.83837,-20.2798 m 0,0 -6.36112,-20.2798 m 6.36112,20.2798 -6.36112,-20.2798 m 0,0 -5.99902,-20.4 m 5.99902,20.4 -5.99902,-20.4 m 0,0 -5.52009,-20.6403 m 5.52009,20.6403 -5.52009,-20.6403 m -19.44047,-103.3198 -1.31995,-14.0406 m 1.31995,14.0406 -1.31995,-14.0406 m 0,0 -0.72088,-14.0405 m 0.72088,14.0405 -0.72088,-14.0405 m 0,0 -0.23863,-14.0388 m 0.23863,14.0388 -0.23863,-14.0388 m 0,0 0.23863,-14.0406 m -0.23863,14.0406 0.23863,-14.0406 m 0,0 0.72088,-14.0405 m -0.72088,14.0405 0.72088,-14.0405 m 0,0 1.1998,-14.0389 m -1.1998,14.0389 1.1998,-14.0389 m 162.95955,-200.0399 14.27915,-5.15965 m -14.27915,5.15965 14.27915,-5.15965 m 0,0 14.52111,-4.68073 m -14.52111,4.68073 14.52111,-4.68073 m 0,0 14.6396,-4.20014 m -14.6396,4.20014 14.6396,-4.20014 m 0,0 14.75974,-3.71956 m -14.75974,3.71956 14.75974,-3.71956 m 0,0 14.87988,-3.12049 m -14.87988,3.12049 14.87988,-3.12049 m 0,0 15.00004,-2.76004 m -15.00004,2.76004 15.00004,-2.76004 m 0,0 15.00003,-2.15931 m -15.00003,2.15931 15.00003,-2.15931 m 0,0 15.24033,-1.80054 m -15.24033,1.80054 15.24033,-1.80054 m -249.59897,136.32026 5.51843,-8.8792 m -5.51843,8.8792 5.51843,-8.8792 m 0,0 5.88053,-8.6406 m -5.88053,8.6406 5.88053,-8.6406 m 0,0 6.24098,-8.2801 m -6.24098,8.2801 6.24098,-8.2801 m 0,0 6.71989,-8.0399 m -6.71989,8.0399 6.71989,-8.0399 m 0,0 6.96019,-7.7995 m -6.96019,7.7995 6.96019,-7.7995 m 0,0 7.31896,-7.4408 m -7.31896,7.4408 7.31896,-7.4408 m 0,0 7.56093,-7.0803 m -7.56093,7.0803 7.56093,-7.0803 m 0,0 7.91969,-6.8401 m -7.91969,6.8401 7.91969,-6.8401 m 0,0 8.28014,-6.3594 m -8.28014,6.3594 8.28014,-6.3594 m 0,0 9.1195,-6.7199 m -9.1195,6.7199 9.1195,-6.7199 m 0,0 9.3598,-6.4796 m -9.3598,6.4796 9.3598,-6.4796 m 0,0 9.72023,-6.0007 m -9.72023,6.0007 9.72023,-6.0007 m 0,0 9.84039,-5.5201 m -9.84039,5.5201 9.84039,-5.5201 m 0,0 10.07901,-5.2798 m -10.07901,5.2798 10.07901,-5.2798 m 0,0 10.32097,-4.9194 m -10.32097,4.9194 10.32097,-4.9194 m 0,0 10.43945,-4.4404 m -10.43945,4.4404 10.43945,-4.4404 M 810.399,974.87874 828.51952,973.0782 m -18.12052,1.80054 18.12052,-1.80054 m 0,0 18.239,-1.31995 m -18.239,1.31995 18.239,-1.31995 m 0,0 18.24067,-0.95951 m -18.24067,0.95951 18.24067,-0.95951 m 0,0 18.35915,-0.59907 m -18.35915,0.59907 18.35915,-0.59907 m 548.76026,202.80003 2.6399,12.7189 m -2.6399,-12.7189 2.6399,12.7189 m 0,0 2.1593,12.8407 m -2.1593,-12.8407 2.1593,12.8407 m 0,0 1.6804,12.9592 m -1.6804,-12.9592 1.6804,12.9592 m 0,0 1.0797,12.9609 m -1.0797,-12.9609 1.0797,12.9609 m 0,0 0.7209,12.9592 m -0.7209,-12.9592 0.7209,12.9592 m 0,0 0.2403,12.9608 m -0.2403,-12.9608 0.2403,12.9608 m 0,0 -0.2403,13.0794 m 0.2403,-13.0794 -0.2403,13.0794 m 0,0 -0.7209,12.9592 m 0.7209,-12.9592 -0.7209,12.9592 m 0,0 -1.0797,12.9609 m 1.0797,-12.9609 -1.0797,12.9609 m 0,0 -1.6804,12.839 m 1.6804,-12.839 -1.6804,12.839 m 0,0 -2.1593,12.8407 m 2.1593,-12.8407 -2.1593,12.8407 m 0,0 -2.6399,12.8408 m 2.6399,-12.8408 -2.6399,12.8408 m -51.3595,159.3601 -54.8405,120.2389 m 54.8405,-120.2389 -54.8405,120.2389 m -233.0404,326.6333 7.8012,-3.4709 m -7.8012,3.4709 7.8012,-3.4709 m 0,0 8.0399,-3.1205 m -8.0399,3.1205 8.0399,-3.1205 m 0,0 8.0398,-2.7701 m -8.0398,2.7701 8.0398,-2.7701 m 0,0 8.2802,-2.3862 m -8.2802,2.3862 8.2802,-2.3862 m 0,0 6.7199,-1.5686 m -6.7199,1.5686 6.7199,-1.5686 m 0,0 6.7199,-1.0847 m -6.7199,1.0847 6.7199,-1.0847 m 0,0 6.9602,-0.7175 m -6.9602,0.7175 6.9602,-0.7175 m 0,0 6.84,-0.2336 m -6.84,0.2336 6.84,-0.2336 m 0,0 6.84,0.2336 m -6.84,-0.2336 6.84,0.2336 m 0,0 6.9602,0.7175 m -6.9602,-0.7175 6.9602,0.7175 m 0,0 6.7199,1.0847 m -6.7199,-1.0847 6.7199,1.0847 m 0,0 6.7199,1.5686 m -6.7199,-1.5686 6.7199,1.5686 m 141.8404,-164.4013 -3.1205,-8.7608 m 3.1205,8.7608 -3.1205,-8.7608 m 0,0 -2.7601,-8.8775 m 2.7601,8.8775 -2.7601,-8.8775 m 0,0 -2.2811,-9.011 m 2.2811,9.011 -2.2811,-9.011 m 0,0 -1.7989,-9.1112 m 1.7989,9.1112 -1.7989,-9.1112 m 0,0 -1.4401,-9.1278 m 1.4401,9.1278 -1.4401,-9.1278 m 0,0 -1.0796,-9.228 m 1.0796,9.228 -1.0796,-9.228 m 0,0 -0.6007,-9.2446 m 0.6007,9.2446 -0.6007,-9.2446 m 0,0 -0.1202,-9.3615 m 0.1202,9.3615 -0.1202,-9.3615 m 42.3602,144.3601 5.0395,12.1148 m -5.0395,-12.1148 5.0395,12.1148 m 0,0 4.8009,12.3652 m -4.8009,-12.3652 4.8009,12.3652 m 0,0 4.2001,12.3651 m -4.2001,-12.3651 4.2001,12.3651 m 0,0 3.8397,12.5988 m -3.8397,-12.5988 3.8397,12.5988 m 0,0 3.3591,12.8323 m -3.3591,-12.8323 3.3591,12.8323 m 0,0 2.8802,12.8491 m -2.8802,-12.8491 2.8802,12.8491 m 0,0 2.5198,12.8324 m -2.5198,-12.8324 2.5198,12.8324 m -26.6393,-87.9577 -14.6396,-34.4422 m 14.6396,34.4422 -14.6396,-34.4422 m 0,0 -5.3999,-12.2483 m 5.3999,12.2483 -5.3999,-12.2483 m 0,0 -4.9211,-12.3485 m 4.9211,12.3485 -4.9211,-12.3485 m 0,0 -4.1984,-12.5987 m 4.1984,12.5987 -4.1984,-12.5987 m -13.2012,-72.7224 0.2403,-8.8775 m -0.2403,8.8775 0.2403,-8.8775 m 0,0 0.6007,-8.8843 m -0.6007,8.8843 0.6007,-8.8843 m 0,0 1.0797,-8.8808 m -1.0797,8.8808 1.0797,-8.8808 m 0,0 1.5602,-8.8792 m -1.5602,8.8792 1.5602,-8.8792 m 0,0 2.0392,-8.6406 m -2.0392,8.6406 2.0392,-8.6406 m 0,0 2.3996,-8.6389 m -2.3996,8.6389 2.3996,-8.6389 m 0,0 2.8802,-8.5205 m -2.8802,8.5205 2.8802,-8.5205 m 0,0 3.2406,-8.2801 m -3.2406,8.2801 3.2406,-8.2801 m 0,0 3.7196,-8.16 m -3.7196,8.16 3.7196,-8.16 m 106.2,-279.599 -4.08,18.7196 m 4.08,-18.7196 -4.08,18.7196 m 0,0 -4.5606,18.5994 m 4.5606,-18.5994 -4.5606,18.5994 m 0,0 -5.2798,18.4793 m 5.2798,-18.4793 -5.2798,18.4793 m 0,0 -5.7603,18.2407 m 5.7603,-18.2407 -5.7603,18.2407 m 0,0 -7.0787,21.5997 m 7.0787,-21.5997 -7.0787,21.5997 m 0,0 -7.6811,21.4797 m 7.6811,-21.4797 -7.6811,21.4797 m 0,0 -8.2801,21.241 m 8.2801,-21.241 -8.2801,21.241 m 0,0 -8.6389,21.0007 m 8.6389,-21.0007 -8.6389,21.0007 m -193.8007,-511.80003 13.8003,2.27946 m -13.8003,-2.27946 13.8003,2.27946 m 0,0 13.68,2.76005 m -13.68,-2.76005 13.68,2.76005 m 0,0 13.4398,3.24063 m -13.4398,-3.24063 13.4398,3.24063 m 0,0 13.4398,3.71956 m -13.4398,-3.71956 13.4398,3.71956 m 0,0 13.1995,4.20014 m -13.1995,-4.20014 13.1995,4.20014 m 0,0 13.081,4.79921 m -13.081,-4.79921 13.081,4.79921 m 0,0 12.9609,5.16128 m -12.9609,-5.16128 12.9609,5.16128 m 0,0 12.5988,5.7588 m -12.5988,-5.7588 12.5988,5.7588 m 0,0 12.4803,6.1208 m -12.4803,-6.1208 12.4803,6.1208 m -198.4798,-43.31973 20.0396,0.59907 m -20.0396,-0.59907 20.0396,0.59907 m 0,0 19.921,1.07966 m -19.921,-1.07966 19.921,1.07966 m 0,0 19.9194,1.56024 m -19.9194,-1.56024 19.9194,1.56024 m 0,0 19.9194,2.04083 m -19.9194,-2.04083 19.9194,2.04083 m 118.6804,38.03993 9.8403,5.6386 m -9.8403,-5.6386 9.8403,5.6386 m 0,0 9.7203,6.0006 m -9.7203,-6.0006 9.7203,6.0006 m 0,0 9.3598,6.3612 m -9.3598,-6.3612 9.3598,6.3612 m 0,0 8.9993,6.8383 m -8.9993,-6.8383 8.9993,6.8383 m 0,0 8.8809,7.0804 m -8.8809,-7.0804 8.8809,7.0804 m 0,0 8.5188,7.5609 m -8.5188,-7.5609 8.5188,7.5609 m 0,0 8.16,7.7995 m -8.16,-7.7995 8.16,7.7995 m 0,0 7.7995,8.16 m -7.7995,-8.16 7.7995,8.16 m 0,0 7.5609,8.5205 m -7.5609,-8.5205 7.5609,8.5205 m 0,0 7.0804,8.8792 m -7.0804,-8.8792 7.0804,8.8792 m 0,0 6.84,9.1195 m -6.84,-9.1195 6.84,9.1195 m 0,0 6.3595,9.3614 m -6.3595,-9.3614 6.3595,9.3614 m 0,0 5.1596,9.1195 m -5.1596,-9.1195 5.1596,9.1195 m 0,0 4.8009,9.48 m -4.8009,-9.48 4.8009,9.48 m 0,0 4.3186,9.4799 m -4.3186,-9.4799 4.3186,9.4799 m 0,0 3.9615,9.8404 m -3.9615,-9.8404 3.9615,9.8404 m 0,0 3.4793,9.9589 m -3.4793,-9.9589 3.4793,9.9589 m 0,0 3.1205,10.0806 m -3.1205,-10.0806 3.1205,10.0806 m 0,0 2.5197,10.2009 m -2.5197,-10.2009 2.5197,10.2009 m -832.31915,1013.2774 -2.76004,-11.8812 m 2.76004,11.8812 -2.76004,-11.8812 m 0,0 -2.39961,-12.1149 m 2.39961,12.1149 -2.39961,-12.1149 m 0,0 -1.92068,-12.1315 m 1.92068,12.1315 -1.92068,-12.1315 m 0,0 -1.4401,-12.2316 m 1.4401,12.2316 -1.4401,-12.2316 m 0,0 -0.83936,-12.2484 m 0.83936,12.2484 -0.83936,-12.2484 m 0,0 -0.48059,-12.3484 m 0.48059,12.3484 -0.48059,-12.3484 m 0,0 0,-12.2483 m 0,12.2483 0,-12.2483 m 41.4007,149.3996 -5.39995,-7.1922 m 5.39995,7.1922 -5.39995,-7.1922 m 0,0 -5.04117,-7.4424 m 5.04117,7.4424 -5.04117,-7.4424 m 0,0 -4.55892,-7.7929 m 4.55892,7.7929 -4.55892,-7.7929 m 0,0 -4.20014,-7.9264 m 4.20014,7.9264 -4.20014,-7.9264 m 0,0 -3.71956,-8.16 m 3.71956,8.16 -3.71956,-8.16 m 0,0 -3.36078,-8.3936 m 3.36078,8.3936 -3.36078,-8.3936 m 0,0 -2.88019,-8.5271 m 2.88019,8.5271 -2.88019,-8.5271 m 0,0 -2.39961,-8.7607 m 2.39961,8.7607 -2.39961,-8.7607 m 122.27974,42.3685 0,4.6724 m 0,-4.6724 0,4.6724 m 0,0 -0.60074,4.6724 m 0.60074,-4.6724 -0.60074,4.6724 m 0,0 -0.95951,4.5723 m 0.95951,-4.5723 -0.95951,4.5723 m 0,0 -1.56024,4.3219 m 1.56024,-4.3219 -1.56024,4.3219 m 0,0 -1.91902,4.3053 m 1.91902,-4.3053 -1.91902,4.3053 m 0,0 -2.3996,3.9715 m 2.3996,-3.9715 -2.3996,3.9715 m 0,0 -2.76005,3.8381 m 2.76005,-3.8381 -2.76005,3.8381 m 0,0 -3.24064,3.3541 m 3.24064,-3.3541 -3.24064,3.3541 m 0,0 -3.48092,3.1205 m 3.48092,-3.1205 -3.48092,3.1205 m 0,0 -3.71956,2.77 m 3.71956,-2.77 -3.71956,2.77 m 0,0 -4.07999,2.2695 m 4.07999,-2.2695 -4.07999,2.2695 m 0,0 -4.3203,1.8022 m 4.3203,-1.8022 -4.3203,1.8022 m 0,0 -4.43876,1.4351 m 4.43876,-1.4351 -4.43876,1.4351 m 0,0 -4.56059,0.9678 m 4.56059,-0.9678 -4.56059,0.9678 m 0,0 -4.68073,0.4839 m 4.68073,-0.4839 -4.68073,0.4839 m 0,0 -5.51842,-0.4839 m 5.51842,0.4839 -5.51842,-0.4839 m 0,0 -5.52177,-0.9678 m 5.52177,0.9678 -5.52177,-0.9678 m 0,0 -5.39994,-1.4351 m 5.39994,1.4351 -5.39994,-1.4351 m 0,0 -5.2798,-1.919 m 5.2798,1.919 -5.2798,-1.919 m 0,0 -5.0395,-2.2862 m 5.0395,2.2862 -5.0395,-2.2862 m 0,0 -4.79921,-2.7533 m 4.79921,2.7533 -4.79921,-2.7533 m 0,0 -4.56059,-3.1205 m 4.56059,3.1205 -4.56059,-3.1205 m 0,0 -4.32029,-3.6044 m 4.32029,3.6044 -4.32029,-3.6044 m 0,0 -3.95985,-3.9549 m 3.95985,3.9549 -3.95985,-3.9549 m 0,0 -3.5994,-4.2051 m 3.5994,4.2051 -3.5994,-4.2051 m 90.71942,-21.8268 0.36044,-15.4856 m -0.36044,15.4856 0.36044,-15.4856 m 0,0 0.83936,-15.3688 m -0.83936,15.3688 0.83936,-15.3688 m 0,0 1.1998,-15.3521 m -1.1998,15.3521 1.1998,-15.3521 m 0,0 1.56024,-15.3689 m -1.56024,15.3689 1.56024,-15.3689 m 338.75977,-202.6648 0.1202,-3.254 m -0.1202,3.254 0.1202,-3.254 m 0,0 0.6007,-3.2373 m -0.6007,3.2373 0.6007,-3.2373 m 0,0 0.9595,-3.1205 m -0.9595,3.1205 0.9595,-3.1205 m 0,0 1.5603,-2.8701 m -1.5603,2.8701 1.5603,-2.8701 m -210.0005,96.6016 5.03951,0.7175 m -5.03951,-0.7175 5.03951,0.7175 m 0,0 4.92102,1.068 m -4.92102,-1.068 4.92102,1.068 m 0,0 4.79921,1.4518 m -4.79921,-1.4518 4.79921,1.4518 m 0,0 4.68073,1.919 m -4.68073,-1.919 4.68073,1.919 m 0,0 4.55892,2.2694 m -4.55892,-2.2694 4.55892,2.2694 m 0,0 4.32029,2.6533 m -4.32029,-2.6533 4.32029,2.6533 m 0,0 4.07999,3.1205 m -4.07999,-3.1205 4.07999,3.1205 m 0,0 3.72123,3.3541 m -3.72123,-3.3541 3.72123,3.3541 m 0,0 3.47926,3.6044 m -3.47926,-3.6044 3.47926,3.6044 m 0,0 3.24063,3.9548 m -3.24063,-3.9548 3.24063,3.9548 m 0,0 2.76005,4.2052 m -2.76005,-4.2052 2.76005,4.2052 m 0,0 2.51975,4.4388 m -2.51975,-4.4388 2.51975,4.4388 m 0,0 2.03916,4.5555 m -2.03916,-4.5555 2.03916,4.5555 m 0,0 1.6804,4.8059 m -1.6804,-4.8059 1.6804,4.8059" /></g></g></svg>