<?xml version="1.0" encoding="UTF-8" standalone="no"?>
<!-- Created with Inkscape (http://www.inkscape.org/) -->

<svg
   xmlns:dc="http://purl.org/dc/elements/1.1/"
   xmlns:cc="http://creativecommons.org/ns#"
   xmlns:rdf="http://www.w3.org/1999/02/22-rdf-syntax-ns#"
   xmlns:svg="http://www.w3.org/2000/svg"
   xmlns="http://www.w3.org/2000/svg"
   xmlns:sodipodi="http://sodipodi.sourceforge.net/DTD/sodipodi-0.dtd"
   xmlns:inkscape="http://www.inkscape.org/namespaces/inkscape"
   width="210mm"
   height="297mm"
   viewBox="0 0 744.09448819 1052.3622047"
   id="svg2"
   version="1.1"
   inkscape:version="0.91 r13725"
   sodipodi:docname="superstrat.svg">
  <defs
     id="defs4">
    <clipPath
       id="clipPath4171"
       clipPathUnits="userSpaceOnUse">
      <path
         inkscape:connector-curvature="0"
         id="path4173"
         d="m 0,0 0,14670 11002,0 L 11002,0 0,0 Z" />
    </clipPath>
  </defs>
  <sodipodi:namedview
     id="base"
     pagecolor="#ffffff"
     bordercolor="#666666"
     borderopacity="1.0"
     inkscape:pageopacity="0.0"
     inkscape:pageshadow="2"
     inkscape:zoom="0.76264205"
     inkscape:cx="-71.18867"
     inkscape:cy="461.58823"
     inkscape:document-units="px"
     inkscape:current-layer="layer1"
     showgrid="false"
     inkscape:window-width="2048"
     inkscape:window-height="1100"
     inkscape:window-x="0"
     inkscape:window-y="24"
     inkscape:window-maximized="1" />
  <metadata
     id="metadata7">
    <rdf:RDF>
      <cc:Work
         rdf:about="">
        <dc:format>image/svg+xml</dc:format>
        <dc:type
           rdf:resource="http://purl.org/dc/dcmitype/StillImage" />
        <dc:title />
      </cc:Work>
    </rdf:RDF>
  </metadata>
  <g
     inkscape:label="superstrat"
     inkscape:groupmode="layer"
     id="layer1">
    <g
       id="g13555"
       transform="matrix(0,-0.60036265,0.60036265,0,49.785849,-188.39367)"
       style="stroke-width:8.32829952;stroke-miterlimit:4;stroke-dasharray:none">
      <g
         id="g11719"
         style="stroke-width:28.28149605;stroke-miterlimit:4;stroke-dasharray:none"
         transform="matrix(0,-0.29447875,-0.29447875,0,1976.5168,1665.1697)">
        <path
           d="m 4257.36,8723.55 33.61,55.02 32.09,43.29 30.06,32.6 28.01,23.43 26.49,16.81 24.96,11.21 23.43,7.64 21.9,5.09 20.89,4.59 19.86,4.07 19.36,3.06 17.83,3.06 17.83,2.03 16.8,1.02 16.81,0 16.3,-0.51 16.3,-2.03 16.31,-2.55 15.78,-3.57 15.8,-4.58 14.77,-4.59 14.26,-4.58 13.75,-5.09 12.23,-5.61 12.22,-4.58 10.7,-5.09 10.7,-5.1 10.18,-5.6 10.7,-6.11 10.7,-6.63 11.71,-7.64 12.23,-8.66 13.24,-9.16 14.26,-10.7 14.78,-11.21 14.77,-12.22 15.28,-13.25 14.77,-13.24 13.76,-13.75 13.24,-14.26 12.22,-14.27 11.21,-14.77 10.7,-14.77 9.68,-15.28 9.16,-15.79 8.66,-16.3 8.15,-16.81 8.66,-17.32 8.15,-17.83 8.15,-18.34 8.15,-19.35 8.15,-20.38 7.13,-20.88 7.14,-21.91 6.62,-22.92 5.6,-23.94 5.09,-24.96 4.59,-25.98 3.56,-25.97 3.57,-26.49 2.55,-25.47 3.05,-25.47 2.04,-24.45 2.55,-22.92 2.55,-21.39 2.03,-19.87 2.55,-18.85 2.04,-17.32 2.54,-15.78 2.04,-15.29 2.55,-14.26 2.03,-13.24 2.55,-12.23 2.04,-12.22 2.55,-11.21 3.05,-10.7 3.06,-10.69 3.06,-9.68 4.07,-9.17 4.59,-9.17 5.09,-8.66 5.6,-8.15 6.11,-7.64 6.63,-7.13 6.62,-6.62 6.62,-6.12 6.62,-5.09 6.11,-4.07 6.12,-3.06 5.6,-2.55 5.6,-1.52 5.6,-1.02 6.12,-0.51 11.71,0 6.63,0.51 6.62,0.5 7.13,0.52 8.15,0.5 8.15,1.53 8.66,1.53 9.17,2.55 10.18,2.54 10.19,4.08 11.21,4.58 11.2,5.1 11.72,6.11 12.23,7.13 11.71,7.64 11.72,8.66 11.2,8.66 10.7,9.68 10.19,10.69 9.68,10.7 9.16,11.21 8.66,11.72 8.15,12.22 8.15,12.73 8.15,12.74 7.64,12.73 8.15,13.25 7.64,13.75 7.64,13.75 8.16,14.26 7.12,14.78 7.64,15.28 7.14,16.3 7.13,16.3 7.13,17.32 6.11,18.34 6.12,18.84 5.6,19.36 5.09,20.37 4.59,21.39 3.56,21.4 3.06,22.41 2.04,23.43 1.01,23.44 0.51,23.93 -0.51,24.46 -0.5,23.93 -1.53,23.95 -2.04,23.43 -2.04,23.43 -3.05,22.41 -3.06,21.91 -3.06,21.39 -3.56,20.88 -4.08,20.89 -4.07,20.37 -4.59,20.89 -4.58,20.88 -5.09,20.89 -5.1,20.88 -5.6,21.39 -5.61,20.89 -5.6,21.39 -6.11,21.9 -6.11,21.4 -6.62,21.39 -6.63,21.4 -6.62,20.88 -6.62,20.38 -7.13,20.37 -6.62,19.36 -6.12,18.34 -6.11,17.31 -5.6,15.8 -5.61,14.26 -4.58,13.75 -5.09,12.74 -4.59,12.73 -5.09,12.73 -5.6,13.25 -6.12,14.77 -6.62,16.3 -7.13,17.82 -8.15,19.87 -9.17,20.88 -9.17,21.91 -9.17,22.92 -9.68,22.92 -9.67,23.43 -9.17,22.93 -9.17,21.9 -9.17,21.9 -8.66,20.89 -8.15,19.86 -7.64,18.85 -7.13,18.34 -6.62,16.3 -6.12,15.79 -5.6,14.26 -5.09,12.73 -5.09,12.74 -4.59,11.71 -4.07,12.23 -4.59,12.73 -5.09,12.74 -5.09,14.26 -5.1,15.28 -6.11,16.81 -6.11,17.32 -6.12,18.34 -6.62,18.84 -6.11,19.36 -6.62,18.85 -6.12,19.35 -6.11,18.85 -6.11,18.34 -5.6,18.34 -5.61,18.33 -5.09,17.83 -5.61,17.83 -4.58,17.83 -5.09,17.82 -4.59,17.32 -5.09,17.83 -4.08,18.34 -4.58,18.32 -4.08,18.4 -4.07,19.3 -4.07,19.4 -3.57,20.3 -3.57,20.9 -3.56,21.9 -3.06,22.4 -2.54,23 -2.55,22.9 -2.55,23.9 -1.53,24.5 -1.52,24.4 -1.02,24.5 -0.51,24.9 -0.51,25 0,25.5 0.51,25.4 1.02,25.5 1.01,25.5 1.53,25.4 2.04,25.5 2.04,26 2.54,25.5 2.55,25.9 3.57,26 3.56,26.5 4.08,27 4.58,27.5 4.58,27.5 5.61,28 5.09,27.5 5.61,27 6.11,26.5 5.6,24.5 5.09,23.4"
           style="fill:none;stroke:#000000;stroke-width:28.28149605;stroke-linecap:round;stroke-linejoin:round;stroke-miterlimit:4;stroke-dasharray:none;stroke-opacity:1"
           id="path4479"
           inkscape:connector-curvature="0" />
        <path
           d="m 5152.32,10866.5 5.61,21.4 4.58,19.3 4.59,16.9 4.58,15.7 4.08,14.3 4.07,13.3 4.59,12.7 4.07,12.7 4.58,12.8 5.1,12.7 5.09,13.7 5.61,13.8 5.6,14.3 5.6,14.7 6.63,14.8 6.11,14.8 6.62,15.3 7.13,15.7 6.62,15.3 7.64,15.8 7.13,16.3 7.64,16.3 8.16,16.3 8.14,16.8 8.15,17.3 8.66,17.4 8.66,17.3 8.66,17.8 8.66,17.3 8.66,17.9 9.17,17.8 8.66,17.3 8.66,16.8 8.66,16.8 8.15,16.8 8.15,16.3 8.66,15.8 8.15,15.8 8.15,16.3 7.64,15.8 8.15,15.8 8.66,15.8 8.15,15.8 8.15,16.3 8.15,16.3 8.66,16.3 8.15,16.3 8.66,16.3 8.66,16.3 8.65,16.8 8.16,16.8 8.66,16.3 8.65,16.8 8.15,16.3 8.66,16.3 8.15,15.8 8.15,15.8 7.64,15.8 7.64,15.3 7.64,14.7 7.64,15.3 7.64,15.3 7.14,15.3 7.64,15.8 7.64,15.8 7.64,16.3 7.13,16.3 8.15,17.3 7.64,17.3 7.64,17.8 7.64,18.4 7.14,18.8 7.64,18.9 7.64,19.8 7.13,19.4 7.13,20.4 7.13,20.3 6.62,20.4 6.62,20.9 6.12,20.9 6.11,20.3 6.11,20.9 5.6,20.9 5.1,20.9 5.09,19.9 4.58,19.8 4.59,19.4 3.57,18.8 4.07,18.4 3.06,17.3 3.05,16.3 2.55,16.8 2.04,16.3 2.04,16.3 1.52,17.3 1.53,17.8 1.02,18.9 1.02,19.9 0.51,20.8 0,21.4 0.51,21.9 -0.51,21.4 -0.51,20.9 -0.51,19.9 -1.02,18.3 -1.02,16.8 -2.04,15.8 -2.03,14.3 -2.55,14.2 -3.06,13.8 -3.56,13.8 -4.08,14.2 -5.09,15.3 -6.12,16.3 -6.1,16.8 -7.14,17.8 -7.64,18.4 -7.64,17.8 -7.64,17.8 -7.64,16.8 -7.64,16.3 -7.13,14.8 -7.13,13.8 -7.13,13.2 -7.13,12.2 -7.14,11.7 -7.13,11.3 -7.64,11.7 -7.64,11.2 -8.66,11.7 -8.66,11.7 -9.17,11.7 -9.17,11.7 -9.16,11.8 -9.17,11.2 -9.17,10.7 -8.66,10.6 -8.66,9.7 -8.15,8.7 -7.64,8.6 -7.13,7.7 -7.13,7.6 -6.63,6.7 -6.11,6.1 -5.6,5.6 -5.6,5.1 -4.59,4.5 -5.09,4.6 -4.59,4.1 -5.09,4.6 -5.09,4.6 -6.12,5.1 -6.11,5.1 -7.13,6.1 -7.64,6.1 -8.15,7.1 -9.17,7.1 -9.17,7.7 -9.68,7.6 -10.18,7.7 -10.7,7.6 -10.19,7.6 -10.7,7.7 -11.2,7.6 -11.21,7.7 -11.2,7.6 -11.72,7.7 -12.22,7.6 -12.23,7.6 -13.24,7.2 -13.25,7.6 -13.75,7.6 -14.26,7.7 -14.77,7.6 -15.29,8.2 -16.3,7.6 -16.81,8.2 -17.82,8.6 -18.34,8.2 -19.36,8.6 -19.86,8.7 -20.89,9.2 -21.9,8.6 -21.9,8.7 -23.43,8.6 -23.44,9.2 -24.45,8.7 -24.96,8.1 -24.95,8.7 -24.96,7.6 -25.47,8.2 -24.96,7.1 -24.45,7.1 -24.45,6.7 -23.94,6.1 -23.43,5.6 -22.93,5.6 -22.41,5.1 -21.9,4.6 -21.9,4 -20.89,4.1 -21.39,3.6 -20.38,3 -20.88,3.1 -20.38,2.5 -20.88,3.1 -21.4,2 -21.9,2.6 -21.9,2 -22.92,2 -23.44,2.1 -23.93,1.5 -23.95,2 -23.94,1.6 -23.43,1.5 -23.43,1.5 -22.41,1.6 -21.91,1 -20.88,1.5 -19.87,1 -19.86,1 -18.85,1.1 -18.84,1 -17.83,1 -17.83,1 -17.83,0.5 -17.83,1 -18.33,0.6 -18.85,1 -20.38,0.5 -21.9,0.5 -23.94,1 -25.98,0.5 -29.03,0.5 -30.56,0 -32.61,0.5 -33.1,0.5 -33.62,0 -33.11,0.6 -32.6,0 -30.57,0.5 -128.36,0 -21.39,-0.5 -40.75,0 -19.36,-0.6 -18.84,0 -18.85,-0.5 -18.34,0 -18.34,-0.5 -17.82,-0.5"
           style="fill:none;stroke:#000000;stroke-width:28.28149605;stroke-linecap:round;stroke-linejoin:round;stroke-miterlimit:4;stroke-dasharray:none;stroke-opacity:1"
           id="path4481"
           inkscape:connector-curvature="0" />
        <path
           d="m 3432.68,13617.1 -18.34,-0.5 -17.83,-0.5 -18.34,-0.5 -18.33,-1 -18.85,-1 -18.85,-0.6 -18.85,-1.5 -19.35,-1 -19.87,-1.5 -19.86,-1 -20.38,-2.1 -20.37,-1.5 -20.89,-2.1 -21.39,-2 -20.89,-2 -21.39,-2.1 -21.39,-2.5 -20.89,-2 -21.39,-2.6 -21.39,-3.1 -21.4,-3 -21.9,-3.1 -22.92,-4 -23.94,-4.1 -24.97,-5.1 -26.48,-5.6 -28.02,-6.1 -29.03,-7.2 -30.05,-7.6 -30.57,-7.6 -30.05,-8.7 -30.05,-8.7 -29.55,-9.1 -28.01,-9.2 -26.49,-9.2 -24.96,-9.6 -23.94,-9.7 -22.41,-9.7 -21.4,-9.7 -20.88,-10.2 -19.87,-10.1 -19.35,-10.2 -18.85,-10.2 -18.85,-10.7 -18.33,-11.2 -17.83,-11.2 -18.34,-11.7 -17.83,-12.3 -17.82,-12.7 -18.34,-13.8 -18.34,-13.7 -18.34,-14.8 -18.34,-15.3 -17.82,-15.2 -17.83,-15.8 -17.32,-15.3 -16.3,-15.8 -16.3,-15.8 -14.77,-15.3 -14.77,-14.8 -13.76,-15.2 -13.24,-15.8 -12.74,-15.8 -12.73,-16.3 -12.22,-16.8 -12.23,-17.9 -12.22,-18.8 -11.72,-19.4 -11.72,-20.3 -11.71,-19.9 -11.21,-20.4 -10.69,-19.8 -9.68,-19.4 -9.17,-18.3 -8.15,-17.9 -7.64,-17.3 -7.13,-16.3 -6.12,-16.3 -6.11,-16.3 -5.6,-16.8 -5.1,-17.8 -5.6,-18.4 -5.09,-19.3 -5.61,-20.4 -5.09,-21.4 -5.09,-22.4 -5.1,-22.9 -5.09,-24 -4.58,-23.9 -4.59,-24.4 -4.07,-24.5 -3.57,-25 -3.57,-24.9 -3.56,-25 -2.55,-24.9 -2.55,-25 -2.54,-24.9 -2.04,-25 -1.53,-24.5 -1.02,-24.4 -0.51,-24 -0.5,-24.4 0,-24.5 0.5,-24.4 1.02,-25 1.02,-25.4 2.04,-25.5 2.04,-26.5 2.54,-26 3.06,-25.9 3.06,-26 3.56,-25.5 3.57,-24.9 3.56,-24 3.57,-23.4 4.07,-21.9 3.57,-21.4 4.07,-20.9 3.57,-19.9 4.07,-19.8 4.08,-18.9 4.08,-18.8 4.58,-18.9 4.58,-17.8 4.08,-18.3 4.58,-17.4 4.59,-17.3 4.58,-16.3 4.59,-16.3 4.58,-15.8 4.59,-14.7 4.58,-15.3 5.09,-14.8 5.1,-15.3 5.6,-15.8 6.62,-17.3 7.13,-18.3 8.15,-19.9 9.17,-22.4 10.19,-23.4 10.7,-24.5 11.2,-24.9 11.21,-25.5 11.21,-25 10.69,-23.9 10.7,-22.4 9.68,-20.9 9.68,-19.9 8.66,-17.8 8.66,-17.8 8.14,-16.8 8.66,-16.8 8.66,-16.9 8.66,-17.8 9.68,-17.8 9.68,-19.4 9.68,-18.8 9.68,-19.4 10.18,-19.3 9.17,-18.4 9.17,-17.8 8.66,-16.8 8.15,-15.8 7.64,-14.8 7.13,-13.7 6.62,-13.8 6.62,-13.2 6.63,-13.8 6.62,-14.2 7.13,-14.8 7.64,-15.8 7.64,-17.3 8.15,-17.8 8.66,-19.4 8.15,-19.9 9.17,-21.9 8.66,-22.4 8.66,-23.4 9.17,-25 8.66,-25.4 8.66,-26 8.15,-26 7.64,-25.5 7.13,-24.4 6.11,-22.9 5.6,-21.4 5.1,-19.4 3.56,-17.8 3.57,-16.3 2.54,-14.8 2.04,-14.2 1.53,-13.8 1.02,-13.8 1.02,-14.2 1.02,-14.3 0.51,-15.3 0,-15.2 0.5,-15.8 0,-16.3 -0.5,-16.3 -0.51,-16.3 -1.02,-16.3 -1.53,-16.3 -1.53,-15.8 -1.53,-15.8 -2.03,-15.3 -2.55,-15.3 -2.04,-15.3 -3.05,-14.2 -2.55,-14.3 -3.06,-13.7 -3.57,-13.3 -3.56,-13.7 -3.56,-13.3 -4.08,-13.7 -4.58,-14.3 -4.59,-14.8 -5.09,-15.8 -5.61,-16.8 -6.11,-17.3 -6.11,-18.3 -6.62,-18.4 -6.62,-18.3 -6.63,-18.8 -6.62,-17.9 -6.11,-17.8 -6.11,-17.32 -6.12,-16.29 -5.6,-15.8 -5.6,-15.78 -5.6,-15.8 -5.61,-15.79 -5.6,-16.3 -6.12,-16.3 -5.6,-16.81 -6.11,-17.82 -6.11,-17.32 -5.6,-17.83 -6.12,-17.83 -5.6,-17.83 -5.61,-16.81 -5.09,-16.81 -4.58,-16.3 -4.59,-15.79 -4.07,-15.28 -4.08,-15.28 -4.07,-15.79 -3.57,-16.3 -3.56,-16.81 -3.57,-17.32 -3.05,-18.85 -3.57,-19.86 -3.05,-19.87 -3.57,-20.88 -2.55,-20.89"
           style="fill:none;stroke:#000000;stroke-width:28.28149605;stroke-linecap:round;stroke-linejoin:round;stroke-miterlimit:4;stroke-dasharray:none;stroke-opacity:1"
           id="path4483"
           inkscape:connector-curvature="0" />
        <path
           d="m 2213.74,9489.14 -2.54,-20.88 -2.55,-20.37 -2.04,-19.87 -1.53,-19.36 -1.53,-18.84 -1.01,-17.83 -0.51,-17.83 -0.51,-17.32 0,-34.64 0.51,-17.31 0.51,-17.32 1.01,-16.81 1.02,-17.32 1.02,-16.81 1.53,-16.81 1.02,-15.79 1.53,-15.28 1.53,-14.77 1.52,-14.27 1.53,-13.24 2.04,-12.74 2.03,-12.22 2.04,-12.73 2.55,-12.23 3.57,-13.24 3.56,-13.25 4.59,-13.75 5.09,-14.26 5.6,-14.77 5.61,-14.78 6.62,-14.77 6.62,-14.77 7.13,-14.26 7.13,-14.26 7.13,-12.74 7.64,-12.73 7.64,-11.72 7.64,-11.71 8.16,-10.7 7.64,-10.19 8.15,-9.68 8.66,-9.17 8.14,-8.66 8.66,-8.66 8.66,-8.14 8.66,-7.64 9.17,-7.14 9.68,-6.62 9.17,-6.62 10.19,-6.62 9.67,-5.61 10.19,-5.6 10.7,-5.09 10.7,-4.59 10.18,-4.07 10.7,-3.06 10.19,-2.54 10.7,-2.04 9.67,-0.51 10.19,0 9.68,0.51 9.17,1.53 9.16,2.54 8.66,3.06 8.66,4.07 8.66,4.59 8.15,5.09 7.64,5.61 7.64,6.62 6.63,7.64 6.62,8.15 6.11,9.17 5.61,10.19 4.58,11.2 4.58,12.23 3.57,13.24 3.05,13.75 2.55,14.77 2.04,14.78 2.04,15.79 2.03,16.3 2.04,15.79 1.53,16.3 2.04,16.81 1.53,16.81 2.03,16.81 2.55,17.83 2.55,17.82 2.54,18.34 3.06,18.85 3.56,19.86 3.57,19.87 4.59,20.37 5.09,19.87 5.6,20.38 6.12,19.35 7.13,18.85 7.64,18.33 9.17,16.81 9.67,16.3 10.19,15.28 10.19,14.27 11.2,13.24 11.21,12.74 10.7,11.71 11.2,11.21 10.7,10.19 10.19,10.18 9.68,9.17 9.68,8.66 9.67,8.15 8.66,7.64 9.17,7.13 8.15,6.62 8.66,6.12 7.64,5.6 8.15,5.6 7.64,5.1 7.64,4.58 7.64,4.59 7.64,4.07 7.64,4.08 7.65,4.07 8.14,4.07 7.64,3.57 8.66,4.07 8.16,3.57 8.65,3.57 8.66,3.05 9.17,3.57 9.68,3.06 9.68,3.05 9.68,3.06 9.68,2.54 9.67,2.55 10.19,2.55 9.68,2.04 9.68,2.04 9.67,1.52 9.17,1.53 9.68,1.02 10.19,1.02 21.39,0 11.72,-0.51 12.23,-1.02 13.75,-1.53 14.77,-2.03 14.77,-2.55 14.77,-2.55 14.26,-2.55 13.76,-3.05 13.24,-2.55 11.21,-2.55 10.18,-2.54 8.66,-2.55 7.14,-2.55 7.13,-3.05 6.62,-3.06 6.11,-3.06 7.13,-4.07 7.14,-4.59 8.14,-5.6 9.17,-6.11 9.68,-6.11 9.68,-7.13 10.19,-7.14 10.18,-7.64 9.68,-7.64 9.68,-7.64 8.66,-7.64 8.15,-7.13 8.15,-7.13 7.13,-7.64 7.13,-7.13 6.11,-7.13 6.12,-7.14 6.11,-7.13 5.09,-7.13 5.61,-7.13 4.58,-7.13 4.58,-7.64 4.59,-7.13 4.07,-7.64 4.08,-7.64 3.57,-7.64 3.56,-7.65 3.57,-8.14 3.05,-8.66 3.57,-10.19 3.57,-11.21 4.07,-13.24 4.07,-15.28 5.1,-17.83 5.09,-20.89 5.61,-26.99 6.11,-35.15 5.6,-46.35 5.1,-60.62 4.58,-77.93 3.56,-97.8 2.55,-120.22"
           style="fill:none;stroke:#000000;stroke-width:28.28149605;stroke-linecap:round;stroke-linejoin:round;stroke-miterlimit:4;stroke-dasharray:none;stroke-opacity:1"
           id="path4485"
           inkscape:connector-curvature="0" />
      </g>
      <path
         inkscape:connector-curvature="0"
         id="path13545"
         d="m -592.86935,414.05374 0,200.0294"
         style="fill:none;stroke:#000000;stroke-width:8.32829952;stroke-linecap:round;stroke-linejoin:round;stroke-miterlimit:4;stroke-dasharray:none;stroke-opacity:1" />
    </g>
  </g>
</svg>
