<?xml version="1.0" encoding="UTF-8" standalone="no"?>
<!-- Created with Inkscape (http://www.inkscape.org/) -->

<svg
   xmlns:dc="http://purl.org/dc/elements/1.1/"
   xmlns:cc="http://creativecommons.org/ns#"
   xmlns:rdf="http://www.w3.org/1999/02/22-rdf-syntax-ns#"
   xmlns:svg="http://www.w3.org/2000/svg"
   xmlns="http://www.w3.org/2000/svg"
   xmlns:sodipodi="http://sodipodi.sourceforge.net/DTD/sodipodi-0.dtd"
   xmlns:inkscape="http://www.inkscape.org/namespaces/inkscape"
   width="210mm"
   height="297mm"
   viewBox="0 0 744.09448819 1052.3622047"
   id="svg6396"
   version="1.1"
   inkscape:version="0.91 r13725"
   sodipodi:docname="thinline.svg"
   inkscape:export-filename="/home/cho2/Gambar/shape/thinline.png"
   inkscape:export-xdpi="90"
   inkscape:export-ydpi="90">
  <defs
     id="defs6398" />
  <sodipodi:namedview
     id="base"
     pagecolor="#ffffff"
     bordercolor="#666666"
     borderopacity="1.0"
     inkscape:pageopacity="0.0"
     inkscape:pageshadow="2"
     inkscape:zoom="0.49497475"
     inkscape:cx="438.47391"
     inkscape:cy="414.43359"
     inkscape:document-units="px"
     inkscape:current-layer="layer1"
     showgrid="false"
     inkscape:window-width="2048"
     inkscape:window-height="1100"
     inkscape:window-x="0"
     inkscape:window-y="24"
     inkscape:window-maximized="1" />
  <metadata
     id="metadata6401">
    <rdf:RDF>
      <cc:Work
         rdf:about="">
        <dc:format>image/svg+xml</dc:format>
        <dc:type
           rdf:resource="http://purl.org/dc/dcmitype/StillImage" />
        <dc:title></dc:title>
      </cc:Work>
    </rdf:RDF>
  </metadata>
  <g
     inkscape:label="thinline"
     inkscape:groupmode="layer"
     id="layer1">
    <g
       id="g6433"
       transform="matrix(1.25,0,0,-1.25,-5823.456,19833.588)" />
    <g
       id="g7244">
      <path
         inkscape:connector-curvature="0"
         id="path6585"
         style="fill:none;stroke:#000000;stroke-width:5;stroke-linecap:butt;stroke-linejoin:miter;stroke-miterlimit:3.86360002;stroke-dasharray:none;stroke-opacity:1"
         d="m 116.325,761.40925 c 9.01125,-25.36375 18.58562,-50.52375 28.7135,-75.4625 10.81925,-26.6025 26.35175,-51.0275 45.85825,-72.105 -0.54188,-7.0325 -0.81362,-14.08375 -0.81362,-21.1375 0,-14.17375 1.09475,-28.33 3.2755,-42.3375 3.13837,-18.60375 8.02075,-36.87375 14.5725,-54.56875 0.41575,-1.16875 1.05862,-2.24875 1.88712,-3.1725 0.2145,-0.245 0.523,-0.385 0.84725,-0.385 0.61863,0 1.12288,0.49875 1.13225,1.1125 0,0.0375 0,0.0625 0,0.1 0,0.60875 -0.07,1.2175 -0.20825,1.81 -0.54425,2.31875 -0.81675,4.69625 -0.81675,7.07875 0,1.58125 0.12,3.16 0.361,4.7225 0.62088,4.0925 4.13913,7.11875 8.28063,7.11875 2.563,0 4.98262,-1.175 6.56975,-3.1875 5.7695,-7.28375 8.90487,-16.30375 8.90487,-25.59375 0,-7.34375 -1.96075,-14.55375 -5.68025,-20.885 -1.91762,-3.27 -5.34662,-5.3625 -9.13425,-5.57125 -0.36012,-0.0125 -0.72187,-0.025 -1.08212,-0.025 -6.61988,0 -12.79263,3.32875 -16.42913,8.85625 -2.98262,4.53 -5.35287,9.43 -7.05675,14.575 -5.82425,17.58875 -11.95087,35.07625 -18.3835,52.4525 -9.46475,25.6125 -22.7945,49.62375 -39.52662,71.20375 0.0913,2.57875 0.141,5.155 0.141,7.7325 0,17.045 -2.0375,34.02375 -6.06938,50.58125 -7.31987,30.0875 -16.79012,59.6075 -28.33687,88.33625 -0.1715,0.42875 -0.58725,0.71 -1.04613,0.71 -0.62412,0 -1.12837,-0.505 -1.12837,-1.12875 0,-0.0125 0,-0.025 0,-0.0375 0.0237,-1.04875 0.0387,-2.10125 0.0387,-3.15 0,-4.24 -0.2075,-8.48 -0.61775,-12.70125 -0.35163,-3.62375 -3.398505,-6.38625 -7.04113,-6.38625 -1.30925,0 -2.59425,0.36125 -3.70775,1.04875 -4.8205,2.9675 -8.344125,7.64375 -9.873375,13.095 -1.52625,5.46 -2.300625,11.10375 -2.300625,16.77125 0,3.67375 0.324125,7.34125 0.9725,10.96 1.3155,7.2375 7.619875,12.49625 14.9765,12.49625 3.141625,0 6.209625,-0.97375 8.77563,-2.78375 3.93087,-2.76875 7.204,-6.3725 9.57112,-10.56 1.73138,-3.05875 3.19325,-6.26375 4.37413,-9.57625 z" />
      <path
         inkscape:connector-curvature="0"
         id="path6591"
         style="fill:none;stroke:#000000;stroke-width:5;stroke-linecap:round;stroke-linejoin:round;stroke-miterlimit:4;stroke-dasharray:none;stroke-opacity:1"
         d="m 432.04563,145.11425 1.36012,97.865 c 0.055,4.13375 1.25125,8.17 3.44775,11.6725 3.82275,6.09375 7.21813,12.44625 10.16075,19.01 3.26375,6.115 8.27125,11.1225 14.38538,14.3825 7.76937,3.845 16.32487,5.845 24.99312,5.845 4.1055,0 8.19775,-0.44875 12.20775,-1.33875 11.91088,-2.83 23.06613,-8.21625 32.69525,-15.78 15.80188,-14.33625 28.14025,-32.075 36.0905,-51.87375 3.50488,-9.29 6.7045,-18.69 9.58913,-28.19 1.32412,-4.90625 2.72812,-9.79125 4.2175,-14.64875 2.429,-8.255 6.34737,-15.9975 11.56562,-22.84 7.57363,-11.01125 20.08038,-17.58375 33.44462,-17.58375 4.64575,0 9.25563,0.795 13.63276,2.355 6.11487,2.245 11.4795,6.1475 15.49337,11.2775 9.46313,10.965 16.5685,23.76625 20.86663,37.60125 4.45625,16.64875 6.71687,33.81125 6.71687,51.0475 0,9.86125 -0.74,19.7075 -2.21125,29.45875 -2.49637,14.11 -5.88225,28.05 -10.146,41.72875 -4.44763,14.4425 -9.61725,28.65125 -15.49325,42.575 -4.869,11.1675 -9.47875,22.445 -13.82775,33.82625 -10.53512,21.88875 -16.00387,45.8725 -16.00387,70.165 0,2.82625 0.07,5.6525 0.22312,8.47625 2.36475,23.225 8.55862,45.9 18.33425,67.1 5.32863,12.95375 11.05738,25.73625 17.17837,38.33625 19.82363,37.39625 36.60738,76.33125 50.18776,116.41875 7.91024,22.19125 13.48325,45.1475 16.62474,68.49875 2.40713,15.62375 3.61851,31.41 3.61851,47.22125 0,3.89625 -0.07,7.79375 -0.22313,11.6875 -3.35625,75.00125 -46.23025,142.59625 -112.64575,177.595 -17.227,7.9012 -35.20887,14.0425 -53.66913,18.3337 -31.97637,5.745 -64.27387,9.5138 -96.7115,11.2788 -32.12362,1.0975 -64.259,1.6487 -96.40062,1.6487 -32.14175,0 -64.27713,-0.5512 -96.40075,-1.6487 -32.43763,-1.765 -64.73513,-5.5338 -96.7115,-11.2788 -18.46025,-4.2912 -36.44213,-10.4325 -53.66913,-18.3337 C 58.550375,962.00425 15.676375,894.40925 12.32025,819.408 12.170625,815.51425 12.097,811.61675 12.097,807.7205 c 0,-15.81125 1.211375,-31.5975 3.61925,-47.22125 C 18.857,737.148 24.43,714.19175 32.34025,692.0005 45.920625,651.913 62.704375,612.978 82.52875,575.58175 c 6.12025,-12.6 11.849125,-25.3825 17.177625,-38.33625 9.775625,-21.2 15.969505,-43.875 18.334255,-67.1 0.15037,-2.82375 0.22325,-5.65 0.22325,-8.47625 0,-24.2925 -5.46888,-48.27625 -16.00313,-70.165 C 97.910875,380.123 93.301125,368.8455 88.432125,357.678 c -5.876,-13.92375 -11.045625,-28.1325 -15.4925,-42.575 -4.2645,-13.67875 -7.650375,-27.61875 -10.14675,-41.72875 -1.195625,-8.80625 -1.79475,-17.6825 -1.79475,-26.5675 0,-15.93625 1.926375,-31.81125 5.746875,-47.28 4.04675,-16.39125 11.971875,-31.56875 23.106,-44.26 4.151,-4.28 8.785,-8.06375 13.80438,-11.2775 16.57862,-10.15625 35.641,-15.53 55.0825,-15.53 3.73425,0 7.46312,0.19625 11.17637,0.59375 16.17538,1.36375 32.09625,4.8725 47.34363,10.43 20.39287,7.405 39.86175,17.14125 58.02212,29.0125 3.60037,2.355 7.8085,3.60625 12.10975,3.60625 10.54375,0 19.62475,-7.435 21.70213,-17.77125 0.747,-3.725 1.494,-7.44875 2.24187,-11.17375 0.9905,-4.925 5.316,-8.46625 10.3385,-8.46625 33.26763,0 66.53537,0 99.803,0 5.78125,0 10.48962,4.64375 10.57037,10.42375 z" />
    </g>
  </g>
</svg>
